<svg width="24" height="16" viewBox="0 0 24 16" fill="none" xmlns="http://www.w3.org/2000/svg">
<rect width="24" height="16" rx="2" fill="#F5F5F5"/>
<path d="M7.99935 6.66675C7.26602 6.66675 6.66602 7.26675 6.66602 8.00008C6.66602 8.73341 7.26602 9.33341 7.99935 9.33341C8.73268 9.33341 9.33268 8.73341 9.33268 8.00008C9.33268 7.26675 8.73268 6.66675 7.99935 6.66675ZM15.9993 6.66675C15.266 6.66675 14.666 7.26675 14.666 8.00008C14.666 8.73341 15.266 9.33341 15.9993 9.33341C16.7327 9.33341 17.3327 8.73341 17.3327 8.00008C17.3327 7.26675 16.7327 6.66675 15.9993 6.66675ZM11.9993 6.66675C11.266 6.66675 10.666 7.26675 10.666 8.00008C10.666 8.73341 11.266 9.33341 11.9993 9.33341C12.7327 9.33341 13.3327 8.73341 13.3327 8.00008C13.3327 7.26675 12.7327 6.66675 11.9993 6.66675Z" fill="black" fill-opacity="0.56"/>
</svg>
