<svg width="102" height="97" viewBox="0 0 102 97" fill="none" xmlns="http://www.w3.org/2000/svg">
<path d="M64.9175 43.0635L98.5205 43.0635V0.561546L64.9175 0.561546V43.0635Z" fill="#EBEBEB"/>
<path d="M82.3897 21.1707H96.9417V2.26531H82.3897V21.1707Z" fill="white"/>
<path d="M66.4922 21.1707H81.0441V2.26531H66.4922V21.1707Z" fill="white"/>
<path d="M82.3897 41.362H96.9417V22.4566H82.3897V41.362Z" fill="white"/>
<path d="M66.4922 41.362H81.0441V22.4566H66.4922V41.362Z" fill="white"/>
<path d="M76.143 0.563843H64.9148V61.3684H71.4129L66.8787 30.428L76.143 0.563843Z" fill="#F36464"/>
<path d="M74.1981 2.20709L72.4231 9.27401L70.6131 16.3342L66.9909 30.4547L66.9933 30.4145L68.6679 45.1713L69.5029 52.5486L70.3006 59.9303L69.3886 52.5597L68.5116 45.1869L66.7623 30.439L66.76 30.4212L66.7647 30.4011L70.4639 16.2985L72.3135 9.24945L74.1981 2.20709Z" fill="#EBEBEB"/>
<path d="M65.5849 3.45312L65.6409 9.55099L65.6735 15.6511L65.7015 27.8468L65.6735 40.0426L65.6409 46.1404L65.5849 52.2383L65.5266 46.1404L65.4939 40.0426L65.4683 27.8468L65.4939 15.6511L65.5266 9.55099L65.5849 3.45312Z" fill="#EBEBEB"/>
<path d="M67.6814 4.59637L67.3386 11.0783L66.9724 17.5602L66.205 30.5196V30.5106L66.5782 44.9504L66.7415 52.1714L66.8791 59.3923L66.6225 52.1736L66.3916 44.9548L65.9764 30.5151V30.5106V30.5062L66.7998 17.549L67.2313 11.0738L67.6814 4.59637Z" fill="#EBEBEB"/>
<path d="M69.144 58.4568L68.4046 51.4613L67.6886 44.4636C67.2338 39.797 66.7556 35.1326 66.3195 30.4637V30.4347L68.4046 19.5385L69.4636 14.0926L70.5388 8.65118L69.5592 14.1105L68.5632 19.5653L66.5387 30.4727V30.4436C67.0052 35.1103 67.4344 39.7791 67.8845 44.448L68.5259 51.4501L69.144 58.4568Z" fill="#EBEBEB"/>
<path d="M64.9177 31.3344H67.453V29.9165H64.9177V31.3344Z" fill="#F36464"/>
<path d="M87.264 0.563843H98.4923V61.3684H91.9942L96.5307 30.428L87.264 0.563843Z" fill="#F36464"/>
<path d="M89.21 2.20709L91.0945 9.24945L92.9441 16.2985L96.6434 30.4011L96.648 30.4212L96.6457 30.439L94.8964 45.1869L94.0194 52.5597L93.1074 59.9303L93.9051 52.5486L94.7424 45.1713L96.4148 30.4145L96.4171 30.4547L92.7949 16.3342L90.9849 9.27401L89.21 2.20709Z" fill="#EBEBEB"/>
<path d="M97.8235 3.45312L97.8818 9.55099L97.9145 15.6511L97.9401 27.8468L97.9145 40.0426L97.8818 46.1404L97.8235 52.2383L97.7675 46.1404L97.7349 40.0426L97.7092 27.8468L97.7349 15.6511L97.7675 9.55099L97.8235 3.45312Z" fill="#EBEBEB"/>
<path d="M95.7266 4.59637L96.1791 11.0738L96.6082 17.549L97.4316 30.5062V30.5106V30.5151L97.0164 44.9548L96.7855 52.1736L96.5312 59.3923L96.6689 52.1714L96.8298 44.9504L97.203 30.5106V30.5196L96.4356 17.5602L96.0718 11.0783L95.7266 4.59637Z" fill="#EBEBEB"/>
<path d="M94.2638 58.4568L94.8819 51.4501L95.5256 44.448C95.9734 39.7791 96.4026 35.1103 96.8691 30.4436V30.4727L94.8492 19.5653L93.8533 14.1105L92.8737 8.65118L93.9512 14.0926L95.0101 19.5385L97.093 30.4347V30.4637C96.6545 35.1326 96.1787 39.797 95.7215 44.4636L95.0078 51.4613L94.2638 58.4568Z" fill="#EBEBEB"/>
<path d="M98.4921 29.9189H95.9568V31.3368H98.4921V29.9189Z" fill="#F36464"/>
<path d="M2.89863 73.8788H46.3678L47.2704 56.8043H1.99365L2.89863 73.8788Z" fill="#EBEBEB"/>
<path d="M44.3063 64.6192H26.1345L25.7939 58.691H44.7028L44.3063 64.6192ZM26.3467 64.4093H44.1057L44.4696 58.9032H26.0249L26.3467 64.4093Z" fill="#F36464"/>
<path d="M43.97 71.4362H26.8454L26.5679 66.0774H44.3198L43.97 71.4362ZM27.053 71.2263H43.7694L44.0866 66.3007H26.7988L27.053 71.2263Z" fill="#F36464"/>
<path d="M36.9705 62.2993H33.9173L33.7238 60.868H37.1617L36.9705 62.2993ZM34.1086 62.0894H36.7722L36.9075 61.0779H33.9733L34.1086 62.0894Z" fill="#F36464"/>
<path d="M36.9705 69.478H33.9173L33.7238 68.049H37.1617L36.9705 69.478ZM34.1086 69.2681H36.7722L36.9075 68.2589H33.9733L34.1086 69.2681Z" fill="#F36464"/>
<path d="M22.9314 64.6192H4.75728L4.41675 58.691H23.3279L22.9314 64.6192ZM4.97186 64.4093H22.7308L23.1017 58.9032H4.64766L4.97186 64.4093Z" fill="#F36464"/>
<path d="M22.5962 71.4362H5.46933L5.19177 66.0774H22.9461L22.5962 71.4362ZM5.67925 71.2263H22.3886L22.7105 66.3007H5.42268L5.67925 71.2263Z" fill="#F36464"/>
<path d="M15.5934 62.2993H12.5403L12.3467 60.868H15.78L15.5934 62.2993ZM12.7339 62.0894H15.3998L15.5374 61.0779H12.5962L12.7339 62.0894Z" fill="#F36464"/>
<path d="M15.5934 69.478H12.5403L12.3467 68.049H15.78L15.5934 69.478ZM12.7339 69.2681H15.3998L15.5374 68.2589H12.5962L12.7339 69.2681Z" fill="#F36464"/>
<path d="M6.79541 73.8788L6.52252 75.7387L5.9744 79.4765H4.90149V73.8788H6.79541Z" fill="#EBEBEB"/>
<path d="M6.79541 73.8788L6.52252 75.7387H4.90149V73.8788H6.79541Z" fill="#F36464"/>
<path d="M42.4675 73.8788L42.7404 75.7387L43.2909 79.4765H44.3638V73.8788H42.4675Z" fill="#EBEBEB"/>
<path d="M42.4675 73.8788L42.7404 75.7387H44.3638V73.8788H42.4675Z" fill="#F36464"/>
<path d="M19.0184 4.66547H5.84961V19.9581H19.0184V4.66547Z" fill="#EBEBEB"/>
<path d="M17.5134 6.06329H7.35339V18.5649H17.5134V6.06329Z" fill="white"/>
<path d="M7.7499 6.06329H7.35339V18.5649H7.7499V6.06329Z" fill="#F36464"/>
<path d="M19.4143 4.66547H19.0178V19.9581H19.4143V4.66547Z" fill="#F36464"/>
<path d="M13.1542 7.78473H10.7588V14.6172H13.1542V7.78473Z" fill="#F36464"/>
<path d="M16.1021 12.438H9.71362V15.7851H16.1021V12.438Z" stroke="#EBEBEB" stroke-miterlimit="10"/>
<path d="M31.1421 23.6693H17.9733V38.9619H31.1421V23.6693Z" fill="#EBEBEB"/>
<path d="M29.6369 25.0648H19.4769V37.5665H29.6369V25.0648Z" fill="white"/>
<path d="M19.8734 25.0648H19.4769V37.5665H19.8734V25.0648Z" fill="#F36464"/>
<path d="M31.5379 23.6693H31.1414V38.9619H31.5379V23.6693Z" fill="#F36464"/>
<path d="M25.6252 28.2957H23.5726V33.2638H25.6252V28.2957Z" fill="#EBEBEB"/>
<path d="M27.7873 31.3145H22.2734V34.7397H27.7873V31.3145Z" stroke="#F36464" stroke-miterlimit="10"/>
<path d="M51.001 87.6732C69.8042 87.6732 85.0472 86.1647 85.0472 84.3039C85.0472 82.443 69.8042 80.9345 51.001 80.9345C32.1978 80.9345 16.9548 82.443 16.9548 84.3039C16.9548 86.1647 32.1978 87.6732 51.001 87.6732Z" fill="#EBEBEB"/>
<path d="M68.4846 95.0392C84.8777 95.0392 98.1669 92.765 98.1669 89.9595C98.1669 87.1541 84.8777 84.8798 68.4846 84.8798C52.0916 84.8798 38.8024 87.1541 38.8024 89.9595C38.8024 92.765 52.0916 95.0392 68.4846 95.0392Z" fill="#EBEBEB"/>
<path d="M0.818359 79.3917L13.3644 79.3359L25.9104 79.3158L51.0002 79.28L76.0899 79.3158L88.636 79.3359L101.182 79.3917L88.636 79.4453L76.0899 79.4654L51.0002 79.5011L25.9104 79.4654L13.3644 79.4453L0.818359 79.3917Z" fill="#263238"/>
<path d="M12.3959 62.4555C13.877 59.5529 16.4683 58.0457 19.3931 58.883C22.3179 59.7203 22.7658 63.6077 20.5873 64.5924C18.4088 65.5771 16.2257 62.7034 15.0735 62.1117C13.9213 61.52 12.3959 62.4555 12.3959 62.4555Z" fill="#7EBAEB"/>
<path d="M10.9619 70.2125C10.9619 69.862 10.9852 69.5092 10.9969 69.1586C11.0233 68.4575 11.0498 67.7564 11.0762 67.0553C11.1158 65.7714 11.2698 64.5143 11.8156 63.3309C12.3056 62.2587 13.1248 61.3546 14.1643 60.7386C14.5493 60.515 14.9644 60.343 15.3982 60.2273C15.7923 59.8471 16.2929 59.5842 16.8396 59.4704C17.5163 59.3391 18.2118 59.3225 18.8944 59.4212C18.9201 59.4212 18.9178 59.4614 18.8944 59.457C18.2432 59.3773 17.5819 59.4229 16.9492 59.5909C16.6794 59.6627 16.4176 59.7599 16.1678 59.8812C16.0101 59.9627 15.8589 60.0552 15.7154 60.1581C16.3044 60.0408 16.9129 60.0461 17.4997 60.1737C17.7111 60.2223 17.9179 60.2881 18.1177 60.3702C18.2774 60.3347 18.4416 60.3212 18.6052 60.33C18.8185 60.3358 19.0305 60.3643 19.2373 60.4148C19.6598 60.5289 20.064 60.6979 20.4385 60.9172C20.4415 60.9203 20.4433 60.9242 20.4439 60.9283C20.4445 60.9324 20.4436 60.9366 20.4416 60.9403C20.4395 60.944 20.4363 60.947 20.4324 60.9488C20.4285 60.9507 20.4241 60.9514 20.4198 60.9507C20.0536 60.758 19.6611 60.6152 19.2536 60.5265C19.0548 60.4836 18.8529 60.4552 18.6495 60.4416C18.5377 60.4361 18.4255 60.4361 18.3137 60.4416C19.1464 60.8091 19.8159 61.4477 20.2029 62.2435C20.2029 62.2659 20.1796 62.2837 20.1703 62.2614C19.9396 61.8004 19.6034 61.395 19.1867 61.0753C18.77 60.7557 18.2835 60.5299 17.7632 60.4148C17.6979 60.3992 17.6326 60.3903 17.5673 60.3791C17.5906 60.4684 17.586 60.5734 17.5999 60.6604C17.6186 60.8034 17.6443 60.944 17.6723 61.0847C17.7325 61.3731 17.8103 61.6579 17.9055 61.9376C18.0051 62.22 18.1235 62.4959 18.26 62.7638C18.3909 63.0475 18.5569 63.3151 18.7545 63.5609C18.7571 63.5628 18.7592 63.5653 18.7606 63.5681C18.7621 63.5709 18.7628 63.5741 18.7627 63.5772C18.7627 63.5803 18.7619 63.5834 18.7603 63.5862C18.7588 63.589 18.7566 63.5914 18.754 63.5932C18.7513 63.5951 18.7482 63.5963 18.7449 63.5967C18.7417 63.5972 18.7384 63.597 18.7353 63.596C18.7321 63.595 18.7293 63.5934 18.727 63.5911C18.7246 63.5889 18.7229 63.5862 18.7218 63.5832C18.5469 63.3198 18.344 63.0786 18.1831 62.804C17.8717 62.2793 17.6504 61.7101 17.5276 61.1182C17.495 60.9597 17.4693 60.8034 17.4507 60.6426C17.4305 60.5479 17.4242 60.4509 17.432 60.3546C17.0885 60.3043 16.7395 60.2976 16.3941 60.3345C16.5247 61.0289 16.6623 61.7545 17.0705 62.3574C17.0845 62.3775 17.0472 62.3954 17.0355 62.3753C16.8455 62.0551 16.678 61.7231 16.534 61.3817C16.4011 61.0491 16.3171 60.7004 16.2845 60.3456C15.6819 60.4233 15.1002 60.6097 14.5701 60.8949C13.5722 61.4506 12.7754 62.285 12.2867 63.2863C11.7714 64.3642 11.4836 65.529 11.4401 66.7137C11.3421 68.203 11.3234 69.7012 11.1672 71.1793C11.1672 71.2776 10.9969 71.3088 10.9759 71.1994C10.9392 70.8716 10.9345 70.5412 10.9619 70.2125Z" fill="#263238"/>
<path d="M14.3806 60.4952C14.4781 60.3822 14.5911 60.2823 14.7165 60.1982C14.8378 60.1022 14.9614 60.0084 15.092 59.9235C15.349 59.7553 15.6336 59.6292 15.934 59.5507C15.9573 59.5507 15.9667 59.5819 15.934 59.5864C15.6317 59.6596 15.3489 59.7927 15.1037 59.9771C14.98 60.0642 14.8704 60.158 14.7445 60.254C14.6418 60.357 14.5285 60.4498 14.4063 60.5309C14.3969 60.551 14.3806 60.5264 14.3806 60.4952Z" fill="#263238"/>
<path d="M19.1112 61.5602C19.3571 61.8328 19.5838 62.1207 19.7899 62.4221C19.9931 62.7235 20.1627 63.0446 20.296 63.3799C20.296 63.3799 20.296 63.3956 20.2774 63.3799C19.9392 62.7455 19.5393 62.143 19.0832 61.5803C19.0669 61.5669 19.0949 61.5423 19.1112 61.5602Z" fill="#263238"/>
<path d="M15.925 61.2723C15.9561 61.4544 16.0125 61.6316 16.0929 61.7993C16.1728 61.9623 16.2672 62.1184 16.3752 62.2659C16.3752 62.2771 16.3752 62.286 16.3565 62.2793C16.103 61.9971 15.9409 61.6503 15.89 61.2812C15.883 61.2589 15.9204 61.2478 15.925 61.2723Z" fill="#263238"/>
<path d="M11.1693 62.5272C11.1693 62.5272 9.07016 60.0041 5.02576 60.8995C1.17728 61.748 -0.59768 68.5023 3.29045 69.3084C7.17858 70.1144 6.49285 63.8692 7.90862 62.8086C8.94888 62.0293 10.4416 62.1968 11.1693 62.5272Z" fill="#7EBAEB"/>
<path d="M1.89767 64.5857C2.16152 64.3642 2.44047 64.1598 2.73268 63.9739C3.00783 63.7952 3.30669 63.6525 3.62132 63.5496C3.7789 63.3201 3.95516 63.1028 4.14845 62.8999C4.50528 62.5316 4.91809 62.2169 5.37297 61.9665H5.25168C5.03726 61.9554 4.82236 61.9554 4.60793 61.9665C4.17678 61.9933 3.75413 62.0938 3.36009 62.2635C3.33677 62.2635 3.32044 62.2389 3.34377 62.23C3.74169 62.0652 4.15802 61.9446 4.58461 61.8705C4.79316 61.8345 5.00478 61.8173 5.21669 61.8192C5.33045 61.8195 5.44411 61.8255 5.55723 61.837H5.62253C5.99397 61.6587 6.38516 61.5209 6.78874 61.4262L6.67678 61.3972C6.47881 61.356 6.27873 61.3247 6.07735 61.3034C5.67391 61.2602 5.26637 61.2662 4.8645 61.3213C4.84118 61.3213 4.83418 61.2878 4.8645 61.2855C5.27066 61.238 5.68013 61.2216 6.08902 61.2364C6.43231 61.2468 6.7737 61.2894 7.10828 61.3637C7.35163 61.32 7.59795 61.2931 7.84532 61.2833C9.24477 61.2252 10.7958 61.7299 11.6635 62.8463C12.5311 63.9627 12.7037 65.4408 12.8553 66.7805C13.0927 68.6487 13.145 70.5341 13.0116 72.4117C13.0116 72.5234 12.839 72.5033 12.8367 72.3983C12.783 70.8063 12.7247 69.2121 12.5661 67.6268C12.4915 66.8922 12.4098 66.1531 12.2816 65.4252C12.1877 64.8009 11.9992 64.1931 11.7218 63.6211C11.4219 63.0329 10.9461 62.5433 10.355 62.2144C9.76272 61.8893 9.10216 61.6948 8.42143 61.645C7.81047 61.5958 7.19525 61.651 6.60448 61.808C6.62585 61.9207 6.62978 62.0358 6.61614 62.1496C6.60192 62.2936 6.57222 62.4358 6.52751 62.5739C6.48299 62.7044 6.426 62.8307 6.35724 62.9512C6.28261 63.0852 6.18931 63.2035 6.10534 63.3308C6.09135 63.3509 6.05869 63.3308 6.07269 63.3107C6.23849 63.0824 6.34631 62.8201 6.38756 62.5448C6.41091 62.4147 6.42726 62.2836 6.43654 62.1519C6.43654 62.0514 6.43654 61.9509 6.43654 61.8504C5.79423 62.0401 5.1946 62.343 4.66858 62.7436C4.57062 62.8195 4.47732 62.8999 4.38402 62.9825C4.51732 63.1005 4.63273 63.2358 4.72689 63.3844C4.86459 63.5789 4.98475 63.7844 5.08608 63.9984C5.27302 64.427 5.39931 64.8775 5.4616 65.3381C5.4616 65.3605 5.42661 65.3671 5.42195 65.3381C5.34554 64.8896 5.18766 64.4573 4.95546 64.0609C4.84939 63.8643 4.72938 63.6748 4.59627 63.4938C4.52863 63.4 4.45866 63.3085 4.38402 63.2192C4.34437 63.17 4.30006 63.1209 4.26274 63.0696C3.78711 63.5159 3.3985 64.0399 3.11519 64.6169C3.30484 64.8099 3.46219 65.0299 3.58167 65.2689C3.72637 65.5184 3.85263 65.7773 3.95952 66.0437C4.16424 66.5648 4.33331 67.0981 4.46566 67.6402C4.46566 67.6625 4.433 67.6692 4.42834 67.6402C4.30622 67.0982 4.11345 66.5731 3.85457 66.0772C3.73328 65.8338 3.605 65.5949 3.47205 65.3582C3.33102 65.1426 3.20405 64.9189 3.09187 64.6884C2.82015 65.2503 2.66188 65.8564 2.62539 66.4746C2.62395 66.4786 2.62127 66.482 2.61772 66.4844C2.61417 66.4868 2.60992 66.4881 2.60556 66.4881C2.6012 66.4881 2.59695 66.4868 2.5934 66.4844C2.58985 66.482 2.58717 66.4786 2.58573 66.4746C2.66039 65.5016 2.97191 64.5587 3.49538 63.7216C3.24581 63.822 2.99857 63.918 2.76067 64.0408C2.45701 64.1965 2.17427 64.387 1.91866 64.608C1.90467 64.6303 1.87901 64.6013 1.89767 64.5857Z" fill="#263238"/>
<path d="M4.86666 64.7374C4.98795 65.1215 5.14189 65.4921 5.25151 65.8784C5.36286 66.2488 5.42247 66.6317 5.42878 67.0171H5.41012C5.30179 66.2396 5.10709 65.4754 4.82935 64.7374C4.82935 64.7327 4.83131 64.7281 4.83481 64.7248C4.83831 64.7214 4.84306 64.7195 4.84801 64.7195C4.85295 64.7195 4.8577 64.7214 4.8612 64.7248C4.8647 64.7281 4.86666 64.7327 4.86666 64.7374Z" fill="#263238"/>
<path d="M2.30329 63.7796C2.46234 63.6329 2.6431 63.5095 2.83975 63.4134C3.03975 63.3262 3.24735 63.256 3.46017 63.2035C3.48349 63.2035 3.49049 63.2348 3.46017 63.2392C3.25121 63.2929 3.05048 63.3724 2.86307 63.4759C2.67107 63.5699 2.48703 63.6782 2.31262 63.7997C2.31041 63.7992 2.30833 63.7983 2.30656 63.797C2.30479 63.7956 2.30339 63.7939 2.30248 63.7919C2.30156 63.79 2.30116 63.7878 2.3013 63.7857C2.30144 63.7835 2.30212 63.7814 2.30329 63.7796Z" fill="#263238"/>
<path d="M9.17519 59.1553C9.17519 59.1553 8.78334 54.6249 5.2684 53.1557C2.32956 51.9299 0.647894 55.0916 2.72607 57.0275C4.40541 58.5927 7.10168 57.8849 9.17519 59.1553Z" fill="#7EBAEB"/>
<path d="M3.37716 54.0333C3.91271 54.2409 4.43526 54.478 4.94221 54.7434C5.36318 54.9772 5.76898 55.2352 6.15739 55.5159C6.09908 55.4021 6.04777 55.2815 5.98946 55.1698C5.89616 54.9935 5.7982 54.8238 5.69091 54.6563C5.47403 54.3131 5.2131 53.9973 4.91422 53.7163C4.89556 53.7006 4.92588 53.6738 4.94221 53.6917C5.23723 53.9732 5.5079 54.2771 5.75155 54.6005C5.87277 54.7659 5.98488 54.9374 6.08742 55.114C6.18965 55.2772 6.26812 55.453 6.32066 55.6365L6.36031 55.6633C6.97404 56.1325 7.53667 56.6599 8.03965 57.2375C8.03965 57.1928 8.02099 57.1481 8.00933 57.1079C7.94402 56.8847 7.87171 56.6614 7.79474 56.4493C7.64608 55.9878 7.43599 55.5465 7.16966 55.1364C7.15566 55.1163 7.19065 55.0984 7.20231 55.1185C7.4788 55.5311 7.72507 55.9616 7.93935 56.4068C8.03434 56.6243 8.1123 56.8482 8.17259 57.0767C8.22433 57.222 8.26257 57.3715 8.28688 57.5233C8.44082 57.7086 8.59243 57.8984 8.73471 58.0904C10.2461 60.1513 11.0041 62.6409 11.1861 65.1327C11.2389 65.8759 11.2522 66.6211 11.2257 67.3656C11.2181 68.1139 11.1487 68.8605 11.0181 69.5984C11.0181 69.6453 10.9318 69.6319 10.9342 69.585C10.9505 68.9308 11.0228 68.2788 11.0345 67.6224C11.0477 66.966 11.0259 66.3094 10.9692 65.6552C10.8588 64.3472 10.6015 63.0544 10.2018 61.7991C9.79231 60.5134 9.18884 59.2918 8.4105 58.173C8.26356 58.144 8.11662 58.106 7.96968 58.0703C7.82273 58.0346 7.61981 57.9832 7.44488 57.9363C7.10942 57.8533 6.78356 57.7381 6.47227 57.5925C6.44894 57.5813 6.47227 57.5478 6.49326 57.5612C6.80316 57.7226 7.13894 57.8335 7.48687 57.8894C7.76209 57.943 8.04898 57.9765 8.3242 58.0368C8.07005 57.6804 7.79679 57.3368 7.50553 57.0075C6.83478 57.065 6.15872 57.0167 5.50432 56.8646C5.15568 56.7839 4.81288 56.6818 4.47806 56.5587C4.12586 56.4292 3.79233 56.2617 3.4448 56.1121C3.41914 56.1121 3.4448 56.063 3.46113 56.0786C4.09117 56.4073 4.77902 56.6223 5.49032 56.7127C6.11829 56.809 6.75295 56.8598 7.38891 56.8646C7.13934 56.5899 6.88044 56.322 6.60522 56.0697C5.67225 55.2279 4.58302 54.4531 3.3655 54.0601C3.34217 54.0624 3.35383 54.0199 3.37716 54.0333Z" fill="#263238"/>
<path d="M6.24057 54.0467C6.40214 54.2388 6.55019 54.4409 6.68373 54.6518C6.81143 54.8759 6.91162 55.1135 6.98228 55.3596C6.98228 55.3596 6.97062 55.373 6.96828 55.3596C6.85166 55.1364 6.75137 54.9131 6.63242 54.6898C6.51529 54.4723 6.37457 54.2673 6.21258 54.078C6.19626 54.0557 6.21725 54.0199 6.24057 54.0467Z" fill="#263238"/>
<path d="M11.9136 58.3426C11.9346 58.5369 12.4454 56.697 15.4122 55.0626C18.1155 53.5778 21.3412 49.715 18.6916 47.2767C16.5597 45.3118 10.9246 49.5988 11.9136 58.3426Z" fill="#7EBAEB"/>
<path d="M9.86268 68.8994C9.90375 66.9826 10.0595 65.0697 10.3292 63.17C10.5635 61.4215 10.9848 59.7006 11.5863 58.0345C11.8196 57.4361 12.0528 56.8466 12.335 56.266C12.3167 56.0431 12.3167 55.8191 12.335 55.5962C12.349 55.3059 12.377 55.0157 12.405 54.7254C12.433 54.4351 12.4633 54.1471 12.5006 53.8591C12.538 53.571 12.5986 53.283 12.6126 52.9949C12.6126 52.9682 12.6569 52.9749 12.6499 52.9949C12.5906 53.2979 12.5548 53.6046 12.5426 53.9126C12.524 54.197 12.5146 54.4783 12.5146 54.7566C12.5146 55.038 12.5146 55.3193 12.5146 55.5984C12.5146 55.6989 12.5146 55.8083 12.5146 55.9155C12.7945 55.3484 13.0962 54.7931 13.4196 54.2498C13.219 53.0686 13.4803 51.8339 13.7322 50.6773C13.7322 50.6549 13.7741 50.6773 13.7695 50.6884C13.646 51.2917 13.5804 51.9046 13.5735 52.5194C13.5619 53.0039 13.5735 53.4906 13.5875 53.9752C13.6575 53.8591 13.7298 53.7519 13.8021 53.6268C14.1893 53.024 14.6021 52.4323 15.0383 51.8584C15.0041 51.578 15.0143 51.2942 15.0686 51.0167C15.1168 50.7055 15.1886 50.398 15.2832 50.0967C15.3788 49.7953 15.4885 49.4983 15.6121 49.2036C15.7357 48.9089 15.913 48.6208 16.0389 48.3105C16.0389 48.2859 16.0879 48.3105 16.0739 48.3261C15.9145 48.6093 15.7893 48.9089 15.7007 49.2192C15.6042 49.5122 15.5263 49.8104 15.4675 50.1124C15.4045 50.4138 15.3508 50.713 15.3089 51.0167C15.2785 51.2176 15.2599 51.4253 15.2249 51.6262C15.8613 50.807 16.5573 50.0318 17.3077 49.3063C17.3264 49.2884 17.3521 49.3063 17.3357 49.3331C16.1988 50.5526 15.1837 51.8712 14.3036 53.2718C14.2709 53.3254 14.2406 53.379 14.208 53.4303C14.3736 53.3321 14.5602 53.254 14.7141 53.1736L15.5841 52.7158L16.4261 52.2693C16.5707 52.1911 16.713 52.1107 16.8599 52.046C17.0359 51.9713 17.2045 51.8816 17.3637 51.7781C17.387 51.7624 17.4104 51.7959 17.387 51.8093C17.1002 51.9589 16.8459 52.1822 16.5707 52.3519C16.2955 52.5216 16.0086 52.6868 15.7217 52.8409C15.1922 53.1222 14.6161 53.3254 14.089 53.6179C13.7267 54.2223 13.3932 54.8422 13.0884 55.4779C13.4033 55.2836 13.7275 55.0983 14.054 54.9241C14.2663 54.8102 14.4762 54.7008 14.6908 54.5914C14.9039 54.4965 15.1057 54.3797 15.2925 54.2431C15.2962 54.2398 15.3012 54.2381 15.3062 54.2383C15.3112 54.2385 15.316 54.2407 15.3194 54.2442C15.3228 54.2478 15.3245 54.2525 15.3243 54.2573C15.3241 54.2621 15.3219 54.2666 15.3182 54.2699C14.971 54.5673 14.5872 54.8229 14.1753 55.0313C13.7928 55.2434 13.4079 55.4511 13.0091 55.6364C12.6919 56.3062 12.4027 56.9761 12.1484 57.6772C10.8959 61.0711 10.4341 64.6771 10.2149 68.2564C10.1496 69.3237 10.1146 70.3909 10.1029 71.4605C10.0913 72.53 10.1472 73.5928 10.1449 74.6601C10.1449 74.6914 10.0913 74.6981 10.0866 74.6601C9.95131 73.7134 9.92799 72.7511 9.88601 71.7976C9.84402 70.8442 9.84169 69.8729 9.86268 68.8994Z" fill="#263238"/>
<path d="M15.2701 53.5264C15.8147 53.2973 16.3437 53.0355 16.8538 52.7426C17.3708 52.4646 17.8714 52.1597 18.3536 51.8294C18.3536 51.8294 18.3722 51.8294 18.3536 51.8428C17.8972 52.1969 17.4156 52.5199 16.9121 52.8096C16.3846 53.0911 15.8393 53.3409 15.2795 53.5576C15.2678 53.5732 15.2491 53.5353 15.2701 53.5264Z" fill="#263238"/>
<path d="M14.409 49.6883C14.4533 49.523 14.507 49.36 14.5653 49.197C14.5638 49.196 14.5626 49.1947 14.5618 49.1931C14.561 49.1916 14.5606 49.1899 14.5606 49.1881C14.5606 49.1864 14.561 49.1847 14.5618 49.1831C14.5626 49.1816 14.5638 49.1802 14.5653 49.1792C14.6026 49.0876 14.6422 48.9961 14.6819 48.9045C14.6819 48.8934 14.6819 48.88 14.6959 48.8711L14.7169 48.8197L14.6889 48.9157C14.6845 48.9331 14.6791 48.9503 14.6726 48.9671C14.4769 49.5981 14.3303 50.2422 14.2341 50.894C14.2341 50.9163 14.1967 50.9163 14.1991 50.894C14.2286 50.4866 14.2989 50.0828 14.409 49.6883Z" fill="#263238"/>
<path d="M6.71875 69.5872L6.931 71.9964L7.58174 79.3469H14.544L15.1947 71.9964L15.407 69.5872H6.71875Z" fill="#455A64"/>
<path d="M6.71875 69.5872L6.931 71.9964H15.1947L15.407 69.5872H6.71875Z" fill="#263238"/>
<path d="M6.03604 70.9314H16.0911V68.6204H6.03604V70.9314Z" fill="#455A64"/>
<path d="M68.6774 6.37604H33.318C32.3609 6.38488 31.4465 6.75724 30.776 7.41125C30.1055 8.06526 29.7338 8.94739 29.7425 9.86372V79.546C29.7344 80.4621 30.1063 81.3439 30.7767 81.9978C31.4471 82.6517 32.3611 83.0242 33.318 83.0337H68.6774C69.635 83.0248 70.5498 82.6526 71.2211 81.9987C71.8923 81.3448 72.2651 80.4627 72.2576 79.546V9.86372C72.2657 8.9468 71.8931 8.06434 71.2217 7.41033C70.5504 6.75632 69.6352 6.38429 68.6774 6.37604ZM70.0209 77.3913C70.0209 79.2267 68.5864 80.7093 66.8185 80.7093H35.184C33.4113 80.7093 31.9769 79.2267 31.9769 77.3913V12.5052C31.9769 8.76964 33.4113 8.58654 35.184 8.58654H41.5211C41.8873 8.58654 42.1882 8.98845 42.1882 9.47968V9.70296C42.1882 10.8663 42.8553 10.8707 43.6716 10.8707H58.3262C59.1495 10.8707 59.8096 10.8707 59.8096 9.70296V9.47968C59.8096 8.98399 60.1058 8.58654 60.479 8.58654H66.8185C68.5864 8.58654 70.0209 9.08446 70.0209 12.5052V77.3913Z" fill="#263238"/>
<path d="M52.9966 9.41269H49.0012C48.9686 9.41299 48.9363 9.40707 48.9062 9.39528C48.876 9.3835 48.8487 9.36607 48.8256 9.34404C48.8026 9.322 48.7844 9.29579 48.7721 9.26694C48.7598 9.23809 48.7536 9.20718 48.7539 9.17601C48.7539 9.11324 48.78 9.05304 48.8263 9.00865C48.8727 8.96427 48.9356 8.93933 49.0012 8.93933H52.9966C53.0621 8.93933 53.125 8.96427 53.1714 9.00865C53.2178 9.05304 53.2438 9.11324 53.2438 9.17601C53.2441 9.20718 53.2379 9.23809 53.2256 9.26694C53.2133 9.29579 53.1951 9.322 53.1721 9.34404C53.1491 9.36607 53.1217 9.3835 53.0916 9.39528C53.0614 9.40707 53.0291 9.41299 52.9966 9.41269Z" fill="white"/>
<path d="M70.0214 12.505V77.3912C70.0214 79.2266 68.5869 80.7092 66.819 80.7092H35.1845C33.4118 80.7092 31.9774 79.2266 31.9774 77.3912V12.505C31.9774 8.76952 33.4118 8.58643 35.1845 8.58643H41.5216C41.8878 8.58643 42.1887 8.98834 42.1887 9.47956V9.70284C42.1887 10.8661 42.8558 10.8706 43.6721 10.8706H58.3267C59.15 10.8706 59.8101 10.8706 59.8101 9.70284V9.47956C59.8101 8.98387 60.1063 8.58643 60.4795 8.58643H66.819C68.5869 8.58643 70.0214 9.08435 70.0214 12.505Z" fill="white"/>
<path d="M40.4283 10.0445L40.3677 10.1026L40.3327 10.1361C40.1746 9.98981 39.9624 9.90951 39.7426 9.9128C39.6337 9.91068 39.5254 9.92933 39.4241 9.96767C39.3228 10.006 39.2305 10.0633 39.1525 10.1361L39.1175 10.1048L39.0592 10.0468L39.1362 9.97979C39.191 9.93688 39.2514 9.90086 39.3158 9.87261C39.3896 9.83678 39.468 9.8105 39.549 9.79446C39.5887 9.79446 39.6283 9.79446 39.668 9.78107H39.7729H39.8522C39.927 9.7905 40.0006 9.80772 40.0715 9.83242C40.1221 9.85036 40.1712 9.87201 40.2184 9.89717C40.2669 9.92586 40.3136 9.95717 40.3584 9.99095L40.4237 10.0468L40.4283 10.0445Z" fill="#A6A6A6"/>
<path d="M39.3393 10.3213L39.2413 10.2275C39.3491 10.1223 39.4901 10.054 39.6425 10.0333C39.7497 10.0173 39.8594 10.0259 39.9624 10.0585C40.0654 10.0912 40.1588 10.1468 40.2349 10.2208L40.137 10.3124C40.0852 10.2625 40.0236 10.2229 39.9557 10.1959C39.8879 10.1689 39.8151 10.1549 39.7416 10.1549C39.6682 10.1549 39.5954 10.1689 39.5275 10.1959C39.4597 10.2229 39.3981 10.2625 39.3463 10.3124L39.3393 10.3213Z" fill="#A6A6A6"/>
<path d="M40.0383 10.413L39.9426 10.5046C39.916 10.4791 39.8844 10.4588 39.8495 10.445C39.8147 10.4312 39.7774 10.4241 39.7397 10.4241C39.702 10.4241 39.6647 10.4312 39.6299 10.445C39.5951 10.4588 39.5634 10.4791 39.5368 10.5046L39.4412 10.413C39.4802 10.3752 39.5267 10.3452 39.5779 10.3247C39.6292 10.3042 39.6842 10.2937 39.7397 10.2937C39.7952 10.2937 39.8502 10.3042 39.9015 10.3247C39.9527 10.3452 39.9992 10.3752 40.0383 10.413Z" fill="#A6A6A6"/>
<path d="M39.8292 10.5893C39.8258 10.6092 39.8151 10.6273 39.7991 10.6403C39.7831 10.6533 39.7627 10.6605 39.7417 10.6605C39.7207 10.6605 39.7003 10.6533 39.6843 10.6403C39.6683 10.6273 39.6576 10.6092 39.6542 10.5893C39.6522 10.5772 39.6529 10.5648 39.6563 10.5529C39.6597 10.5411 39.6658 10.5301 39.6742 10.5207C39.6825 10.5113 39.6928 10.5038 39.7045 10.4986C39.7162 10.4935 39.7289 10.4908 39.7417 10.4908C39.7546 10.4908 39.7673 10.4935 39.7789 10.4986C39.7906 10.5038 39.8009 10.5113 39.8093 10.5207C39.8176 10.5301 39.8237 10.5411 39.8271 10.5529C39.8305 10.5648 39.8313 10.5772 39.8292 10.5893Z" fill="#A6A6A6"/>
<path d="M34.7089 10.462C34.848 10.462 34.9608 10.3541 34.9608 10.2209C34.9608 10.0877 34.848 9.97974 34.7089 9.97974C34.5698 9.97974 34.457 10.0877 34.457 10.2209C34.457 10.3541 34.5698 10.462 34.7089 10.462Z" fill="#A6A6A6"/>
<path d="M35.2517 10.2209C35.2517 10.1732 35.2665 10.1266 35.2942 10.0869C35.3218 10.0473 35.3612 10.0163 35.4072 9.99809C35.4532 9.97984 35.5039 9.97507 35.5528 9.98437C35.6016 9.99367 35.6465 10.0166 35.6817 10.0504C35.717 10.0841 35.741 10.1271 35.7507 10.1738C35.7604 10.2206 35.7554 10.2691 35.7363 10.3132C35.7173 10.3572 35.685 10.3949 35.6436 10.4214C35.6021 10.4479 35.5534 10.462 35.5036 10.462C35.4368 10.462 35.3727 10.4366 35.3255 10.3914C35.2782 10.3462 35.2517 10.2848 35.2517 10.2209Z" fill="#A6A6A6"/>
<path d="M36.2968 10.462C36.4359 10.462 36.5487 10.3541 36.5487 10.2209C36.5487 10.0877 36.4359 9.97974 36.2968 9.97974C36.1577 9.97974 36.0449 10.0877 36.0449 10.2209C36.0449 10.3541 36.1577 10.462 36.2968 10.462Z" fill="#A6A6A6"/>
<path d="M36.8396 10.2209C36.8396 10.1732 36.8544 10.1266 36.8821 10.0869C36.9097 10.0473 36.9491 10.0163 36.9951 9.99809C37.0411 9.97984 37.0918 9.97507 37.1406 9.98437C37.1895 9.99367 37.2344 10.0166 37.2696 10.0504C37.3049 10.0841 37.3288 10.1271 37.3386 10.1738C37.3483 10.2206 37.3433 10.2691 37.3242 10.3132C37.3052 10.3572 37.2729 10.3949 37.2315 10.4214C37.19 10.4479 37.1413 10.462 37.0915 10.462C37.0247 10.462 36.9606 10.4366 36.9134 10.3914C36.8661 10.3462 36.8396 10.2848 36.8396 10.2209Z" fill="#A6A6A6"/>
<path d="M37.6333 10.2209C37.6333 10.1892 37.6398 10.1579 37.6525 10.1286C37.6651 10.0993 37.6837 10.0728 37.7071 10.0504C37.7305 10.028 37.7582 10.0102 37.7888 9.99809C37.8194 9.98597 37.8521 9.97974 37.8852 9.97974C37.9183 9.97974 37.951 9.98597 37.9816 9.99809C38.0122 10.0102 38.0399 10.028 38.0633 10.0504C38.0867 10.0728 38.1053 10.0993 38.1179 10.1286C38.1306 10.1579 38.1371 10.1892 38.1371 10.2209C38.1371 10.2525 38.1306 10.2839 38.1179 10.3132C38.1053 10.3424 38.0867 10.369 38.0633 10.3914C38.0399 10.4138 38.0122 10.4316 37.9816 10.4437C37.951 10.4558 37.9183 10.462 37.8852 10.462C37.8521 10.462 37.8194 10.4558 37.7888 10.4437C37.7582 10.4316 37.7305 10.4138 37.7071 10.3914C37.6837 10.369 37.6651 10.3424 37.6525 10.3132C37.6398 10.2839 37.6333 10.2525 37.6333 10.2209Z" fill="#A6A6A6"/>
<path d="M67.1146 9.88818H65.167V10.6987H67.1146V9.88818Z" fill="#A6A6A6"/>
<path d="M67.1732 10.7546H65.109V9.83246H67.1732V10.7546ZM65.2256 10.643H67.0566V9.9441H65.228L65.2256 10.643Z" fill="white"/>
<path d="M66.6082 9.9931H65.2858V10.5937H66.6082V9.9931Z" fill="#A6A6A6"/>
<path d="M67.3508 10.0491H67.1688V10.5358H67.3508V10.0491Z" fill="#A6A6A6"/>
<path d="M58.9587 78.702H43.04C42.9495 78.709 42.865 78.7484 42.8033 78.8123C42.7417 78.8762 42.7075 78.96 42.7075 79.047C42.7075 79.134 42.7417 79.2178 42.8033 79.2817C42.865 79.3456 42.9495 79.385 43.04 79.392H58.9587C59.0085 79.3958 59.0585 79.3898 59.1057 79.3742C59.1529 79.3586 59.1962 79.3338 59.2329 79.3014C59.2696 79.269 59.2989 79.2296 59.3189 79.1858C59.3389 79.1421 59.3493 79.0948 59.3493 79.047C59.3493 78.9992 59.3389 78.952 59.3189 78.9082C59.2989 78.8644 59.2696 78.8251 59.2329 78.7927C59.1962 78.7603 59.1529 78.7355 59.1057 78.7199C59.0585 78.7043 59.0085 78.6982 58.9587 78.702Z" fill="#A6A6A6"/>
<path d="M53.528 43.0533C54.9243 41.7166 54.9243 39.5493 53.528 38.2126C52.1316 36.8758 49.8677 36.8758 48.4713 38.2126C47.075 39.5493 47.075 41.7166 48.4713 43.0533C49.8677 44.3901 52.1316 44.3901 53.528 43.0533Z" fill="#455A64"/>
<path d="M50.0063 38.9241C49.9386 38.9245 49.8725 38.9441 49.8165 38.9805C49.7604 39.0168 49.7168 39.0682 49.6912 39.1282C49.6656 39.1883 49.6592 39.2542 49.6726 39.3177C49.6861 39.3812 49.719 39.4395 49.767 39.4852C49.8151 39.5309 49.8762 39.5619 49.9426 39.5744C50.009 39.5869 50.0779 39.5802 50.1404 39.5553C50.2029 39.5304 50.2563 39.4884 50.2939 39.4344C50.3314 39.3805 50.3515 39.3171 50.3515 39.2523C50.3515 39.209 50.3426 39.1662 50.3252 39.1262C50.3078 39.0862 50.2823 39.0499 50.2503 39.0194C50.2182 38.9889 50.1801 38.9648 50.1382 38.9484C50.0964 38.9321 50.0515 38.9238 50.0063 38.9241Z" fill="white"/>
<path d="M50.9994 38.9241C50.9315 38.9241 50.8653 38.9433 50.8089 38.9794C50.7525 39.0155 50.7085 39.0667 50.6826 39.1267C50.6566 39.1867 50.6499 39.2527 50.6631 39.3163C50.6763 39.38 50.709 39.4385 50.7569 39.4844C50.8049 39.5303 50.866 39.5616 50.9325 39.5742C50.999 39.5869 51.0679 39.5804 51.1306 39.5555C51.1932 39.5307 51.2468 39.4886 51.2844 39.4347C51.3221 39.3807 51.3422 39.3172 51.3422 39.2523C51.3422 39.1652 51.3061 39.0818 51.2418 39.0202C51.1775 38.9587 51.0903 38.9241 50.9994 38.9241Z" fill="white"/>
<path d="M51.9914 39.5805C52.0591 39.5801 52.1252 39.5605 52.1813 39.5241C52.2374 39.4878 52.2809 39.4364 52.3065 39.3764C52.3321 39.3163 52.3386 39.2504 52.3251 39.1869C52.3116 39.1234 52.2788 39.0651 52.2307 39.0194C52.1827 38.9737 52.1216 38.9427 52.0551 38.9302C51.9887 38.9177 51.9199 38.9244 51.8574 38.9493C51.7948 38.9742 51.7414 39.0162 51.7039 39.0702C51.6663 39.1241 51.6462 39.1875 51.6462 39.2523C51.6462 39.2956 51.6552 39.3384 51.6726 39.3784C51.6899 39.4184 51.7154 39.4547 51.7475 39.4852C51.7796 39.5157 51.8176 39.5398 51.8595 39.5562C51.9014 39.5725 51.9462 39.5808 51.9914 39.5805Z" fill="white"/>
<path d="M50.0062 39.844C49.9379 39.844 49.8712 39.8634 49.8144 39.8997C49.7577 39.936 49.7134 39.9876 49.6873 40.048C49.6612 40.1084 49.6543 40.1748 49.6676 40.2389C49.681 40.303 49.7138 40.3619 49.7621 40.4081C49.8104 40.4543 49.8719 40.4858 49.9389 40.4986C50.0058 40.5113 50.0752 40.5048 50.1383 40.4798C50.2014 40.4548 50.2553 40.4124 50.2932 40.3581C50.3312 40.3037 50.3514 40.2398 50.3514 40.1745C50.3517 40.131 50.343 40.0879 50.3258 40.0477C50.3085 40.0074 50.2831 39.9709 50.251 39.9401C50.2189 39.9094 50.1807 39.8851 50.1387 39.8686C50.0967 39.8521 50.0516 39.8437 50.0062 39.844Z" fill="white"/>
<path d="M51.0004 39.844C50.932 39.8436 50.865 39.8626 50.8079 39.8986C50.7509 39.9346 50.7063 39.9861 50.6798 40.0464C50.6533 40.1068 50.6461 40.1733 50.6592 40.2376C50.6722 40.3018 50.7049 40.3609 50.7531 40.4073C50.8013 40.4538 50.8628 40.4855 50.9298 40.4984C50.9968 40.5113 51.0664 40.5049 51.1296 40.48C51.1928 40.455 51.2468 40.4127 51.2849 40.3583C51.3229 40.3039 51.3432 40.2399 51.3432 40.1745C51.3432 40.0872 51.3072 40.0035 51.2429 39.9416C51.1787 39.8797 51.0915 39.8446 51.0004 39.844Z" fill="white"/>
<path d="M51.9911 39.844C51.9227 39.8436 51.8557 39.8626 51.7987 39.8986C51.7416 39.9346 51.697 39.9861 51.6705 40.0464C51.644 40.1068 51.6369 40.1733 51.6499 40.2376C51.663 40.3018 51.6957 40.3609 51.7438 40.4073C51.792 40.4538 51.8535 40.4855 51.9205 40.4984C51.9876 40.5113 52.0571 40.5049 52.1203 40.48C52.1835 40.455 52.2376 40.4127 52.2756 40.3583C52.3136 40.3039 52.3339 40.2399 52.3339 40.1745C52.334 40.0872 52.2979 40.0035 52.2337 39.9416C52.1694 39.8797 52.0822 39.8446 51.9911 39.844Z" fill="white"/>
<path d="M50.0062 40.7662C49.9379 40.7662 49.8712 40.7856 49.8144 40.8219C49.7577 40.8582 49.7134 40.9098 49.6873 40.9702C49.6612 41.0306 49.6543 41.097 49.6676 41.1611C49.681 41.2252 49.7138 41.2841 49.7621 41.3303C49.8104 41.3765 49.8719 41.408 49.9389 41.4208C50.0058 41.4335 50.0752 41.427 50.1383 41.4019C50.2014 41.3769 50.2553 41.3346 50.2932 41.2802C50.3312 41.2259 50.3514 41.162 50.3514 41.0966C50.3517 41.0532 50.343 41.0101 50.3258 40.9698C50.3085 40.9296 50.2831 40.8931 50.251 40.8623C50.2189 40.8316 50.1807 40.8072 50.1387 40.7907C50.0967 40.7742 50.0516 40.7659 50.0062 40.7662Z" fill="white"/>
<path d="M51.0004 40.7662C50.932 40.7657 50.865 40.7847 50.8079 40.8208C50.7509 40.8568 50.7063 40.9083 50.6798 40.9686C50.6533 41.029 50.6461 41.0955 50.6592 41.1597C50.6722 41.224 50.7049 41.2831 50.7531 41.3295C50.8013 41.376 50.8628 41.4076 50.9298 41.4206C50.9968 41.4335 51.0664 41.4271 51.1296 41.4022C51.1928 41.3772 51.2468 41.3349 51.2849 41.2805C51.3229 41.2261 51.3432 41.1621 51.3432 41.0966C51.3432 41.0094 51.3072 40.9257 51.2429 40.8638C51.1787 40.8018 51.0915 40.7668 51.0004 40.7662Z" fill="white"/>
<path d="M51.9911 40.7662C51.9227 40.7657 51.8557 40.7847 51.7987 40.8208C51.7416 40.8568 51.697 40.9083 51.6705 40.9686C51.644 41.029 51.6369 41.0955 51.6499 41.1597C51.663 41.224 51.6957 41.2831 51.7438 41.3295C51.792 41.376 51.8535 41.4076 51.9205 41.4206C51.9876 41.4335 52.0571 41.4271 52.1203 41.4022C52.1835 41.3772 52.2376 41.3349 52.2756 41.2805C52.3136 41.2261 52.3339 41.1621 52.3339 41.0966C52.334 41.0094 52.2979 40.9257 52.2337 40.8638C52.1694 40.8018 52.0822 40.7668 51.9911 40.7662Z" fill="white"/>
<path d="M51.0004 41.6881C50.9319 41.6877 50.8648 41.7067 50.8077 41.7429C50.7506 41.779 50.706 41.8306 50.6796 41.8911C50.6531 41.9516 50.6461 42.0182 50.6594 42.0825C50.6726 42.1468 50.7055 42.2059 50.7539 42.2522C50.8024 42.2986 50.8641 42.3301 50.9313 42.3428C50.9984 42.3555 51.068 42.3487 51.1312 42.3234C51.1944 42.2982 51.2483 42.2555 51.286 42.2008C51.3238 42.1461 51.3437 42.0819 51.3432 42.0163C51.3432 41.9293 51.3071 41.8458 51.2428 41.7843C51.1785 41.7227 51.0913 41.6881 51.0004 41.6881Z" fill="white"/>
<path d="M61.1201 54.0224C63.0949 54.0224 64.6957 52.4899 64.6957 50.5994C64.6957 48.709 63.0949 47.1765 61.1201 47.1765C59.1454 47.1765 57.5446 48.709 57.5446 50.5994C57.5446 52.4899 59.1454 54.0224 61.1201 54.0224Z" fill="#455A64"/>
<path d="M61.888 49.6215C61.888 49.7668 61.843 49.9088 61.7587 50.0296C61.6744 50.1504 61.5545 50.2446 61.4143 50.3002C61.2741 50.3558 61.1198 50.3703 60.9709 50.342C60.8221 50.3137 60.6853 50.2437 60.578 50.1409C60.4707 50.0382 60.3976 49.9073 60.368 49.7648C60.3384 49.6223 60.3536 49.4746 60.4117 49.3404C60.4698 49.2062 60.5681 49.0914 60.6943 49.0107C60.8205 48.93 60.9689 48.8869 61.1206 48.8869C61.3242 48.8869 61.5193 48.9643 61.6632 49.1021C61.8072 49.2398 61.888 49.4267 61.888 49.6215Z" fill="white"/>
<path d="M62.4482 51.6488V51.9525C62.2229 52.0853 61.9774 52.184 61.7205 52.245C61.3952 52.3211 61.0573 52.3344 60.7265 52.2841C60.3957 52.2339 60.0787 52.1212 59.7939 51.9525V51.6488C59.7939 51.3119 59.9338 50.9887 60.1827 50.7505C60.4315 50.5122 60.7691 50.3784 61.1211 50.3784C61.4731 50.3784 61.8106 50.5122 62.0595 50.7505C62.3084 50.9887 62.4482 51.3119 62.4482 51.6488Z" fill="white"/>
<path d="M43.4055 43.0553C44.8019 41.7185 44.8019 39.5512 43.4055 38.2145C42.0092 36.8778 39.7452 36.8778 38.3489 38.2145C36.9525 39.5512 36.9525 41.7185 38.3489 43.0553C39.7452 44.392 42.0092 44.392 43.4055 43.0553Z" fill="#455A64"/>
<path d="M40.8801 42.548C40.8584 42.548 40.8377 42.5398 40.8224 42.5251C40.8071 42.5105 40.7985 42.4906 40.7985 42.4699V41.5589C40.7985 41.5381 40.8071 41.5183 40.8224 41.5036C40.8377 41.4889 40.8584 41.4807 40.8801 41.4807C40.9017 41.4807 40.9225 41.4889 40.9378 41.5036C40.9531 41.5183 40.9617 41.5381 40.9617 41.5589V42.4699C40.9617 42.4906 40.9531 42.5105 40.9378 42.5251C40.9225 42.5398 40.9017 42.548 40.8801 42.548Z" fill="white"/>
<path d="M41.4001 42.5477H40.3575C40.3359 42.5477 40.3151 42.5395 40.2998 42.5248C40.2845 42.5102 40.2759 42.4903 40.2759 42.4696C40.2759 42.4488 40.2845 42.429 40.2998 42.4143C40.3151 42.3997 40.3359 42.3914 40.3575 42.3914H41.4001C41.4217 42.3914 41.4425 42.3997 41.4578 42.4143C41.4731 42.429 41.4817 42.4488 41.4817 42.4696C41.4817 42.4903 41.4731 42.5102 41.4578 42.5248C41.4425 42.5395 41.4217 42.5477 41.4001 42.5477Z" fill="white"/>
<path d="M41.5495 39.364V40.688C41.5548 40.7755 41.5415 40.8632 41.5102 40.9455C41.479 41.0279 41.4305 41.1033 41.3677 41.167C41.3049 41.2308 41.2291 41.2816 41.1451 41.3163C41.061 41.3511 40.9704 41.369 40.8789 41.369C40.7873 41.369 40.6968 41.3511 40.6127 41.3163C40.5287 41.2816 40.4529 41.2308 40.3901 41.167C40.3273 41.1033 40.2788 41.0279 40.2475 40.9455C40.2163 40.8632 40.2029 40.7755 40.2083 40.688V39.364C40.204 39.194 40.2704 39.0294 40.3928 38.9063C40.5153 38.7832 40.6839 38.7117 40.8614 38.7075C41.0389 38.7034 41.2109 38.7669 41.3395 38.8842C41.4681 39.0014 41.5428 39.1628 41.5471 39.3327C41.5492 39.343 41.5499 39.3535 41.5495 39.364Z" fill="white"/>
<path d="M40.8773 41.6347C40.7495 41.635 40.6229 41.6111 40.5048 41.5644C40.3866 41.5177 40.2793 41.4492 40.1889 41.3626C40.0985 41.2761 40.0269 41.1734 39.9781 41.0603C39.9294 40.9472 39.9044 40.826 39.9047 40.7036V40.1454C39.9027 40.1342 39.9033 40.1227 39.9064 40.1117C39.9096 40.1007 39.9151 40.0905 39.9228 40.0818C39.9305 40.0731 39.94 40.0661 39.9508 40.0614C39.9616 40.0566 39.9733 40.0541 39.9852 40.0541C39.9971 40.0541 40.0088 40.0566 40.0196 40.0614C40.0304 40.0661 40.0399 40.0731 40.0476 40.0818C40.0553 40.0905 40.0608 40.1007 40.064 40.1117C40.0671 40.1227 40.0677 40.1342 40.0657 40.1454V40.7036C40.0662 40.8084 40.0888 40.9121 40.1322 41.0084C40.1755 41.1046 40.2387 41.1915 40.318 41.2639C40.3973 41.3362 40.491 41.3925 40.5935 41.4294C40.696 41.4662 40.8053 41.4829 40.9147 41.4784C41.1261 41.4642 41.3238 41.3734 41.4677 41.2244C41.6116 41.0755 41.6907 40.8797 41.689 40.6768V40.1454C41.689 40.1247 41.6976 40.1048 41.7129 40.0901C41.7282 40.0755 41.749 40.0672 41.7707 40.0672C41.7923 40.0672 41.8131 40.0755 41.8284 40.0901C41.8437 40.1048 41.8523 40.1247 41.8523 40.1454V40.6768C41.8563 40.921 41.7614 41.1571 41.5874 41.3357C41.4135 41.5143 41.174 41.6214 40.9193 41.6347H40.8773Z" fill="white"/>
<path d="M50.9999 54.0224C52.9746 54.0224 54.5755 52.4899 54.5755 50.5994C54.5755 48.709 52.9746 47.1765 50.9999 47.1765C49.0252 47.1765 47.4243 48.709 47.4243 50.5994C47.4243 52.4899 49.0252 54.0224 50.9999 54.0224Z" fill="#455A64"/>
<path d="M53.0833 50.1664V51.0372C53.0816 51.0729 53.0717 51.1077 53.0542 51.1393C53.0368 51.1709 53.0122 51.1983 52.9823 51.2197C52.9524 51.2411 52.9179 51.2558 52.8813 51.2629C52.8447 51.2699 52.8069 51.2691 52.7707 51.2605L52.3649 51.1622L52.1666 51.1175V50.0793L52.7077 49.9475L52.7801 49.9297C52.8168 49.9224 52.8547 49.923 52.8911 49.9315C52.9275 49.94 52.9615 49.9562 52.9906 49.9789C53.0196 50.0016 53.043 50.0302 53.059 50.0626C53.0751 50.095 53.0834 50.1305 53.0833 50.1664Z" fill="white"/>
<path d="M51.4869 49.5322H49.9148C49.661 49.5322 49.4553 49.7292 49.4553 49.9721V51.2292C49.4553 51.4721 49.661 51.669 49.9148 51.669H51.4869C51.7406 51.669 51.9463 51.4721 51.9463 51.2292V49.9721C51.9463 49.7292 51.7406 49.5322 51.4869 49.5322Z" fill="white"/>
<path d="M40.877 54.0224C42.8517 54.0224 44.4526 52.4899 44.4526 50.5994C44.4526 48.709 42.8517 47.1765 40.877 47.1765C38.9022 47.1765 37.3014 48.709 37.3014 50.5994C37.3014 52.4899 38.9022 54.0224 40.877 54.0224Z" fill="#455A64"/>
<path d="M42.2419 50.3918H41.0943V49.2955C41.0943 49.2404 41.0715 49.1876 41.0308 49.1486C40.9901 49.1097 40.9349 49.0878 40.8774 49.0878C40.8199 49.0878 40.7647 49.1097 40.724 49.1486C40.6833 49.1876 40.6605 49.2404 40.6605 49.2955V50.3918H39.5153C39.4847 50.3888 39.4539 50.3919 39.4247 50.401C39.3955 50.4101 39.3687 50.425 39.3459 50.4447C39.3231 50.4644 39.3048 50.4884 39.2924 50.5153C39.2799 50.5421 39.2734 50.5712 39.2734 50.6006C39.2734 50.63 39.2799 50.659 39.2924 50.6859C39.3048 50.7127 39.3231 50.7368 39.3459 50.7564C39.3687 50.7761 39.3955 50.791 39.4247 50.8001C39.4539 50.8092 39.4847 50.8124 39.5153 50.8093H40.6605V51.9057C40.6605 51.9607 40.6833 52.0136 40.724 52.0525C40.7647 52.0914 40.8199 52.1133 40.8774 52.1133C40.9349 52.1133 40.9901 52.0914 41.0308 52.0525C41.0715 52.0136 41.0943 51.9607 41.0943 51.9057V50.8093H42.2419C42.2958 50.804 42.3458 50.7797 42.3821 50.7411C42.4184 50.7026 42.4385 50.6525 42.4385 50.6006C42.4385 50.5487 42.4184 50.4986 42.3821 50.46C42.3458 50.4215 42.2958 50.3972 42.2419 50.3918Z" fill="white"/>
<path d="M63.6487 43.0553C65.045 41.7185 65.045 39.5512 63.6487 38.2145C62.2523 36.8778 59.9884 36.8778 58.592 38.2145C57.1957 39.5512 57.1957 41.7185 58.592 43.0553C59.9884 44.392 62.2523 44.392 63.6487 43.0553Z" fill="#455A64"/>
<path d="M62.8961 40.4869C62.8961 40.4088 62.8774 40.3284 62.8634 40.2503C62.8308 40.085 62.7743 39.925 62.6955 39.7747C62.6324 39.6467 62.5542 39.526 62.4622 39.4152L62.32 39.2611L62.194 39.3817L62.1217 39.4464C62.2844 39.6014 62.4135 39.7857 62.5016 39.9885C62.5897 40.1914 62.635 40.409 62.635 40.6287C62.635 40.8484 62.5897 41.066 62.5016 41.2689C62.4135 41.4718 62.2844 41.656 62.1217 41.811L62.194 41.8802L62.3223 42.003C62.3643 41.9606 62.4063 41.9182 62.4459 41.8735C62.523 41.7858 62.5917 41.6916 62.6512 41.5922C62.7078 41.4979 62.7561 41.3993 62.7958 41.2975C62.8501 41.1571 62.8862 41.0109 62.9031 40.8621C62.9031 40.8085 62.9031 40.7526 62.9171 40.6991C62.8961 40.6901 62.8961 40.5137 62.8961 40.4869Z" fill="white"/>
<path d="M62.3074 40.4268C62.264 40.1278 62.1189 39.8508 61.8946 39.6386L61.694 39.8329C61.8029 39.9368 61.8893 40.0604 61.9481 40.1964C62.007 40.3324 62.0371 40.4783 62.0368 40.6255C62.038 40.7729 62.0083 40.919 61.9494 41.0551C61.8905 41.1913 61.8036 41.3148 61.694 41.4182L61.8969 41.6124C62.0576 41.4594 62.1785 41.2724 62.2498 41.0665C62.3211 40.8605 62.3408 40.6414 62.3074 40.4268Z" fill="white"/>
<path d="M61.4956 40.0272L61.295 40.2192C61.3515 40.2721 61.3963 40.3353 61.4267 40.4052C61.4572 40.475 61.4727 40.5499 61.4723 40.6256C61.4726 40.701 61.4573 40.7757 61.4273 40.8455C61.3973 40.9152 61.3531 40.9786 61.2974 41.0319L61.498 41.224C61.5807 41.1457 61.6464 41.0524 61.6912 40.9496C61.7359 40.8468 61.7589 40.7365 61.7587 40.6251C61.7584 40.5137 61.7351 40.4035 61.6899 40.3008C61.6448 40.1982 61.5787 40.1051 61.4956 40.0272Z" fill="white"/>
<path d="M59.9433 40.0761H59.3508V41.1747H59.9433V40.0761Z" fill="white"/>
<path d="M59.942 40.076L61.0336 39.6362V41.6145L59.942 41.1746V40.076Z" fill="white"/>
<path d="M51.0007 71.1526C53.331 71.1526 55.22 69.3441 55.22 67.1134C55.22 64.8826 53.331 63.0742 51.0007 63.0742C48.6704 63.0742 46.7814 64.8826 46.7814 67.1134C46.7814 69.3441 48.6704 71.1526 51.0007 71.1526Z" fill="#7EBAEB"/>
<path d="M53.3952 67.1382C53.377 67.0738 53.3552 67.0105 53.3299 66.9484C53.2963 66.887 53.2581 66.8281 53.2157 66.772L53.0617 66.6246C52.9964 66.5799 52.9358 66.5331 52.8681 66.4929C52.6163 66.3384 52.3348 66.2336 52.0401 66.1847C51.3519 66.053 50.6432 66.053 49.9549 66.1847C49.6572 66.2344 49.3727 66.3399 49.1176 66.4951C49.0523 66.5375 48.9917 66.5822 48.931 66.6246L48.7701 66.7764L48.6978 66.8814C48.6421 66.9601 48.6106 67.0521 48.6068 67.1471H49.9643C49.974 67.1476 49.9835 67.145 49.9915 67.1397C49.9996 67.1345 50.0055 67.1269 50.0086 67.1181C50.0462 67.0492 50.1019 66.991 50.1702 66.9491C50.2385 66.9072 50.3171 66.8831 50.3981 66.8791C50.7942 66.8546 51.1915 66.8546 51.5876 66.8791C51.6689 66.881 51.7481 66.9041 51.8167 66.9458C51.8853 66.9875 51.9408 67.0462 51.9771 67.1158C51.9818 67.1256 51.9894 67.1338 51.999 67.1393C52.0085 67.1449 52.0196 67.1476 52.0308 67.1471H53.3486L53.3952 67.1382Z" fill="white"/>
<path d="M48.6045 67.4172V67.8927C48.6014 67.9146 48.6036 67.9367 48.611 67.9576C48.6183 67.9784 48.6306 67.9974 48.6469 68.0129C48.6631 68.0285 48.6829 68.0403 48.7047 68.0473C48.7265 68.0543 48.7497 68.0565 48.7724 68.0535H49.78C49.8033 68.0565 49.8271 68.0543 49.8493 68.047C49.8716 68.0398 49.8918 68.0276 49.9083 68.0116C49.9248 67.9956 49.9372 67.9761 49.9445 67.9547C49.9518 67.9333 49.9538 67.9105 49.9503 67.8883V67.5109C49.9503 67.4774 49.9503 67.4439 49.9503 67.4149L48.6045 67.4172Z" fill="white"/>
<path d="M53.3845 67.4016H52.0527C52.0527 67.5623 52.0527 67.7231 52.0527 67.8861C52.0508 67.9069 52.0538 67.9278 52.0614 67.9473C52.069 67.9669 52.0811 67.9845 52.0967 67.9991C52.1123 68.0136 52.1311 68.0246 52.1517 68.0313C52.1724 68.0381 52.1943 68.0403 52.2159 68.0379H53.2329C53.255 68.0404 53.2775 68.038 53.2986 68.0311C53.3197 68.0241 53.3389 68.0127 53.3548 67.9977C53.3706 67.9827 53.3828 67.9645 53.3904 67.9444C53.3979 67.9243 53.4007 67.9029 53.3985 67.8816C53.3985 67.7298 53.3985 67.5802 53.3985 67.435L53.3845 67.4016Z" fill="white"/>
<path d="M46.2678 31.1671C46.2727 30.9174 46.3798 30.6794 46.566 30.5045C46.7523 30.3295 47.0028 30.2315 47.2638 30.2316C47.4914 30.2304 47.713 30.3019 47.8935 30.4348C47.9263 30.459 47.9477 30.4948 47.9529 30.5342C47.9582 30.5735 47.9469 30.6133 47.9215 30.6447C47.8961 30.676 47.8588 30.6965 47.8177 30.7015C47.7766 30.7065 47.735 30.6957 47.7023 30.6714C47.5783 30.5757 47.423 30.5251 47.2638 30.5285C47.082 30.5281 46.9072 30.5953 46.7763 30.7161C46.7136 30.7751 46.6638 30.8455 46.6298 30.9231C46.5958 31.0008 46.5783 31.0841 46.5783 31.1683C46.5783 31.2524 46.5958 31.3358 46.6298 31.4134C46.6638 31.491 46.7136 31.5614 46.7763 31.6204C46.9081 31.7398 47.0823 31.8068 47.2638 31.808C47.4229 31.811 47.5781 31.7604 47.7023 31.6651C47.7357 31.6433 47.7765 31.6342 47.8166 31.6396C47.8566 31.645 47.8932 31.6644 47.9192 31.6941C47.9435 31.7253 47.9544 31.7642 47.9496 31.8028C47.9449 31.8415 47.9248 31.8769 47.8935 31.9017C47.713 32.0346 47.4914 32.1061 47.2638 32.1049C47.0022 32.1055 46.751 32.0074 46.5646 31.8319C46.3781 31.6563 46.2715 31.4175 46.2678 31.1671Z" fill="#263238"/>
<path d="M48.7191 31.9622C48.7191 31.9811 48.7151 31.9999 48.7075 32.0174C48.6998 32.0349 48.6886 32.0507 48.6745 32.064C48.6604 32.0773 48.6437 32.0878 48.6253 32.0949C48.6069 32.1019 48.5873 32.1054 48.5675 32.1051C48.5346 32.1044 48.5028 32.0936 48.4767 32.0743C48.4507 32.055 48.4318 32.0282 48.4228 31.9979C48.4217 31.986 48.4217 31.9741 48.4228 31.9622V30.426C48.4274 30.3909 48.4452 30.3586 48.4729 30.3352C48.5006 30.3118 48.5363 30.2988 48.5733 30.2988C48.6102 30.2988 48.6459 30.3118 48.6736 30.3352C48.7013 30.3586 48.7192 30.3909 48.7237 30.426V30.8726C48.8127 30.8243 48.913 30.7982 49.0153 30.7966C49.1726 30.7972 49.3233 30.8575 49.4343 30.9642C49.5454 31.0709 49.6077 31.2154 49.6077 31.366V31.9555C49.6031 31.9906 49.5853 32.0229 49.5576 32.0463C49.5299 32.0697 49.4942 32.0827 49.4573 32.0827C49.4203 32.0827 49.3846 32.0697 49.3569 32.0463C49.3292 32.0229 49.3114 31.9906 49.3068 31.9555V31.366C49.3068 31.292 49.2761 31.221 49.2214 31.1687C49.1668 31.1163 49.0926 31.0869 49.0153 31.0869C48.938 31.0869 48.8638 31.1163 48.8091 31.1687C48.7544 31.221 48.7237 31.292 48.7237 31.366L48.7191 31.9622Z" fill="#263238"/>
<path d="M51.3403 31.4687V31.9778C51.3403 32.0141 51.3254 32.049 51.2988 32.0749C51.2722 32.1008 51.236 32.1156 51.198 32.1162C51.1646 32.1159 51.1322 32.1046 51.1064 32.0843C51.0805 32.064 51.0626 32.0359 51.0557 32.0046C50.9503 32.0768 50.8239 32.1158 50.6942 32.1162C50.607 32.117 50.5206 32.1005 50.4403 32.0678C50.3601 32.0352 50.2877 31.987 50.2277 31.9264C50.1081 31.8016 50.0422 31.6381 50.0435 31.4687C50.0433 31.3028 50.1092 31.1431 50.2277 31.0221C50.3297 30.9129 50.4705 30.8439 50.6227 30.8286C50.775 30.8133 50.9277 30.8529 51.0511 30.9395C51.0575 30.9078 51.0752 30.8791 51.1011 30.8584C51.127 30.8376 51.1596 30.8261 51.1934 30.8256C51.2123 30.8259 51.2311 30.8298 51.2485 30.837C51.2659 30.8442 51.2817 30.8547 51.2949 30.8678C51.3081 30.8808 51.3185 30.8962 51.3255 30.9132C51.3325 30.9301 51.3359 30.9481 51.3356 30.9663L51.3403 31.4687ZM51.0534 31.4687C51.0554 31.3694 51.0169 31.2733 50.9461 31.2007C50.9147 31.1665 50.876 31.1392 50.8325 31.1207C50.789 31.1022 50.7418 31.0929 50.6942 31.0936C50.6466 31.0925 50.5992 31.1015 50.5557 31.12C50.5121 31.1386 50.4734 31.1661 50.4423 31.2007C50.3724 31.2737 50.3347 31.3697 50.3374 31.4687C50.3364 31.5674 50.3738 31.6629 50.4423 31.7366C50.4748 31.7691 50.5139 31.7948 50.5573 31.8121C50.6006 31.8294 50.6473 31.8379 50.6942 31.8371C50.7411 31.8374 50.7876 31.8286 50.8308 31.8113C50.8741 31.7941 50.9133 31.7687 50.9461 31.7366C51.0153 31.6631 51.0535 31.5676 51.0534 31.4687Z" fill="#263238"/>
<path d="M52.7121 30.9416C52.7121 30.9783 52.6969 31.0135 52.6697 31.0395C52.6426 31.0654 52.6058 31.08 52.5675 31.08C52.5088 31.0784 52.4513 31.0957 52.4042 31.1291C52.3532 31.1615 52.3102 31.2042 52.2783 31.2542C52.2293 31.3224 52.1923 31.3978 52.1686 31.4774V31.9709C52.1683 31.9894 52.1642 32.0076 52.1566 32.0246C52.1489 32.0415 52.1378 32.0569 52.124 32.0697C52.1101 32.0826 52.0937 32.0927 52.0758 32.0995C52.0578 32.1063 52.0387 32.1096 52.0194 32.1093C51.981 32.1093 51.9442 32.0948 51.9171 32.0688C51.89 32.0428 51.8748 32.0076 51.8748 31.9709V30.946C51.8748 30.928 51.8785 30.9101 51.8858 30.8934C51.8931 30.8767 51.9038 30.8616 51.9173 30.8489C51.9307 30.8363 51.9467 30.8263 51.9642 30.8196C51.9817 30.8128 52.0005 30.8095 52.0194 30.8098C52.0579 30.8092 52.0952 30.8232 52.1232 30.8487C52.1511 30.8741 52.1674 30.9091 52.1686 30.946V30.9639C52.1855 30.9451 52.2043 30.9279 52.2246 30.9125C52.3252 30.8456 52.4449 30.8097 52.5675 30.8098C52.6048 30.8092 52.6409 30.8227 52.668 30.8473C52.695 30.872 52.7109 30.9058 52.7121 30.9416Z" fill="#263238"/>
<path d="M53.2364 30.2829C53.2762 30.2829 53.3144 30.2979 53.3428 30.3246C53.3712 30.3514 53.3874 30.3877 53.388 30.4258V31.962C53.3835 31.9971 53.3656 32.0294 53.3379 32.0528C53.3102 32.0762 53.2746 32.0892 53.2376 32.0892C53.2006 32.0892 53.165 32.0762 53.1372 32.0528C53.1095 32.0294 53.0917 31.9971 53.0872 31.962V30.4258C53.0872 30.407 53.091 30.3885 53.0985 30.3711C53.106 30.3538 53.117 30.338 53.1309 30.3248C53.1447 30.3115 53.1612 30.301 53.1793 30.2938C53.1974 30.2866 53.2168 30.2829 53.2364 30.2829Z" fill="#263238"/>
<path d="M54.0324 30.4794C54.0324 30.5169 54.017 30.5529 53.9895 30.5797C53.962 30.6064 53.9247 30.6217 53.8855 30.6223C53.8463 30.6217 53.8089 30.6064 53.7814 30.5797C53.7539 30.5529 53.7385 30.5169 53.7385 30.4794V30.4236C53.7385 30.4051 53.7423 30.3868 53.7497 30.3697C53.7571 30.3527 53.7679 30.3372 53.7816 30.3241C53.7952 30.311 53.8114 30.3007 53.8292 30.2936C53.8471 30.2865 53.8662 30.2829 53.8855 30.2829C53.9048 30.2829 53.9239 30.2865 53.9417 30.2936C53.9595 30.3007 53.9757 30.311 53.9894 30.3241C54.003 30.3372 54.0138 30.3527 54.0212 30.3697C54.0286 30.3868 54.0324 30.4051 54.0324 30.4236V30.4794ZM54.0324 30.9483V31.9642C54.0324 32.0015 54.0169 32.0373 53.9894 32.0637C53.9618 32.0901 53.9244 32.1049 53.8855 32.1049C53.8465 32.1049 53.8091 32.0901 53.7816 32.0637C53.754 32.0373 53.7385 32.0015 53.7385 31.9642V30.9483C53.7385 30.9298 53.7423 30.9115 53.7497 30.8945C53.7571 30.8774 53.7679 30.8619 53.7816 30.8488C53.7952 30.8358 53.8114 30.8254 53.8292 30.8183C53.8471 30.8113 53.8662 30.8076 53.8855 30.8076C53.9048 30.8076 53.9239 30.8113 53.9417 30.8183C53.9595 30.8254 53.9757 30.8358 53.9894 30.8488C54.003 30.8619 54.0138 30.8774 54.0212 30.8945C54.0286 30.9115 54.0324 30.9298 54.0324 30.9483Z" fill="#263238"/>
<path d="M54.412 31.4531C54.4108 31.2831 54.4796 31.1195 54.6037 30.9978C54.7277 30.8762 54.8969 30.8063 55.0744 30.8033C55.2444 30.8015 55.4083 30.8637 55.5309 30.9764C55.6535 31.0892 55.7249 31.2435 55.7298 31.4062V31.4196C55.731 31.4277 55.731 31.436 55.7298 31.4441C55.7241 31.4753 55.7062 31.5033 55.6798 31.5223C55.6534 31.5414 55.6204 31.5502 55.5875 31.5469H54.7315C54.7449 31.6115 54.7773 31.6711 54.8248 31.7188C54.8942 31.7858 54.9857 31.8276 55.0837 31.8371C55.1834 31.8453 55.2832 31.8226 55.3683 31.7724C55.3961 31.7484 55.4323 31.7351 55.4698 31.7351C55.5072 31.7351 55.5434 31.7484 55.5712 31.7724C55.5831 31.7834 55.5925 31.7966 55.5989 31.8112C55.6053 31.8257 55.6087 31.8414 55.6087 31.8572C55.6087 31.873 55.6053 31.8887 55.5989 31.9033C55.5925 31.9178 55.5831 31.931 55.5712 31.9421C55.4378 32.0571 55.2633 32.1187 55.0837 32.114C54.9941 32.1134 54.9055 32.0958 54.8231 32.0622C54.7406 32.0285 54.666 31.9795 54.6035 31.918C54.541 31.8565 54.4919 31.7838 54.459 31.704C54.4261 31.6241 54.4102 31.5389 54.412 31.4531ZM54.7082 31.3258H55.4779C55.4466 31.247 55.3915 31.1788 55.3197 31.1299C55.2479 31.081 55.1625 31.0536 55.0744 31.0512C54.9903 31.052 54.9089 31.0794 54.8427 31.1291C54.7765 31.1787 54.7292 31.2479 54.7082 31.3258Z" fill="#263238"/>
<path d="M47.6044 17.625C47.6074 17.4694 47.6741 17.3212 47.7902 17.2122C47.9062 17.1033 48.0622 17.0422 48.2248 17.0422C48.3654 17.0419 48.5023 17.0858 48.6143 17.1673C48.6336 17.1829 48.6459 17.205 48.649 17.229C48.652 17.253 48.6454 17.2772 48.6306 17.2968C48.6149 17.316 48.592 17.3287 48.5668 17.332C48.5415 17.3353 48.5159 17.3291 48.4953 17.3146C48.4187 17.2561 48.3229 17.2253 48.2248 17.2276C48.1113 17.2278 48.002 17.2693 47.9192 17.3437C47.88 17.3803 47.8489 17.424 47.8276 17.4724C47.8063 17.5207 47.7954 17.5726 47.7954 17.625C47.7954 17.6774 47.8063 17.7293 47.8276 17.7777C47.8489 17.826 47.88 17.8697 47.9192 17.9063C48.002 17.9807 48.1113 18.0222 48.2248 18.0225C48.3232 18.0241 48.419 17.9925 48.4953 17.9331C48.5164 17.9202 48.5416 17.9149 48.5664 17.9181C48.5912 17.9214 48.614 17.9331 48.6306 17.951C48.6454 17.9706 48.652 17.9948 48.649 18.0188C48.6459 18.0428 48.6336 18.0649 48.6143 18.0805C48.5023 18.1619 48.3654 18.2059 48.2248 18.2055C48.0625 18.2062 47.9064 18.1456 47.7903 18.037C47.6742 17.9284 47.6074 17.7804 47.6044 17.625Z" fill="#C7C7C7"/>
<path d="M49.6548 17.8126V18.1296C49.6548 18.1521 49.6455 18.1737 49.6288 18.1896C49.6122 18.2055 49.5897 18.2145 49.5662 18.2145C49.5454 18.2144 49.5252 18.2075 49.5091 18.1949C49.4929 18.1823 49.4818 18.1648 49.4775 18.1453C49.4099 18.1924 49.3279 18.2168 49.2443 18.2145C49.1907 18.2149 49.1376 18.2049 49.0883 18.1849C49.0389 18.1649 48.9944 18.1355 48.9574 18.0984C48.8816 18.021 48.8399 17.9186 48.8408 17.8126C48.8397 17.7603 48.8494 17.7083 48.8694 17.6596C48.8894 17.6109 48.9193 17.5665 48.9574 17.529C48.9933 17.4901 49.0375 17.4591 49.087 17.4379C49.1365 17.4167 49.1901 17.4059 49.2443 17.4062C49.328 17.4059 49.4096 17.4309 49.4775 17.4776C49.4817 17.4579 49.4928 17.4401 49.5089 17.4272C49.5249 17.4142 49.5451 17.4068 49.5662 17.4062C49.5899 17.4068 49.6124 17.4162 49.629 17.4325C49.6455 17.4487 49.6548 17.4706 49.6548 17.4933V17.8126ZM49.4752 17.8126C49.4757 17.751 49.4525 17.6913 49.4099 17.6451C49.3896 17.6246 49.3652 17.6083 49.3381 17.5972C49.3111 17.586 49.2819 17.5803 49.2525 17.5803C49.223 17.5803 49.1938 17.586 49.1668 17.5972C49.1397 17.6083 49.1153 17.6246 49.095 17.6451C49.0545 17.6923 49.0323 17.7515 49.0323 17.8126C49.0323 17.8737 49.0545 17.9329 49.095 17.98C49.138 18.0177 49.1942 18.0386 49.2525 18.0386C49.3107 18.0386 49.3669 18.0177 49.4099 17.98C49.4525 17.9338 49.4757 17.8742 49.4752 17.8126Z" fill="#C7C7C7"/>
<path d="M50.1134 17.0824C50.138 17.083 50.1614 17.0926 50.1787 17.1092C50.1961 17.1258 50.2061 17.1482 50.2067 17.1717V18.1274C50.2067 18.1511 50.1969 18.1738 50.1794 18.1905C50.1619 18.2073 50.1382 18.2167 50.1134 18.2167C50.0887 18.2167 50.065 18.2073 50.0475 18.1905C50.03 18.1738 50.0201 18.1511 50.0201 18.1274V17.1784C50.0195 17.1662 50.0214 17.154 50.0258 17.1425C50.0302 17.131 50.0369 17.1205 50.0456 17.1116C50.0543 17.1026 50.0648 17.0954 50.0764 17.0904C50.0881 17.0854 50.1007 17.0827 50.1134 17.0824Z" fill="#C7C7C7"/>
<path d="M50.5331 17.0824C50.5581 17.0824 50.582 17.0917 50.5999 17.1084C50.6178 17.1251 50.6281 17.1478 50.6287 17.1717V18.1274C50.6252 18.1489 50.6137 18.1685 50.5964 18.1827C50.5791 18.1969 50.5571 18.2047 50.5343 18.2047C50.5115 18.2047 50.4895 18.1969 50.4721 18.1827C50.4548 18.1685 50.4434 18.1489 50.4398 18.1274V17.1784C50.4392 17.1662 50.4411 17.154 50.4455 17.1425C50.4499 17.131 50.4566 17.1205 50.4653 17.1116C50.474 17.1026 50.4845 17.0954 50.4961 17.0904C50.5078 17.0854 50.5203 17.0827 50.5331 17.0824Z" fill="#C7C7C7"/>
<path d="M51.0353 17.2051C51.0356 17.2169 51.0334 17.2287 51.0288 17.2397C51.0243 17.2506 51.0174 17.2606 51.0087 17.269C50.9999 17.2773 50.9895 17.2839 50.9781 17.2883C50.9666 17.2926 50.9543 17.2947 50.942 17.2944C50.9176 17.2939 50.8945 17.2842 50.8775 17.2675C50.8605 17.2508 50.851 17.2284 50.851 17.2051V17.1783C50.851 17.155 50.8605 17.1326 50.8775 17.116C50.8945 17.0993 50.9176 17.0896 50.942 17.089C50.9543 17.0887 50.9666 17.0908 50.9781 17.0952C50.9895 17.0996 50.9999 17.1061 51.0087 17.1145C51.0174 17.1229 51.0243 17.1328 51.0288 17.1438C51.0334 17.1548 51.0356 17.1665 51.0353 17.1783V17.2051ZM51.0353 17.4976V18.1273C51.0318 18.1483 51.0206 18.1674 51.0037 18.1812C50.9868 18.1949 50.9653 18.2025 50.9432 18.2025C50.921 18.2025 50.8995 18.1949 50.8826 18.1812C50.8657 18.1674 50.8545 18.1483 50.851 18.1273V17.4976C50.8489 17.4849 50.8497 17.4718 50.8533 17.4594C50.857 17.4469 50.8634 17.4354 50.8722 17.4256C50.8809 17.4158 50.8918 17.4079 50.9041 17.4025C50.9163 17.397 50.9297 17.3942 50.9432 17.3942C50.9566 17.3942 50.97 17.397 50.9822 17.4025C50.9945 17.4079 51.0054 17.4158 51.0141 17.4256C51.0229 17.4354 51.0293 17.4469 51.033 17.4594C51.0366 17.4718 51.0374 17.4849 51.0353 17.4976Z" fill="#C7C7C7"/>
<path d="M52.0287 17.7433V18.1296C52.0287 18.1521 52.0194 18.1737 52.0028 18.1896C51.9861 18.2055 51.9636 18.2145 51.9401 18.2145C51.9168 18.2139 51.8946 18.2048 51.8781 18.189C51.8616 18.1732 51.852 18.152 51.8515 18.1296V17.7433C51.8511 17.7216 51.8464 17.7002 51.8374 17.6803C51.8285 17.6603 51.8155 17.6423 51.7993 17.6272C51.783 17.612 51.7638 17.6001 51.7428 17.5921C51.7217 17.584 51.6992 17.5801 51.6765 17.5804C51.6541 17.5801 51.6318 17.5841 51.611 17.5921C51.5902 17.6002 51.5713 17.6122 51.5554 17.6274C51.5396 17.6426 51.527 17.6607 51.5186 17.6806C51.5101 17.7005 51.5059 17.7219 51.5063 17.7433V18.1296C51.5072 18.1348 51.5072 18.1401 51.5063 18.1453C51.5015 18.1649 51.4899 18.1825 51.4734 18.1951C51.4569 18.2077 51.4364 18.2145 51.4153 18.2145C51.3918 18.2145 51.3692 18.2055 51.3526 18.1896C51.336 18.1737 51.3267 18.1521 51.3267 18.1296V17.4933C51.3267 17.4706 51.3359 17.4487 51.3525 17.4325C51.369 17.4162 51.3916 17.4068 51.4153 17.4062C51.4329 17.4063 51.4502 17.4111 51.465 17.4202C51.4799 17.4293 51.4918 17.4423 51.4993 17.4575C51.5527 17.4242 51.6151 17.4064 51.6789 17.4062C51.7717 17.4074 51.8603 17.4433 51.9257 17.5064C51.9911 17.5694 52.0281 17.6545 52.0287 17.7433Z" fill="#C7C7C7"/>
<path d="M53.1153 17.817V18.1162C53.1147 18.2191 53.0717 18.3175 52.9957 18.3903C52.9197 18.463 52.8169 18.5041 52.7094 18.5047C52.6478 18.5054 52.5869 18.4916 52.5322 18.4645C52.5106 18.4544 52.494 18.4365 52.4861 18.4148C52.4783 18.393 52.4797 18.3691 52.4902 18.3484C52.4954 18.3379 52.5028 18.3285 52.5119 18.3207C52.521 18.313 52.5316 18.307 52.5431 18.3033C52.5546 18.2995 52.5668 18.298 52.579 18.2989C52.5911 18.2997 52.603 18.3029 52.6138 18.3082C52.6434 18.3227 52.6762 18.3303 52.7094 18.3306C52.7613 18.3293 52.8113 18.3115 52.8515 18.2799C52.8916 18.2484 52.9196 18.2049 52.931 18.1564C52.8656 18.1987 52.7884 18.2213 52.7094 18.2211C52.6553 18.221 52.6018 18.21 52.5524 18.1889C52.503 18.1677 52.4587 18.1369 52.4225 18.0983C52.3461 18.0221 52.3034 17.9205 52.3036 17.8148C52.3041 17.7079 52.3466 17.6051 52.4225 17.5267C52.4592 17.4889 52.5036 17.4587 52.5529 17.438C52.6023 17.4172 52.6555 17.4064 52.7094 17.4062C52.793 17.4044 52.8748 17.4287 52.9427 17.4754C52.9465 17.4557 52.9575 17.4379 52.9738 17.4252C52.99 17.4126 53.0104 17.4058 53.0313 17.4062C53.0554 17.4062 53.0786 17.4153 53.0956 17.4317C53.1127 17.448 53.1223 17.4701 53.1223 17.4932V17.8148L53.1153 17.817ZM52.9333 17.817C52.9342 17.7564 52.9117 17.6976 52.8704 17.6518C52.8501 17.6301 52.8253 17.6127 52.7976 17.6008C52.7699 17.5889 52.7398 17.5827 52.7094 17.5826C52.6797 17.5826 52.6503 17.5888 52.6233 17.6007C52.5964 17.6127 52.5724 17.6301 52.5532 17.6518C52.5095 17.6966 52.4853 17.7557 52.4855 17.817C52.4844 17.8475 52.4898 17.8779 52.5015 17.9063C52.5131 17.9347 52.5307 17.9606 52.5532 17.9822C52.5725 18.0036 52.5966 18.0207 52.6236 18.0323C52.6505 18.0438 52.6799 18.0496 52.7094 18.0492C52.7397 18.0495 52.7696 18.0437 52.7974 18.0322C52.8251 18.0206 52.85 18.0036 52.8704 17.9822C52.9129 17.9361 52.9354 17.8762 52.9333 17.8148V17.817Z" fill="#C7C7C7"/>
<path d="M53.5799 17.9868C53.6135 17.9868 53.6458 17.9994 53.6698 18.0219C53.6938 18.0445 53.7076 18.0751 53.7082 18.1073C53.7079 18.1232 53.7043 18.1388 53.6977 18.1533C53.6911 18.1678 53.6816 18.1809 53.6697 18.1919C53.6578 18.2029 53.6437 18.2116 53.6283 18.2174C53.6129 18.2231 53.5965 18.226 53.5799 18.2257C53.5471 18.2257 53.5157 18.2132 53.4925 18.191C53.4693 18.1688 53.4563 18.1387 53.4563 18.1073C53.4563 18.0757 53.4692 18.0454 53.4924 18.0228C53.5155 18.0003 53.5469 17.9873 53.5799 17.9868Z" fill="#C7C7C7"/>
<path d="M53.969 17.9868C53.9855 17.9868 54.0019 17.9899 54.0172 17.9959C54.0324 18.002 54.0463 18.0109 54.058 18.0221C54.0697 18.0333 54.079 18.0466 54.0853 18.0612C54.0917 18.0758 54.0949 18.0915 54.0949 18.1073C54.0949 18.1393 54.0816 18.17 54.058 18.1926C54.0344 18.2152 54.0024 18.2279 53.969 18.2279C53.9356 18.2279 53.9035 18.2152 53.8799 18.1926C53.8563 18.17 53.843 18.1393 53.843 18.1073C53.843 18.0754 53.8563 18.0447 53.8799 18.0221C53.9035 17.9995 53.9356 17.9868 53.969 17.9868Z" fill="#C7C7C7"/>
<path d="M54.3565 17.9868C54.3902 17.9868 54.4224 17.9994 54.4464 18.0219C54.4704 18.0445 54.4842 18.0751 54.4848 18.1073C54.4845 18.1232 54.4809 18.1388 54.4743 18.1533C54.4677 18.1678 54.4582 18.1809 54.4463 18.1919C54.4344 18.2029 54.4203 18.2116 54.4049 18.2174C54.3895 18.2231 54.3731 18.226 54.3565 18.2257C54.3237 18.2257 54.2923 18.2132 54.2691 18.191C54.2459 18.1688 54.2329 18.1387 54.2329 18.1073C54.2329 18.0757 54.2459 18.0454 54.269 18.0228C54.2921 18.0003 54.3235 17.9873 54.3565 17.9868Z" fill="#C7C7C7"/>
<path d="M53.5874 28.1775C53.1486 28.4386 52.6691 28.6308 52.1669 28.7469C50.9627 29.0285 49.6919 28.8652 48.6079 28.2894C47.524 27.7136 46.7066 26.7678 46.319 25.6406C45.9313 24.5135 46.0018 23.2878 46.5164 22.2082C47.0311 21.1286 47.9519 20.2744 49.0954 19.8161C50.2388 19.3577 51.5207 19.3289 52.6853 19.7354C53.85 20.1419 54.8117 20.9538 55.3786 22.0091C55.9456 23.0644 56.076 24.2856 55.744 25.4289C55.412 26.5723 54.6419 27.5537 53.5874 28.1775Z" fill="#C7C7C7"/>
<path d="M52.498 23.6291C52.498 23.9131 52.4101 24.1907 52.2453 24.4268C52.0805 24.6629 51.8462 24.8469 51.5722 24.9556C51.2982 25.0642 50.9966 25.0927 50.7057 25.0373C50.4148 24.9819 50.1475 24.8451 49.9378 24.6443C49.7281 24.4435 49.5852 24.1877 49.5274 23.9092C49.4695 23.6307 49.4992 23.3421 49.6127 23.0797C49.7262 22.8174 49.9184 22.5931 50.1651 22.4354C50.4117 22.2776 50.7017 22.1934 50.9983 22.1934C51.1953 22.1931 51.3905 22.2301 51.5726 22.3021C51.7547 22.3742 51.9201 22.4799 52.0594 22.6133C52.1988 22.7467 52.3092 22.905 52.3845 23.0794C52.4597 23.2537 52.4983 23.4405 52.498 23.6291Z" fill="white"/>
<path d="M53.5866 27.5857V28.1774C53.1479 28.4385 52.6684 28.6307 52.1662 28.7468C51.5317 28.8962 50.8724 28.9227 50.2271 28.8245C49.5818 28.7263 48.9635 28.5055 48.4087 28.1752V27.5857C48.4087 26.9284 48.6815 26.298 49.167 25.8332C49.6525 25.3684 50.311 25.1072 50.9977 25.1072C51.6843 25.1072 52.3428 25.3684 52.8284 25.8332C53.3139 26.298 53.5866 26.9284 53.5866 27.5857Z" fill="white"/>
<path d="M94.4878 86.3269C94.4878 86.3269 86.4526 89.9686 75.8985 89.9686C64.6912 89.9686 59.2567 86.4743 59.2567 86.4743C51.0723 80.3228 50.228 71.2084 56.066 65.6821C59.5996 62.3329 62.1839 63.0139 66.4569 62.4825H66.4685C67.9779 62.3291 69.446 61.9161 70.8021 61.2633C75.2011 59.0417 77.6828 53.8012 81.3843 49.3914C81.8508 48.8376 82.3336 48.3017 82.8327 47.7837C85.8649 44.6712 91.9291 44.5707 95.1035 48.9448C103.155 60.0487 102.929 76.5917 94.4878 86.3269Z" fill="#7EBAEB"/>
<g opacity="0.1">
<path d="M94.4883 86.3269C94.4883 86.3269 86.4531 89.9686 75.899 89.9686C64.6917 89.9686 59.2572 86.4743 59.2572 86.4743C51.0728 80.3228 50.2284 71.2084 56.0665 65.6821C59.6001 62.3329 62.1844 63.0139 66.4574 62.4825H66.469C67.9784 62.3291 69.4465 61.9161 70.8026 61.2633C75.2016 59.0417 77.6832 53.8012 81.3848 49.3914C81.8513 48.8376 82.3341 48.3017 82.8332 47.7837C85.8653 44.6712 91.9296 44.5707 95.104 48.9448C103.156 60.0487 102.929 76.5917 94.4883 86.3269Z" fill="black"/>
</g>
<path opacity="0.1" d="M71.9923 77.3643C82.7214 79.8919 92.5572 74.1222 93.4389 60.8972C94.0849 51.2134 86.8895 46.6405 81.3756 49.3824C77.6834 53.7968 75.2041 59.0328 70.8028 61.2544C69.4467 61.9071 67.9786 62.3201 66.4692 62.4735H66.4552L66.0004 62.5271C61.1047 65.4611 63.661 75.4017 71.9923 77.3643Z" fill="black"/>
<path d="M62.2447 94.7913C62.7719 94.7087 75.6071 88.2268 75.9337 87.6842C76.0573 87.4788 75.1803 85.6344 74.0537 83.4418C73.8205 82.9662 73.5569 82.4772 73.2957 81.9815C71.607 78.764 69.7341 75.3857 69.7341 75.3857L61.1368 79.6973L64.934 86.1726L65.7667 87.5949C65.7667 87.5949 62.0138 92.1767 61.7293 92.8085C61.4447 93.4404 61.7293 94.8806 62.2447 94.7913Z" fill="#F7A9A0"/>
<path d="M62.2453 94.7915C62.7725 94.7088 75.6054 88.2292 75.9319 87.6843C76.0439 87.5035 75.3745 86.0477 74.4439 84.1967C73.9237 84.8866 66.3784 90.5692 63.948 91.0336C62.9521 91.2234 64.5848 89.0598 64.6477 88.9682C63.5165 90.3749 61.9095 92.4001 61.7229 92.8065C61.4337 93.4406 61.7159 94.8808 62.2453 94.7915Z" fill="#263238"/>
<path d="M64.4996 89.1447C64.4996 89.1447 65.6355 88.2717 67.6904 89.176L64.4996 89.1447Z" fill="#263238"/>
<path d="M56.0941 69.5247C56.6982 73.2937 64.2342 86.1236 64.2342 86.1236L73.4215 81.3543L67.8564 72.1304C67.8564 72.1304 80.0269 74.0864 84.785 72.4185C89.8627 70.6322 89.4172 64.8916 89.4172 64.8916L77.3563 62.9691C77.2257 63.2917 76.9808 63.5601 76.6645 63.7274C76.3482 63.8947 75.9805 63.9504 75.6257 63.8846C70.9445 63.3241 64.5327 63.2147 62.0557 63.3532C58.8603 63.543 55.5413 66.0772 56.0941 69.5247Z" fill="#37474F"/>
<path d="M65.2275 68.8793C65.4975 69.1575 65.7483 69.4521 65.9785 69.7613C66.2374 70.0717 66.4986 70.3776 66.7552 70.6879C66.7085 70.5964 66.6642 70.5048 66.6153 70.4155C66.4496 70.1052 66.3167 69.7836 66.1231 69.4889C66.1114 69.471 66.1418 69.4532 66.1534 69.471C66.3517 69.7635 66.5803 70.0426 66.7505 70.3508C66.8322 70.4959 66.9091 70.6433 66.9838 70.7973C67.0234 70.8777 67.0631 70.9603 67.0981 71.0452C67.1172 71.0843 67.1335 71.1246 67.147 71.1658C67.2637 71.3087 67.3803 71.4538 67.4876 71.5989C67.7325 71.9271 67.9541 72.2688 68.2013 72.5948C68.2129 72.6126 68.185 72.6283 68.171 72.6126C67.9214 72.309 67.6392 72.0276 67.3849 71.7195C67.1307 71.4114 66.8788 71.0965 66.6339 70.7772C66.389 70.4579 66.1674 70.1543 65.9342 69.8439C65.6737 69.538 65.4337 69.2166 65.2158 68.8816C65.2111 68.8838 65.2275 68.8704 65.2275 68.8793Z" fill="#263238"/>
<path d="M63.7608 84.0917C63.9941 83.9332 64.2576 83.7881 64.5095 83.6452C64.7614 83.5023 65.004 83.3549 65.2536 83.212C65.7644 82.9195 66.2798 82.6359 66.7953 82.3501C67.8286 81.7785 68.8735 81.2203 69.9137 80.6599C70.4992 80.3473 71.08 80.0436 71.6747 79.7355C71.6864 79.7355 71.7004 79.7355 71.6887 79.7533C70.6881 80.3473 69.6828 80.9367 68.6682 81.5128C67.6536 82.0889 66.6064 82.6672 65.5591 83.2209C65.2676 83.375 64.9737 83.5246 64.6798 83.6675C64.3859 83.8104 64.085 83.9756 63.7772 84.1141C63.7632 84.1208 63.7468 84.1007 63.7608 84.0917Z" fill="#263238"/>
<path d="M87.7333 65.1841C87.778 66.7093 87.2142 68.1935 86.1566 69.3349C85.6236 69.8886 84.9836 70.3382 84.272 70.659C83.5559 70.9686 82.7931 71.1675 82.0119 71.2485C80.4469 71.4323 78.8691 71.4958 77.2935 71.4383C75.7168 71.3936 74.1401 71.2775 72.575 71.0922C71.0079 70.9207 69.4538 70.6544 67.9218 70.295C67.5417 70.2013 67.1615 70.0986 66.7883 69.9802C66.6017 69.9199 66.4174 69.8574 66.2355 69.7904C66.0513 69.7092 65.8591 69.6456 65.6617 69.6006C65.5548 69.5794 65.4445 69.5794 65.3375 69.6006C65.2778 69.6136 65.2225 69.6409 65.1768 69.68C65.1311 69.719 65.0965 69.7686 65.0763 69.8239C65.0575 69.8755 65.0488 69.93 65.0506 69.9847C65.0503 70.0396 65.0606 70.0941 65.081 70.1454C65.1136 70.2414 65.1556 70.3285 65.1953 70.4156C65.3632 70.7617 65.5475 71.0855 65.734 71.4316C67.2524 74.0886 68.8875 76.6787 70.5271 79.2643C69.7295 77.9604 68.9396 76.6504 68.1574 75.3345C67.3714 74.0216 66.5877 72.7087 65.8507 71.3713C65.6687 71.0386 65.4845 70.7014 65.3259 70.3598C65.288 70.2738 65.2553 70.1858 65.2279 70.0963C65.2125 70.0601 65.2038 70.0215 65.2023 69.9824C65.203 69.9422 65.21 69.9023 65.2232 69.8641C65.2652 69.7123 65.4565 69.6944 65.6454 69.7279C65.8328 69.7706 66.0149 69.8319 66.1889 69.911C66.3755 69.9802 66.5621 70.045 66.751 70.1052C67.1265 70.2258 67.509 70.3285 67.8915 70.4268C69.4267 70.7936 70.9848 71.0658 72.5563 71.2418C74.1284 71.4226 75.7098 71.5343 77.2911 71.5744C78.8755 71.6274 80.4617 71.5527 82.0329 71.3512C82.8249 71.2605 83.5971 71.051 84.321 70.7304C85.0408 70.3986 85.6858 69.9352 86.2196 69.3662C86.7403 68.7974 87.1368 68.1347 87.3858 67.4169C87.6435 66.6993 87.7613 65.9425 87.7333 65.1841Z" fill="#263238"/>
<path d="M73.7804 96.1467C74.2795 95.9614 85.4215 87.0636 85.622 86.4674C85.699 86.2441 84.4418 84.6119 82.8605 82.685C82.5199 82.2674 82.1607 81.841 81.8016 81.4078C79.4551 78.5967 76.8895 75.6783 76.8895 75.6783L69.4258 81.611L74.5571 87.1931L75.6813 88.4189C75.6813 88.4189 73.006 93.6527 72.8591 94.3292C72.7121 95.0058 73.2836 96.3343 73.7804 96.1467Z" fill="#F7A9A0"/>
<path d="M73.7804 96.1469C74.2795 95.9616 85.4215 87.0638 85.6221 86.4676C85.6897 86.2689 84.7194 84.9783 83.4063 83.3528C83.0447 84.132 76.9012 91.1923 74.6247 92.1323C73.6918 92.5163 74.8183 90.0736 74.858 89.9709C74.0603 91.5696 72.9267 93.8739 72.8334 94.3071C72.6912 94.9858 73.2813 96.3345 73.7804 96.1469Z" fill="#263238"/>
<path d="M74.7583 90.1738C74.7583 90.1738 75.6796 89.0931 77.8861 89.5687L74.7583 90.1738Z" fill="#263238"/>
<path d="M61.4964 70.6413C62.0982 74.4103 72.0669 85.1234 73.2191 86.3537L73.4803 86.6328L81.3989 80.5506L81.3032 80.4389L75.8337 74.0999C75.8337 74.0999 84.5733 77.3755 88.634 72.2913C90.2504 70.2684 89.4177 64.8917 89.4177 64.8917L79.7289 63.3979C79.7289 63.3979 79.4839 64.9855 78.1265 64.8247C73.4477 64.2643 69.7718 63.7664 67.2948 63.9115C64.097 64.0901 60.9413 67.1938 61.4964 70.6413Z" fill="#37474F"/>
<path d="M77.8629 64.7799C74.8564 64.369 71.8383 63.9939 68.7991 63.8622C68.419 63.8488 68.0364 63.8421 67.6563 63.8465C67.2719 63.8467 66.8882 63.8758 66.5087 63.9336C66.3187 63.9697 66.1322 64.0212 65.9513 64.0877C65.7693 64.148 65.5921 64.2149 65.4171 64.2909C65.0657 64.4378 64.7265 64.6103 64.4025 64.8066C63.7483 65.1952 63.1652 65.684 62.6766 66.2535C61.9369 67.1144 61.4858 68.1688 61.3821 69.279C61.3681 69.3706 61.3657 69.4621 61.3611 69.5537C61.3564 69.6452 61.3611 69.739 61.3611 69.8328C61.3676 70.0184 61.387 70.2034 61.4194 70.3865C61.5775 71.1058 61.8306 71.8028 62.1728 72.4608C62.8481 73.7689 63.6328 75.0226 64.5192 76.2097C65.3892 77.4043 66.3128 78.5609 67.2644 79.6952C68.216 80.8295 69.2073 81.928 70.2079 83.0266C69.2283 81.9102 68.2627 80.7937 67.3297 79.6461C66.3968 78.4984 65.4801 77.3373 64.6265 76.1383C63.7572 74.9496 62.9837 73.6994 62.3127 72.3983C61.9793 71.7512 61.7332 71.0662 61.5803 70.3597C61.549 70.1848 61.5303 70.0079 61.5243 69.8305C61.5243 69.6541 61.536 69.471 61.5523 69.2946C61.5887 68.9376 61.6605 68.5847 61.7669 68.2407C61.981 67.5515 62.3353 66.9095 62.8095 66.3518C63.2836 65.7921 63.852 65.3122 64.4912 64.9317C64.8084 64.738 65.1405 64.5678 65.4848 64.4226C65.655 64.3489 65.83 64.2819 66.0072 64.2216C66.1816 64.1575 66.3609 64.1067 66.5437 64.0698C66.9149 64.0141 67.2899 63.9843 67.6656 63.9805C68.0434 63.9805 68.4213 63.9805 68.8015 63.9805C70.3175 64.0229 71.8336 64.148 73.3427 64.2886C74.8517 64.4293 76.3562 64.5968 77.8629 64.7799Z" fill="#263238"/>
<path d="M72.8728 70.3643C73.1419 70.6426 73.392 70.9372 73.6215 71.2463C73.8804 71.5544 74.1416 71.8603 74.3982 72.1707C74.3515 72.0791 74.3072 71.9876 74.2582 71.8983C74.0949 71.5879 73.9597 71.2664 73.7684 70.9716C73.7684 70.9538 73.7847 70.9359 73.7964 70.9538C73.9946 71.2463 74.2232 71.5254 74.3958 71.8335C74.4751 71.9809 74.5521 72.1283 74.6291 72.2801C74.6664 72.3627 74.7084 72.4431 74.7433 72.5279C74.7597 72.5659 74.7783 72.6061 74.7923 72.6485C74.9066 72.7914 75.0256 72.9365 75.1305 73.0951C75.3778 73.4211 75.597 73.7649 75.8442 74.0887C75.8582 74.1065 75.8279 74.1244 75.8139 74.1065C75.5644 73.8029 75.2821 73.5215 75.0279 73.2134C74.7737 72.9053 74.5218 72.5905 74.2769 72.2734C74.032 71.9563 73.8104 71.6482 73.5771 71.3378C73.3174 71.0321 73.0775 70.7115 72.8588 70.3777C72.8588 70.376 72.8591 70.3742 72.8598 70.3726C72.8605 70.371 72.8616 70.3695 72.8629 70.3682C72.8642 70.367 72.8657 70.366 72.8674 70.3653C72.8691 70.3647 72.8709 70.3643 72.8728 70.3643Z" fill="#263238"/>
<path d="M72.5911 84.8956C72.801 84.7014 73.0296 84.5183 73.2511 84.333L73.9089 83.7859C74.3614 83.4153 74.8208 83.0535 75.278 82.6896C76.197 81.9595 77.1253 81.2405 78.0559 80.5215C78.576 80.1174 79.1055 79.7244 79.6279 79.3247C79.6279 79.3247 79.6536 79.3247 79.6443 79.3403C78.7626 80.0846 77.8732 80.8289 76.976 81.5732C76.0788 82.3174 75.1575 83.0461 74.2121 83.7591C73.9509 83.9556 73.6896 84.1521 73.4261 84.3441C73.1625 84.5361 72.8919 84.746 72.6121 84.9269C72.6004 84.9247 72.5794 84.9068 72.5911 84.8956Z" fill="#263238"/>
<path d="M88.0693 65.347C88.2064 66.1697 88.2283 67.0062 88.1346 67.8344C88.0527 68.6617 87.809 69.4669 87.4162 70.2079C87.0154 70.9428 86.4057 71.5543 85.6576 71.9719C84.8981 72.37 84.0528 72.5947 83.1876 72.6283C82.3227 72.6785 81.4547 72.6471 80.5963 72.5345C79.7334 72.4294 78.8769 72.2803 78.0306 72.088C76.3394 71.7058 74.6778 71.2119 73.0579 70.6098L72.9973 70.5853L72.9669 70.6366C72.8536 70.8315 72.78 71.0451 72.75 71.2663C72.7139 71.4837 72.7139 71.7053 72.75 71.9227C72.79 72.138 72.859 72.3474 72.9553 72.5457C73.0626 72.7357 73.1834 72.9185 73.3168 73.0927C73.8369 73.7849 74.4014 74.4324 74.9681 75.1023C75.5349 75.7721 76.111 76.4018 76.6941 77.0404C77.2772 77.679 77.8603 78.3153 78.4574 78.9472C77.879 78.3042 77.3076 77.6544 76.7384 77.0047C76.1693 76.3549 75.6049 75.7007 75.0451 75.042C74.4853 74.3833 73.9326 73.7202 73.4241 73.0325C73.2976 72.8632 73.1838 72.6856 73.0836 72.501C72.9947 72.3136 72.9304 72.1164 72.8923 71.9138C72.8177 71.5092 72.8849 71.0924 73.0836 70.7282L72.9926 70.755C74.6165 71.3677 76.2837 71.8699 77.9816 72.2577C78.828 72.4496 79.6845 72.5986 80.5473 72.7042C81.4163 72.8133 82.2943 72.8409 83.1689 72.7868C84.0532 72.7498 84.9156 72.5126 85.6856 72.0947C86.4462 71.658 87.063 71.025 87.4652 70.2682C87.8556 69.5156 88.0886 68.6972 88.1509 67.859C88.241 67.0219 88.2135 66.1771 88.0693 65.347Z" fill="#263238"/>
<path d="M83.9009 65.0436C83.9685 65.4901 84.0641 65.9233 84.1714 66.3587C84.2435 66.7555 84.3964 67.1349 84.6216 67.4751C84.8647 67.7756 85.1767 68.0185 85.5336 68.1852C85.7367 68.2889 85.9462 68.3806 86.161 68.4598C86.3826 68.5301 86.5986 68.6159 86.8071 68.7166C86.8155 68.7215 86.8221 68.7289 86.8258 68.7376C86.8296 68.7464 86.8304 68.756 86.828 68.7652C86.8257 68.7744 86.8204 68.7826 86.8128 68.7887C86.8053 68.7948 86.7959 68.7985 86.7861 68.7992C86.5387 68.7843 86.2943 68.74 86.0584 68.6674C85.8288 68.6097 85.6042 68.535 85.3866 68.4442C84.9918 68.2693 84.6498 68.0011 84.393 67.6649C84.1537 67.298 84.0031 66.8845 83.9522 66.4547C83.866 65.9921 83.8285 65.5223 83.8402 65.0525C83.8402 65.0056 83.8869 65.0056 83.9009 65.0436Z" fill="#263238"/>
<path d="M83.1879 41.3976C83.1879 41.3976 85.2661 40.5045 86.9431 41.6946C88.6201 42.8847 89.2381 45.5485 88.7483 47.7009C88.2585 49.8534 89.9892 51.4364 90.0498 53.0709C90.1105 54.7053 88.9373 55.364 88.4918 56.1834C87.981 57.1212 89.3921 60.7072 84.9792 61.1649C79.4583 61.7365 77.6554 58.3739 78.4368 55.7726C78.8193 54.4977 79.6613 53.638 79.7382 52.5886C79.8152 51.5391 79.1108 50.6415 79.6286 49.3443C80.1464 48.047 80.6665 48.2703 81.0677 46.2004C81.4689 44.1306 81.2286 41.6008 83.1879 41.3976Z" fill="#263238"/>
<path d="M86.567 41.6165C87.6573 42.4196 88.4647 43.5229 88.8808 44.7782C89.0912 45.401 89.1921 46.0529 89.1793 46.7074C89.1607 47.5626 88.9577 48.3485 89.2166 49.1992C89.6318 50.5635 90.5974 51.7491 90.4202 53.2183C90.3364 53.9026 90.0526 54.5504 89.6015 55.0872C89.0744 55.7146 88.3606 56.188 87.9058 56.8735C87.8872 56.9025 87.8405 56.8735 87.8592 56.8444C88.2417 56.2371 88.8131 55.795 89.3053 55.2636C89.894 54.6426 90.2465 53.8496 90.3059 53.0129C90.3852 51.6084 89.4335 50.4496 89.0557 49.1367C88.9129 48.5601 88.8907 47.9621 88.9904 47.3772C89.0818 46.6676 89.0479 45.9482 88.8901 45.2493C88.5333 43.8385 87.7163 42.5731 86.5577 41.6366C86.5577 41.6366 86.5553 41.6076 86.567 41.6165Z" fill="#263238"/>
<path d="M78.4832 55.3998C78.6744 54.7836 79.0663 54.2432 79.2552 53.6314C79.4885 52.8923 79.3508 52.1287 79.2552 51.3807C79.1316 50.3134 79.2412 49.322 79.8127 48.3686C80.1812 47.7524 80.615 47.1852 80.9042 46.5288C81.22 45.8168 81.4258 45.0646 81.5153 44.2959C81.5153 44.2803 81.5433 44.2825 81.5433 44.2959C81.4688 45.4116 81.1246 46.4954 80.538 47.4621C80.1928 48.0292 79.7753 48.5562 79.5491 49.1814C79.3171 49.9198 79.2558 50.6977 79.3695 51.4611C79.4406 51.9791 79.4632 52.5022 79.4371 53.0241C79.3606 53.5505 79.186 54.0594 78.9217 54.5268C78.2907 55.7628 78.1764 57.1828 78.6021 58.4968C78.6021 58.5191 78.5672 58.5325 78.5578 58.5079C78.1989 57.504 78.1728 56.4184 78.4832 55.3998Z" fill="#263238"/>
<path d="M90.2051 52.9034C90.2565 51.7467 89.4844 50.8938 89.0623 49.8578C88.7427 49.0718 88.5491 48.2457 88.7497 47.424C88.7497 47.4106 88.7777 47.424 88.7754 47.424C88.6074 48.623 89.0413 49.7573 89.65 50.8201C90.0559 51.5279 90.3824 52.2022 90.3171 53.0105C90.2518 53.8188 89.8669 54.4395 89.3398 55.058C88.9643 55.5046 88.5981 55.9065 88.4069 56.4469C88.2465 56.9909 88.168 57.554 88.1736 58.1193C88.1736 58.1483 88.1246 58.1438 88.1246 58.1193C88.1246 57.2484 88.1783 56.4111 88.6984 55.6631C89.3468 54.7253 90.1538 54.0689 90.2051 52.9034Z" fill="#263238"/>
<path d="M78.3453 54.5646C78.5738 54.1882 78.8377 53.8324 79.1336 53.5018C79.6514 52.89 79.7727 52.3697 79.6864 51.5883C79.6876 51.5854 79.6897 51.5829 79.6924 51.5811C79.6951 51.5794 79.6983 51.5784 79.7016 51.5784C79.7048 51.5784 79.708 51.5794 79.7107 51.5811C79.7134 51.5829 79.7155 51.5854 79.7167 51.5883C79.8823 52.2402 79.8893 52.7717 79.4462 53.3232C78.8281 54.0957 78.2286 54.7946 78.0327 55.7592C77.6829 57.4695 78.5645 59.1598 80.1319 60.1646C80.1552 60.178 80.1319 60.2092 80.1086 60.1958C79.4635 59.8467 78.9181 59.3511 78.5203 58.7526C78.1225 58.1542 77.8845 57.4712 77.8275 56.764C77.7843 55.9991 77.9636 55.2378 78.3453 54.5646Z" fill="#263238"/>
<path d="M82.3336 52.7049C81.3493 57.1214 79.8402 60.8436 78.5691 61.7077C77.5428 62.4066 68.9362 64.0254 68.6353 64.0566C67.8936 64.1281 66.4942 59.4659 67.0026 58.8742C67.1192 58.738 75.3993 57.9967 75.6605 57.7399C75.9218 57.4832 78.3825 54.3371 80.3557 51.9189C81.7318 50.2242 82.8793 50.2555 82.3336 52.7049Z" fill="#F7A9A0"/>
<path d="M70.1113 63.5296C69.4028 63.8608 68.6728 64.1479 67.9258 64.3893C67.3287 64.5545 65.5934 64.9855 65.3439 64.3759C65.1689 63.9584 66.1555 63.5899 66.8459 63.3153C67.2121 63.1702 67.66 62.804 67.5457 62.5807C67.3591 62.1877 66.4214 62.5807 65.8034 62.9245C64.6115 63.5944 63.0231 64.7823 62.2931 64.2017C62.0202 63.9784 62.3397 63.5855 62.8062 63.1947C62.0482 63.6413 61.2388 64.0231 60.9216 63.7909C60.8408 63.731 60.7866 63.644 60.7702 63.5475C60.7537 63.4509 60.7762 63.352 60.833 63.2706C60.7374 63.3133 60.6307 63.3279 60.5264 63.3124C60.4222 63.2969 60.3251 63.252 60.2475 63.1836C60.0003 62.9357 60.1216 62.5718 60.3922 62.1989C60.344 62.1954 60.2974 62.1806 60.2567 62.1556C60.216 62.1307 60.1824 62.0964 60.1589 62.056C59.6365 61.2946 62.2581 59.1064 63.1561 58.901C64.9592 58.5327 66.8067 58.4035 68.6466 58.5169C69.7078 59.3163 70.1113 63.5274 70.1113 63.5296Z" fill="#F7A9A0"/>
<path d="M66.1984 61.1649C65.5644 61.2553 64.9591 61.4787 64.4258 61.8191C63.803 62.2277 63.3109 62.7859 62.7371 63.2459C62.7348 63.2469 62.7328 63.2485 62.7313 63.2504C62.7297 63.2523 62.7287 63.2545 62.7282 63.2569C62.7277 63.2593 62.7278 63.2618 62.7285 63.2641C62.7292 63.2664 62.7304 63.2686 62.7321 63.2704C62.7338 63.2722 62.7359 63.2736 62.7383 63.2745C62.7406 63.2753 62.7431 63.2757 62.7457 63.2755C62.7482 63.2753 62.7506 63.2745 62.7528 63.2732C62.7549 63.272 62.7567 63.2702 62.7581 63.2682C63.0286 63.0293 63.3249 62.8216 63.6048 62.5983C63.8846 62.3751 64.1459 62.1518 64.4328 61.9285C64.9551 61.553 65.5596 61.2957 66.2007 61.176C66.2007 61.176 66.2054 61.1649 66.1984 61.1649Z" fill="#263238"/>
<path d="M65.6936 60.0729C64.9829 60.2334 64.2913 60.4631 63.6294 60.7584C62.918 61.1045 62.3629 61.6694 61.8172 62.212C61.4875 62.541 61.1664 62.8744 60.8539 63.2123C60.8422 63.2257 60.8539 63.2503 60.8749 63.2346C61.43 62.6742 62.0014 62.1182 62.5915 61.6002C63.1346 61.1063 63.7743 60.7201 64.4738 60.4637C64.8749 60.3185 65.2854 60.2024 65.696 60.0863L65.6936 60.0729Z" fill="#263238"/>
<path d="M64.9568 59.1287C64.2781 59.2627 63.6833 59.3766 63.0909 59.7249C62.4153 60.1541 61.7986 60.6627 61.2553 61.2387C60.9567 61.5424 60.6699 61.8572 60.3876 62.1743C60.376 62.1877 60.3876 62.2078 60.411 62.1944C61.0567 61.4969 61.7494 60.8406 62.4845 60.2295C62.8317 59.9326 63.2252 59.6893 63.6507 59.5083C64.0788 59.3476 64.5204 59.2221 64.9708 59.1332C64.9708 59.1332 64.9592 59.1287 64.9568 59.1287Z" fill="#263238"/>
<path d="M68.5122 58.3583L70.1449 64.273C70.1449 64.273 76.8902 62.9646 78.7562 61.683C80.6221 60.4013 82.0099 54.75 82.488 52.3051C82.9662 49.8601 81.2378 50.6193 80.1813 51.8808C79.1247 53.1424 75.6587 57.4629 75.5421 57.5611C75.4255 57.6594 68.5122 58.3583 68.5122 58.3583Z" fill="#F36464"/>
<path d="M71.707 63.7237C71.6207 63.2772 71.4737 62.8418 71.3408 62.4064C71.2078 61.971 71.0819 61.549 70.9489 61.1225C70.6784 60.2606 70.4265 59.3853 70.0976 58.5413C70.0976 58.5372 70.0959 58.5332 70.0928 58.5303C70.0898 58.5273 70.0856 58.5257 70.0813 58.5257C70.0769 58.5257 70.0728 58.5273 70.0697 58.5303C70.0667 58.5332 70.0649 58.5372 70.0649 58.5413C70.2469 59.4345 70.5314 60.3075 70.7927 61.1783C70.9279 61.6159 71.0679 62.0513 71.2125 62.4845C71.3446 62.9068 71.5003 63.322 71.679 63.7282C71.6813 63.7572 71.7093 63.7438 71.707 63.7237Z" fill="#263238"/>
<path d="M82.487 52.3005C81.9972 54.7566 80.6001 60.4012 78.7552 61.6784C77.8222 62.3192 75.6834 62.9667 73.7638 63.4535L81.6637 50.7486C82.3004 50.5388 82.7669 50.8781 82.487 52.3005Z" fill="#C7C7C7"/>
<path d="M90.0746 66.0169L83.0238 65.03L77.9204 64.3155L76.3904 64.0922L77.5566 60.1066L78.0371 58.452C78.0371 58.452 77.1951 57.061 77.6032 55.862C78.0697 54.5044 81.8622 50.8135 82.1561 50.6349C83.3223 49.9226 84.6098 49.8757 85.7177 51.3427C86.2907 52.1814 86.7485 53.0871 87.0798 54.0377C87.3131 54.6205 87.5206 55.2524 87.7259 55.9066C89.123 60.3901 90.0746 66.0169 90.0746 66.0169Z" fill="#F36464"/>
<path d="M83.1222 59.8252C82.6883 59.6484 82.2445 59.4948 81.7927 59.3652C81.5595 59.3027 81.3379 59.2513 81.107 59.2067C80.995 59.1843 80.8854 59.1642 80.7735 59.1464C80.6615 59.1285 80.5262 59.1218 80.405 59.0995C80.3933 59.0995 80.3863 59.1173 80.405 59.1196C80.5169 59.1419 80.6382 59.1843 80.7408 59.2156L81.0813 59.3049C81.3146 59.3674 81.5315 59.4299 81.7601 59.488C82.2149 59.6063 82.6651 59.7269 83.1152 59.8609C83.1362 59.8631 83.1432 59.8252 83.1222 59.8252Z" fill="#263238"/>
<path d="M78.0287 58.461C77.6686 57.9592 77.4567 57.3738 77.4152 56.7663C77.3945 56.4592 77.4293 56.1511 77.5179 55.8553C77.6188 55.5646 77.7542 55.2859 77.9214 55.0247C78.2625 54.5178 78.6463 54.0383 79.0689 53.5912C79.4871 53.1443 79.9326 52.7216 80.403 52.3252C79.9832 52.7718 79.568 53.2183 79.1715 53.6649C78.7689 54.1174 78.401 54.5973 78.0706 55.1006C77.9064 55.348 77.7718 55.6125 77.6695 55.8888C77.5846 56.1687 77.5438 56.4592 77.5482 56.7507C77.5663 57.3489 77.7309 57.9347 78.0287 58.461Z" fill="#263238"/>
<path d="M80.0479 52.4322C79.9327 52.6776 79.7828 52.9068 79.6024 53.1132C79.6601 52.9908 79.7264 52.8721 79.8007 52.7582C79.8741 52.6435 79.9567 52.5345 80.0479 52.4322Z" fill="#263238"/>
<path d="M84.587 50.867C84.503 51.0903 83.1712 52.4613 82.075 52.2893C81.7181 52.2335 81.9537 50.3535 81.9537 50.3535L81.9374 50.2128L81.7181 48.2167L84.2838 47.0154L84.6523 46.8613C84.6523 46.8613 84.6756 47.4106 84.6966 48.0939C84.6966 48.1273 84.6966 48.1586 84.6966 48.1921C84.6966 48.2256 84.6966 48.268 84.6966 48.3037C84.6966 48.4064 84.6966 48.5114 84.7083 48.6141C84.7199 48.7168 84.7083 48.7704 84.7083 48.853C84.7083 48.9356 84.7083 49.0182 84.7083 49.1031C84.7097 49.693 84.6692 50.2824 84.587 50.867Z" fill="#F7A9A0"/>
<path d="M84.7008 48.094C84.4312 48.62 84.0447 49.0832 83.5685 49.4511C83.0923 49.8191 82.5378 50.0829 81.9439 50.2242L81.7246 48.228L84.2903 47.0267L84.6588 46.8727C84.6588 46.8727 84.6798 47.4108 84.7008 48.094Z" fill="#263238"/>
<path d="M81.9579 50.3604L82.2541 52.0104L84.6612 50.4921L85.081 51.2245C85.081 51.2245 82.464 53.886 82.4873 53.7453L82.1281 52.3007L80.9783 53.0174L81.5544 50.7444L81.9579 50.3604Z" fill="white"/>
<path d="M81.2003 51.8785C81.3099 51.5057 81.4102 51.1283 81.5385 50.7621C81.5385 50.7487 81.5664 50.7465 81.5664 50.7621C81.5664 51.1417 81.1326 52.564 81.058 52.9101C81.1046 52.8788 82.1122 52.2894 82.1192 52.3028C82.2149 52.5395 82.4807 53.5934 82.4947 53.6871C82.9076 53.2629 84.6336 51.6173 85.0977 51.231C85.1117 51.2199 85.1304 51.231 85.1187 51.2489C84.7385 51.7044 82.4877 53.8859 82.4877 53.8747C82.3348 53.3722 82.2094 52.8625 82.1122 52.3474C81.7293 52.6298 81.3264 52.8864 80.9064 53.1155C80.9812 52.6985 81.0793 52.2855 81.2003 51.8785Z" fill="#263238"/>
<path d="M79.7664 44.1953C78.1337 47.3526 79.9343 48.6409 80.6457 48.9758C81.2918 49.2795 83.5309 50.2351 85.4901 47.2565C87.4493 44.2779 86.4231 42.5542 84.9886 41.7839C83.5542 41.0135 81.3921 41.0269 79.7664 44.1953Z" fill="#F7A9A0"/>
<path d="M80.5117 43.8604C80.5933 43.885 80.675 43.8961 80.7589 43.914C80.8444 43.9417 80.937 43.9417 81.0225 43.914C81.0482 43.9013 81.0688 43.8809 81.081 43.8558C81.0932 43.8308 81.0965 43.8026 81.0902 43.7756C81.0689 43.7239 81.0338 43.6785 80.9883 43.6439C80.9429 43.6094 80.8887 43.5871 80.8313 43.5791C80.7183 43.5465 80.5966 43.556 80.4907 43.6059C80.4632 43.6166 80.44 43.6354 80.4244 43.6596C80.4088 43.6838 80.4017 43.7122 80.404 43.7405C80.4063 43.7688 80.418 43.7957 80.4374 43.8173C80.4568 43.8389 80.4828 43.854 80.5117 43.8604Z" fill="#263238"/>
<path d="M82.802 44.8652C82.7315 44.8206 82.6638 44.7722 82.5991 44.7201C82.5198 44.662 82.4522 44.6241 82.4195 44.5325C82.414 44.5056 82.4176 44.4776 82.4297 44.4528C82.4419 44.4279 82.462 44.4073 82.4872 44.3941C82.5419 44.3762 82.6007 44.3728 82.6574 44.3841C82.714 44.3955 82.7664 44.4214 82.809 44.4589C82.9087 44.5199 82.9804 44.6148 83.0096 44.7246C83.0146 44.7498 83.0118 44.7758 83.0018 44.7995C82.9917 44.8233 82.9748 44.8438 82.9529 44.8586C82.9311 44.8734 82.9052 44.8819 82.8785 44.8831C82.8518 44.8842 82.8252 44.8781 82.802 44.8652Z" fill="#263238"/>
<path d="M81.893 45.4189C81.893 45.4189 81.9047 45.439 81.893 45.4479C81.7741 45.6578 81.6761 45.919 81.844 46.0865C81.844 46.0865 81.844 46.1021 81.844 46.0977C81.6108 45.9481 81.7461 45.602 81.893 45.4189Z" fill="#263238"/>
<path d="M82.208 45.2895C82.5835 45.4346 82.2546 46.1424 81.9071 46.0085C81.5596 45.8745 81.8954 45.1689 82.208 45.2895Z" fill="#263238"/>
<path d="M82.3362 45.3899C82.3829 45.4569 82.4132 45.5551 82.4855 45.5953C82.5578 45.6355 82.6744 45.5953 82.7677 45.5507C82.7677 45.5507 82.7794 45.5507 82.7677 45.564C82.7071 45.7003 82.5881 45.8164 82.4272 45.7717C82.2662 45.727 82.2383 45.5685 82.2662 45.4189C82.2779 45.3899 82.3176 45.3631 82.3362 45.3899Z" fill="#263238"/>
<path d="M80.6431 44.8295C80.6431 44.8295 80.6198 44.8295 80.6175 44.8429C80.5242 45.0662 80.3843 45.3051 80.137 45.2895C80.137 45.2895 80.1254 45.3007 80.137 45.3007C80.4029 45.3766 80.5918 45.055 80.6431 44.8295Z" fill="#263238"/>
<path d="M80.5422 44.5148C80.1853 44.3339 79.8425 45.0306 80.1643 45.198C80.4862 45.3655 80.8547 44.6666 80.5422 44.5148Z" fill="#263238"/>
<path d="M80.3668 44.4903C80.2922 44.5015 80.2012 44.5416 80.1336 44.5148C80.066 44.4881 80.031 44.3786 80.017 44.2916C80.017 44.2916 80.017 44.2916 80.003 44.2916C79.9592 44.3468 79.9374 44.4152 79.9417 44.4844C79.946 44.5536 79.976 44.619 80.0263 44.6689C80.1383 44.7493 80.2852 44.6689 80.3855 44.5595C80.3995 44.5327 80.3878 44.4858 80.3668 44.4903Z" fill="#263238"/>
<path d="M80.507 46.0218C80.507 46.0218 80.304 46.3255 80.2294 46.4684C80.2294 46.4818 80.2597 46.5063 80.311 46.5331C80.4367 46.618 80.5844 46.6681 80.7378 46.678C80.8913 46.6878 81.0446 46.657 81.181 46.5889C81.185 46.587 81.1881 46.5837 81.1898 46.5798C81.1914 46.5758 81.1916 46.5715 81.1902 46.5674C81.1888 46.5634 81.1859 46.5599 81.1821 46.5577C81.1783 46.5556 81.1737 46.5547 81.1694 46.5555C80.9004 46.5997 80.6237 46.5589 80.381 46.4393C80.381 46.3925 80.7472 45.9303 80.7239 45.9169C80.5938 45.8721 80.4581 45.8443 80.3204 45.8342C80.7262 45.189 81.2347 44.6107 81.6288 43.9609C81.6326 43.9562 81.6341 43.9502 81.6333 43.9443C81.6324 43.9385 81.6291 43.9332 81.6242 43.9296C81.6192 43.9261 81.613 43.9246 81.6069 43.9254C81.6008 43.9262 81.5952 43.9294 81.5915 43.9341C81.0256 44.5383 80.524 45.1951 80.0941 45.8945C80.0451 45.9816 80.4323 46.0196 80.507 46.0218Z" fill="#263238"/>
<path d="M85.3004 47.0758C84.624 46.9709 84.8945 45.4972 84.8945 45.4972C84.8945 45.4972 82.2589 44.2691 82.6881 42.0408C82.0681 42.8222 81.1577 43.3451 80.1458 43.501C80.1458 43.501 80.9691 41.1588 83.0729 41.2481C83.0729 41.2481 85.7692 41.0829 86.5715 43.3179C87.3739 45.553 85.7529 47.145 85.3004 47.0758Z" fill="#263238"/>
<path d="M82.7204 41.8777C82.5856 42.2025 82.5251 42.5512 82.5431 42.9003C82.5535 43.2531 82.6409 43.6 82.7997 43.9185C82.8385 43.9954 82.8821 44.07 82.9303 44.1418L83.0003 44.2557C83.026 44.2936 83.0539 44.3271 83.0819 44.3628C83.1402 44.432 83.1939 44.5035 83.2545 44.5683C83.3152 44.633 83.3828 44.6933 83.4481 44.7536C83.5134 44.8139 83.5134 44.8161 83.5484 44.8429L83.6557 44.9233L83.8726 45.0818C84.0266 45.1733 84.1852 45.2582 84.3391 45.3386C84.2015 45.2269 84.0546 45.1309 83.9193 45.0193L83.721 44.8496L83.6231 44.7625C83.5927 44.7335 83.5647 44.7 83.5368 44.6687C83.5088 44.6375 83.4201 44.5415 83.3595 44.4789C83.2988 44.4164 83.2592 44.3427 83.2079 44.2757L83.1309 44.1753L83.0656 44.0659C83.021 43.9936 82.9805 43.919 82.9443 43.8426C82.7942 43.5395 82.6995 43.214 82.6644 42.8802C82.6465 42.7118 82.6426 42.5424 82.6528 42.3734C82.661 42.2066 82.6836 42.0408 82.7204 41.8777Z" fill="#263238"/>
<path d="M84.8201 48.2504C84.7619 48.251 84.7038 48.2442 84.6475 48.2303C84.5903 48.2202 84.5351 48.2014 84.4842 48.1745C84.4169 48.1428 84.3579 48.097 84.3116 48.0405C84.2736 47.9969 84.2429 47.948 84.2206 47.8954C84.1881 47.8247 84.1692 47.7491 84.1647 47.6721L84.7105 46.866C84.7105 46.866 85.8767 46.1225 86.2568 46.5579C86.637 46.9933 85.4685 48.2615 84.8201 48.2504Z" fill="#F7A9A0"/>
<path d="M85.9097 46.9059V46.9215C85.4432 46.9215 85.0933 47.2051 84.7948 47.5177C84.8335 47.4879 84.8785 47.4665 84.9267 47.455C84.975 47.4435 85.0252 47.4421 85.074 47.451C85.1228 47.46 85.169 47.4789 85.2094 47.5066C85.2498 47.5343 85.2834 47.5701 85.3079 47.6115C85.3079 47.6115 85.3079 47.6338 85.2893 47.6293C85.228 47.5814 85.1526 47.5529 85.0737 47.5477C84.9947 47.5425 84.916 47.5609 84.8484 47.6003C84.7358 47.6676 84.6311 47.7462 84.5359 47.8348C84.5032 47.8616 84.4473 47.8191 84.4776 47.7856C84.6688 47.2855 85.3429 46.7518 85.9097 46.9059Z" fill="#263238"/>
<path d="M84.8202 48.0963C84.7954 48.1317 84.7573 48.1565 84.7139 48.1657C84.6704 48.1748 84.6249 48.1676 84.5869 48.1454C84.5583 48.1282 84.5357 48.1032 84.5219 48.0737C84.5082 48.0441 84.5039 48.0113 84.5097 47.9794C84.5155 47.9476 84.5311 47.9181 84.5544 47.8947C84.5778 47.8713 84.6079 47.8551 84.6409 47.8482C84.6739 47.8412 84.7083 47.8438 84.7398 47.8557C84.7712 47.8675 84.7983 47.888 84.8175 47.9146C84.8367 47.9412 84.8472 47.9727 84.8477 48.0051C84.8482 48.0374 84.8386 48.0692 84.8202 48.0963Z" fill="white"/>
<path d="M85.2449 47.9914C85.2322 48.0102 85.214 48.0251 85.1925 48.0341C85.171 48.043 85.1472 48.0457 85.1242 48.0418C85.1011 48.0379 85.0797 48.0275 85.0628 48.012C85.0459 47.9965 85.0341 47.9766 85.0289 47.9547C85.0238 47.9328 85.0255 47.91 85.0338 47.889C85.0422 47.8681 85.0569 47.8499 85.0759 47.8369C85.095 47.8239 85.1177 47.8166 85.1411 47.8159C85.1646 47.8151 85.1877 47.821 85.2076 47.8329C85.2342 47.8494 85.2531 47.8752 85.2601 47.9048C85.267 47.9345 85.2616 47.9656 85.2449 47.9914Z" fill="white"/>
<path d="M80.4518 57.215C80.4518 57.215 82.446 53.7541 83.5795 51.979C84.7131 50.2039 85.7953 50.5165 85.8793 52.593C85.9632 54.6695 86.6023 57.3355 84.5755 60.7384C79.3229 69.5536 80.4518 57.215 80.4518 57.215Z" fill="#F36464"/>
<path d="M84.7657 45.4903L79.688 48.9155C79.6515 48.9278 79.6192 48.9494 79.5944 48.9779C79.5697 49.0064 79.5535 49.0408 79.5475 49.0775C79.5415 49.1141 79.546 49.1516 79.5605 49.1859C79.5749 49.2203 79.5989 49.2503 79.6297 49.2727L81.2834 51.3872C81.3601 51.4411 81.4513 51.473 81.5462 51.4793C81.6411 51.4857 81.736 51.4661 81.8198 51.423L86.8975 47.9911C86.9335 47.9785 86.9653 47.9569 86.9896 47.9286C87.014 47.9003 87.0299 47.8663 87.0359 47.83C87.0418 47.7938 87.0376 47.7567 87.0235 47.7226C87.0094 47.6885 86.986 47.6586 86.9558 47.6361L85.3021 45.535C85.2263 45.4797 85.1356 45.4462 85.0406 45.4383C84.9457 45.4304 84.8503 45.4484 84.7657 45.4903Z" fill="#A6A6A6"/>
<path d="M84.9156 45.6625L79.8379 49.0877C79.802 49.1006 79.7702 49.1224 79.746 49.151C79.7217 49.1795 79.7058 49.2137 79.6999 49.25C79.6939 49.2864 79.6982 49.3235 79.7122 49.3578C79.7262 49.392 79.7495 49.4221 79.7796 49.4449L81.4356 51.5594C81.5119 51.6133 81.6027 51.6453 81.6972 51.6516C81.7918 51.658 81.8864 51.6384 81.9697 51.5951L87.0474 48.17C87.0835 48.1577 87.1156 48.1363 87.1402 48.1081C87.1648 48.0799 87.181 48.0459 87.1872 48.0096C87.1934 47.9733 87.1893 47.9362 87.1754 47.9019C87.1615 47.8677 87.1382 47.8377 87.108 47.815L85.452 45.7005C85.3755 45.6463 85.2845 45.6139 85.1895 45.6072C85.0946 45.6005 84.9996 45.6197 84.9156 45.6625Z" fill="#F36464"/>
<path d="M85.3824 46.3947C85.3474 46.4316 85.3017 46.4577 85.2512 46.4698C85.2007 46.4818 85.1475 46.4793 85.0985 46.4625C85.0495 46.4457 85.0068 46.4153 84.9757 46.3753C84.9447 46.3353 84.9268 46.2874 84.9242 46.2376C84.9216 46.1878 84.9344 46.1384 84.9611 46.0956C84.9878 46.0528 85.0272 46.0185 85.0742 45.9971C85.1212 45.9757 85.1738 45.9681 85.2254 45.9753C85.2769 45.9825 85.325 46.0041 85.3637 46.0375C85.4153 46.0827 85.4462 46.1455 85.4497 46.2124C85.4532 46.2793 85.429 46.3448 85.3824 46.3947Z" fill="#263238"/>
<path d="M79.1404 62.4532C79.1567 64.302 81.755 64.5655 82.639 63.717C84.7102 61.7298 86.4129 57.5477 87.1709 55.1161C87.4158 54.3347 81.9999 52.4948 81.6058 53.2808C81.1276 54.2252 79.1078 58.8316 79.1404 62.4532Z" fill="#F7A9A0"/>
<path d="M85.9159 56.4514C86.8378 55.6888 87.5776 54.7453 88.085 53.6849C88.6168 52.5149 89.4845 49.8489 87.1521 46.7631C86.597 46.0307 85.2675 45.3654 85.7176 46.8725C86.0395 47.9443 86.5783 48.5315 86.6506 49.1857C86.6506 49.1857 84.8546 48.5315 84.1129 49.0897C83.4626 49.5791 82.8492 50.1118 82.2773 50.684C82.3639 50.8076 82.4581 50.9262 82.5596 51.039C82.0372 51.6854 81.714 52.4588 81.6266 53.2718L85.9159 56.4514Z" fill="#F7A9A0"/>
<path d="M88.3978 52.4903C88.1855 51.854 87.7167 50.5098 86.933 49.5407C86.0607 48.4623 84.0805 46.6113 83.2571 47.2342C82.6507 47.6808 83.3434 48.4623 83.3434 48.4623C83.3434 48.4623 82.3568 47.8617 81.9043 48.3886C81.4915 48.8687 82.0653 49.4358 82.0653 49.4358C82.0653 49.4358 81.4005 49.1701 81.0973 49.706C80.7311 50.349 82.1842 50.8001 82.4035 51.7602C82.4525 51.9745 88.3978 52.4903 88.3978 52.4903Z" fill="#F7A9A0"/>
<path d="M85.8954 50.6104C85.3025 49.6638 84.4221 48.9129 83.3717 48.4579C83.346 48.4467 83.3227 48.4579 83.346 48.4758C84.2804 49.0889 85.1334 49.8087 85.886 50.6193C85.886 50.6193 85.9 50.6171 85.8954 50.6104Z" fill="#263238"/>
<path d="M84.7331 51.4209C84.4206 50.9565 83.3057 49.8445 82.0788 49.4114C82.0532 49.4114 82.0299 49.4114 82.0532 49.4292C83.0192 49.9961 83.9151 50.6657 84.7238 51.4254C84.7238 51.4254 84.7378 51.4276 84.7331 51.4209Z" fill="#263238"/>
<path d="M78.874 62.7636C78.979 64.6235 81.6729 64.9227 82.6059 64.0809C84.7774 62.1049 86.5267 57.9138 87.301 55.4756L81.0875 53.6402C80.5907 54.5847 78.6734 59.2334 78.874 62.7636Z" fill="#F36464"/>
<path d="M81.3887 53.7297L81.0808 53.6449C80.7193 54.5715 80.3951 55.516 80.0965 56.4627C79.798 57.4094 79.5251 58.3696 79.3082 59.3364C79.0913 60.3032 78.893 61.2834 78.921 62.2636C78.9164 62.7481 79.0442 63.2254 79.2918 63.648C79.4239 63.8471 79.6028 64.0138 79.8143 64.1347C80.0315 64.2518 80.2682 64.3319 80.514 64.3714C81.0087 64.4703 81.5227 64.4316 81.9951 64.2598C82.4624 64.0697 82.8816 63.7857 83.2243 63.4269C83.903 62.6882 84.4692 61.8613 84.906 60.9708C85.3724 60.0777 85.7643 59.1689 86.1748 58.2579C86.5853 57.3469 86.9888 56.4337 87.292 55.4847L87.0961 55.42L87.2943 55.4803C87.1637 55.9626 86.9865 56.4292 86.8092 56.8959C86.6319 57.3625 86.4453 57.8247 86.2541 58.2847C85.8576 59.2024 85.4727 60.1246 85.0249 61.0222C84.8024 61.473 84.5532 61.9114 84.2785 62.3351C84.0103 62.7637 83.6977 63.1654 83.3456 63.5341C82.9897 63.9125 82.552 64.2119 82.0627 64.4116C81.5612 64.5964 81.0149 64.6398 80.4884 64.5366C80.2223 64.4945 79.9663 64.4068 79.7327 64.2776C79.4976 64.1433 79.2993 63.9573 79.1542 63.7351C78.8944 63.2873 78.761 62.7825 78.767 62.2703C78.7595 61.7694 78.7977 61.2688 78.8813 60.7743C78.9583 60.2809 79.0656 59.7963 79.1799 59.3096C79.6626 57.375 80.3004 55.4789 81.0878 53.6382L81.3887 53.7297Z" fill="#263238"/>
<path d="M83.5158 56.1521C83.0493 56.0249 81.2044 55.5471 80.7333 55.4823C80.7193 55.4823 80.7146 55.5069 80.7333 55.5113C81.1694 55.6989 83.012 56.2303 83.4738 56.3576C84.3941 56.6268 85.3284 56.8504 86.2727 57.0274C86.2937 57.0274 86.3054 56.9962 86.2867 56.9895C85.3789 56.6644 84.454 56.3849 83.5158 56.1521Z" fill="#263238"/>
</svg>
