<svg width="105" height="92" viewBox="0 0 105 92" fill="none" xmlns="http://www.w3.org/2000/svg">
<path d="M50.5323 12.7822H5.91016V41.4401H50.5323V12.7822Z" fill="#7EBAEB"/>
<path d="M5.91016 41.4402V47.9757L13.0913 41.4402H5.91016Z" fill="#7EBAEB"/>
<path d="M54.1942 57.0025L98.8164 57.0025V28.3446L54.1942 28.3446L54.1942 57.0025Z" fill="#DBDBDB"/>
<path d="M98.8166 57.0004V63.5359L91.6354 57.0004H98.8166Z" fill="#DBDBDB"/>
<path d="M10.2765 54.5256H4.24548V56.8334H10.2765V54.5256Z" fill="#DBDBDB"/>
<path d="M6.91199 57.4355H0.880981V59.7432H6.91199V57.4355Z" fill="#DBDBDB"/>
<path d="M13.6404 57.4355H7.60938V59.7433H13.6404V57.4355Z" fill="#DBDBDB"/>
<path d="M100.482 66.9015H94.4506V69.2092H100.482V66.9015Z" fill="#DBDBDB"/>
<path d="M100.482 8.18109H94.4506V10.4888H100.482V8.18109Z" fill="#DBDBDB"/>
<path d="M103.845 11.0912H97.8145V13.399H103.845V11.0912Z" fill="#DBDBDB"/>
<path d="M6.91199 8.18323H0.880981V10.491H6.91199V8.18323Z" fill="#DBDBDB"/>
<path d="M39.5769 49.3616H45.6079V47.0538H39.5769V49.3616Z" fill="#DBDBDB"/>
<path d="M42.9413 46.4515H48.9723V44.1438H42.9413V46.4515Z" fill="#DBDBDB"/>
<path d="M91.2693 6.10352e-05H91.0415V15.4282H91.2693V6.10352e-05Z" fill="#C7C7C7"/>
<path d="M92.5651 13.9868H89.7455V16.7503H92.5651V13.9868Z" fill="#7EBAEB"/>
<path d="M96.9219 25.5666H85.3883C85.6161 21.5925 87.7137 15.2261 91.1574 15.2261C94.6011 15.2261 96.6919 21.5904 96.9219 25.5666Z" fill="#7EBAEB"/>
<path d="M76.6219 6.10352e-05H76.3942V15.4282H76.6219V6.10352e-05Z" fill="#C7C7C7"/>
<path d="M77.9178 13.9868H75.0981V16.7503H77.9178V13.9868Z" fill="#7EBAEB"/>
<path d="M82.2752 25.5666H70.7393C70.967 21.5925 73.0647 15.2261 76.5083 15.2261C79.952 15.2261 82.0451 21.5904 82.2752 25.5666Z" fill="#7EBAEB"/>
<path d="M61.9729 6.10352e-05H61.7451V15.4282H61.9729V6.10352e-05Z" fill="#C7C7C7"/>
<path d="M63.2704 13.9868H60.4508V16.7503H63.2704V13.9868Z" fill="#7EBAEB"/>
<path d="M67.6233 25.5666H56.0919C56.3197 21.5925 58.4173 15.2261 61.8587 15.2261C65.3001 15.2261 67.3955 21.5904 67.6233 25.5666Z" fill="#7EBAEB"/>
<path d="M0 75.6499L13.0915 75.6004L26.183 75.5818L52.3636 75.5468L78.5443 75.5818L91.6358 75.6004L104.727 75.6499L91.6358 75.7014L78.5443 75.72L52.3636 75.753L26.183 75.7179L13.0915 75.7014L0 75.6499Z" fill="#263238"/>
<path d="M52.3635 86.743C78.8781 86.743 100.372 84.3109 100.372 81.3109C100.372 78.3108 78.8781 75.8787 52.3635 75.8787C25.8489 75.8787 4.35461 78.3108 4.35461 81.3109C4.35461 84.3109 25.8489 86.743 52.3635 86.743Z" fill="#DBDBDB"/>
<path d="M30.1944 91.1419C37.9706 91.1419 44.2744 89.7033 44.2744 87.9288C44.2744 86.1542 37.9706 84.7157 30.1944 84.7157C22.4183 84.7157 16.1145 86.1542 16.1145 87.9288C16.1145 89.7033 22.4183 91.1419 30.1944 91.1419Z" fill="#DBDBDB"/>
<path d="M66.2724 60.0073C68.4406 62.5543 72.3512 63.6287 75.7995 63.9257C79.3138 64.233 83.2881 64.0618 86.5314 62.7151C87.9526 62.1274 89.2645 61.2468 90.1299 60.0754C91.0569 58.8194 91.2118 57.4748 90.3167 56.2436C89.597 55.2516 87.9685 54.5092 87.9981 53.6203C88.0277 52.7315 88.875 52.055 89.1369 51.2074C89.5788 49.7638 88.7292 48.6398 87.6178 47.6582C84.9849 45.3298 85.8344 42.3869 84.2698 39.5409C83.3792 37.924 80.8033 34.9131 75.943 36.1051C74.0936 36.5609 72.784 38.0024 71.98 39.51C71.0371 41.2856 71.57 43.6738 70.4335 45.3731C69.461 46.8168 68.1104 47.023 67.1766 48.5408C66.7712 49.2008 66.5594 49.9845 67.3041 51.589C67.5752 52.1726 67.8507 53.0553 67.5569 53.7296C67.1492 54.6639 65.8715 55.0598 65.4206 56.0332C64.7965 57.3717 65.3158 58.8772 66.2724 60.0073Z" fill="#263238"/>
<path d="M89.044 60.4198C90.7044 60.228 91.4902 58.2255 90.4812 57.1614C89.8435 56.4849 88.8573 56.1529 88.2173 55.4806C87.1651 54.3752 88.1763 53.4348 88.8049 52.3871C90.1714 50.1371 88.4792 48.545 86.6845 47.0787C85.3179 45.9651 85.0902 44.7277 85.0492 43.1459C85.0492 43.1211 85.0947 43.1191 85.097 43.1459C85.1858 44.3131 85.3248 45.4598 86.2062 46.3961C86.9214 47.1571 87.8916 47.6912 88.584 48.479C89.7433 49.801 89.8389 51.2013 88.9347 52.647C88.6774 53.0594 88.1945 53.5276 88.0784 53.9854C87.8073 55.066 88.707 55.6538 89.5611 56.2127C90.2147 56.6417 90.9413 57.118 91.1667 57.8522C91.5084 58.9597 90.3491 60.4178 89.0646 60.5023C88.9985 60.5126 88.978 60.4198 89.044 60.4198Z" fill="#263238"/>
<path d="M88.1059 61.5026C89.1376 60.985 90.2559 60.521 90.8845 59.5847C91.8161 58.1967 90.7547 57.1099 89.7594 56.0787C89.3312 55.6374 88.9805 55.2002 89.0238 54.5959C89.0875 53.6906 89.8573 52.9461 90.0122 52.0552C90.3789 49.9207 88.0444 48.5492 86.8988 46.9571C85.7281 45.3073 85.3956 43.4285 85.013 41.56C85.0127 41.5522 85.0155 41.5446 85.0209 41.5385C85.0264 41.5324 85.034 41.5282 85.0425 41.5267C85.0509 41.5252 85.0597 41.5265 85.0673 41.5304C85.0748 41.5342 85.0806 41.5403 85.0836 41.5477C85.5892 43.9338 86.2998 46.1899 88.1218 48.0605C89.395 49.37 90.7479 50.7868 90.076 52.6161C89.9097 53.0657 89.5954 53.4699 89.4406 53.9195C89.1354 54.8125 89.3904 55.4023 90.035 56.0622C90.6795 56.7222 91.381 57.3512 91.4721 58.2318C91.6498 59.9435 89.7002 61.0221 88.1788 61.6387C88.1594 61.6445 88.1383 61.6438 88.1195 61.6366C88.1007 61.6294 88.0855 61.6162 88.0765 61.5996C88.0676 61.5829 88.0657 61.5639 88.0711 61.5461C88.0765 61.5283 88.0889 61.5128 88.1059 61.5026Z" fill="#263238"/>
<path d="M64.9928 55.4867C65.8401 54.4679 67.1565 53.9791 66.8513 52.4942C66.6395 51.4631 66.0359 50.6382 66.2933 49.5678C66.5051 48.679 67.1656 47.9984 67.94 47.4251C68.9239 46.6971 70.0035 46.1134 70.73 45.1565C71.5226 44.1089 71.8961 42.8694 72.281 41.6733C72.281 41.6506 72.3334 41.6609 72.3289 41.6733C71.9166 43.3025 71.4178 44.973 70.0012 46.1671C69.261 46.7857 68.3659 47.258 67.6325 47.8891C66.3138 49.0254 66.2979 50.2979 66.8262 51.7559C67.0677 52.4241 67.2818 53.0964 66.9242 53.7687C66.5666 54.4411 65.8355 54.8473 65.3162 55.4042C63.1115 57.7758 66.3571 60.8837 69.0833 61.3704C69.2063 61.3911 69.1881 61.5602 69.0605 61.5395C67.0221 61.2323 64.8903 59.5494 64.4735 57.7531C64.3762 57.3637 64.3722 56.9599 64.4618 56.5689C64.5514 56.178 64.7324 55.8089 64.9928 55.4867Z" fill="#263238"/>
<path d="M65.059 56.7758C65.1 55.6992 65.8698 55.1135 66.4711 54.2762C67.4163 52.9605 66.4847 51.6344 66.3959 50.2279C66.3321 49.2483 66.7945 48.4254 67.4892 47.7222C68.4207 46.7735 69.605 46.1053 70.3771 45.0123C71.1857 43.8482 71.5896 42.491 71.5364 41.1166C71.5364 41.0918 71.5797 41.096 71.5797 41.1166C71.6567 42.046 71.5137 42.9795 71.1602 43.8548C70.8067 44.73 70.2509 45.5269 69.5299 46.192C68.5961 47.0519 67.3457 47.7449 66.8104 48.9121C66.2456 50.1495 66.9334 51.29 67.102 52.5295C67.1625 52.8958 67.1389 53.2694 67.0327 53.6271C66.9265 53.9848 66.74 54.3188 66.4847 54.6083C66.1067 55.0661 65.6466 55.4806 65.4302 56.0354C65.1387 56.7861 65.3095 57.6296 65.6443 58.3514C66.7057 60.6323 69.3704 62.0924 71.9213 62.4925C72.0124 62.5069 72.0033 62.6369 71.9213 62.6245C69.5972 62.2931 67.5107 61.1461 66.1135 59.432C65.494 58.671 65.0225 57.7389 65.059 56.7758Z" fill="#263238"/>
<path d="M76.6175 52.4386C75.3672 52.1664 72.7889 55.1196 70.5182 59.6072C66.8741 66.7944 64.9541 75.65 64.9541 75.65H76.8248C76.8248 75.65 79.8517 53.1378 76.6175 52.4386Z" fill="#EB9481"/>
<path d="M63.5104 76.1099H58.666V76.7946H63.5104V76.1099Z" fill="#455A64"/>
<path d="M63.5104 76.1099H58.666V76.5616H63.5104V76.1099Z" fill="#263238"/>
<path d="M69.2561 74.2704C68.9615 74.6663 68.5468 74.9767 68.0619 75.164C67.5769 75.3514 67.0425 75.4077 66.523 75.3263C66.3553 75.2965 66.1907 75.2537 66.031 75.1984C65.7911 75.1122 65.562 75.0029 65.3478 74.8726L65.965 74.0476C66.0792 74.1199 66.2004 74.1828 66.3271 74.2353C67.4819 74.7076 68.2107 73.8847 68.3542 73.697C69.0192 72.8515 69.2652 70.9232 68.5819 70.1808C68.5364 70.1251 68.3428 70.0385 67.5616 70.1808C67.4181 70.2097 67.2541 70.2427 67.0696 70.288C66.9266 70.3325 66.7783 70.3616 66.6278 70.3746L66.6073 69.8797L66.5549 69.3847C66.605 69.3847 66.6824 69.3559 66.7826 69.3291C67.1436 69.2342 67.5121 69.1653 67.885 69.1228C68.4589 69.0692 69.0602 69.1228 69.4292 69.5353C70.5315 70.7603 70.0874 73.2062 69.2561 74.2704Z" fill="#455A64"/>
<path d="M65.9698 74.0456C66.084 74.1179 66.2052 74.1807 66.3319 74.2333L66.029 75.1984C65.789 75.1122 65.56 75.0029 65.3457 74.8726L65.9698 74.0456Z" fill="#263238"/>
<path d="M67.8946 69.129L67.5689 70.1869C67.4255 70.2158 67.2615 70.2488 67.077 70.2942C66.934 70.3387 66.7857 70.3678 66.6351 70.3808L66.6146 69.8858L66.5623 69.3909C66.6124 69.3909 66.6898 69.362 66.79 69.3352C67.1517 69.2403 67.521 69.1713 67.8946 69.129Z" fill="#263238"/>
<path d="M54.6411 67.8442C54.6411 67.8442 55.2219 72.3133 56.2354 74.1962C57.2489 76.0791 58.6405 76.2853 59.5106 76.2853H62.6764C63.5464 76.2853 64.954 76.0791 65.9515 74.1962C66.9491 72.3133 67.5344 67.8442 67.5344 67.8442H54.6411Z" fill="#455A64"/>
<path d="M55.5911 70.7624C55.5299 70.7624 55.47 70.746 55.419 70.7152C55.3681 70.6843 55.3284 70.6405 55.305 70.5893C55.2815 70.538 55.2754 70.4816 55.2873 70.4272C55.2993 70.3728 55.3288 70.3228 55.3721 70.2836C55.4154 70.2444 55.4706 70.2177 55.5307 70.2069C55.5908 70.196 55.6531 70.2016 55.7097 70.2228C55.7663 70.2441 55.8146 70.28 55.8487 70.3261C55.8827 70.3722 55.9009 70.4265 55.9009 70.482C55.9009 70.5563 55.8682 70.6277 55.8101 70.6803C55.7521 70.7329 55.6733 70.7624 55.5911 70.7624ZM55.5911 70.253C55.5411 70.253 55.4922 70.2665 55.4507 70.2916C55.4091 70.3168 55.3767 70.3525 55.3576 70.3943C55.3384 70.4362 55.3334 70.4822 55.3432 70.5266C55.3529 70.571 55.377 70.6118 55.4124 70.6438C55.4477 70.6758 55.4928 70.6976 55.5418 70.7065C55.5908 70.7153 55.6417 70.7108 55.6879 70.6934C55.7341 70.6761 55.7735 70.6468 55.8013 70.6091C55.8291 70.5715 55.8439 70.5272 55.8439 70.482C55.8439 70.4212 55.8173 70.363 55.7699 70.3201C55.7225 70.2771 55.6582 70.253 55.5911 70.253Z" fill="white"/>
<path d="M64.7715 69.3187C64.7095 69.3191 64.6489 69.3029 64.5972 69.272C64.5456 69.2411 64.5052 69.197 64.4813 69.1453C64.4574 69.0936 64.4511 69.0366 64.463 68.9816C64.475 68.9266 64.5048 68.8761 64.5485 68.8364C64.5923 68.7968 64.6481 68.7698 64.7089 68.759C64.7696 68.7482 64.8325 68.7539 64.8896 68.7756C64.9467 68.7972 64.9954 68.8337 65.0296 68.8805C65.0637 68.9273 65.0816 68.9822 65.0812 69.0383C65.0812 69.1126 65.0486 69.184 64.9905 69.2366C64.9324 69.2892 64.8536 69.3187 64.7715 69.3187ZM64.7715 68.8073C64.7209 68.8069 64.6714 68.8201 64.6291 68.8452C64.5869 68.8703 64.5538 68.9063 64.5342 68.9484C64.5145 68.9906 64.5091 69.0371 64.5187 69.082C64.5283 69.127 64.5524 69.1683 64.588 69.2008C64.6236 69.2333 64.669 69.2556 64.7186 69.2646C64.7681 69.2737 64.8195 69.2693 64.8663 69.2518C64.913 69.2344 64.953 69.2048 64.9811 69.1668C65.0092 69.1288 65.0243 69.084 65.0243 69.0383C65.0243 68.9774 64.9977 68.9189 64.9504 68.8757C64.903 68.8324 64.8387 68.8078 64.7715 68.8073Z" fill="white"/>
<path d="M64.3144 73.4372C64.2526 73.4376 64.1921 73.4214 64.1405 73.3906C64.0889 73.3598 64.0485 73.3158 64.0245 73.2642C64.0006 73.2126 63.9941 73.1558 64.0058 73.1008C64.0176 73.0459 64.0472 72.9953 64.0907 72.9556C64.1343 72.9159 64.1898 72.8888 64.2504 72.8777C64.311 72.8666 64.3739 72.8721 64.431 72.8934C64.4882 72.9148 64.537 72.951 64.5714 72.9975C64.6058 73.044 64.6242 73.0987 64.6242 73.1547C64.6245 73.1917 64.6167 73.2284 64.6013 73.2626C64.5858 73.2969 64.5631 73.3281 64.5343 73.3543C64.5055 73.3806 64.4712 73.4014 64.4335 73.4157C64.3958 73.4299 64.3553 73.4372 64.3144 73.4372ZM64.3144 72.9257C64.2638 72.9253 64.2142 72.9386 64.1719 72.9638C64.1296 72.989 64.0965 73.0251 64.0769 73.0674C64.0573 73.1097 64.0521 73.1563 64.0619 73.2013C64.0716 73.2463 64.096 73.2876 64.1318 73.32C64.1676 73.3525 64.2133 73.3745 64.263 73.3834C64.3126 73.3922 64.3641 73.3875 64.4108 73.3697C64.4575 73.352 64.4973 73.3221 64.5252 73.2838C64.5531 73.2455 64.5677 73.2005 64.5672 73.1547C64.5672 73.0939 64.5406 73.0357 64.4932 72.9928C64.4458 72.9499 64.3815 72.9257 64.3144 72.9257Z" fill="white"/>
<path d="M66.8449 68.5825C66.7836 68.5825 66.7238 68.566 66.6728 68.5352C66.6219 68.5044 66.5822 68.4606 66.5587 68.4094C66.5353 68.3581 66.5292 68.3017 66.5411 68.2473C66.5531 68.1929 66.5826 68.1429 66.6259 68.1037C66.6692 68.0645 66.7244 68.0378 66.7845 68.0269C66.8446 68.0161 66.9068 68.0217 66.9634 68.0429C67.02 68.0641 67.0684 68.1001 67.1025 68.1462C67.1365 68.1923 67.1547 68.2465 67.1547 68.302C67.1541 68.3762 67.1212 68.4473 67.0633 68.4997C67.0053 68.5522 66.9269 68.582 66.8449 68.5825ZM66.8449 68.0731C66.7949 68.0731 66.746 68.0865 66.7045 68.1117C66.6629 68.1368 66.6305 68.1726 66.6113 68.2144C66.5922 68.2562 66.5872 68.3023 66.597 68.3467C66.6067 68.3911 66.6308 68.4319 66.6661 68.4639C66.7015 68.4959 66.7465 68.5177 66.7956 68.5265C66.8446 68.5354 66.8955 68.5308 66.9417 68.5135C66.9879 68.4962 67.0273 68.4668 67.0551 68.4292C67.0829 68.3916 67.0977 68.3473 67.0977 68.302C67.0977 68.2413 67.0711 68.1831 67.0237 68.1402C66.9763 68.0972 66.912 68.0731 66.8449 68.0731Z" fill="white"/>
<path d="M62.524 70.3312C62.463 70.33 62.4038 70.3125 62.3538 70.281C62.3038 70.2494 62.2651 70.2052 62.2427 70.1538C62.2203 70.1025 62.2152 70.0463 62.2279 69.9923C62.2406 69.9383 62.2706 69.8889 62.3142 69.8503C62.3578 69.8117 62.413 69.7856 62.4729 69.7753C62.5328 69.7649 62.5947 69.7709 62.6509 69.7923C62.7071 69.8137 62.7551 69.8496 62.7888 69.8956C62.8225 69.9415 62.8406 69.9955 62.8406 70.0507C62.8406 70.0881 62.8323 70.1251 62.8163 70.1595C62.8004 70.194 62.7769 70.2251 62.7474 70.2513C62.718 70.2774 62.683 70.2979 62.6446 70.3117C62.6062 70.3254 62.5652 70.332 62.524 70.3312ZM62.524 69.8218C62.474 69.8218 62.4251 69.8352 62.3835 69.8604C62.342 69.8855 62.3096 69.9213 62.2904 69.9631C62.2713 70.005 62.2663 70.051 62.276 70.0954C62.2858 70.1398 62.3099 70.1806 62.3452 70.2126C62.3806 70.2446 62.4256 70.2664 62.4747 70.2752C62.5237 70.2841 62.5745 70.2795 62.6207 70.2622C62.6669 70.2449 62.7064 70.2156 62.7342 70.1779C62.762 70.1403 62.7768 70.096 62.7768 70.0507C62.7762 69.9902 62.7494 69.9323 62.7021 69.8895C62.6548 69.8466 62.5908 69.8224 62.524 69.8218Z" fill="white"/>
<path d="M59.1507 73.3196C59.0888 73.3201 59.0282 73.3038 58.9765 73.2729C58.9249 73.242 58.8845 73.1979 58.8606 73.1462C58.8367 73.0945 58.8303 73.0375 58.8423 72.9825C58.8543 72.9275 58.884 72.877 58.9278 72.8373C58.9716 72.7977 59.0274 72.7707 59.0881 72.7599C59.1489 72.7491 59.2118 72.7548 59.2689 72.7765C59.326 72.7981 59.3747 72.8347 59.4088 72.8814C59.443 72.9282 59.4609 72.9831 59.4605 73.0392C59.4605 73.076 59.4525 73.1125 59.4369 73.1465C59.4213 73.1805 59.3985 73.2115 59.3697 73.2375C59.341 73.2635 59.3068 73.2842 59.2693 73.2983C59.2317 73.3124 59.1914 73.3196 59.1507 73.3196ZM59.1507 72.8082C59.1002 72.8078 59.0506 72.821 59.0084 72.8461C58.9661 72.8712 58.9331 72.9072 58.9134 72.9493C58.8938 72.9915 58.8884 73.038 58.898 73.083C58.9076 73.1279 58.9317 73.1692 58.9673 73.2018C59.0029 73.2343 59.0483 73.2565 59.0978 73.2655C59.1474 73.2746 59.1988 73.2702 59.2455 73.2528C59.2923 73.2353 59.3322 73.2057 59.3604 73.1677C59.3885 73.1297 59.4035 73.0849 59.4035 73.0392C59.4038 73.0089 59.3975 72.9789 59.3849 72.9509C59.3724 72.9229 59.3538 72.8974 59.3303 72.876C59.3068 72.8545 59.2788 72.8374 59.248 72.8258C59.2172 72.8142 59.1841 72.8082 59.1507 72.8082Z" fill="white"/>
<path d="M61.2118 68.5825C61.1506 68.5825 61.0907 68.566 61.0398 68.5352C60.9888 68.5044 60.9491 68.4606 60.9257 68.4094C60.9022 68.3581 60.8961 68.3017 60.9081 68.2473C60.92 68.1929 60.9495 68.1429 60.9928 68.1037C61.0361 68.0645 61.0913 68.0378 61.1514 68.0269C61.2115 68.0161 61.2738 68.0217 61.3304 68.0429C61.387 68.0641 61.4354 68.1001 61.4694 68.1462C61.5034 68.1923 61.5216 68.2465 61.5216 68.302C61.5216 68.3764 61.489 68.4477 61.4309 68.5003C61.3728 68.5529 61.294 68.5825 61.2118 68.5825ZM61.2118 68.0731C61.1618 68.0731 61.113 68.0865 61.0714 68.1117C61.0298 68.1368 60.9974 68.1726 60.9783 68.2144C60.9591 68.2562 60.9541 68.3023 60.9639 68.3467C60.9736 68.3911 60.9977 68.4319 61.0331 68.4639C61.0684 68.4959 61.1135 68.5177 61.1625 68.5265C61.2116 68.5354 61.2624 68.5308 61.3086 68.5135C61.3548 68.4962 61.3943 68.4668 61.422 68.4292C61.4498 68.3916 61.4647 68.3473 61.4647 68.302C61.4647 68.2413 61.438 68.1831 61.3906 68.1402C61.3432 68.0972 61.2789 68.0731 61.2118 68.0731Z" fill="white"/>
<path d="M61.5975 72.1935C61.5362 72.1935 61.4763 72.1771 61.4254 72.1463C61.3744 72.1154 61.3347 72.0716 61.3113 72.0204C61.2879 71.9691 61.2817 71.9127 61.2937 71.8583C61.3056 71.8039 61.3351 71.7539 61.3784 71.7147C61.4218 71.6755 61.477 71.6488 61.537 71.638C61.5971 71.6271 61.6594 71.6327 61.716 71.6539C61.7726 71.6751 61.821 71.7111 61.855 71.7572C61.8891 71.8033 61.9072 71.8576 61.9072 71.913C61.9072 71.9874 61.8746 72.0588 61.8165 72.1114C61.7584 72.164 61.6796 72.1935 61.5975 72.1935ZM61.5975 71.6841C61.5475 71.6841 61.4986 71.6976 61.457 71.7227C61.4154 71.7479 61.383 71.7836 61.3639 71.8254C61.3448 71.8673 61.3398 71.9133 61.3495 71.9577C61.3593 72.0021 61.3833 72.0429 61.4187 72.0749C61.4541 72.1069 61.4991 72.1287 61.5481 72.1376C61.5972 72.1464 61.648 72.1419 61.6942 72.1245C61.7404 72.1072 61.7799 72.0779 61.8077 72.0402C61.8354 72.0026 61.8503 71.9583 61.8503 71.913C61.8503 71.8523 61.8236 71.7941 61.7762 71.7512C61.7288 71.7082 61.6645 71.6841 61.5975 71.6841Z" fill="white"/>
<path d="M64.6627 75.5552C64.6015 75.554 64.542 75.5365 64.4917 75.5049C64.4414 75.4733 64.4025 75.429 64.3798 75.3775C64.3571 75.3261 64.3516 75.2697 64.364 75.2154C64.3765 75.1611 64.4063 75.1113 64.4497 75.0723C64.4932 75.0332 64.5483 75.0066 64.6084 74.9957C64.6684 74.9849 64.7307 74.9902 64.7874 75.0111C64.844 75.0321 64.8927 75.0676 64.9272 75.1134C64.9618 75.1592 64.9807 75.2131 64.9816 75.2686C64.9825 75.3066 64.9749 75.3445 64.9592 75.3798C64.9435 75.4151 64.92 75.4471 64.8901 75.4739C64.8603 75.5007 64.8247 75.5218 64.7857 75.5358C64.7466 75.5497 64.7047 75.5564 64.6627 75.5552ZM64.6627 75.0438C64.6122 75.0434 64.5626 75.0566 64.5204 75.0817C64.4781 75.1068 64.4451 75.1428 64.4254 75.1849C64.4058 75.2271 64.4004 75.2736 64.41 75.3185C64.4195 75.3635 64.4437 75.4048 64.4792 75.4373C64.5148 75.4699 64.5603 75.4921 64.6098 75.5011C64.6594 75.5102 64.7108 75.5058 64.7575 75.4884C64.8043 75.4709 64.8442 75.4413 64.8724 75.4033C64.9005 75.3653 64.9155 75.3205 64.9155 75.2748C64.9155 75.2139 64.8889 75.1554 64.8416 75.1122C64.7943 75.0689 64.73 75.0443 64.6627 75.0438Z" fill="white"/>
<path d="M57.1283 69.0031C57.0671 69.0027 57.0075 68.9859 56.9568 68.9549C56.9062 68.9238 56.8668 68.8799 56.8437 68.8286C56.8206 68.7773 56.8148 68.721 56.827 68.6667C56.8392 68.6124 56.8689 68.5626 56.9123 68.5236C56.9557 68.4846 57.0109 68.4581 57.071 68.4474C57.131 68.4368 57.1931 68.4425 57.2496 68.4637C57.3061 68.485 57.3543 68.521 57.3883 68.5671C57.4222 68.6131 57.4403 68.6673 57.4403 68.7227C57.4403 68.7597 57.4322 68.7963 57.4165 68.8305C57.4008 68.8646 57.3778 68.8957 57.3488 68.9217C57.3198 68.9478 57.2854 68.9684 57.2475 68.9824C57.2097 68.9964 57.1691 69.0034 57.1283 69.0031ZM57.1283 68.4937C57.0784 68.4942 57.0297 68.5079 56.9884 68.5333C56.9472 68.5587 56.9151 68.5946 56.8963 68.6365C56.8776 68.6783 56.8729 68.7243 56.8829 68.7686C56.8929 68.8128 56.9171 68.8534 56.9526 68.8853C56.988 68.9171 57.0331 68.9387 57.0821 68.9473C57.131 68.956 57.1818 68.9513 57.2278 68.934C57.2739 68.9166 57.3132 68.8872 57.3409 68.8496C57.3686 68.812 57.3834 68.7679 57.3834 68.7227C57.3834 68.6924 57.3767 68.6625 57.3639 68.6346C57.3511 68.6067 57.3322 68.5813 57.3085 68.5601C57.2848 68.5388 57.2567 68.522 57.2257 68.5106C57.1948 68.4992 57.1617 68.4935 57.1283 68.4937Z" fill="white"/>
<path d="M65.7833 71.4284C65.7215 71.4284 65.6611 71.4118 65.6097 71.3807C65.5584 71.3495 65.5184 71.3053 65.4948 71.2535C65.4713 71.2018 65.4653 71.1449 65.4775 71.09C65.4897 71.0351 65.5197 70.9848 65.5635 70.9454C65.6074 70.9059 65.6632 70.8792 65.7239 70.8685C65.7845 70.8579 65.8474 70.8637 65.9043 70.8854C65.9613 70.9071 66.0099 70.9437 66.0439 70.9904C66.0779 71.0371 66.0958 71.092 66.0954 71.1479C66.0954 71.1849 66.0873 71.2216 66.0716 71.2557C66.0559 71.2899 66.0328 71.3209 66.0038 71.347C65.9748 71.3731 65.9404 71.3937 65.9026 71.4077C65.8647 71.4216 65.8242 71.4287 65.7833 71.4284ZM65.7833 70.917C65.7323 70.9153 65.682 70.9276 65.6387 70.9521C65.5955 70.9766 65.5614 71.0124 65.5408 71.0547C65.5203 71.0969 65.5142 71.1438 65.5233 71.1893C65.5325 71.2347 65.5565 71.2766 65.5922 71.3096C65.628 71.3426 65.6738 71.3651 65.7239 71.3742C65.7739 71.3834 65.8258 71.3787 65.8728 71.3608C65.9199 71.343 65.96 71.3128 65.9879 71.2741C66.0157 71.2354 66.0302 71.19 66.0293 71.1438C66.0282 71.0847 66.002 71.0282 65.9563 70.986C65.9105 70.9438 65.8486 70.9191 65.7833 70.917Z" fill="white"/>
<path d="M59.4243 70.587C59.363 70.587 59.3031 70.5706 59.2522 70.5397C59.2012 70.5089 59.1615 70.4651 59.1381 70.4139C59.1146 70.3626 59.1085 70.3062 59.1205 70.2518C59.1324 70.1974 59.1619 70.1474 59.2052 70.1082C59.2485 70.069 59.3037 70.0423 59.3638 70.0315C59.4239 70.0206 59.4862 70.0262 59.5428 70.0474C59.5994 70.0686 59.6478 70.1046 59.6818 70.1507C59.7158 70.1968 59.734 70.2511 59.734 70.3065C59.734 70.3434 59.726 70.3798 59.7104 70.4139C59.6949 70.4479 59.672 70.4788 59.6433 70.5049C59.6145 70.5309 59.5804 70.5516 59.5428 70.5657C59.5052 70.5798 59.4649 70.587 59.4243 70.587ZM59.4243 70.0776C59.3742 70.0776 59.3254 70.091 59.2838 70.1162C59.2422 70.1413 59.2098 70.1771 59.1907 70.2189C59.1715 70.2608 59.1665 70.3068 59.1763 70.3512C59.186 70.3956 59.2101 70.4364 59.2455 70.4684C59.2808 70.5004 59.3259 70.5222 59.3749 70.5311C59.424 70.5399 59.4748 70.5354 59.521 70.518C59.5672 70.5007 59.6067 70.4714 59.6345 70.4337C59.6622 70.3961 59.6771 70.3518 59.6771 70.3065C59.6771 70.2765 59.6705 70.2467 59.6578 70.2189C59.6451 70.1912 59.6265 70.1659 59.603 70.1447C59.5795 70.1234 59.5517 70.1065 59.521 70.095C59.4903 70.0835 59.4574 70.0776 59.4243 70.0776Z" fill="white"/>
<path d="M61.5967 75.1323C61.5346 75.1327 61.4738 75.1163 61.422 75.0853C61.3703 75.0542 61.33 75.0098 61.3062 74.9579C61.2824 74.9059 61.2764 74.8487 61.2887 74.7936C61.301 74.7385 61.3313 74.688 61.3755 74.6485C61.4197 74.6091 61.476 74.5825 61.537 74.5721C61.598 74.5617 61.6611 74.5681 61.7181 74.5904C61.7751 74.6127 61.8235 74.6498 61.8571 74.6971C61.8906 74.7445 61.9078 74.7998 61.9064 74.856C61.9053 74.9296 61.8721 74.9999 61.8141 75.0516C61.7562 75.1034 61.6781 75.1323 61.5967 75.1323ZM61.5967 74.6209C61.5461 74.6205 61.4964 74.6337 61.4541 74.6589C61.4118 74.6842 61.3788 74.7202 61.3592 74.7625C61.3396 74.8048 61.3344 74.8514 61.3441 74.8964C61.3539 74.9414 61.3782 74.9827 61.4141 75.0152C61.4499 75.0476 61.4955 75.0696 61.5452 75.0785C61.5949 75.0873 61.6464 75.0826 61.6931 75.0648C61.7398 75.0471 61.7796 75.0172 61.8075 74.9789C61.8353 74.9406 61.85 74.8956 61.8495 74.8498C61.8495 74.7891 61.8229 74.7309 61.7755 74.6879C61.7281 74.645 61.6638 74.6209 61.5967 74.6209Z" fill="white"/>
<path d="M58.9867 76.1471C58.9249 76.1475 58.8643 76.1313 58.8127 76.1005C58.7611 76.0697 58.7207 76.0257 58.6968 75.9741C58.6728 75.9225 58.6663 75.8657 58.6781 75.8107C58.6899 75.7558 58.7194 75.7052 58.7629 75.6655C58.8065 75.6258 58.8621 75.5987 58.9227 75.5876C58.9833 75.5765 59.0461 75.582 59.1033 75.6033C59.1604 75.6247 59.2093 75.6609 59.2437 75.7074C59.2781 75.7539 59.2964 75.8086 59.2964 75.8646C59.2964 75.9391 59.2639 76.0107 59.2058 76.0636C59.1478 76.1166 59.069 76.1466 58.9867 76.1471ZM58.9867 75.6356C58.936 75.6352 58.8864 75.6485 58.8441 75.6737C58.8018 75.6989 58.7687 75.735 58.7492 75.7773C58.7296 75.8196 58.7243 75.8662 58.7341 75.9112C58.7439 75.9562 58.7682 75.9975 58.804 76.0299C58.8398 76.0624 58.8855 76.0844 58.9352 76.0933C58.9849 76.1021 59.0364 76.0974 59.0831 76.0796C59.1298 76.0619 59.1696 76.032 59.1974 75.9937C59.2253 75.9554 59.2399 75.9104 59.2395 75.8646C59.2389 75.804 59.2121 75.7461 59.1648 75.7033C59.1175 75.6605 59.0535 75.6362 58.9867 75.6356Z" fill="white"/>
<path d="M57.1283 71.9378C57.0671 71.9374 57.0075 71.9206 56.9568 71.8896C56.9062 71.8585 56.8668 71.8146 56.8437 71.7633C56.8206 71.712 56.8148 71.6557 56.827 71.6014C56.8392 71.5471 56.8689 71.4973 56.9123 71.4583C56.9557 71.4193 57.0109 71.3928 57.071 71.3821C57.131 71.3715 57.1931 71.3771 57.2496 71.3984C57.3061 71.4197 57.3543 71.4557 57.3883 71.5018C57.4222 71.5478 57.4403 71.602 57.4403 71.6574C57.4403 71.6944 57.4322 71.731 57.4165 71.7652C57.4008 71.7993 57.3778 71.8303 57.3488 71.8564C57.3198 71.8825 57.2854 71.9031 57.2475 71.9171C57.2097 71.9311 57.1691 71.9381 57.1283 71.9378ZM57.1283 71.4284C57.0784 71.4288 57.0297 71.4426 56.9884 71.468C56.9472 71.4934 56.9151 71.5293 56.8963 71.5712C56.8776 71.613 56.8729 71.659 56.8829 71.7033C56.8929 71.7475 56.9171 71.7881 56.9526 71.8199C56.988 71.8518 57.0331 71.8733 57.0821 71.882C57.131 71.8907 57.1818 71.886 57.2278 71.8686C57.2739 71.8513 57.3132 71.8219 57.3409 71.7843C57.3686 71.7467 57.3834 71.7025 57.3834 71.6574C57.3834 71.6271 57.3767 71.5972 57.3639 71.5693C57.3511 71.5414 57.3322 71.516 57.3085 71.4948C57.2848 71.4735 57.2567 71.4567 57.2257 71.4453C57.1948 71.4339 57.1617 71.4282 57.1283 71.4284Z" fill="white"/>
<path d="M56.8477 74.4726C56.7864 74.4726 56.7266 74.4561 56.6756 74.4253C56.6247 74.3945 56.585 74.3507 56.5615 74.2994C56.5381 74.2482 56.532 74.1918 56.5439 74.1374C56.5559 74.083 56.5854 74.033 56.6287 73.9938C56.672 73.9545 56.7272 73.9278 56.7873 73.917C56.8474 73.9062 56.9096 73.9117 56.9662 73.933C57.0228 73.9542 57.0712 73.9901 57.1053 74.0363C57.1393 74.0824 57.1575 74.1366 57.1575 74.1921C57.1575 74.2665 57.1248 74.3378 57.0667 74.3904C57.0087 74.443 56.9299 74.4726 56.8477 74.4726ZM56.8477 73.9632C56.7977 73.9632 56.7488 73.9766 56.7073 74.0018C56.6657 74.0269 56.6333 74.0627 56.6141 74.1045C56.595 74.1463 56.59 74.1923 56.5998 74.2368C56.6095 74.2812 56.6336 74.3219 56.6689 74.354C56.7043 74.386 56.7494 74.4078 56.7984 74.4166C56.8474 74.4254 56.8983 74.4209 56.9445 74.4036C56.9907 74.3863 57.0301 74.3569 57.0579 74.3193C57.0857 74.2816 57.1005 74.2374 57.1005 74.1921C57.1005 74.1314 57.0739 74.0732 57.0265 74.0302C56.9791 73.9873 56.9148 73.9632 56.8477 73.9632Z" fill="white"/>
<path d="M72.0146 68.9392L71.8141 75.65H95.9723C95.9723 75.65 91.4354 58.1203 84.6414 52.9645C80.9244 50.1474 78.0365 51.3538 76.0732 53.2182C75.5949 53.6884 70.3565 61.3457 70.1287 64.1031C69.942 66.5366 72.0146 68.9392 72.0146 68.9392Z" fill="#EB9481"/>
<path d="M72.0141 68.9393L71.8137 75.6501H95.9696C95.9696 75.6501 93.6921 66.8687 89.9591 59.9105C89.4581 60.7684 88.1803 62.5255 86.1214 62.5379C83.3883 62.5564 81.4091 58.5329 81.4091 58.5329C81.4091 58.5329 77.8288 60.5457 75.5626 60.226C73.2964 59.9064 73.4057 57.149 73.4057 57.149C71.8843 59.6115 70.2627 62.5894 70.1397 64.099C69.9415 66.5367 72.0141 68.9393 72.0141 68.9393Z" fill="#F36464"/>
<path d="M81.3979 59.3103C81.3004 58.6336 81.2699 57.9503 81.3068 57.2686C81.3332 56.5839 81.4177 55.902 81.5596 55.229C81.6906 54.5409 81.951 53.8782 82.3294 53.2698C82.5288 52.9465 82.8436 52.6942 83.2222 52.5542C83.416 52.4951 83.6242 52.4858 83.8235 52.5274C83.9169 52.5562 84.0102 52.5851 84.0968 52.6181L84.3405 52.7522L84.074 52.6759C83.9829 52.6614 83.8941 52.6511 83.8053 52.6408C83.633 52.6337 83.4618 52.6679 83.3088 52.7398C83.0122 52.9011 82.7783 53.1418 82.6391 53.4286C82.4822 53.7226 82.3556 54.0291 82.2611 54.3443C82.1586 54.6598 82.0743 54.9836 82.006 55.3094C81.9377 55.6353 81.8716 55.9652 81.8169 56.2973C81.7623 56.6293 81.7122 56.9613 81.6598 57.2954C81.5687 57.9636 81.4753 58.6339 81.3979 59.3103Z" fill="#F36464"/>
<path d="M73.1285 57.6007C73.3779 56.9702 73.6755 56.3562 74.0191 55.7632C74.3601 55.1656 74.7404 54.5871 75.1578 54.0308C75.3697 53.7545 75.5883 53.4822 75.8229 53.2183C76.0604 52.9557 76.3152 52.7064 76.5859 52.4717C76.8575 52.2293 77.1639 52.0212 77.4969 51.853C77.6606 51.7611 77.8447 51.7031 78.0361 51.6831C78.2275 51.6632 78.4213 51.6817 78.6038 51.7375C78.4263 51.724 78.2476 51.7424 78.078 51.7916C77.9084 51.8408 77.7512 51.9198 77.6154 52.0242C77.3311 52.2206 77.0708 52.4439 76.8387 52.6903C76.3677 53.1879 75.9311 53.7113 75.5314 54.2577C75.1169 54.8001 74.7274 55.3589 74.3311 55.9075C73.9348 56.4561 73.5453 57.0459 73.1285 57.6007Z" fill="#F36464"/>
<path d="M95.9702 75.6501H86.2654L86.1219 62.5378C88.1718 62.5255 89.4586 60.7684 89.9597 59.9105C93.6972 66.8687 95.9702 75.6501 95.9702 75.6501Z" fill="#263238"/>
<path d="M81.5393 52.1108C81.4186 52.4882 79.2618 54.8701 77.3395 54.6948C76.7132 54.6371 76.909 51.5292 76.909 51.5292L76.8658 51.2982L76.2622 48.0459L80.5736 45.8248L81.1954 45.532C81.1954 45.532 81.2956 46.4332 81.4095 47.5551C81.4095 47.6067 81.4209 47.6582 81.4255 47.7139C81.43 47.7696 81.4414 47.8377 81.446 47.8954C81.4665 48.0645 81.4847 48.2357 81.5006 48.4048C81.512 48.5347 81.5234 48.6605 81.5302 48.7987C81.5371 48.9369 81.5485 49.0689 81.5598 49.2112C81.6264 50.177 81.6196 51.1458 81.5393 52.1108Z" fill="#EB9481"/>
<path d="M81.4095 47.5531C80.9974 48.4383 80.3775 49.2318 79.5929 49.8785C78.8083 50.5252 77.8778 51.0097 76.8658 51.2982L76.2622 48.0459L80.5736 45.8248L81.1954 45.532C81.1954 45.532 81.2888 46.4312 81.4095 47.5531Z" fill="#263238"/>
<path d="M71.6387 43.0448C71.0761 48.8193 74.8273 49.768 76.1938 49.8773C77.4397 49.9742 81.6987 50.166 82.9172 44.4823C84.1357 38.7985 81.3503 36.7403 78.5124 36.3774C75.6746 36.0144 72.2013 37.2786 71.6387 43.0448Z" fill="#EB9481"/>
<path d="M72.6929 41.9889C72.839 41.9769 72.9842 41.9576 73.1279 41.9312C73.2853 41.9309 73.4381 41.8838 73.563 41.7971C73.5963 41.7629 73.6162 41.7197 73.6195 41.6741C73.6228 41.6286 73.6093 41.5834 73.5812 41.5455C73.5132 41.4785 73.4267 41.4292 73.3305 41.4027C73.2344 41.3762 73.1322 41.3736 73.0346 41.395C72.8294 41.4086 72.6375 41.4919 72.4971 41.628C72.4672 41.6608 72.4485 41.7006 72.4431 41.7427C72.4376 41.7849 72.4457 41.8276 72.4664 41.8657C72.4871 41.9038 72.5194 41.9357 72.5596 41.9575C72.5998 41.9794 72.6461 41.9903 72.6929 41.9889Z" fill="#263238"/>
<path d="M77.0983 42.3725C76.9502 42.3477 76.8181 42.3024 76.6747 42.2652C76.5184 42.2464 76.3734 42.1811 76.2624 42.0796C76.2352 42.0418 76.2224 41.9968 76.2261 41.9517C76.2298 41.9066 76.2498 41.8639 76.2829 41.8301C76.3593 41.771 76.4519 41.7317 76.551 41.7164C76.65 41.7012 76.7518 41.7105 76.8455 41.7435C77.0468 41.7815 77.2249 41.8868 77.3443 42.0384C77.37 42.0742 77.3835 42.1161 77.3832 42.1588C77.3829 42.2015 77.3688 42.2432 77.3427 42.2787C77.3165 42.3143 77.2794 42.3421 77.236 42.3587C77.1926 42.3754 77.1447 42.3802 77.0983 42.3725Z" fill="#263238"/>
<path d="M76.1433 43.7811C76.1433 43.7646 76.1752 43.8017 76.1729 43.8182C76.1206 44.2101 76.1342 44.6658 76.5146 44.8267C76.5146 44.8267 76.5146 44.8515 76.5146 44.8494C76.034 44.7463 76.0249 44.1441 76.1433 43.7811Z" fill="#263238"/>
<path d="M76.5721 43.4017C77.2736 43.4017 77.203 44.6803 76.5539 44.6721C75.9048 44.6638 75.9822 43.3935 76.5721 43.4017Z" fill="#263238"/>
<path d="M76.8424 43.48C76.9609 43.5583 77.0702 43.6862 77.2205 43.711C77.3708 43.7357 77.528 43.6058 77.6464 43.4841C77.6601 43.4697 77.6715 43.4841 77.6692 43.4985C77.6692 43.7419 77.5439 43.9873 77.2524 44.0121C76.9609 44.0368 76.8106 43.8058 76.7582 43.5604C76.7468 43.5089 76.7946 43.449 76.8424 43.48Z" fill="#263238"/>
<path d="M73.4292 43.478C73.4292 43.4636 73.3951 43.4966 73.3951 43.511C73.3951 43.907 73.3131 44.3565 72.9122 44.4741C72.9008 44.4741 72.9008 44.4968 72.9122 44.4947C73.3974 44.4514 73.4953 43.8533 73.4292 43.478Z" fill="#263238"/>
<path d="M73.0598 43.0531C72.3628 42.9768 72.249 44.2472 72.8958 44.3152C73.5426 44.3833 73.6451 43.115 73.0598 43.0531Z" fill="#263238"/>
<path d="M72.7611 43.115C72.6427 43.1727 72.5334 43.2882 72.3899 43.2862C72.2464 43.2841 72.1348 43.1377 72.0483 42.9995C72.0483 42.9851 72.0278 42.9995 72.0255 43.0119C71.9959 43.2532 72.0619 43.513 72.317 43.577C72.5721 43.6409 72.7384 43.4429 72.8226 43.2057C72.8386 43.1624 72.8067 43.0964 72.7611 43.115Z" fill="#263238"/>
<path d="M75.7636 46.79C75.6588 46.8828 75.5541 47.0086 75.3969 47.021C75.2352 47.0171 75.0762 46.9827 74.93 46.9199C74.9269 46.9185 74.9234 46.9181 74.92 46.9187C74.9166 46.9193 74.9135 46.9209 74.9112 46.9232C74.9089 46.9256 74.9075 46.9285 74.9072 46.9316C74.9069 46.9348 74.9077 46.9379 74.9095 46.9405C74.9721 47.018 75.0564 47.079 75.1537 47.1171C75.251 47.1551 75.3578 47.1689 75.463 47.1571C75.5516 47.1358 75.6315 47.0914 75.6926 47.0295C75.7537 46.9675 75.7935 46.8907 75.8069 46.8085C75.8228 46.7859 75.7795 46.7776 75.7636 46.79Z" fill="#263238"/>
<path d="M74.044 45.268C74.044 45.268 73.9028 45.9403 73.8845 46.2187C73.8845 46.2434 74.9436 46.3507 75.5289 45.7691C75.554 45.7444 75.5153 45.7114 75.4857 45.7279C75.0852 45.9564 74.6137 46.0613 74.1419 46.0269C74.1237 45.9485 74.3924 45.0081 74.3446 44.9957C74.106 45.0012 73.8692 45.0359 73.6408 45.0989C73.8686 43.878 74.3241 42.7004 74.5268 41.4816C74.5298 41.472 74.5285 41.4617 74.5232 41.453C74.5179 41.4443 74.5089 41.4379 74.4983 41.4352C74.4878 41.4324 74.4764 41.4336 74.4668 41.4384C74.4572 41.4433 74.4501 41.4514 74.4471 41.4609C73.8845 42.6633 73.5839 44.0636 73.3083 45.3195C73.2742 45.4804 73.9187 45.3072 74.044 45.268Z" fill="#263238"/>
<path d="M82.3064 44.9277C80.7554 44.771 80.6665 40.4112 80.662 39.8771C80.6438 40.2132 80.5504 41.9992 80.3932 42.0611C80.227 42.0463 80.0646 42.0066 79.9127 41.9435C79.9309 41.7301 79.9309 41.5156 79.9127 41.3022C79.9127 41.2011 79.8535 41.5084 79.7623 41.894L79.4799 41.8012C79.5357 41.3475 79.5242 40.889 79.4458 40.438C79.4139 40.2669 79.3 41.0196 79.0677 41.6754C78.0155 41.3393 76.4963 40.8897 75.0501 40.7453C74.6629 40.7061 74.3281 40.6876 74.032 40.6793C74.073 40.1534 74.1869 39.5987 74.1345 39.7162C73.9915 40.0262 73.8824 40.3481 73.8088 40.6773C73.6494 40.6773 73.499 40.6773 73.3647 40.6773C73.3874 39.9307 73.8771 38.7717 73.7291 38.9449C73.2935 39.4777 72.9728 40.0801 72.7839 40.7206C72.2168 40.7783 72.0528 40.867 72.0482 40.735C72.0482 40.4958 72.5356 38.4376 74.4533 37.0373C76.535 35.5132 80.4479 35.3627 82.4248 38.0684C82.4248 38.0684 84.1353 39.2543 84.2765 40.9887C84.4177 42.7231 83.2038 45.0184 82.3064 44.9277Z" fill="#263238"/>
<path d="M81.8695 44.8452C81.8695 44.8452 83.2679 43.0406 84.1721 43.4923C85.0763 43.9439 84.0218 46.561 82.9582 46.9178C82.826 46.9716 82.6833 47.0007 82.5384 47.0034C82.3936 47.0062 82.2496 46.9825 82.1151 46.9338C81.9806 46.8852 81.8582 46.8124 81.7554 46.7201C81.6526 46.6277 81.5713 46.5175 81.5165 46.396L81.8695 44.8452Z" fill="#EB9481"/>
<path d="M83.8485 44.2349C83.8515 44.2359 83.854 44.2378 83.8558 44.2402C83.8576 44.2426 83.8585 44.2454 83.8585 44.2483C83.8585 44.2512 83.8576 44.254 83.8558 44.2564C83.854 44.2588 83.8515 44.2606 83.8485 44.2617C83.1015 44.5339 82.7097 45.1588 82.4318 45.8084C82.6596 45.5589 82.9557 45.4228 83.3247 45.662C83.3452 45.6744 83.3247 45.7012 83.3042 45.697C83.1737 45.6584 83.0333 45.6575 82.9022 45.6944C82.7712 45.7314 82.6562 45.8044 82.5731 45.9033C82.4349 46.0691 82.3172 46.2483 82.2223 46.4374C82.1859 46.4972 82.0652 46.4663 82.0925 46.3962C82.0938 46.3907 82.0938 46.3851 82.0925 46.3797C82.0879 45.5238 82.8281 44.3215 83.8485 44.2349Z" fill="#263238"/>
<path d="M88.1056 55.6929C96.0452 63.2678 102.568 79.0177 98.7487 80.4964C95.2572 81.8472 84.1973 80.5995 79.649 79.6179C78.312 79.3291 81.0018 69.9559 82.4322 70.2632C84.1585 70.6344 88.5816 71.2098 88.7524 71.1995C89.1328 71.1748 84.8805 60.162 83.5869 56.1446C81.783 50.533 85.1242 52.847 88.1056 55.6929Z" fill="#EB9481"/>
<path d="M68.6685 68.1103C68.0513 68.9765 68.8052 69.7973 68.8052 69.7973C68.2922 70.0164 67.8803 70.3915 67.6414 70.8573C67.2633 71.6967 68.5524 72.6 68.5524 72.6C68.0733 72.9282 67.7145 73.3795 67.5229 73.8951C67.2496 74.7304 68.4044 75.811 68.4044 75.811C68.1497 76.3309 68.1093 76.9163 68.2905 77.4609C68.8462 78.9045 71.3561 79.418 72.9481 79.7624C74.5401 80.1068 79.4096 79.7294 80.3457 79.7418L82.8647 70.5253C82.8647 70.5253 76.2096 67.1472 74.2759 66.9843C72.6452 66.8379 69.3587 67.1369 68.6685 68.1103Z" fill="#EB9481"/>
<path d="M68.9175 69.6652C70.6894 69.4342 72.4386 69.69 74.2014 69.857C74.2093 69.857 74.2168 69.8598 74.2224 69.8649C74.2279 69.8699 74.2311 69.8767 74.2311 69.8838C74.2311 69.8909 74.2279 69.8977 74.2224 69.9028C74.2168 69.9078 74.2093 69.9106 74.2014 69.9106C72.45 69.7271 70.6803 69.8611 68.9243 69.7415C68.9145 69.7403 68.9055 69.7361 68.8987 69.7296C68.8919 69.7232 68.8878 69.7148 68.887 69.7059C68.8862 69.6969 68.8888 69.6881 68.8943 69.6807C68.8999 69.6733 68.908 69.6678 68.9175 69.6652Z" fill="#263238"/>
<path d="M68.6163 72.4865C69.0245 72.469 69.4334 72.5002 69.8325 72.5793C70.2584 72.6391 70.6843 72.7071 71.1103 72.7855C71.9621 72.9299 72.8086 73.0942 73.6497 73.2784C73.6862 73.2784 73.6816 73.3403 73.6497 73.3341C72.8002 73.1897 71.9507 73.0577 71.0966 72.9484C70.6684 72.8921 70.2402 72.8391 69.812 72.7896C69.4046 72.767 69.0013 72.7034 68.6095 72.5999C68.5929 72.5991 68.5773 72.5923 68.5662 72.5811C68.5551 72.5699 68.5494 72.5551 68.5503 72.5401C68.5512 72.525 68.5586 72.5109 68.571 72.5009C68.5834 72.4908 68.5997 72.4857 68.6163 72.4865Z" fill="#263238"/>
<path d="M68.4394 75.817C68.7879 75.7675 69.1888 75.8892 69.5281 75.9531C69.9153 76.0274 70.3002 76.0975 70.6874 76.1594C71.4618 76.2996 72.2362 76.4378 73.0151 76.5533C73.0538 76.5533 73.047 76.6131 73.0151 76.6069C72.2225 76.4955 71.4208 76.4007 70.6373 76.2728L69.4735 76.0913C69.1145 76.0642 68.7636 75.9797 68.4372 75.8418C68.4341 75.8381 68.4326 75.8336 68.4331 75.829C68.4335 75.8244 68.4357 75.8202 68.4394 75.817Z" fill="#263238"/>
<path d="M70.8845 67.1925C70.076 67.2708 69.149 67.4131 68.607 68.0174C68.3584 68.2757 68.231 68.6116 68.2517 68.9537C68.29 69.2736 68.4609 69.5684 68.7299 69.7786C68.4055 69.8667 68.1149 70.0356 67.8914 70.2661C67.6678 70.4965 67.5204 70.7793 67.4659 71.082C67.45 71.2337 67.4684 71.3868 67.5201 71.5318C67.5718 71.6769 67.6557 71.8108 67.7665 71.9255C67.8736 72.0472 67.9943 72.1544 68.1173 72.2658C68.2403 72.3771 68.3701 72.472 68.4931 72.5689C68.3554 72.6637 68.2253 72.767 68.1036 72.8783C67.9676 72.9924 67.8441 73.1181 67.7346 73.2536C67.5126 73.5239 67.3835 73.8474 67.3634 74.1837C67.3732 74.5182 67.4938 74.8422 67.7096 75.1138C67.8836 75.3929 68.1318 75.6282 68.4316 75.7985C68.4498 75.7985 68.468 75.7861 68.4544 75.7738C68.2183 75.5708 68.0199 75.3348 67.8668 75.0746C67.6822 74.7978 67.5853 74.4803 67.5866 74.1569C67.6217 73.8503 67.7433 73.557 67.9396 73.3052C68.0364 73.1694 68.1413 73.0386 68.2539 72.9133C68.3473 72.8102 68.591 72.5999 68.5682 72.5854C68.5455 72.571 68.3109 72.3276 68.2221 72.2183C68.1332 72.109 68.0421 71.9894 67.9601 71.8698C67.7872 71.6405 67.715 71.3611 67.7574 71.0861C67.8157 70.8304 67.9495 70.5938 68.1446 70.4014C68.3382 70.1952 68.5819 70.0488 68.7846 69.857C68.798 69.8358 68.8021 69.8107 68.796 69.7869C68.3655 69.1496 68.4361 68.5495 68.9235 68.102C69.1705 67.8808 69.458 67.7001 69.7731 67.5678C70.1337 67.427 70.5061 67.3125 70.8868 67.2255C70.9141 67.2255 70.9096 67.1904 70.8845 67.1925Z" fill="#263238"/>
<path d="M86.4907 64.2846C86.3723 63.8618 86.2402 63.4432 86.1035 63.0225C85.8302 62.179 85.5478 61.3334 85.1925 60.5126C84.9944 60.0486 84.7757 59.5928 84.5639 59.1329C84.5639 59.1329 84.5502 59.1329 84.5525 59.1329C84.7461 59.7145 84.9237 60.3002 85.1173 60.8818C84.9192 60.5436 84.696 60.2198 84.5069 59.8795C84.5069 59.8609 84.4682 59.8795 84.4773 59.896C84.6732 60.2486 84.8326 60.6157 85.0171 60.9725C85.1219 61.1787 85.2449 61.3726 85.3565 61.5665C85.3565 61.5912 85.3724 61.616 85.3815 61.6386C85.6913 62.4739 85.9919 63.3132 86.3062 64.1464C86.4816 64.6146 86.6729 65.0827 86.8164 65.5591C86.8184 65.5626 86.8217 65.5653 86.8257 65.5668C86.8298 65.5683 86.8342 65.5685 86.8384 65.5672C86.8425 65.566 86.846 65.5634 86.8482 65.56C86.8505 65.5567 86.8513 65.5527 86.8506 65.5488C86.7139 65.1363 86.6091 64.7074 86.4907 64.2846Z" fill="#263238"/>
<path d="M95.465 73.9362C94.9634 73.562 94.4252 73.23 93.8571 72.9442C93.3072 72.6394 92.7323 72.3733 92.1375 72.1482C90.2376 71.4594 88.2377 71.0232 86.1999 70.853C86.195 70.853 86.1904 70.8548 86.187 70.8579C86.1836 70.861 86.1816 70.8652 86.1816 70.8695C86.1816 70.8739 86.1836 70.8781 86.187 70.8812C86.1904 70.8843 86.195 70.886 86.1999 70.886C86.546 70.9438 90.2448 71.746 91.7981 72.2925C92.3903 72.4988 92.9597 72.7607 93.5268 73.0226C93.8517 73.1711 94.1721 73.3257 94.4879 73.4866C94.8045 73.6495 95.1074 73.831 95.4263 73.9857C95.4335 73.9886 95.4416 73.9891 95.4492 73.9872C95.4568 73.9853 95.4635 73.9811 95.468 73.9753C95.4726 73.9695 95.4748 73.9624 95.4742 73.9553C95.4737 73.9481 95.4704 73.9414 95.465 73.9362Z" fill="#263238"/>
<path d="M18.7405 55.3301C20.3689 57.9822 31.529 68.1164 37.8561 68.368C45.092 68.6588 58.6344 64.7755 59.7345 63.9258C62.7454 61.5954 59.1924 54.6908 56.8647 54.8207C53.9631 54.9815 40.2089 59.0464 38.0087 58.8319C34.5741 58.4957 26.9101 53.8823 21.4235 51.521C18.2326 50.1454 17.4878 53.2884 18.7405 55.3301Z" fill="#DD6A57"/>
<path d="M58.5501 64.4289C59.197 64.1711 64.3056 62.5542 66.4852 60.5662C67.6399 59.5144 70.455 56.2951 69.8355 55.5795C69.2684 54.9257 68.2594 55.6372 68.2594 55.6372C68.2594 55.6372 69.4893 54.1936 68.6922 53.2841C67.895 52.3747 66.2574 53.6615 66.2574 53.6615C66.2574 53.6615 67.3962 52.088 66.5353 51.2424C65.6744 50.3969 64.2577 51.9292 64.2577 51.9292C64.2577 51.9292 65.3783 50.5351 64.3397 50.1102C63.0916 49.5988 61.3447 52.3788 59.8597 53.3233C59.5227 53.5296 52.6831 57.2232 52.6831 57.2232L58.5501 64.4289Z" fill="#DD6A57"/>
<path d="M64.1888 51.9169C62.8997 53.9606 61.9454 54.6535 59.6883 55.7424C59.6427 55.7631 59.6678 55.827 59.7156 55.8084C62.0365 54.9258 63.3711 54.2143 64.3004 51.9684C64.3459 51.8591 64.2503 51.8199 64.1888 51.9169Z" fill="#263238"/>
<path d="M66.1864 53.6411C64.6445 55.6581 63.615 56.417 61.342 57.7142C61.3101 57.7328 61.342 57.7843 61.3762 57.7678C63.7221 56.6645 65.0362 55.9262 66.2866 53.7277C66.3436 53.6288 66.257 53.5483 66.1864 53.6411Z" fill="#263238"/>
<path d="M68.1472 55.6971C66.496 57.5532 65.4141 58.4276 63.025 59.4299C63.0129 59.434 63.0031 59.4423 62.9978 59.4529C62.9924 59.4636 62.992 59.4757 62.9965 59.4866C63.001 59.4976 63.0102 59.5064 63.0219 59.5112C63.0337 59.5161 63.0471 59.5165 63.0591 59.5124C65.6032 58.704 66.9674 57.6192 68.2042 55.7487C68.2884 55.6208 68.2497 55.5796 68.1472 55.6971Z" fill="#263238"/>
<path d="M50.6168 56.9138C50.6168 56.9138 52.5915 54.569 53.7098 53.7131C54.8281 52.8572 60.2942 51.0527 60.793 52.0983C61.4353 53.4594 58.5132 55.0577 56.9576 55.6764C56.9576 55.6764 58.4448 58.8029 56.6182 60.3661C54.7916 61.9294 50.6168 56.9138 50.6168 56.9138Z" fill="#DD6A57"/>
<path d="M60.8341 52.5314C60.4378 54.1462 58.3493 54.835 56.8962 55.5342C56.8742 55.5435 56.8551 55.5576 56.8404 55.5751C56.8257 55.5926 56.8159 55.6131 56.8119 55.6348C56.8079 55.6565 56.8097 55.6787 56.8173 55.6996C56.8248 55.7205 56.8378 55.7395 56.8552 55.7548C57.3813 57.1036 57.6934 59.1432 56.7208 60.3703C56.7142 60.3774 56.7109 60.3866 56.7118 60.3959C56.7127 60.4052 56.7175 60.4138 56.7254 60.4198C56.7333 60.4258 56.7434 60.4288 56.7537 60.428C56.7639 60.4272 56.7734 60.4228 56.7801 60.4157C58.0191 59.2278 57.8938 57.2005 57.2128 55.759C58.7137 55.0619 60.7772 54.2865 60.8569 52.5335L60.8341 52.5314Z" fill="#263238"/>
<path d="M18.7033 56.089C19.9514 57.776 30.0547 67.7617 36.7098 68.5908C41.1966 69.1497 48.954 68.3454 51.8875 67.7555L47.8403 56.3922C47.8403 56.3922 40.9347 58.6958 38.2745 58.5019C35.6143 58.3081 25.0145 52.5563 21.0834 51.2323C19.4139 50.6672 18.4049 51.026 17.9403 51.8097C17.3071 52.8553 17.6624 54.6805 18.7033 56.089Z" fill="#455A64"/>
<path d="M49.6307 67.5369C48.9679 65.8561 46.5286 58.8752 46.1118 57.3429C46.0822 57.2356 46.1505 57.1923 46.1961 57.2996C48.3119 62.2924 49.1433 65.8293 49.7013 67.5101C49.7127 67.5514 49.6443 67.5782 49.6307 67.5369Z" fill="#263238"/>
<path d="M32.1938 64.7219C32.1838 65.2945 32.3409 65.8594 32.6493 66.3594C32.6576 66.0741 32.62 65.7893 32.5377 65.5139C32.4649 65.2365 32.3492 64.9699 32.1938 64.7219Z" fill="#263238"/>
<path d="M39.2977 58.8318C39.292 59.1169 39.3295 59.4014 39.4093 59.6773C39.4822 59.9543 39.5988 60.2203 39.7555 60.4672C39.7659 59.8952 39.6087 59.3309 39.3 58.8318H39.2977Z" fill="#263238"/>
<path d="M27.9759 55.4703C27.9689 56.0426 28.1258 56.6068 28.4315 57.1078C28.4385 56.5354 28.2816 55.9713 27.9759 55.4703Z" fill="#263238"/>
<path d="M47.3193 62.876C47.3121 63.4476 47.4691 64.0112 47.7748 64.5114C47.782 63.9397 47.6251 63.3762 47.3193 62.876Z" fill="#263238"/>
<path d="M37.5026 67.2069C38.1341 67.215 38.7569 67.0728 39.3087 66.7944C38.9938 66.7865 38.6792 66.8198 38.3749 66.8934C38.0696 66.9613 37.7761 67.0667 37.5026 67.2069Z" fill="#263238"/>
<path d="M43.4817 60.9148C43.7966 60.92 44.1108 60.886 44.4155 60.8138C44.7214 60.7478 45.0152 60.6422 45.2878 60.5003C44.6561 60.4909 44.0329 60.6332 43.4817 60.9128V60.9148Z" fill="#263238"/>
<path d="M28.575 62.1542C29.2073 62.1633 29.8312 62.021 30.3833 61.7417C30.0683 61.7345 29.7538 61.7685 29.4495 61.8428C29.1432 61.9087 28.8488 62.0135 28.575 62.1542Z" fill="#263238"/>
<path d="M17.8795 52.7128C18.5117 52.7207 19.1352 52.5784 19.6879 52.3004C19.373 52.2923 19.0585 52.3257 18.7541 52.3994C18.448 52.4668 18.1537 52.5723 17.8795 52.7128Z" fill="#263238"/>
<path d="M23.2338 54.3257C23.0055 54.5224 22.8092 54.7473 22.6507 54.9939C22.4856 55.2369 22.3598 55.5002 22.2772 55.7756C22.7293 55.3779 23.059 54.8803 23.2338 54.3319V54.3257Z" fill="#263238"/>
<path d="M45.5765 66.3758C45.3495 66.5737 45.154 66.7993 44.9957 67.046C44.8305 67.289 44.7047 67.5523 44.6222 67.8277C45.0738 67.43 45.4028 66.9323 45.5765 66.384V66.3758Z" fill="#263238"/>
<path d="M35.9901 61.7377C35.5381 62.1354 35.2083 62.633 35.0336 63.1814C35.2624 62.9852 35.4588 62.7601 35.6166 62.5132C35.7803 62.2716 35.906 62.0107 35.9901 61.7377Z" fill="#263238"/>
<path d="M25.7527 60.4363C25.5356 60.2296 25.2871 60.0518 25.0148 59.9083C24.7464 59.7588 24.4557 59.6449 24.1516 59.5701C24.5908 59.9795 25.1403 60.278 25.7459 60.4363H25.7527Z" fill="#263238"/>
<path d="M42.7183 64.132C42.5011 63.9259 42.2527 63.7488 41.9804 63.6061C41.7123 63.456 41.4215 63.3421 41.1172 63.2679C41.3338 63.4746 41.5824 63.6517 41.8551 63.7938C42.1237 63.943 42.4143 64.0569 42.7183 64.132Z" fill="#263238"/>
<path d="M32.9907 59.2628C32.7735 59.0567 32.525 58.8796 32.2527 58.7369C31.9849 58.5865 31.694 58.4725 31.3895 58.3987C31.6061 58.6054 31.8547 58.7825 32.1275 58.9246C32.3962 59.0734 32.6868 59.1873 32.9907 59.2628Z" fill="#263238"/>
<path d="M29.5877 65.4911C24.4495 62.1584 19.5664 57.2212 18.7101 56.0807C17.6692 54.6804 17.3139 52.8553 17.9402 51.8014C18.3957 51.0177 19.4138 50.6589 21.0833 51.224C21.4204 51.3374 21.8053 51.4838 22.2221 51.655C23.9963 55.0846 27.1462 60.9663 29.5877 65.4911Z" fill="#263238"/>
<path d="M29.0551 75.5902L4.323 75.65C4.323 75.65 7.13124 59.0586 16.2142 51.1579C17.337 50.1804 19.9745 50.2959 21.7236 51.0053C22.3477 51.2569 24.6708 53.9606 25.4156 56.5736C26.1603 59.1865 29.1189 75.5097 29.0551 75.5902Z" fill="#455A64"/>
<path d="M20.5213 58.0832C20.5137 58.6556 20.6707 59.2199 20.9768 59.7207C20.9848 59.4354 20.9472 59.1506 20.8652 58.8751C20.7926 58.5977 20.6768 58.3311 20.5213 58.0832Z" fill="#263238"/>
<path d="M19.8404 67.6626C19.8334 68.2349 19.9903 68.7991 20.296 69.3001C20.303 68.7278 20.1461 68.1636 19.8404 67.6626Z" fill="#263238"/>
<path d="M11.5336 63.9587C11.5246 64.5306 11.6817 65.0946 11.9891 65.5942C11.9978 65.309 11.961 65.0242 11.8798 64.7486C11.8048 64.4722 11.6883 64.2064 11.5336 63.9587Z" fill="#263238"/>
<path d="M26.7392 63.7297C26.7306 64.3022 26.8876 64.8668 27.1947 65.3672C27.2036 65.0821 27.1668 64.7973 27.0854 64.5217C27.0109 64.2445 26.8944 63.978 26.7392 63.7297Z" fill="#263238"/>
<path d="M15.3717 61.2654C15.6866 61.2706 16.0008 61.2366 16.3055 61.1643C16.6122 61.0987 16.9068 60.9931 17.1801 60.8509C16.5477 60.8418 15.9239 60.9841 15.3717 61.2633V61.2654Z" fill="#263238"/>
<path d="M10.9899 70.0095C11.6219 70.0159 12.245 69.8738 12.7983 69.5971C12.4832 69.5899 12.1687 69.6239 11.8645 69.6981C11.5582 69.764 11.2637 69.8689 10.9899 70.0095Z" fill="#263238"/>
<path d="M22.3502 73.5485C22.6651 73.554 22.9794 73.52 23.284 73.4475C23.5908 73.3818 23.8854 73.2762 24.1586 73.134C23.5262 73.1249 22.9024 73.2672 22.3502 73.5465V73.5485Z" fill="#263238"/>
<path d="M10.6847 75.0375C10.9997 75.0437 11.314 75.0097 11.6185 74.9364C11.9299 74.8719 12.2292 74.7663 12.5067 74.6229C11.8747 74.6166 11.2516 74.7587 10.6984 75.0354L10.6847 75.0375Z" fill="#263238"/>
<path d="M17.8539 52.2819C18.1688 52.2871 18.483 52.2531 18.7877 52.1809C19.0944 52.1152 19.389 52.0096 19.6623 51.8674C19.0299 51.8583 18.4061 52.0006 17.8539 52.2799V52.2819Z" fill="#263238"/>
<path d="M15.012 54.0638C14.5596 54.4612 14.2298 54.9589 14.0554 55.5074C14.5068 55.1092 14.8364 54.6118 15.012 54.0638Z" fill="#263238"/>
<path d="M8.13399 65.3508C7.90588 65.5471 7.71027 65.7721 7.55321 66.019C7.38707 66.2616 7.26122 66.5249 7.17969 66.8006C7.40794 66.6045 7.60357 66.3794 7.76047 66.1324C7.92486 65.8891 8.0506 65.6259 8.13399 65.3508Z" fill="#263238"/>
<path d="M23.0125 63.2885C22.563 63.6877 22.2344 64.1848 22.0582 64.7321C22.5078 64.333 22.8364 63.8359 23.0125 63.2885Z" fill="#263238"/>
<path d="M16.6679 71.4511C16.4409 71.6491 16.2455 71.8746 16.0871 72.1214C15.922 72.3644 15.7962 72.6276 15.7136 72.903C16.1652 72.5053 16.4942 72.0076 16.6679 71.4594V71.4511Z" fill="#263238"/>
<path d="M23.7738 54.4659C23.3213 54.863 22.9922 55.3608 22.8195 55.9095C23.0476 55.7132 23.2432 55.4882 23.4002 55.2413C23.5645 55.0001 23.6902 54.739 23.7738 54.4659Z" fill="#263238"/>
<path d="M26.2952 60.5765C26.0778 60.3698 25.8284 60.1926 25.555 60.0506C25.2871 59.9002 24.9963 59.7862 24.6918 59.7124C24.9087 59.9196 25.1581 60.0968 25.432 60.2383C25.7003 60.3879 25.991 60.5018 26.2952 60.5765Z" fill="#263238"/>
<path d="M7.79176 72.2348C7.57381 72.028 7.32459 71.8503 7.05155 71.7068C6.78358 71.5571 6.49273 71.4438 6.18835 71.3707C6.62917 71.7777 7.17819 72.0753 7.78265 72.2348H7.79176Z" fill="#263238"/>
<path d="M27.4106 69.3476C26.9708 68.9389 26.4215 68.6404 25.8163 68.4814C26.0338 68.6886 26.2831 68.8664 26.5565 69.0093C26.8225 69.1574 27.11 69.2712 27.4106 69.3476Z" fill="#263238"/>
<path d="M12.6066 59.8011C12.3886 59.5943 12.1394 59.4165 11.8664 59.2731C11.598 59.1235 11.3073 59.0096 11.0032 58.9349C11.443 59.3436 11.9923 59.642 12.5975 59.8011H12.6066Z" fill="#263238"/>
<path d="M25.6778 57.6501C25.9055 58.2296 26.0832 58.8338 26.2426 59.4402V59.37C26.2426 59.0256 26.2244 58.675 26.2426 58.3389C26.2426 58.3224 26.2745 58.3141 26.2791 58.3389C26.3436 58.6835 26.3695 59.0331 26.3565 59.3824C26.3565 59.5474 26.3565 59.7124 26.3428 59.8774C26.4066 60.1496 26.4658 60.4218 26.5159 60.7023C26.6116 61.2199 26.8917 63.1461 26.9236 63.5297C26.9236 63.6102 26.8302 63.6267 26.8006 63.5442C26.6685 63.1585 26.2722 61.1766 26.1515 60.6672C25.9166 59.6792 25.7417 58.6802 25.6277 57.6748C25.6322 57.6315 25.671 57.6294 25.6778 57.6501Z" fill="#263238"/>
<path d="M21.2409 55.2083C19.74 55.3939 17.4351 53.146 16.6152 51.4054C16.5582 51.2858 16.8771 50.1123 17.1891 48.6708C17.3759 47.7943 17.5581 46.8147 17.6446 45.9094C17.6628 45.7237 18.3279 46.1259 18.3279 46.1259L19.5897 46.5219L23.7759 47.8397C23.7759 47.8397 22.9559 49.6834 22.7988 51.2611C22.7862 51.3859 22.7862 51.5115 22.7988 51.6364C22.7988 51.655 22.7988 51.6756 22.7988 51.7003C22.858 52.4118 22.694 55.0268 21.2409 55.2083Z" fill="#DD6A57"/>
<path d="M22.8031 51.6323C22.8031 51.6508 22.8031 51.6715 22.8031 51.6962C22.587 51.702 22.3708 51.6931 22.1563 51.6694C17.945 51.2157 17.9359 46.3074 17.9359 46.3074L19.5963 46.5136L23.7756 47.8397C23.7756 47.8397 22.9557 49.6834 22.7985 51.2611C22.7877 51.3847 22.7892 51.5089 22.8031 51.6323Z" fill="#263238"/>
<path d="M17.1728 38.8933C16.3438 40.869 17.0817 46.7693 18.569 48.1737C20.7258 50.1968 24.4724 50.6093 26.4266 48.217C28.3215 45.899 27.2078 38.2272 25.5156 36.9382C23.049 35.0306 18.4004 35.9772 17.1728 38.8933Z" fill="#DD6A57"/>
<path d="M23.0225 43.0572C23.0225 43.0427 22.9906 43.0798 22.9929 43.0963C23.0544 43.4923 23.0521 43.9563 22.6695 44.1275C22.6581 44.1275 22.6695 44.1543 22.6695 44.1502C23.1546 44.0388 23.1523 43.4243 23.0225 43.0572Z" fill="#263238"/>
<path d="M22.5801 42.684C21.8695 42.7046 21.9674 43.9915 22.6256 43.9729C23.2838 43.9543 23.1768 42.6633 22.5801 42.684Z" fill="#263238"/>
<path d="M25.7161 42.8344C25.7161 42.82 25.7526 42.8509 25.7526 42.8674C25.7685 43.2675 25.8619 43.7233 26.2719 43.8305V43.8532C25.7822 43.8223 25.666 43.216 25.7161 42.8344Z" fill="#263238"/>
<path d="M26.0828 42.3931C26.7866 42.3003 26.9415 43.5831 26.2878 43.6697C25.6342 43.7563 25.4884 42.4777 26.0828 42.3931Z" fill="#263238"/>
<path d="M21.9744 42.1272C22.1577 42.0678 22.3372 41.9989 22.5119 41.921C22.7129 41.8713 22.89 41.7625 23.0152 41.6116C23.0443 41.5574 23.0526 41.496 23.039 41.4371C23.0254 41.3781 22.9906 41.3249 22.9401 41.2858C22.8277 41.2214 22.6983 41.1853 22.5654 41.1813C22.4325 41.1774 22.3008 41.2056 22.1839 41.2631C21.9274 41.347 21.714 41.5137 21.5849 41.7312C21.5597 41.7824 21.5513 41.839 21.5608 41.8943C21.5703 41.9497 21.5972 42.0013 21.6383 42.0432C21.6795 42.085 21.733 42.1152 21.7927 42.1301C21.8523 42.145 21.9154 42.144 21.9744 42.1272Z" fill="#263238"/>
<path d="M26.5821 41.7106C26.389 41.6877 26.1974 41.6553 26.0082 41.6137C25.7994 41.6028 25.6002 41.5304 25.4411 41.4075C25.4001 41.3597 25.3778 41.3009 25.3778 41.2404C25.3778 41.1799 25.4001 41.1212 25.4411 41.0734C25.5345 40.9877 25.6517 40.9264 25.7804 40.8959C25.909 40.8654 26.0444 40.8669 26.1722 40.9001C26.438 40.9346 26.6809 41.0556 26.8554 41.2404C26.8939 41.2846 26.9174 41.3379 26.9231 41.3939C26.9287 41.4499 26.9164 41.5062 26.8874 41.5559C26.8585 41.6057 26.8143 41.6468 26.7601 41.6742C26.7059 41.7017 26.6441 41.7143 26.5821 41.7106Z" fill="#263238"/>
<path d="M22.9219 46.6538C23.0335 46.7404 23.1496 46.86 23.3091 46.86C23.4691 46.8454 23.6242 46.8012 23.7646 46.7301C23.7783 46.7301 23.7942 46.7301 23.7851 46.7486C23.7286 46.8313 23.6482 46.8984 23.5527 46.9427C23.4572 46.987 23.3501 47.0069 23.243 47.0002C23.1517 46.9849 23.0674 46.9454 23.0009 46.8866C22.9344 46.8279 22.8887 46.7526 22.8695 46.6703C22.8718 46.6517 22.9059 46.6414 22.9219 46.6538Z" fill="#263238"/>
<path d="M23.2931 45.4289C23.4164 45.5803 23.5733 45.7067 23.7537 45.8001C23.9341 45.8935 24.1341 45.9518 24.3407 45.9713C24.5211 45.9908 24.7037 45.9867 24.8828 45.9589C24.9168 45.9568 24.9504 45.9513 24.983 45.9424L25.0787 45.9238C25.102 45.9184 25.1226 45.9061 25.1374 45.889C25.1523 45.8718 25.1604 45.8507 25.1607 45.829C25.1618 45.8159 25.1618 45.8028 25.1607 45.7898V45.7547C25.147 45.4474 25.0787 44.9834 25.0787 44.9834C25.2062 45.0308 25.8576 45.2495 25.8348 45.0886C25.6458 43.7666 25.4363 42.2942 24.9397 41.0155C24.9365 41.007 24.93 40.9998 24.9214 40.9953C24.9128 40.9908 24.9027 40.9893 24.8929 40.9911C24.8831 40.9928 24.8744 40.9978 24.8684 41.0049C24.8623 41.0121 24.8594 41.021 24.86 41.03C24.9853 42.3086 25.3588 43.5563 25.5091 44.8391C25.2776 44.7579 25.0345 44.7072 24.7872 44.6885C24.7393 44.705 24.9375 45.5856 24.9306 45.7197C24.9312 45.7245 24.9312 45.7293 24.9306 45.7341C24.3658 45.8372 23.924 45.7073 23.3363 45.3959C23.2976 45.3649 23.2635 45.4 23.2931 45.4289Z" fill="#263238"/>
<path d="M24.6684 45.8166C24.4968 46.0488 24.2613 46.2365 23.9851 46.3611C23.8349 46.4259 23.666 46.4461 23.5023 46.4188C23.1447 46.3569 23.1128 46.0661 23.1584 45.8125C23.1836 45.6771 23.2265 45.5449 23.2859 45.4186C23.6873 45.6828 24.1722 45.8224 24.6684 45.8166Z" fill="#263238"/>
<path d="M23.9948 46.3611C23.8446 46.4259 23.6756 46.4461 23.5119 46.4188C23.1544 46.357 23.1225 46.0662 23.168 45.8125C23.5484 45.8228 23.9379 46.0311 23.9948 46.3611Z" fill="#FF99BA"/>
<path d="M17.0618 38.4025C18.2006 35.5153 23.4686 35.5153 24.9058 36.3959C25.31 36.6339 25.6581 36.9422 25.9298 37.303C26.2016 37.6637 26.3915 38.0697 26.4887 38.4974C26.4887 38.4974 26.1493 37.7549 25.5776 37.757C25.006 37.7591 25.1085 38.2788 24.2635 38.5077C23.4982 38.7139 22.4186 38.0107 21.125 38.2107C20.5655 38.2852 20.0476 38.5211 19.6479 38.8833C19.2483 39.2456 18.9883 39.7148 18.9066 40.2215C18.7358 41.1784 18.8679 45.0411 17.9956 45.235C17.1233 45.4288 16.1508 40.7371 17.0618 38.4025Z" fill="#263238"/>
<path d="M18.7306 43.8265C18.7306 43.8265 17.364 41.8777 16.4052 42.3066C15.4463 42.7356 16.3847 45.5176 17.4756 45.9404C17.6116 46.0022 17.7599 46.0386 17.9118 46.0476C18.0636 46.0566 18.2158 46.038 18.3596 45.9928C18.5033 45.9476 18.6356 45.8768 18.7486 45.7846C18.8616 45.6924 18.9531 45.5806 19.0176 45.4558L18.7306 43.8265Z" fill="#DD6A57"/>
<path d="M16.6995 43.0964C16.6965 43.0974 16.694 43.0993 16.6922 43.1017C16.6904 43.1041 16.6895 43.1069 16.6895 43.1098C16.6895 43.1127 16.6904 43.1155 16.6922 43.1179C16.694 43.1203 16.6965 43.1221 16.6995 43.1232C17.4625 43.4408 17.8383 44.1131 18.0888 44.8019C17.861 44.5317 17.5627 44.375 17.1641 44.6081C17.1436 44.6204 17.1641 44.6493 17.1823 44.6472C17.3213 44.6133 17.4685 44.6193 17.6035 44.6643C17.7386 44.7094 17.8548 44.7914 17.9362 44.8988C18.0705 45.0791 18.1827 45.272 18.271 45.4742C18.3052 45.5382 18.4327 45.5113 18.4099 45.4371C18.4089 45.4316 18.4089 45.4261 18.4099 45.4206C18.4646 44.5256 17.7585 43.2345 16.6995 43.0964Z" fill="#263238"/>
<path d="M12.2128 56.7076C9.85774 60.5621 4.44396 75.3427 8.13362 78.1371C12.7115 81.6101 26.8097 81.2883 29.9049 81.3399C31.251 81.3626 32.8453 72.7937 31.7908 71.9069C30.7362 71.0201 15.7453 71.4944 15.0848 70.7334C14.8137 70.4179 17.6493 59.6093 16.7497 54.9588C15.8227 50.1845 13.2741 54.9588 12.2128 56.7076Z" fill="#DD6A57"/>
<path d="M17.2433 53.1605C19.0949 57.0789 15.0978 69.9766 15.5989 70.3313C16.0999 70.686 27.7862 70.8634 27.7862 70.8634L26.4515 82.5299C24.0897 82.5072 8.50424 81.1956 6.40888 77.5288C4.31351 73.862 8.68645 61.088 11.5129 56.2065C13.5832 52.6634 15.9701 50.4588 17.2433 53.1605Z" fill="#455A64"/>
<path d="M12.7592 69.6653C13.6976 69.7829 14.62 69.9252 15.5492 70.0345C15.5447 70.0162 15.5447 69.9971 15.5492 69.9788L15.5629 69.8963C15.0021 69.6347 14.4109 69.4307 13.8001 69.2879C13.7614 69.2756 13.7659 69.2137 13.8001 69.2178C14.4208 69.2549 15.0304 69.3852 15.6039 69.6035C16.3024 65.7744 17.0517 61.9516 17.8519 58.1349C17.8519 58.1226 17.8792 58.1246 17.8792 58.1349C17.7441 59.1565 17.6006 60.1766 17.4487 61.1954C17.6287 60.686 17.8496 60.1787 18.0227 59.6879C18.0261 59.6829 18.0312 59.6791 18.0372 59.6771C18.0433 59.675 18.0499 59.6748 18.056 59.6764C18.0622 59.678 18.0676 59.6814 18.0715 59.6861C18.0753 59.6908 18.0774 59.6965 18.0773 59.7023C17.9225 60.5272 17.7585 61.4903 17.3166 62.2389C17.3153 62.2465 17.3122 62.2538 17.3074 62.2602C17.3027 62.2666 17.2965 62.272 17.2893 62.2761C16.8976 64.7838 16.4512 67.2834 15.9228 69.7705C16.0844 69.8644 16.2295 69.9798 16.3532 70.1129C17.7357 70.4511 27.5794 70.5769 27.7411 70.7151C27.9028 70.8532 27.7844 71.674 27.6955 72.433C27.6955 72.499 27.5725 72.5443 27.5771 72.4783C27.6135 71.9792 27.6705 71.0347 27.5612 71.0017C27.4086 70.9584 17.4055 71.2286 12.7159 69.7478C12.659 69.7313 12.7068 69.6591 12.7592 69.6653Z" fill="#263238"/>
<path d="M14.3127 78.3145C14.307 78.5997 14.3445 78.8842 14.4243 79.1601C14.4968 79.4378 14.6134 79.7046 14.7705 79.952C14.7805 79.3794 14.6234 78.8145 14.315 78.3145H14.3127Z" fill="#263238"/>
<path d="M26.0555 76.4688C26.0497 76.754 26.0872 77.0385 26.1671 77.3144C26.2396 77.5921 26.3562 77.8589 26.5133 78.1063C26.5233 77.5337 26.3662 76.9688 26.0578 76.4688H26.0555Z" fill="#263238"/>
<path d="M11.3062 63.9587C11.2972 64.5306 11.4542 65.0946 11.7617 65.5942C11.7704 65.309 11.7336 65.0242 11.6523 64.7486C11.5774 64.4722 11.4609 64.2064 11.3062 63.9587Z" fill="#263238"/>
<path d="M15.1437 61.2654C15.4586 61.2706 15.7728 61.2366 16.0775 61.1643C16.3842 61.0987 16.6788 60.9931 16.9521 60.8509C16.3197 60.8418 15.6959 60.9841 15.1437 61.2633V61.2654Z" fill="#263238"/>
<path d="M10.7614 70.0095C11.3934 70.0159 12.0165 69.8738 12.5697 69.5971C12.2547 69.5899 11.9402 69.6239 11.6359 69.6981C11.3296 69.764 11.0352 69.8689 10.7614 70.0095Z" fill="#263238"/>
<path d="M22.1217 73.5485C22.4366 73.554 22.7509 73.52 23.0555 73.4475C23.3622 73.3818 23.6568 73.2762 23.9301 73.134C23.2977 73.1249 22.6739 73.2672 22.1217 73.5465V73.5485Z" fill="#263238"/>
<path d="M10.4562 75.0375C10.7711 75.0437 11.0855 75.0097 11.39 74.9364C11.7014 74.8719 12.0007 74.7663 12.2782 74.6229C11.6462 74.6166 11.0231 74.7587 10.4698 75.0354L10.4562 75.0375Z" fill="#263238"/>
<path d="M14.7846 54.0638C14.3322 54.4612 14.0024 54.9589 13.828 55.5074C14.2794 55.1092 14.6089 54.6118 14.7846 54.0638Z" fill="#263238"/>
<path d="M7.90608 65.3508C7.67798 65.5471 7.48237 65.7721 7.3253 66.019C7.15917 66.2616 7.03331 66.5249 6.95178 66.8006C7.18003 66.6045 7.37566 66.3794 7.53256 66.1324C7.69696 65.8891 7.8227 65.6259 7.90608 65.3508Z" fill="#263238"/>
<path d="M16.4399 71.4511C16.2129 71.6491 16.0175 71.8746 15.8591 72.1214C15.6939 72.3644 15.5681 72.6276 15.4856 72.903C15.9372 72.5053 16.2662 72.0076 16.4399 71.4594V71.4511Z" fill="#263238"/>
<path d="M22.922 79.9644C22.6936 80.1612 22.498 80.387 22.3412 80.6346C22.175 80.8772 22.0492 81.1405 21.9677 81.4162C22.1965 81.2198 22.3922 80.994 22.5484 80.746C22.7136 80.503 22.8394 80.2397 22.922 79.9644Z" fill="#263238"/>
<path d="M7.56386 72.2348C7.3459 72.028 7.09669 71.8503 6.82365 71.7068C6.55567 71.5571 6.26483 71.4438 5.96045 71.3707C6.40127 71.7777 6.95028 72.0753 7.55475 72.2348H7.56386Z" fill="#263238"/>
<path d="M12.3787 59.8011C12.1607 59.5943 11.9115 59.4165 11.6385 59.2731C11.3701 59.1235 11.0794 59.0096 10.7753 58.9349C11.2151 59.3436 11.7644 59.642 12.3696 59.8011H12.3787Z" fill="#263238"/>
<path d="M20.1364 76.6606C19.6972 76.2512 19.1477 75.9527 18.5421 75.7944C18.7588 76.0016 19.0073 76.1794 19.28 76.3224C19.5465 76.4711 19.8348 76.5849 20.1364 76.6606Z" fill="#263238"/>
<path d="M16.2665 66.1138C15.8273 65.7045 15.2778 65.4059 14.6722 65.2477C14.8864 65.4566 15.1326 65.6365 15.4033 65.7818C15.6728 65.928 15.9633 66.0398 16.2665 66.1138Z" fill="#263238"/>
<path d="M28.741 71.4842C28.741 71.4842 31.4946 71.5585 32.1756 71.6162C32.8566 71.674 39.6916 70.3623 41.8667 71.5791C43.404 72.4411 46.8773 76.3224 46.5357 78.9333C46.3262 80.511 44.3925 80.6306 44.3925 80.6306C44.3925 80.6306 44.1124 81.5916 43.2765 81.8907C42.9802 82.0022 42.661 82.0547 42.3403 82.0448C42.0197 82.0348 41.7051 81.9626 41.418 81.8329C41.3216 82.1206 41.1423 82.3799 40.8985 82.584C40.6547 82.788 40.3553 82.9296 40.031 82.994C38.6644 83.2724 38.0563 82.5403 38.0563 82.5403C37.4949 83.0878 36.7336 83.4328 35.9131 83.5117C33.9385 83.6581 31.2646 82.662 30.9503 81.9422C30.4355 80.7667 32.6949 80.7193 34.2436 80.843C34.2436 80.843 33.6834 80.8059 33.5718 80.1006C33.5718 80.1006 32.6903 81.969 27.9325 81.1627L28.741 71.4842Z" fill="#DD6A57"/>
<path d="M35.6693 74.7137C36.7853 75.7448 37.5801 77.174 38.1746 78.5042C38.769 79.8344 39.0537 81.2822 38.1564 82.5381C38.1484 82.5478 38.1369 82.5546 38.1239 82.5574C38.1109 82.5601 38.0973 82.5587 38.0853 82.5533C38.0734 82.5479 38.064 82.5389 38.0586 82.5278C38.0533 82.5167 38.0524 82.5043 38.0561 82.4927C38.8465 81.0491 38.3408 79.5581 37.669 78.1619C37.0927 76.9699 36.5028 75.7943 35.5645 74.7962C35.5098 74.7446 35.61 74.6601 35.6693 74.7137Z" fill="#263238"/>
<path d="M38.6824 74.159C40.5204 75.9697 42.782 79.288 41.461 81.8102C41.4583 81.8171 41.4527 81.8226 41.4454 81.8257C41.4382 81.8288 41.4298 81.8292 41.4223 81.8267C41.4147 81.8243 41.4086 81.8192 41.4052 81.8126C41.4017 81.806 41.4013 81.7985 41.4041 81.7917C42.1261 79.0137 40.2653 76.4008 38.6004 74.2209C38.5639 74.1755 38.6391 74.1157 38.6824 74.159Z" fill="#263238"/>
<path d="M41.4514 73.4599C42.5264 74.3033 43.3395 75.5119 43.9704 76.6544C44.6537 77.8918 44.9315 79.2632 44.4738 80.6099C44.471 80.6163 44.4658 80.6216 44.459 80.6248C44.4523 80.628 44.4446 80.629 44.4372 80.6275C44.4298 80.626 44.4232 80.6222 44.4186 80.6167C44.414 80.6112 44.4118 80.6044 44.4123 80.5975C44.7061 77.8629 43.3054 75.5469 41.3649 73.53C41.3216 73.4846 41.4036 73.4227 41.4514 73.4599Z" fill="#263238"/>
<path d="M30.941 81.408C30.941 81.4224 30.941 81.4368 30.9615 81.4245C31.679 80.7583 32.902 80.7583 34.0659 80.913C34.0732 80.9166 34.0814 80.9185 34.0898 80.9185C34.0981 80.9185 34.1064 80.9166 34.1137 80.913C34.8266 81.012 35.5121 81.1667 36.0405 81.2615C36.0577 81.2642 36.0753 81.2612 36.0902 81.2531C36.1051 81.245 36.1164 81.2323 36.1219 81.2174C36.1274 81.2024 36.1268 81.1862 36.1202 81.1716C36.1136 81.157 36.1015 81.145 36.0861 81.1378C35.4455 80.8649 34.7614 80.6854 34.059 80.6057C33.9308 80.4161 33.8435 80.2061 33.8017 79.987C33.7725 79.6454 33.8608 79.3039 34.0545 79.0095C34.0545 78.993 34.0385 78.9806 34.0249 78.993C33.873 79.1213 33.7536 79.2779 33.6749 79.452C33.5963 79.6261 33.5603 79.8136 33.5694 80.0015C33.5694 80.0139 33.5694 80.0283 33.5694 80.0427C33.4991 80.1741 33.4052 80.2939 33.2915 80.3974C33.2193 80.4565 33.1432 80.5116 33.0637 80.5624C32.2074 80.5954 31.3897 80.8243 30.941 81.408ZM33.7379 80.583C33.6195 80.583 33.4988 80.5707 33.378 80.5665C33.4113 80.5323 33.4424 80.4965 33.4714 80.4593C33.5337 80.3782 33.5806 80.2883 33.6104 80.1933C33.6328 80.3272 33.6757 80.4577 33.7379 80.581V80.583Z" fill="#263238"/>
<path d="M22.8308 51.1188L21.5029 54.4824L16.777 50.4485L15.5448 51.8406C15.5448 51.8406 20.2776 58.3452 20.2913 58.042L21.6783 55.1341L23.9399 57.0459L23.5505 52.0633L22.8308 51.1188Z" fill="#455A64"/>
<path d="M23.8942 54.573C23.8008 53.748 23.7302 52.9231 23.5936 52.0982C23.5936 52.0693 23.5389 52.059 23.5321 52.0982C23.384 52.8984 23.7598 56.0352 23.7917 56.79C23.6961 56.7054 21.6986 55.1112 21.6804 55.1401C21.373 55.6062 20.3549 57.7242 20.2866 57.916C19.5395 56.8848 16.376 52.8159 15.5037 51.8445C15.4991 51.838 15.4919 51.8333 15.4836 51.8316C15.4752 51.8298 15.4665 51.8311 15.4592 51.8352C15.452 51.8393 15.4468 51.8459 15.4449 51.8534C15.443 51.861 15.4445 51.8689 15.449 51.8755C16.1186 52.9706 20.2091 58.3388 20.2638 58.3223C20.8051 57.3214 21.2886 56.2957 21.7123 55.2494C22.0539 55.6 24.0787 57.4066 24.081 57.2849C24.0714 56.3786 24.0091 55.4733 23.8942 54.573Z" fill="#263238"/>
<path d="M33.0254 86.8317H28.181V87.5164H33.0254V86.8317Z" fill="#F36464"/>
<path d="M33.0254 86.8317H28.181V87.2833H33.0254V86.8317Z" fill="#263238"/>
<path d="M22.4323 84.99C22.7265 85.3864 23.1411 85.6971 23.6261 85.8849C24.1111 86.0726 24.6456 86.1292 25.1654 86.048C25.3331 86.0183 25.4977 85.9755 25.6573 85.9201C25.8973 85.8339 26.1263 85.7247 26.3406 85.5943L25.7234 84.7694C25.6095 84.8421 25.4882 84.905 25.3612 84.957C24.2088 85.4293 23.4777 84.6065 23.3342 84.4188C22.6691 83.5732 22.4232 81.6429 23.1064 80.9025C23.152 80.8469 23.3342 80.7602 24.1268 80.9025C24.2703 80.9314 24.4343 80.9644 24.6187 81.0098C24.7618 81.0543 24.9101 81.0834 25.0606 81.0964L25.0811 80.6014L25.1335 80.1065C25.0834 80.1065 25.0059 80.0776 24.9057 80.0508C24.5451 79.9548 24.1764 79.8858 23.8034 79.8446C23.2294 79.7889 22.6282 79.8446 22.2592 80.257C21.1614 81.48 21.601 83.93 22.4323 84.99Z" fill="#F36464"/>
<path d="M25.7169 84.7675C25.603 84.8403 25.4817 84.9031 25.3547 84.9552L25.6485 85.9204C25.8885 85.8341 26.1175 85.7249 26.3318 85.5945L25.7169 84.7675Z" fill="#263238"/>
<path d="M23.7939 79.8509L24.1196 80.9089C24.2631 80.9377 24.4271 80.9707 24.6116 81.0161C24.7546 81.0606 24.9029 81.0897 25.0534 81.1027L25.0739 80.6078L25.1263 80.1128C25.0762 80.1128 24.9988 80.0839 24.8986 80.0571C24.5372 79.961 24.1678 79.892 23.7939 79.8509Z" fill="#263238"/>
<path d="M37.0454 78.5682C37.0454 78.5682 36.4646 83.0372 35.4511 84.9201C34.4376 86.803 33.046 87.0092 32.1759 87.0092H29.0192C28.1492 87.0092 26.7417 86.803 25.7441 84.9201C24.7465 83.0372 24.1498 78.5682 24.1498 78.5682H37.0454Z" fill="#F36464"/>
<path d="M36.0984 81.4842C36.0372 81.4842 35.9773 81.4678 35.9264 81.437C35.8754 81.4061 35.8357 81.3623 35.8123 81.3111C35.7888 81.2598 35.7827 81.2034 35.7946 81.149C35.8066 81.0946 35.8361 81.0447 35.8794 81.0054C35.9227 80.9662 35.9779 80.9395 36.038 80.9287C36.0981 80.9178 36.1604 80.9234 36.217 80.9446C36.2736 80.9659 36.322 81.0018 36.356 81.0479C36.39 81.0941 36.4082 81.1483 36.4082 81.2038C36.4082 81.2781 36.3756 81.3495 36.3175 81.4021C36.2594 81.4547 36.1806 81.4842 36.0984 81.4842ZM36.0984 80.9748C36.0484 80.9748 35.9996 80.9883 35.958 81.0134C35.9164 81.0386 35.884 81.0743 35.8649 81.1162C35.8457 81.158 35.8407 81.204 35.8505 81.2484C35.8602 81.2928 35.8843 81.3336 35.9197 81.3656C35.955 81.3976 36.0001 81.4194 36.0491 81.4283C36.0982 81.4371 36.149 81.4326 36.1952 81.4152C36.2414 81.3979 36.2809 81.3686 36.3086 81.3309C36.3364 81.2933 36.3513 81.249 36.3513 81.2038C36.3513 81.143 36.3246 81.0848 36.2772 81.0419C36.2298 80.999 36.1655 80.9748 36.0984 80.9748Z" fill="white"/>
<path d="M26.9171 80.0405C26.8553 80.0409 26.7947 80.0247 26.7431 79.9939C26.6915 79.9631 26.6512 79.9191 26.6272 79.8676C26.6032 79.816 26.5967 79.7591 26.6085 79.7042C26.6203 79.6492 26.6498 79.5987 26.6934 79.5589C26.7369 79.5192 26.7925 79.4921 26.8531 79.481C26.9137 79.47 26.9765 79.4755 27.0337 79.4968C27.0908 79.5181 27.1397 79.5543 27.1741 79.6008C27.2085 79.6473 27.2268 79.702 27.2268 79.758C27.2271 79.795 27.2193 79.8317 27.2039 79.866C27.1885 79.9002 27.1657 79.9314 27.1369 79.9577C27.1081 79.9839 27.0739 80.0048 27.0362 80.019C26.9984 80.0332 26.958 80.0405 26.9171 80.0405ZM26.9171 79.5291C26.8664 79.5287 26.8168 79.5419 26.7745 79.5671C26.7322 79.5924 26.6992 79.6284 26.6796 79.6707C26.66 79.713 26.6548 79.7596 26.6645 79.8046C26.6743 79.8496 26.6986 79.891 26.7344 79.9234C26.7703 79.9558 26.8159 79.9778 26.8656 79.9867C26.9153 79.9955 26.9668 79.9908 27.0135 79.973C27.0602 79.9553 27.1 79.9254 27.1279 79.8871C27.1557 79.8488 27.1704 79.8038 27.1699 79.758C27.1699 79.7279 27.1634 79.6982 27.1507 79.6704C27.1379 79.6426 27.1193 79.6174 27.0959 79.5961C27.0724 79.5749 27.0445 79.558 27.0138 79.5465C26.9832 79.535 26.9503 79.5291 26.9171 79.5291Z" fill="white"/>
<path d="M27.3751 84.1591C27.3133 84.1595 27.2527 84.1433 27.2011 84.1125C27.1495 84.0817 27.1092 84.0377 27.0852 83.9861C27.0612 83.9345 27.0547 83.8776 27.0665 83.8227C27.0783 83.7677 27.1078 83.7172 27.1514 83.6775C27.1949 83.6378 27.2505 83.6106 27.3111 83.5996C27.3717 83.5885 27.4345 83.594 27.4917 83.6153C27.5488 83.6366 27.5977 83.6728 27.6321 83.7193C27.6665 83.7659 27.6848 83.8206 27.6848 83.8765C27.6851 83.9135 27.6774 83.9502 27.6619 83.9845C27.6465 84.0188 27.6237 84.0499 27.5949 84.0762C27.5661 84.1024 27.5319 84.1233 27.4942 84.1375C27.4564 84.1517 27.416 84.1591 27.3751 84.1591ZM27.3751 83.6476C27.3245 83.6472 27.2748 83.6605 27.2325 83.6857C27.1902 83.7109 27.1572 83.7469 27.1376 83.7892C27.118 83.8315 27.1128 83.8781 27.1225 83.9231C27.1323 83.9681 27.1566 84.0095 27.1925 84.0419C27.2283 84.0743 27.2739 84.0964 27.3236 84.1052C27.3733 84.1141 27.4248 84.1093 27.4715 84.0916C27.5182 84.0738 27.558 84.0439 27.5859 84.0056C27.6137 83.9673 27.6284 83.9224 27.6279 83.8765C27.6279 83.8158 27.6013 83.7576 27.5539 83.7147C27.5065 83.6717 27.4421 83.6476 27.3751 83.6476Z" fill="white"/>
<path d="M24.8449 79.3043C24.783 79.3043 24.7226 79.2877 24.6713 79.2566C24.6199 79.2254 24.5799 79.1812 24.5564 79.1294C24.5328 79.0777 24.5268 79.0208 24.539 78.9659C24.5512 78.9111 24.5812 78.8607 24.625 78.8213C24.6689 78.7819 24.7247 78.7551 24.7854 78.7444C24.8461 78.7338 24.9089 78.7397 24.9659 78.7614C25.0228 78.7831 25.0714 78.8196 25.1054 78.8663C25.1394 78.9131 25.1573 78.9679 25.1569 79.0239C25.1569 79.0609 25.1488 79.0975 25.1331 79.1317C25.1174 79.1658 25.0944 79.1968 25.0654 79.2229C25.0364 79.249 25.0019 79.2696 24.9641 79.2836C24.9262 79.2976 24.8857 79.3046 24.8449 79.3043ZM24.8449 78.7929C24.7944 78.7929 24.7451 78.8064 24.7031 78.8318C24.6612 78.8572 24.6285 78.8933 24.6092 78.9355C24.5899 78.9777 24.5848 79.0241 24.5947 79.0689C24.6045 79.1137 24.6288 79.1549 24.6645 79.1872C24.7002 79.2195 24.7456 79.2415 24.7951 79.2504C24.8446 79.2593 24.8959 79.2547 24.9425 79.2373C24.9891 79.2198 25.0289 79.1902 25.057 79.1522C25.085 79.1142 25.0999 79.0695 25.0999 79.0239C25.0999 78.9626 25.0731 78.9038 25.0252 78.8605C24.9774 78.8172 24.9125 78.7929 24.8449 78.7929Z" fill="white"/>
<path d="M29.1673 81.0532C29.106 81.0532 29.0461 81.0367 28.9952 81.0059C28.9443 80.9751 28.9046 80.9313 28.8811 80.8801C28.8577 80.8288 28.8515 80.7724 28.8635 80.718C28.8754 80.6636 28.9049 80.6136 28.9483 80.5744C28.9916 80.5352 29.0468 80.5085 29.1069 80.4976C29.1669 80.4868 29.2292 80.4924 29.2858 80.5136C29.3424 80.5348 29.3908 80.5708 29.4248 80.6169C29.4589 80.663 29.477 80.7172 29.477 80.7727C29.477 80.8096 29.469 80.846 29.4535 80.8801C29.4379 80.9141 29.4151 80.945 29.3863 80.971C29.3576 80.9971 29.3234 81.0178 29.2858 81.0318C29.2483 81.0459 29.208 81.0532 29.1673 81.0532ZM29.1673 80.5438C29.1173 80.5438 29.0684 80.5572 29.0268 80.5824C28.9853 80.6075 28.9529 80.6433 28.9337 80.6851C28.9146 80.7269 28.9096 80.773 28.9193 80.8174C28.9291 80.8618 28.9532 80.9026 28.9885 80.9346C29.0239 80.9666 29.0689 80.9884 29.118 80.9972C29.167 81.0061 29.2178 81.0015 29.264 80.9842C29.3102 80.9669 29.3497 80.9375 29.3775 80.8999C29.4053 80.8623 29.4201 80.818 29.4201 80.7727C29.4195 80.7122 29.3927 80.6543 29.3454 80.6114C29.2981 80.5686 29.2342 80.5443 29.1673 80.5438Z" fill="white"/>
<path d="M32.5493 84.0415C32.4876 84.0415 32.4273 84.0249 32.376 83.9938C32.3247 83.9628 32.2847 83.9187 32.2611 83.867C32.2374 83.8154 32.2313 83.7586 32.2433 83.7038C32.2553 83.649 32.2851 83.5986 32.3287 83.5591C32.3723 83.5196 32.4279 83.4927 32.4885 83.4818C32.549 83.4709 32.6117 83.4765 32.6687 83.4979C32.7258 83.5193 32.7745 83.5555 32.8088 83.6019C32.8431 83.6484 32.8614 83.703 32.8614 83.7589C32.8617 83.7961 32.8538 83.833 32.8382 83.8674C32.8227 83.9018 32.7997 83.933 32.7706 83.9593C32.7416 83.9856 32.7071 84.0064 32.6691 84.0205C32.6311 84.0346 32.5904 84.0417 32.5493 84.0415ZM32.5493 83.53C32.4988 83.53 32.4494 83.5436 32.4074 83.5691C32.3654 83.5945 32.3327 83.6307 32.3135 83.6731C32.2942 83.7154 32.2893 83.7619 32.2993 83.8068C32.3094 83.8517 32.3339 83.8928 32.3698 83.925C32.4057 83.9573 32.4513 83.9791 32.501 83.9878C32.5506 83.9964 32.602 83.9916 32.6485 83.9738C32.6951 83.956 32.7348 83.9261 32.7625 83.8878C32.7903 83.8495 32.8049 83.8047 32.8044 83.7589C32.8044 83.7287 32.7978 83.6987 32.785 83.6708C32.7721 83.6429 32.7533 83.6176 32.7296 83.5963C32.7059 83.575 32.6777 83.5582 32.6468 83.5468C32.6158 83.5354 32.5827 83.5297 32.5493 83.53Z" fill="white"/>
<path d="M30.4764 79.3043C30.4145 79.3047 30.3539 79.2885 30.3022 79.2576C30.2505 79.2267 30.2102 79.1826 30.1863 79.1309C30.1624 79.0792 30.156 79.0222 30.168 78.9672C30.18 78.9122 30.2097 78.8616 30.2535 78.822C30.2973 78.7824 30.3531 78.7554 30.4138 78.7446C30.4746 78.7337 30.5375 78.7395 30.5946 78.7612C30.6517 78.7828 30.7004 78.8193 30.7345 78.8661C30.7686 78.9129 30.7866 78.9678 30.7862 79.0238C30.7862 79.0982 30.7535 79.1696 30.6954 79.2222C30.6373 79.2748 30.5586 79.3043 30.4764 79.3043ZM30.4764 78.7929C30.4259 78.7925 30.3763 78.8057 30.3341 78.8308C30.2918 78.8559 30.2588 78.8919 30.2391 78.934C30.2195 78.9762 30.2141 79.0227 30.2237 79.0676C30.2332 79.1126 30.2574 79.1539 30.2929 79.1864C30.3285 79.2189 30.374 79.2411 30.4235 79.2502C30.4731 79.2593 30.5245 79.2549 30.5712 79.2374C30.618 79.22 30.6579 79.1904 30.6861 79.1524C30.7142 79.1144 30.7292 79.0696 30.7292 79.0238C30.7292 78.9629 30.7027 78.9045 30.6553 78.8613C30.608 78.818 30.5437 78.7934 30.4764 78.7929Z" fill="white"/>
<path d="M30.0919 82.9154C30.0307 82.915 29.9711 82.8982 29.9204 82.8672C29.8698 82.8361 29.8304 82.7922 29.8074 82.7409C29.7843 82.6896 29.7784 82.6333 29.7907 82.579C29.8029 82.5247 29.8325 82.4749 29.876 82.4359C29.9194 82.3969 29.9746 82.3704 30.0346 82.3597C30.0946 82.3491 30.1568 82.3548 30.2132 82.376C30.2697 82.3973 30.3179 82.4333 30.3519 82.4794C30.3858 82.5254 30.4039 82.5796 30.4039 82.635C30.4039 82.672 30.3958 82.7086 30.3801 82.7428C30.3644 82.7769 30.3414 82.8079 30.3124 82.834C30.2834 82.8601 30.249 82.8807 30.2111 82.8947C30.1733 82.9087 30.1328 82.9157 30.0919 82.9154ZM30.0919 82.406C30.042 82.4064 29.9933 82.4202 29.9521 82.4456C29.9108 82.471 29.8787 82.5069 29.86 82.5488C29.8412 82.5906 29.8365 82.6366 29.8465 82.6809C29.8565 82.7251 29.8808 82.7657 29.9162 82.7975C29.9517 82.8294 29.9967 82.851 30.0457 82.8596C30.0947 82.8683 30.1454 82.8636 30.1914 82.8462C30.2375 82.8289 30.2769 82.7995 30.3045 82.7619C30.3322 82.7243 30.347 82.6801 30.347 82.635C30.347 82.6047 30.3404 82.5748 30.3275 82.5469C30.3147 82.519 30.2959 82.4936 30.2721 82.4724C30.2484 82.4511 30.2203 82.4343 30.1893 82.4229C30.1584 82.4115 30.1253 82.4058 30.0919 82.406Z" fill="white"/>
<path d="M27.0177 86.2771C26.9559 86.2775 26.8953 86.2613 26.8437 86.2305C26.7921 86.1997 26.7517 86.1557 26.7278 86.1041C26.7038 86.0525 26.6973 85.9957 26.7091 85.9407C26.7209 85.8858 26.7504 85.8352 26.794 85.7955C26.8375 85.7558 26.8931 85.7287 26.9537 85.7176C27.0143 85.7065 27.0771 85.712 27.1343 85.7333C27.1914 85.7547 27.2403 85.7909 27.2747 85.8374C27.3091 85.8839 27.3274 85.9386 27.3274 85.9946C27.3277 86.0316 27.3199 86.0683 27.3045 86.1025C27.2891 86.1368 27.2663 86.168 27.2375 86.1942C27.2087 86.2205 27.1745 86.2413 27.1367 86.2556C27.099 86.2698 27.0585 86.2771 27.0177 86.2771ZM27.0177 85.7656C26.967 85.7652 26.9174 85.7785 26.8751 85.8037C26.8328 85.8289 26.7998 85.865 26.7802 85.9073C26.7606 85.9496 26.7553 85.9962 26.7651 86.0412C26.7749 86.0862 26.7992 86.1275 26.835 86.1599C26.8708 86.1924 26.9165 86.2144 26.9662 86.2233C27.0159 86.2321 27.0674 86.2274 27.1141 86.2096C27.1608 86.1919 27.2006 86.162 27.2284 86.1237C27.2563 86.0854 27.2709 86.0404 27.2705 85.9946C27.2705 85.9645 27.2639 85.9347 27.2512 85.907C27.2385 85.8792 27.2199 85.8539 27.1964 85.8327C27.173 85.8114 27.1451 85.7946 27.1144 85.7831C27.0837 85.7716 27.0509 85.7656 27.0177 85.7656Z" fill="white"/>
<path d="M34.5606 79.7251C34.4993 79.7251 34.4395 79.7086 34.3885 79.6778C34.3376 79.647 34.2979 79.6032 34.2744 79.5519C34.251 79.5007 34.2449 79.4443 34.2568 79.3899C34.2688 79.3355 34.2983 79.2855 34.3416 79.2463C34.3849 79.207 34.4401 79.1803 34.5002 79.1695C34.5603 79.1587 34.6225 79.1642 34.6791 79.1855C34.7357 79.2067 34.7841 79.2426 34.8182 79.2888C34.8522 79.3349 34.8704 79.3891 34.8704 79.4446C34.8698 79.5188 34.8369 79.5898 34.779 79.6423C34.721 79.6948 34.6426 79.7245 34.5606 79.7251ZM34.5606 79.2157C34.5106 79.2157 34.4617 79.2291 34.4201 79.2543C34.3786 79.2794 34.3462 79.3152 34.327 79.357C34.3079 79.3988 34.3029 79.4449 34.3127 79.4893C34.3224 79.5337 34.3465 79.5745 34.3818 79.6065C34.4172 79.6385 34.4622 79.6603 34.5113 79.6691C34.5603 79.678 34.6112 79.6734 34.6573 79.6561C34.7035 79.6388 34.743 79.6094 34.7708 79.5718C34.7986 79.5341 34.8134 79.4899 34.8134 79.4446C34.8134 79.3839 34.7868 79.3257 34.7394 79.2827C34.692 79.2398 34.6277 79.2157 34.5606 79.2157Z" fill="white"/>
<path d="M25.9061 82.1503C25.8443 82.1507 25.7837 82.1345 25.7321 82.1037C25.6805 82.0729 25.6402 82.0289 25.6162 81.9774C25.5922 81.9258 25.5857 81.8689 25.5975 81.814C25.6093 81.759 25.6388 81.7085 25.6824 81.6688C25.7259 81.629 25.7815 81.6019 25.8421 81.5908C25.9027 81.5798 25.9656 81.5853 26.0227 81.6066C26.0798 81.6279 26.1287 81.6641 26.1631 81.7106C26.1975 81.7571 26.2159 81.8118 26.2159 81.8678C26.2159 81.9424 26.1833 82.0139 26.1253 82.0669C26.0672 82.1198 25.9885 82.1498 25.9061 82.1503ZM25.9061 81.6389C25.8555 81.6385 25.8058 81.6517 25.7635 81.6769C25.7212 81.7022 25.6882 81.7382 25.6686 81.7805C25.649 81.8228 25.6438 81.8694 25.6535 81.9144C25.6633 81.9594 25.6877 82.0007 25.7235 82.0332C25.7593 82.0656 25.8049 82.0876 25.8546 82.0965C25.9043 82.1053 25.9558 82.1006 26.0025 82.0829C26.0492 82.0651 26.089 82.0352 26.1169 81.9969C26.1447 81.9586 26.1594 81.9137 26.1589 81.8678C26.1583 81.8072 26.1315 81.7493 26.0842 81.7065C26.0369 81.6637 25.973 81.6394 25.9061 81.6389Z" fill="white"/>
<path d="M32.2581 81.309C32.1962 81.3094 32.1356 81.2931 32.0839 81.2622C32.0323 81.2313 31.9919 81.1872 31.968 81.1355C31.9441 81.0838 31.9378 81.0268 31.9497 80.9718C31.9617 80.9168 31.9915 80.8663 32.0352 80.8266C32.079 80.787 32.1348 80.7601 32.1956 80.7492C32.2563 80.7384 32.3192 80.7442 32.3763 80.7658C32.4334 80.7874 32.4821 80.824 32.5163 80.8707C32.5504 80.9175 32.5683 80.9724 32.5679 81.0285C32.5679 81.1029 32.5353 81.1742 32.4772 81.2268C32.4191 81.2794 32.3403 81.309 32.2581 81.309ZM32.2581 80.7975C32.2076 80.7971 32.1581 80.8103 32.1158 80.8354C32.0736 80.8606 32.0405 80.8965 32.0209 80.9387C32.0012 80.9808 31.9958 81.0273 32.0054 81.0723C32.015 81.1172 32.0391 81.1586 32.0747 81.1911C32.1103 81.2236 32.1557 81.2458 32.2053 81.2549C32.2548 81.2639 32.3062 81.2595 32.353 81.2421C32.3997 81.2247 32.4397 81.1951 32.4678 81.157C32.4959 81.119 32.511 81.0743 32.511 81.0285C32.511 80.9676 32.4844 80.9091 32.437 80.8659C32.3897 80.8226 32.3254 80.7981 32.2581 80.7975Z" fill="white"/>
<path d="M30.0922 85.8544C30.0305 85.8544 29.9701 85.8378 29.9188 85.8068C29.8675 85.7757 29.8275 85.7316 29.8039 85.68C29.7803 85.6283 29.7741 85.5715 29.7861 85.5167C29.7982 85.4619 29.8279 85.4116 29.8715 85.3721C29.9152 85.3325 29.9708 85.3056 30.0313 85.2947C30.0918 85.2838 30.1546 85.2894 30.2116 85.3108C30.2686 85.3322 30.3173 85.3684 30.3516 85.4149C30.3859 85.4613 30.4042 85.516 30.4042 85.5718C30.4042 85.6468 30.3713 85.7186 30.3128 85.7716C30.2543 85.8246 30.1749 85.8544 30.0922 85.8544ZM30.0922 85.3429C30.0416 85.3429 29.9922 85.3565 29.9502 85.382C29.9082 85.4075 29.8755 85.4437 29.8563 85.486C29.8371 85.5283 29.8321 85.5749 29.8422 85.6197C29.8522 85.6646 29.8767 85.7057 29.9126 85.738C29.9485 85.7702 29.9942 85.792 30.0438 85.8007C30.0935 85.8094 30.1448 85.8045 30.1914 85.7867C30.238 85.7689 30.2776 85.739 30.3054 85.7007C30.3331 85.6625 30.3477 85.6176 30.3473 85.5718C30.3473 85.5416 30.3407 85.5117 30.3278 85.4838C30.315 85.4559 30.2961 85.4305 30.2724 85.4092C30.2487 85.388 30.2206 85.3711 30.1896 85.3598C30.1587 85.3484 30.1256 85.3427 30.0922 85.3429Z" fill="white"/>
<path d="M32.7023 86.8688C32.6406 86.8688 32.5802 86.8523 32.5289 86.8212C32.4776 86.7902 32.4376 86.7461 32.414 86.6944C32.3904 86.6428 32.3842 86.586 32.3963 86.5312C32.4083 86.4764 32.438 86.426 32.4816 86.3865C32.5253 86.347 32.5809 86.3201 32.6414 86.3092C32.7019 86.2983 32.7647 86.3039 32.8217 86.3253C32.8787 86.3467 32.9274 86.3829 32.9617 86.4293C32.996 86.4758 33.0143 86.5304 33.0143 86.5863C33.0143 86.6612 32.9814 86.7331 32.9229 86.7861C32.8644 86.8391 32.785 86.8688 32.7023 86.8688ZM32.7023 86.3574C32.6517 86.3574 32.6023 86.371 32.5603 86.3965C32.5183 86.4219 32.4856 86.4581 32.4664 86.5005C32.4472 86.5428 32.4423 86.5893 32.4523 86.6342C32.4623 86.6791 32.4868 86.7202 32.5227 86.7524C32.5586 86.7847 32.6043 86.8065 32.6539 86.8152C32.7036 86.8238 32.7549 86.819 32.8015 86.8012C32.8481 86.7834 32.8877 86.7534 32.9155 86.7152C32.9432 86.6769 32.9578 86.6321 32.9574 86.5863C32.9574 86.5561 32.9508 86.5261 32.9379 86.4982C32.9251 86.4703 32.9062 86.445 32.8825 86.4237C32.8588 86.4024 32.8307 86.3856 32.7997 86.3742C32.7688 86.3628 32.7357 86.3571 32.7023 86.3574Z" fill="white"/>
<path d="M34.5606 82.6597C34.4993 82.6597 34.4395 82.6433 34.3885 82.6124C34.3376 82.5816 34.2979 82.5378 34.2744 82.4866C34.251 82.4353 34.2449 82.3789 34.2568 82.3245C34.2688 82.2701 34.2983 82.2201 34.3416 82.1809C34.3849 82.1417 34.4401 82.115 34.5002 82.1041C34.5603 82.0933 34.6225 82.0989 34.6791 82.1201C34.7357 82.1413 34.7841 82.1773 34.8182 82.2234C34.8522 82.2695 34.8704 82.3238 34.8704 82.3792C34.8698 82.4535 34.8369 82.5245 34.779 82.577C34.721 82.6294 34.6426 82.6592 34.5606 82.6597ZM34.5606 82.1503C34.5106 82.1503 34.4617 82.1637 34.4201 82.1889C34.3786 82.214 34.3462 82.2498 34.327 82.2916C34.3079 82.3335 34.3029 82.3795 34.3127 82.4239C34.3224 82.4683 34.3465 82.5091 34.3818 82.5411C34.4172 82.5731 34.4622 82.5949 34.5113 82.6037C34.5603 82.6126 34.6112 82.608 34.6573 82.5907C34.7035 82.5734 34.743 82.5441 34.7708 82.5064C34.7986 82.4688 34.8134 82.4245 34.8134 82.3792C34.8128 82.3187 34.786 82.2608 34.7387 82.218C34.6914 82.1751 34.6275 82.1509 34.5606 82.1503Z" fill="white"/>
<path d="M34.8399 85.1942C34.778 85.1942 34.7176 85.1776 34.6663 85.1465C34.6149 85.1153 34.5749 85.0711 34.5514 85.0193C34.5278 84.9676 34.5218 84.9107 34.534 84.8558C34.5462 84.8009 34.5762 84.7506 34.62 84.7112C34.6639 84.6717 34.7197 84.645 34.7804 84.6343C34.8411 84.6237 34.9039 84.6296 34.9608 84.6513C35.0178 84.673 35.0664 84.7095 35.1004 84.7562C35.1344 84.803 35.1523 84.8578 35.1519 84.9137C35.1519 84.9508 35.1438 84.9874 35.1281 85.0216C35.1124 85.0557 35.0894 85.0867 35.0604 85.1128C35.0313 85.1389 34.9969 85.1595 34.9591 85.1735C34.9212 85.1874 34.8807 85.1945 34.8399 85.1942ZM34.8399 84.6828C34.7894 84.6828 34.7401 84.6963 34.6981 84.7217C34.6562 84.7471 34.6235 84.7832 34.6042 84.8254C34.5849 84.8676 34.5798 84.914 34.5897 84.9588C34.5995 85.0036 34.6238 85.0448 34.6595 85.0771C34.6952 85.1094 34.7406 85.1314 34.7901 85.1403C34.8396 85.1492 34.8909 85.1446 34.9375 85.1271C34.9841 85.1097 35.0239 85.0801 35.0519 85.0421C35.08 85.0041 35.0949 84.9594 35.0949 84.9137C35.0949 84.8525 35.0681 84.7937 35.0202 84.7504C34.9724 84.7071 34.9075 84.6828 34.8399 84.6828Z" fill="white"/>
<path d="M32.0731 42.1165C31.5141 41.3661 31.2123 40.4829 31.2053 39.5778C31.2053 36.3647 35.1045 33.7579 39.9102 33.7579C44.7159 33.7579 48.6105 36.3647 48.6105 39.5778C48.6105 42.7909 44.7159 45.3997 39.9102 45.3997C37.578 45.3997 35.4667 44.781 33.9065 43.789L30.907 44.4778L32.0731 42.1165Z" fill="#F36464"/>
<path d="M43.0391 39.5779C43.0391 39.741 43.0925 39.9005 43.1926 40.0362C43.2927 40.1718 43.435 40.2775 43.6015 40.34C43.7679 40.4024 43.9511 40.4188 44.1278 40.3869C44.3045 40.3551 44.4669 40.2765 44.5943 40.1612C44.7217 40.0458 44.8085 39.8988 44.8436 39.7388C44.8788 39.5788 44.8607 39.4129 44.7918 39.2622C44.7228 39.1114 44.6061 38.9826 44.4562 38.892C44.3064 38.8013 44.1303 38.7529 43.9501 38.7529C43.7085 38.7529 43.4767 38.8398 43.3059 38.9945C43.135 39.1492 43.0391 39.3591 43.0391 39.5779Z" fill="#263238"/>
<path d="M39.0057 39.5779C39.0057 39.741 39.0592 39.9005 39.1593 40.0362C39.2594 40.1718 39.4017 40.2775 39.5681 40.34C39.7346 40.4024 39.9178 40.4188 40.0945 40.3869C40.2712 40.3551 40.4335 40.2765 40.561 40.1612C40.6884 40.0458 40.7751 39.8988 40.8103 39.7388C40.8454 39.5788 40.8274 39.4129 40.7584 39.2622C40.6895 39.1114 40.5727 38.9826 40.4229 38.892C40.2731 38.8013 40.097 38.7529 39.9168 38.7529C39.6751 38.7529 39.4434 38.8398 39.2726 38.9945C39.1017 39.1492 39.0057 39.3591 39.0057 39.5779Z" fill="#263238"/>
<path d="M34.9723 39.5779C34.9723 39.741 35.0257 39.9005 35.1258 40.0362C35.2259 40.1718 35.3682 40.2775 35.5347 40.34C35.7012 40.4024 35.8843 40.4188 36.0611 40.3869C36.2378 40.3551 36.4001 40.2765 36.5275 40.1612C36.6549 40.0458 36.7417 39.8988 36.7768 39.7388C36.812 39.5788 36.794 39.4129 36.725 39.2622C36.656 39.1114 36.5393 38.9826 36.3895 38.892C36.2396 38.8013 36.0635 38.7529 35.8833 38.7529C35.6417 38.7529 35.41 38.8398 35.2391 38.9945C35.0683 39.1492 34.9723 39.3591 34.9723 39.5779Z" fill="#263238"/>
<path d="M69.9013 33.1063C70.4603 32.3559 70.7622 31.4727 70.7691 30.5676C70.7691 27.3545 66.8699 24.7477 62.0642 24.7477C57.2585 24.7477 53.3639 27.3545 53.3639 30.5676C53.3639 33.7807 57.2585 36.3895 62.0642 36.3895C64.3942 36.3895 66.5078 35.7708 68.0679 34.7788L71.0652 35.4656L69.9013 33.1063Z" fill="#F36464"/>
<path d="M58.9322 30.5675C58.9322 30.7307 58.8787 30.8902 58.7786 31.0258C58.6785 31.1615 58.5362 31.2672 58.3698 31.3297C58.2033 31.3921 58.0201 31.4084 57.8434 31.3766C57.6667 31.3448 57.5043 31.2662 57.3769 31.1509C57.2495 31.0355 57.1628 30.8885 57.1276 30.7285C57.0925 30.5685 57.1105 30.4026 57.1795 30.2519C57.2484 30.1011 57.3652 29.9723 57.515 29.8816C57.6648 29.791 57.8409 29.7426 58.0211 29.7426C58.2628 29.7426 58.4945 29.8295 58.6653 29.9842C58.8362 30.1389 58.9322 30.3488 58.9322 30.5675Z" fill="#263238"/>
<path d="M62.9661 30.5675C62.9661 30.7307 62.9127 30.8902 62.8126 31.0258C62.7125 31.1615 62.5702 31.2672 62.4037 31.3297C62.2372 31.3921 62.0541 31.4084 61.8773 31.3766C61.7006 31.3448 61.5383 31.2662 61.4109 31.1509C61.2835 31.0355 61.1967 30.8885 61.1615 30.7285C61.1264 30.5685 61.1444 30.4026 61.2134 30.2519C61.2823 30.1011 61.3991 29.9723 61.5489 29.8816C61.6988 29.791 61.8749 29.7426 62.0551 29.7426C62.2967 29.7426 62.5284 29.8295 62.6993 29.9842C62.8701 30.1389 62.9661 30.3488 62.9661 30.5675Z" fill="#263238"/>
<path d="M66.9994 30.5675C66.9994 30.7307 66.946 30.8902 66.8459 31.0258C66.7458 31.1615 66.6035 31.2672 66.437 31.3297C66.2706 31.3921 66.0874 31.4084 65.9107 31.3766C65.7339 31.3448 65.5716 31.2662 65.4442 31.1509C65.3168 31.0355 65.23 30.8885 65.1949 30.7285C65.1597 30.5685 65.1778 30.4026 65.2467 30.2519C65.3157 30.1011 65.4324 29.9723 65.5823 29.8816C65.7321 29.791 65.9082 29.7426 66.0884 29.7426C66.33 29.7426 66.5617 29.8295 66.7326 29.9842C66.9034 30.1389 66.9994 30.3488 66.9994 30.5675Z" fill="#263238"/>
</svg>
