<svg width="120" height="146" viewBox="0 0 120 146" fill="none" xmlns="http://www.w3.org/2000/svg">
<path d="M112.903 96.0586L109.188 96.1479L107.302 96.183C106.67 96.1989 106.036 96.183 105.405 96.2021H105.28V96.0586L105.266 92.4911V92.3317H105.407L109.157 92.3508C110.406 92.3508 111.657 92.3891 112.906 92.405H112.985V92.4911C112.985 93.0968 112.963 93.6994 112.949 94.2924L112.903 96.0586ZM112.903 96.0586L112.864 94.2573C112.849 93.6611 112.832 93.0745 112.827 92.4911L112.903 92.5772C111.654 92.5931 110.403 92.6282 109.154 92.6314L105.405 92.6505L105.546 92.4911L105.532 96.0586L105.405 95.9152C106.022 95.9152 106.639 95.9152 107.259 95.9343L109.123 95.9693L112.903 96.0586Z" fill="#EBEBEB"/>
<path d="M108.706 100.558L104.988 100.647L103.102 100.682C102.473 100.698 101.839 100.682 101.207 100.698H101.083V100.555L101.069 96.9873V96.8279H101.21L104.959 96.847C106.208 96.847 107.46 96.8853 108.709 96.9012H108.785V96.9873C108.785 97.593 108.763 98.1956 108.748 98.7886L108.706 100.558ZM108.706 100.558L108.666 98.7567C108.666 98.1605 108.635 97.5739 108.629 96.9905L108.706 97.0766C107.457 97.0925 106.205 97.1276 104.957 97.1308L101.207 97.1499L101.349 96.9905L101.343 100.558L101.219 100.415C101.836 100.415 102.453 100.415 103.071 100.434L104.934 100.469L108.706 100.558Z" fill="#EBEBEB"/>
<path d="M117.082 100.558L113.367 100.647L111.481 100.682C110.849 100.698 110.215 100.682 109.583 100.698H109.459V100.555L109.442 96.9873V96.8279H109.583L113.333 96.847C114.584 96.847 115.833 96.8853 117.082 96.9012H117.161V96.9873C117.161 97.593 117.136 98.1956 117.122 98.7886L117.082 100.558ZM117.082 100.558L117.042 98.7567C117.042 98.1605 117.011 97.5739 117.006 96.9905L117.082 97.0766C115.833 97.0925 114.584 97.1276 113.333 97.1308L109.583 97.1499L109.725 96.9905L109.711 100.558L109.583 100.415C110.201 100.415 110.818 100.415 111.438 100.434L113.302 100.469L117.082 100.558Z" fill="#EBEBEB"/>
<path d="M10.4452 96.0586L6.72709 96.1479L4.84111 96.183C4.21246 96.1989 3.57813 96.183 2.94664 96.2021H2.81921V96.0586V92.4911V92.3317H2.96364L6.71293 92.3508C7.96175 92.3508 9.21057 92.3891 10.4622 92.405H10.5387V92.4911C10.5387 93.0968 10.5132 93.6994 10.5019 94.2924L10.4452 96.0586ZM10.4452 96.0586L10.4056 94.2573C10.4056 93.6611 10.3716 93.0745 10.3659 92.4911L10.4452 92.5772C9.19358 92.5931 7.94476 92.6282 6.69594 92.6314L2.94664 92.6505L3.08823 92.4911L3.07124 96.0586L2.94664 95.9152C3.56398 95.9152 4.17847 95.9152 4.79864 95.9343L6.66196 95.9693L10.4452 96.0586Z" fill="#EBEBEB"/>
<path d="M14.6223 100.558L10.9041 100.647L9.02947 100.682C8.40081 100.698 7.76649 100.682 7.135 100.698H7.00757V100.555V96.9873V96.8279H7.14916L10.8984 96.847C12.1473 96.847 13.3989 96.8853 14.6477 96.9012H14.693V96.9873C14.693 97.593 14.6704 98.1956 14.6562 98.7886L14.6223 100.558ZM14.6223 100.558L14.5826 98.7567C14.5826 98.1605 14.5486 97.5739 14.5458 96.9905L14.6223 97.0766C13.3734 97.0925 12.1218 97.1276 10.873 97.1308L7.12367 97.1499L7.26526 96.9905L7.24827 100.558L7.12367 100.415C7.741 100.415 8.35833 100.415 8.97566 100.434L10.839 100.469L14.6223 100.558Z" fill="#EBEBEB"/>
<path d="M34.7167 65.2647L31.0014 65.354L29.1154 65.389C28.4839 65.405 27.8496 65.389 27.2181 65.405H27.0935V65.2615L27.0793 61.694V61.5314H27.2209L30.9702 61.5505C32.219 61.5505 33.4707 61.5856 34.7195 61.6047H34.7988V61.6908C34.7988 62.2965 34.7762 62.8991 34.762 63.4921L34.7167 65.2647ZM34.7167 65.2647L34.677 63.4602C34.677 62.8672 34.6459 62.2806 34.6402 61.6972L34.7167 61.7832C33.4679 61.7992 32.2162 61.8342 30.9674 61.8374L27.2181 61.8566L27.3597 61.6972V65.2647L27.2323 65.1212C27.8496 65.1212 28.4669 65.1212 29.0871 65.1404L30.9504 65.1754L34.7167 65.2647Z" fill="#EBEBEB"/>
<path d="M30.53 69.7627L26.8118 69.852L24.9259 69.8871C24.2972 69.8871 23.6629 69.8871 23.0314 69.8871H22.9011V69.7436V66.1952V66.0358H23.0427L26.792 66.0549C28.0408 66.0549 29.2925 66.09 30.5413 66.1091H30.6206V66.1952C30.6206 66.8009 30.5979 67.4035 30.5838 67.9965L30.53 69.7627ZM30.53 69.7627L30.4903 67.9582C30.4762 67.3652 30.4592 66.7786 30.4535 66.1952L30.53 66.2813C29.2811 66.2813 28.0295 66.3323 26.7807 66.3355L23.0314 66.3546L23.173 66.1952L23.156 69.7627L23.0314 69.6192C23.6487 69.6192 24.266 69.6192 24.8834 69.6384L26.7467 69.6734L30.53 69.7627Z" fill="#EBEBEB"/>
<path d="M38.8965 69.7629L35.1812 69.8522L33.2952 69.8873C32.6637 69.8873 32.0294 69.8873 31.3979 69.8873H31.2733V69.7438L31.2563 66.1763V66.0168H31.3979L35.1472 66.036C36.3989 66.036 37.6477 66.071 38.8965 66.0902H38.9758V66.1763C38.9758 66.782 38.9503 67.3846 38.9362 67.9776L38.8965 69.7629ZM38.8965 69.7629L38.8569 67.9584C38.8569 67.3654 38.8257 66.7788 38.8201 66.1954L38.8965 66.2815C37.6477 66.2815 36.3989 66.3325 35.1472 66.3357L31.3979 66.3548L31.5395 66.1954L31.5254 69.7629L31.3979 69.6195C32.0153 69.6195 32.6326 69.6195 33.2528 69.6386L35.1161 69.6737L38.8965 69.7629Z" fill="#EBEBEB"/>
<path d="M112.468 18.9536L108.75 19.0429L106.864 19.0811C106.235 19.0811 105.601 19.0811 104.97 19.0811H104.845V18.9376L104.831 15.3701V15.2107H104.973L108.722 15.2298C109.971 15.2298 111.222 15.2649 112.471 15.2808H112.55V15.3669C112.55 15.9695 112.528 16.572 112.514 17.1682L112.468 18.9536ZM112.468 18.9536L112.429 17.1523C112.414 16.5593 112.397 15.9727 112.392 15.386L112.468 15.4753C111.219 15.4913 109.968 15.5263 108.719 15.5263L104.97 15.5454L105.111 15.386L105.094 18.9536L104.97 18.8101C105.587 18.8101 106.204 18.8101 106.822 18.8261L108.685 18.8643L112.468 18.9536Z" fill="#EBEBEB"/>
<path d="M116.653 23.4519L112.938 23.5412L111.052 23.5795C110.42 23.5795 109.786 23.5795 109.155 23.5954H109.03V23.4519L109.016 19.8844V19.725H109.157L112.907 19.7441C114.156 19.7441 115.407 19.7792 116.656 19.7951H116.735V19.8812C116.735 20.4869 116.713 21.0895 116.699 21.6857L116.653 23.4519ZM116.653 23.4519L116.614 21.6506C116.599 21.0576 116.582 20.471 116.577 19.8844L116.653 19.9737C115.404 19.9896 114.153 20.0247 112.904 20.0247L109.155 20.0438L109.296 19.8844L109.276 23.4519L109.149 23.3116C109.766 23.3116 110.384 23.3116 111.004 23.3116L112.867 23.3499L116.653 23.4519Z" fill="#EBEBEB"/>
<path d="M10.4154 18.9599L6.69723 19.0492L4.81126 19.0843C4.1826 19.0843 3.54828 19.0843 2.91679 19.0843H2.79785V18.9408V15.3733V15.2139H2.93944L6.68873 15.233C7.93755 15.233 9.18637 15.2681 10.438 15.284H10.5145V15.3701C10.5145 15.9758 10.489 16.5752 10.4777 17.1714L10.4154 18.9599ZM10.4154 18.9599L10.3757 17.1555C10.3616 16.5625 10.3417 15.9758 10.3361 15.3924L10.4154 15.4785C9.16372 15.4944 7.9149 15.5295 6.66608 15.5295L2.91679 15.5518L3.05838 15.3924L3.04139 18.9599L2.91679 18.8101C3.53412 18.8101 4.15145 18.8101 4.76878 18.8292L6.6321 18.8643L10.4154 18.9599Z" fill="#EBEBEB"/>
<path d="M38.1686 23.9849H22.6532V45.1733H38.1686V23.9849Z" fill="#EBEBEB"/>
<path d="M36.3934 25.9161H24.4235V43.2374H36.3934V25.9161Z" fill="white"/>
<path d="M24.8907 25.9161H24.4235V43.2374H24.8907V25.9161Z" fill="#F36464"/>
<path d="M38.6309 23.9849H38.1637V45.1733H38.6309V23.9849Z" fill="#F36464"/>
<path d="M31.257 28.3047H28.4337V37.7703H31.257V28.3047Z" fill="#F36464"/>
<path d="M34.8703 39.5488H27.0602V34.5912H34.8703V39.5488ZM27.3434 39.2299H34.5871V34.91H27.3434V39.2299Z" fill="#EBEBEB"/>
<path d="M19.7184 46.3679H4.203V67.5564H19.7184V46.3679Z" fill="#EBEBEB"/>
<path d="M17.9431 48.3035H5.97314V65.6247H17.9431V48.3035Z" fill="white"/>
<path d="M6.44039 48.3035H5.97314V65.6247H6.44039V48.3035Z" fill="#F36464"/>
<path d="M20.1875 46.3679H19.7202V67.5564H20.1875V46.3679Z" fill="#F36464"/>
<path d="M13.2177 52.78H10.7993V59.6632H13.2177V52.78Z" fill="#EBEBEB"/>
<path d="M15.9059 61.8696H9.12939V56.8036H15.9059V61.8696ZM9.41257 61.5507H15.6227V57.1224H9.41257V61.5507Z" fill="#F36464"/>
<path d="M111.107 90.6073H88.9003V125.208H111.107V90.6073Z" fill="#EBEBEB"/>
<path d="M112.181 89.3253H87.8219V90.6096H112.181V89.3253Z" fill="#F36464"/>
<path d="M119.843 89.3253H112.183V90.6096H119.843V89.3253Z" fill="#EBEBEB"/>
<path d="M118.629 90.6073H111.105V125.208H118.629V90.6073Z" fill="#F36464"/>
<path d="M108.72 106.63H91.2789V95.5261H108.72V106.63ZM91.3497 106.551H108.649V95.6058H91.3497V106.551Z" fill="#C7C7C7"/>
<path d="M100.962 98.7755H97.5698V100.971H100.962V98.7755Z" fill="#C7C7C7"/>
<path d="M102 100.844H98.5366V98.8998H102V100.844ZM98.6018 100.764H101.923V98.9795H98.6074L98.6018 100.764Z" fill="#C7C7C7"/>
<path d="M108.72 120.56H91.2789V109.455H108.72V120.56ZM91.3497 120.48H108.649V109.535H91.3497V120.48Z" fill="#C7C7C7"/>
<path d="M100.962 112.704H97.5698V114.9H100.962V112.704Z" fill="#C7C7C7"/>
<path d="M102 114.773H98.5366V112.832H102V114.773ZM98.6018 114.693H101.923V112.911H98.6074L98.6018 114.693Z" fill="#C7C7C7"/>
<path d="M111.972 0H111.689V30.128H111.972V0Z" fill="#C7C7C7"/>
<path d="M103.817 38.8225L104.46 40.4198H119.199L119.842 38.8225L113.567 33.9351H110.092L103.817 38.8225Z" fill="#EBEBEB"/>
<path d="M109.653 29.2228L110.089 33.9349H113.563L113.999 29.2228H109.653Z" fill="#F36464"/>
<path d="M103.817 38.8257L104.463 40.4191H119.199L119.842 38.8257H103.817Z" fill="#F36464"/>
<path d="M95.8147 0H95.5315V20.8314H95.8147V0Z" fill="#C7C7C7"/>
<path d="M87.6619 29.5287L88.3075 31.1228H103.044L103.687 29.5287L97.4146 24.6381H93.9371L87.6619 29.5287Z" fill="#EBEBEB"/>
<path d="M93.501 19.9292L93.9371 24.6381H97.4145L97.8478 19.9292H93.501Z" fill="#F36464"/>
<path d="M87.6653 29.5291L88.3081 31.1256H103.048L103.688 29.5291H87.6653Z" fill="#F36464"/>
<path d="M59.9977 145.294C91.0125 145.294 116.155 141.886 116.155 137.681C116.155 133.476 91.0125 130.068 59.9977 130.068C28.9829 130.068 3.84045 133.476 3.84045 137.681C3.84045 141.886 28.9829 145.294 59.9977 145.294Z" fill="#EBEBEB"/>
<path d="M0.161133 125.209L15.1215 125.132L30.0818 125.104L60.0025 125.05L89.9233 125.104L104.884 125.132L119.844 125.209L104.884 125.288L89.9233 125.314L60.0025 125.368L30.0818 125.314L15.1215 125.285L0.161133 125.209Z" fill="#263238"/>
<path d="M79.5089 15.386H33.6848C33.0702 15.3922 32.4628 15.5348 31.8971 15.8054C31.3315 16.0761 30.8188 16.4696 30.3883 16.9635C29.9578 17.4573 29.6179 18.0419 29.3881 18.6836C29.1584 19.3254 29.0432 20.0119 29.0492 20.7038V129.959C29.0386 131.356 29.5208 132.7 30.3899 133.697C31.2591 134.694 32.4441 135.262 33.6848 135.276H79.5089C80.7504 135.263 81.9364 134.695 82.8066 133.698C83.6768 132.701 84.16 131.356 84.1502 129.959V20.7038C84.1607 19.3058 83.6777 17.9603 82.8074 16.9631C81.9371 15.9659 80.7506 15.3986 79.5089 15.386ZM81.2504 126.675C81.2504 129.471 79.3899 131.731 77.0962 131.731H36.1032C33.8037 131.731 31.9433 129.471 31.9433 126.675V24.7305C31.9433 19.0332 33.8037 18.7559 36.1032 18.7559H44.3154C44.7911 18.7559 45.1819 19.368 45.1819 20.1236V20.4424C45.1819 22.215 46.0314 22.2214 47.1018 22.2214H66.0918C67.1594 22.2214 68.0175 22.2214 68.0175 20.4424V20.1236C68.0175 19.368 68.4026 18.7559 68.8868 18.7559H77.099C79.3928 18.7559 81.2532 19.5146 81.2532 24.7305L81.2504 126.675Z" fill="#263238"/>
<path d="M81.2521 24.7302V126.675C81.2521 129.471 79.3916 131.731 77.0979 131.731H36.1048C33.8054 131.731 31.9449 129.471 31.9449 126.675V24.7302C31.9449 19.033 33.8054 18.7556 36.1048 18.7556H44.317C44.7928 18.7556 45.1836 19.3677 45.1836 20.1233V20.4421C45.1836 22.2148 46.0331 22.2211 47.1035 22.2211H66.0935C67.1611 22.2211 68.0192 22.2211 68.0192 20.4421V20.1233C68.0192 19.3677 68.4043 18.7556 68.8885 18.7556H77.1007C79.3916 18.7556 81.2521 19.5144 81.2521 24.7302Z" fill="white"/>
<path d="M81.2521 24.727V126.675C81.2521 129.471 79.3916 131.731 77.0979 131.731H36.1048C33.8054 131.731 31.9449 129.471 31.9449 126.675V24.727C31.9449 19.033 33.8054 18.7556 36.1048 18.7556H44.317C44.7928 18.7556 45.1836 19.3677 45.1836 20.1233V20.4421C45.1836 22.2179 46.0331 22.2243 47.1035 22.2243H66.0935C67.1611 22.2243 68.0192 22.2243 68.0192 20.4421V20.1233C68.0192 19.3677 68.4043 18.7556 68.8885 18.7556H77.1007C79.3916 18.7556 81.2521 19.5144 81.2521 24.727Z" fill="white"/>
<path d="M81.2521 24.7302V33.5327H31.9449V24.7302C31.9449 19.033 33.8054 18.7556 36.1048 18.7556H44.317C44.7928 18.7556 45.1836 19.3677 45.1836 20.1233V20.4421C45.1836 22.2148 46.0331 22.2211 47.1035 22.2211H66.0935C67.1611 22.2211 68.0192 22.2211 68.0192 20.4421V20.1233C68.0192 19.3677 68.4043 18.7556 68.8885 18.7556H77.1007C79.3916 18.7556 81.2521 19.5144 81.2521 24.7302Z" fill="#7EBAEB"/>
<path d="M42.8964 20.9786C42.8709 21.0073 42.8426 21.036 42.8171 21.0678L42.7718 21.1188C42.6715 21.0055 42.5524 20.9156 42.4212 20.8542C42.29 20.7929 42.1493 20.7613 42.0072 20.7613C41.8651 20.7613 41.7244 20.7929 41.5932 20.8542C41.462 20.9156 41.3429 21.0055 41.2426 21.1188L41.2001 21.0678C41.1747 21.0391 41.1463 21.0105 41.1208 20.9786L41.2228 20.8766C41.2938 20.8108 41.3718 20.7551 41.455 20.7109C41.5517 20.656 41.6546 20.6164 41.7608 20.593L41.9166 20.5707H42.0497H42.1545C42.2512 20.5833 42.3463 20.609 42.4376 20.6472C42.5035 20.6747 42.567 20.7088 42.6274 20.7491C42.6926 20.7903 42.7542 20.8383 42.8114 20.8925L42.8936 20.9754L42.8964 20.9786Z" fill="white"/>
<path d="M41.4967 21.399L41.3721 21.2587C41.5088 21.1011 41.688 20.9991 41.8818 20.9686C42.0207 20.9455 42.1625 20.9594 42.2958 21.0093C42.4291 21.0591 42.5501 21.1435 42.6492 21.2555L42.5218 21.3958C42.3855 21.2436 42.2012 21.1581 42.0092 21.1581C41.8172 21.1581 41.633 21.2436 41.4967 21.3958V21.399Z" fill="white"/>
<path d="M42.3948 21.5392L42.2702 21.679C42.2362 21.6394 42.1953 21.6082 42.1499 21.5874C42.1046 21.5665 42.0558 21.5566 42.0069 21.5582C41.958 21.5578 41.9096 21.5682 41.8644 21.5889C41.8191 21.6097 41.7781 21.6403 41.7435 21.679L41.6189 21.5392C41.6697 21.4817 41.7301 21.4361 41.7967 21.4049C41.8633 21.3738 41.9347 21.3578 42.0069 21.3578C42.079 21.3578 42.1504 21.3738 42.217 21.4049C42.2836 21.4361 42.344 21.4817 42.3948 21.5392Z" fill="white"/>
<path d="M42.1181 21.8072C42.1181 21.8324 42.1115 21.8569 42.0991 21.8778C42.0866 21.8988 42.0689 21.9151 42.0482 21.9247C42.0275 21.9343 42.0047 21.9368 41.9828 21.9319C41.9608 21.927 41.9406 21.9149 41.9248 21.8971C41.9089 21.8793 41.8981 21.8567 41.8938 21.832C41.8894 21.8073 41.8917 21.7818 41.9002 21.7585C41.9088 21.7353 41.9233 21.7155 41.9419 21.7015C41.9606 21.6875 41.9825 21.6801 42.0049 21.6801C42.0349 21.6801 42.0637 21.6934 42.085 21.7173C42.1062 21.7411 42.1181 21.7735 42.1181 21.8072Z" fill="white"/>
<path d="M35.1631 21.2486C35.1625 21.1752 35.1814 21.1033 35.2173 21.042C35.2532 20.9807 35.3044 20.9329 35.3646 20.9045C35.4247 20.8761 35.491 20.8685 35.555 20.8827C35.619 20.8968 35.6777 20.9321 35.7239 20.984C35.77 21.0359 35.8013 21.1021 35.8139 21.1741C35.8265 21.2461 35.8197 21.3207 35.7945 21.3883C35.7693 21.456 35.7268 21.5137 35.6723 21.5541C35.6179 21.5945 35.554 21.6157 35.4888 21.6151C35.4026 21.6142 35.3202 21.5753 35.2593 21.5068C35.1984 21.4383 35.1638 21.3455 35.1631 21.2486Z" fill="white"/>
<path d="M36.1897 21.2486C36.1891 21.1753 36.2079 21.1036 36.2437 21.0424C36.2794 20.9811 36.3305 20.9333 36.3905 20.9048C36.4505 20.8763 36.5166 20.8685 36.5805 20.8825C36.6444 20.8964 36.7032 20.9313 36.7495 20.9829C36.7957 21.0344 36.8272 21.1003 36.8401 21.1721C36.8531 21.2439 36.8467 21.3184 36.8219 21.3861C36.7972 21.4539 36.7551 21.5118 36.701 21.5525C36.6469 21.5933 36.5833 21.6151 36.5182 21.6151C36.4316 21.6151 36.3484 21.5766 36.2869 21.5079C36.2254 21.4393 36.1905 21.3461 36.1897 21.2486Z" fill="white"/>
<path d="M37.2196 21.2486C37.2191 21.1752 37.2379 21.1033 37.2738 21.042C37.3097 20.9807 37.3609 20.9329 37.4211 20.9045C37.4812 20.8761 37.5475 20.8685 37.6115 20.8827C37.6755 20.8968 37.7343 20.9321 37.7804 20.984C37.8265 21.0359 37.8578 21.1021 37.8704 21.1741C37.883 21.2461 37.8762 21.3207 37.851 21.3883C37.8258 21.456 37.7833 21.5137 37.7288 21.5541C37.6744 21.5945 37.6105 21.6157 37.5453 21.6151C37.5025 21.6151 37.4602 21.6056 37.4206 21.5872C37.3811 21.5687 37.3452 21.5417 37.315 21.5077C37.2848 21.4737 37.2608 21.4333 37.2444 21.3888C37.228 21.3444 37.2196 21.2967 37.2196 21.2486Z" fill="white"/>
<path d="M38.2472 21.2486C38.2466 21.1753 38.2654 21.1036 38.3012 21.0424C38.3369 20.9811 38.388 20.9333 38.448 20.9048C38.508 20.8763 38.5741 20.8685 38.638 20.8825C38.7019 20.8964 38.7607 20.9313 38.8069 20.9829C38.8532 21.0344 38.8847 21.1003 38.8976 21.1721C38.9106 21.2439 38.9042 21.3184 38.8794 21.3861C38.8547 21.4539 38.8126 21.5118 38.7585 21.5525C38.7044 21.5933 38.6408 21.6151 38.5757 21.6151C38.4891 21.6151 38.4059 21.5766 38.3444 21.5079C38.2829 21.4393 38.248 21.3461 38.2472 21.2486Z" fill="white"/>
<path d="M39.2771 21.2486C39.2766 21.1755 39.2953 21.1038 39.3309 21.0427C39.3665 20.9815 39.4175 20.9337 39.4773 20.9051C39.5371 20.8765 39.6031 20.8686 39.6669 20.8822C39.7307 20.8959 39.7895 20.9305 39.8359 20.9818C39.8822 21.033 39.914 21.0986 39.9272 21.1702C39.9404 21.2417 39.9345 21.3161 39.9101 21.3839C39.8858 21.4517 39.8441 21.5098 39.7904 21.551C39.7367 21.5921 39.6734 21.6144 39.6084 21.6151C39.5652 21.6159 39.5222 21.6071 39.4821 21.589C39.4419 21.571 39.4053 21.5441 39.3745 21.51C39.3436 21.4759 39.3192 21.4352 39.3024 21.3903C39.2857 21.3454 39.2771 21.2972 39.2771 21.2486Z" fill="white"/>
<path d="M77.556 22.0493H74.8942V20.6631H77.556V22.0493ZM75.0329 21.8996H77.4201V20.8161H75.0329V21.8996Z" fill="white"/>
<path d="M76.8289 20.8982H75.1128V21.8128H76.8289V20.8982Z" fill="white"/>
<path d="M77.7948 20.9873H77.5569V21.7298H77.7948V20.9873Z" fill="white"/>
<path d="M36.4379 30.2749L34.9795 28.7382L36.4379 27.2015L36.6616 27.4725L35.4637 28.7382L36.6616 30.0039L36.4379 30.2749Z" fill="white"/>
<path d="M76.7597 27.2015L78.2181 28.7382L76.7597 30.2749L76.536 30.0039L77.7339 28.7382L76.536 27.4725L76.7597 27.2015Z" fill="white"/>
<path d="M59.1871 20.0148H54.0077C53.9231 20.0139 53.8421 19.9757 53.7823 19.9084C53.7224 19.841 53.6885 19.7499 53.6877 19.6547C53.6885 19.5594 53.7224 19.4683 53.7823 19.4009C53.8421 19.3336 53.9231 19.2954 54.0077 19.2946H59.1871C59.272 19.2946 59.3533 19.3325 59.4134 19.4C59.4734 19.4676 59.5071 19.5592 59.5071 19.6547C59.5071 19.7502 59.4734 19.8418 59.4134 19.9093C59.3533 19.9768 59.272 20.0148 59.1871 20.0148Z" fill="white"/>
<path d="M77.9078 37.9233H35.2893V49.9841H77.9078V37.9233Z" fill="#EBEBEB"/>
<path d="M41.5147 48.1697C40.7742 48.1672 40.051 47.9177 39.4363 47.4527C38.8217 46.9877 38.3433 46.3281 38.0615 45.5571C37.7797 44.7862 37.7071 43.9385 37.8529 43.1211C37.9988 42.3038 38.3565 41.5534 38.8809 40.9648C39.4053 40.3762 40.0728 39.9757 40.7993 39.814C41.5257 39.6523 42.2784 39.7366 42.9623 40.0562C43.6462 40.3758 44.2307 40.9164 44.6418 41.6098C45.053 42.3031 45.2725 43.1181 45.2725 43.9518C45.2721 44.5067 45.1746 45.056 44.9854 45.5684C44.7963 46.0808 44.5193 46.5461 44.1703 46.9379C43.8213 47.3297 43.4071 47.6401 42.9514 47.8515C42.4957 48.0628 42.0075 48.171 41.5147 48.1697ZM41.5147 40.3237C40.8765 40.323 40.2525 40.5356 39.7217 40.9343C39.1908 41.3331 38.777 41.9002 38.5325 42.5639C38.288 43.2275 38.2239 43.9579 38.3483 44.6626C38.4726 45.3673 38.7799 46.0147 39.2311 46.5227C39.6824 47.0307 40.2574 47.3767 40.8833 47.5167C41.5092 47.6567 42.158 47.5845 42.7475 47.3093C43.3369 47.034 43.8407 46.5681 44.1949 45.9704C44.5491 45.3728 44.7378 44.6703 44.7373 43.9518C44.7358 42.9901 44.3958 42.0682 43.7917 41.3882C43.1877 40.7082 42.3689 40.3254 41.5147 40.3237Z" fill="#F36464"/>
<path d="M40.1103 41.9061L39.7019 42.3658L42.923 45.9923L43.3314 45.5325L40.1103 41.9061Z" fill="#F36464"/>
<path d="M39.7026 45.5357L40.111 45.9955L43.332 42.3691L42.9236 41.9093L39.7026 45.5357Z" fill="#F36464"/>
<path d="M75.4278 40.7382H48.0132V41.3213H75.4278V40.7382Z" fill="#F36464"/>
<path d="M75.4278 43.0692H48.0132V43.6524H75.4278V43.0692Z" fill="#F36464"/>
<path d="M70.3928 44.2389H48.0132V44.8221H70.3928V44.2389Z" fill="#F36464"/>
<path d="M62.8659 45.4119H48.0132V45.9951H62.8659V45.4119Z" fill="#F36464"/>
<path d="M70.3928 46.5859H48.0132V47.1691H70.3928V46.5859Z" fill="#F36464"/>
<path d="M77.9078 68.8575H35.2893V80.9183H77.9078V68.8575Z" fill="#EBEBEB"/>
<path d="M41.5135 79.1011C40.7737 79.0979 40.0513 78.8481 39.4376 78.383C38.8238 77.918 38.3462 77.2586 38.065 76.4882C37.7838 75.7178 37.7117 74.8709 37.8577 74.0544C38.0038 73.2378 38.3614 72.4883 38.8855 71.9005C39.4097 71.3126 40.0767 70.9128 40.8025 70.7515C41.5283 70.5901 42.2803 70.6745 42.9636 70.994C43.6468 71.3134 44.2306 71.8537 44.6414 72.5464C45.0521 73.2392 45.2713 74.0534 45.2713 74.8863C45.2709 75.4411 45.1734 75.9902 44.9842 76.5024C44.7951 77.0146 44.5181 77.4798 44.169 77.8713C43.8199 78.2628 43.4057 78.573 42.9501 78.784C42.4944 78.995 42.0062 79.1028 41.5135 79.1011ZM41.5135 71.255C40.8755 71.2544 40.2516 71.4668 39.7208 71.8655C39.19 72.2641 38.7762 72.831 38.5316 73.4945C38.2871 74.158 38.2228 74.8882 38.3469 75.5928C38.4711 76.2974 38.778 76.9448 39.229 77.4529C39.68 77.9611 40.2547 78.3073 40.8804 78.4476C41.5062 78.588 42.1548 78.5163 42.7444 78.2415C43.3339 77.9668 43.8378 77.5013 44.1923 76.9041C44.5469 76.3069 44.7361 75.6047 44.7361 74.8863C44.7354 73.9241 44.3957 73.0014 43.7916 72.3207C43.1875 71.6399 42.3682 71.2567 41.5135 71.255Z" fill="#F36464"/>
<path d="M40.1103 72.8401L39.7019 73.2999L42.923 76.9263L43.3314 76.4666L40.1103 72.8401Z" fill="#F36464"/>
<path d="M39.7026 76.4708L40.111 76.9305L43.332 73.3041L42.9236 72.8443L39.7026 76.4708Z" fill="#F36464"/>
<path d="M75.4278 71.6692H48.0132V72.2524H75.4278V71.6692Z" fill="#F36464"/>
<path d="M75.4278 74.0005H48.0132V74.5837H75.4278V74.0005Z" fill="#F36464"/>
<path d="M70.3928 75.1741H48.0132V75.7573H70.3928V75.1741Z" fill="#F36464"/>
<path d="M62.8659 76.3459H48.0132V76.9291H62.8659V76.3459Z" fill="#F36464"/>
<path d="M70.3928 77.5201H48.0132V78.1033H70.3928V77.5201Z" fill="#F36464"/>
<path d="M77.9078 84.5243H35.2893V96.5851H77.9078V84.5243Z" fill="#EBEBEB"/>
<path d="M41.5135 94.7712C40.7742 94.7681 40.0522 94.5185 39.4387 94.0541C38.8252 93.5896 38.3476 92.931 38.066 92.1613C37.7845 91.3917 37.7118 90.5454 37.8569 89.7292C38.002 88.913 38.3586 88.1635 38.8815 87.5751C39.4045 86.9868 40.0705 86.586 40.7956 86.4232C41.5207 86.2604 42.2723 86.343 42.9557 86.6605C43.6391 86.978 44.2238 87.5162 44.6359 88.2073C45.0479 88.8984 45.2691 89.7114 45.2713 90.5438C45.2724 91.0995 45.176 91.6501 44.9875 92.1638C44.799 92.6775 44.5222 93.1441 44.173 93.537C43.8238 93.9298 43.4091 94.2411 42.9527 94.4529C42.4963 94.6648 42.0072 94.7729 41.5135 94.7712ZM41.5135 86.9252C40.875 86.9246 40.2507 87.1373 39.7196 87.5365C39.1886 87.9357 38.7748 88.5034 38.5305 89.1676C38.2863 89.8318 38.2227 90.5627 38.3478 91.2677C38.4728 91.9726 38.7809 92.62 39.233 93.1276C39.6851 93.6353 40.2609 93.9804 40.8874 94.1194C41.5139 94.2583 42.1629 94.1847 42.7522 93.908C43.3415 93.6313 43.8447 93.1639 44.1978 92.565C44.551 91.9661 44.7383 91.2626 44.7361 90.5438C44.7324 89.5837 44.3914 88.6643 43.7876 87.9863C43.1838 87.3083 42.3663 86.9269 41.5135 86.9252Z" fill="#F36464"/>
<path d="M40.1092 88.5092L39.7008 88.969L42.9219 92.5954L43.3303 92.1356L40.1092 88.5092Z" fill="#F36464"/>
<path d="M39.6946 92.1384L40.103 92.5981L43.3241 88.9717L42.9157 88.5119L39.6946 92.1384Z" fill="#F36464"/>
<path d="M75.4278 87.3391H48.0132V87.9223H75.4278V87.3391Z" fill="#F36464"/>
<path d="M75.4278 89.6702H48.0132V90.2533H75.4278V89.6702Z" fill="#F36464"/>
<path d="M70.3928 90.8434H48.0132V91.4266H70.3928V90.8434Z" fill="#F36464"/>
<path d="M62.8659 92.0131H48.0132V92.5963H62.8659V92.0131Z" fill="#F36464"/>
<path d="M70.3928 93.1866H48.0132V93.7698H70.3928V93.1866Z" fill="#F36464"/>
<path d="M77.9078 100.191H35.2893V112.251H77.9078V100.191Z" fill="#EBEBEB"/>
<path d="M41.5135 110.438C40.7737 110.435 40.0513 110.185 39.4376 109.72C38.8238 109.255 38.3462 108.596 38.065 107.825C37.7838 107.055 37.7117 106.208 37.8577 105.391C38.0038 104.575 38.3614 103.825 38.8855 103.238C39.4097 102.65 40.0767 102.25 40.8025 102.088C41.5283 101.927 42.2803 102.012 42.9636 102.331C43.6468 102.65 44.2306 103.191 44.6414 103.883C45.0521 104.576 45.2713 105.39 45.2713 106.223C45.2709 106.778 45.1734 107.327 44.9842 107.839C44.7951 108.352 44.5181 108.817 44.169 109.208C43.8199 109.6 43.4057 109.91 42.9501 110.121C42.4944 110.332 42.0062 110.44 41.5135 110.438ZM41.5135 102.592C40.8755 102.591 40.2516 102.804 39.7208 103.203C39.19 103.601 38.7762 104.168 38.5316 104.832C38.2871 105.495 38.2228 106.225 38.3469 106.93C38.4711 107.634 38.778 108.282 39.229 108.79C39.68 109.298 40.2547 109.644 40.8804 109.785C41.5062 109.925 42.1548 109.853 42.7444 109.579C43.3339 109.304 43.8378 108.838 44.1923 108.241C44.5469 107.644 44.7361 106.942 44.7361 106.223C44.7354 105.261 44.3957 104.338 43.7916 103.658C43.1875 102.977 42.3682 102.594 41.5135 102.592Z" fill="#F36464"/>
<path d="M40.1103 104.172L39.7019 104.632L42.923 108.258L43.3314 107.798L40.1103 104.172Z" fill="#F36464"/>
<path d="M39.7037 107.809L40.1121 108.268L43.3331 104.642L42.9247 104.182L39.7037 107.809Z" fill="#F36464"/>
<path d="M75.4278 103.006H48.0132V103.589H75.4278V103.006Z" fill="#F36464"/>
<path d="M75.4278 105.336H48.0132V105.919H75.4278V105.336Z" fill="#F36464"/>
<path d="M70.3928 106.51H48.0132V107.093H70.3928V106.51Z" fill="#F36464"/>
<path d="M62.8659 107.683H48.0132V108.266H62.8659V107.683Z" fill="#F36464"/>
<path d="M70.3928 108.853H48.0132V109.437H70.3928V108.853Z" fill="#F36464"/>
<path d="M79.3044 52.9547H33.891V65.8062H79.3044V52.9547Z" fill="#7EBAEB"/>
<path d="M80.2969 66.9793H32.8983V51.7814H80.2969V66.9793ZM33.1815 66.6605H80.0137V52.1002H33.1815V66.6605Z" fill="#7EBAEB"/>
<path d="M39.972 61.7036L38.4174 59.9342L38.9412 59.3508L39.8474 60.3869L41.7334 57.0585L42.3507 57.5048L39.972 61.7036Z" fill="white"/>
<path d="M40.5267 63.8708C39.7376 63.8708 38.9662 63.6074 38.31 63.1138C37.6539 62.6202 37.1425 61.9186 36.8405 61.0978C36.5385 60.2769 36.4595 59.3737 36.6134 58.5023C36.7674 57.631 37.1474 56.8305 37.7054 56.2023C38.2634 55.5741 38.9743 55.1462 39.7483 54.9729C40.5223 54.7996 41.3246 54.8885 42.0536 55.2285C42.7827 55.5685 43.4059 56.1443 43.8443 56.883C44.2827 57.6217 44.5167 58.4902 44.5167 59.3787C44.516 60.5698 44.0954 61.7119 43.3473 62.5542C42.5992 63.3964 41.5847 63.87 40.5267 63.8708ZM40.5267 55.5115C39.8467 55.5115 39.1819 55.7386 38.6165 56.164C38.0511 56.5894 37.6105 57.1941 37.3504 57.9015C37.0902 58.6089 37.0223 59.3873 37.1552 60.1381C37.2881 60.889 37.6158 61.5787 38.0969 62.1198C38.5779 62.661 39.1907 63.0293 39.8578 63.1783C40.5248 63.3273 41.2162 63.2502 41.8443 62.9568C42.4724 62.6633 43.0091 62.1668 43.3865 61.5299C43.7639 60.893 43.9651 60.1443 43.9645 59.3787C43.9638 58.3528 43.6013 57.3691 42.9566 56.644C42.312 55.9188 41.438 55.5115 40.5267 55.5115Z" fill="white"/>
<path d="M76.6665 55.9517H47.4509V56.5731H76.6665V55.9517Z" fill="white"/>
<path d="M76.6665 58.4348H47.4509V59.0562H76.6665V58.4348Z" fill="white"/>
<path d="M71.3003 59.6848H47.4509V60.3062H71.3003V59.6848Z" fill="white"/>
<path d="M63.2778 60.9347H47.4509V61.5561H63.2778V60.9347Z" fill="white"/>
<path d="M71.3003 62.1843H47.4509V62.8058H71.3003V62.1843Z" fill="white"/>
<path d="M53.3649 124.56C53.3655 124.717 53.3247 124.87 53.2477 125C53.1708 125.131 53.0611 125.233 52.9327 125.293C52.8042 125.353 52.6628 125.369 52.5263 125.339C52.3898 125.308 52.2644 125.233 52.166 125.122C52.0676 125.012 52.0007 124.87 51.9737 124.717C51.9467 124.563 51.9608 124.404 52.0143 124.259C52.0678 124.115 52.1583 123.992 52.2742 123.905C52.3901 123.818 52.5263 123.772 52.6654 123.773C52.8507 123.774 53.0282 123.857 53.1592 124.005C53.2902 124.152 53.3641 124.352 53.3649 124.56Z" fill="#F36464"/>
<path d="M56.5987 125.854C57.2336 125.854 57.7484 125.275 57.7484 124.56C57.7484 123.846 57.2336 123.266 56.5987 123.266C55.9637 123.266 55.449 123.846 55.449 124.56C55.449 125.275 55.9637 125.854 56.5987 125.854Z" fill="#F36464"/>
<path d="M61.2368 124.56C61.2374 124.717 61.1967 124.87 61.1199 125C61.043 125.131 60.9336 125.232 60.8053 125.293C60.677 125.353 60.5357 125.369 60.3993 125.339C60.2629 125.309 60.1375 125.234 60.039 125.123C59.9405 125.013 59.8733 124.872 59.846 124.719C59.8186 124.565 59.8324 124.406 59.8855 124.262C59.9385 124.117 60.0285 123.993 60.1441 123.906C60.2596 123.819 60.3955 123.773 60.5346 123.773C60.7203 123.773 60.8985 123.856 61.0301 124.003C61.1618 124.151 61.2361 124.351 61.2368 124.56Z" fill="#F36464"/>
<path d="M85.5731 41.2641L85.4598 41.2957C85.463 41.2812 85.4699 41.268 85.4797 41.2578L85.5731 41.2641Z" fill="#263238"/>
<path d="M88.8304 133.369H88.7794V133.328L88.8304 133.369Z" fill="#F7A9A0"/>
<path d="M93.5025 52.5114C94.9779 60.7464 99.8174 73.9932 100.299 75.8678C100.704 77.4619 109.216 74.4778 108.63 73.5532C107.88 72.3704 100.375 57.4945 96.7704 52.132C93.7913 47.7069 92.8087 48.641 93.5025 52.5114Z" fill="#F7A9A0"/>
<path d="M108.24 72.8748C109.127 74.1883 110.506 77.9375 110.831 79.1905C111.157 80.4434 111.831 84.1194 111.004 84.4924C110.177 84.8654 109.903 83.8037 109.903 83.8037C109.903 83.8037 109.97 85.3978 109.11 85.6943C108.249 85.9908 107.864 84.3202 107.864 84.3202C107.864 84.3202 107.83 85.9749 106.952 86.1917C106.074 86.4085 105.938 84.6677 105.938 84.6677C105.938 84.6677 105.969 86.1789 105.176 86.0163C104.225 85.8218 104.448 83.0226 104.007 81.6709C103.905 81.3521 101.574 75.6134 101.574 75.6134L108.24 72.8748Z" fill="#F7A9A0"/>
<path d="M106.093 84.7144C106.255 82.658 106.009 81.7271 105.182 79.9322C105.165 79.8971 105.207 79.862 105.227 79.8971C106.181 81.5836 106.643 82.7027 106.181 84.7431C106.156 84.8292 106.085 84.8037 106.093 84.7144Z" fill="#263238"/>
<path d="M107.99 84.3832C107.99 82.2312 107.733 81.2173 106.991 79.2534C106.991 79.2247 107.022 79.2024 107.033 79.2311C107.905 81.0898 108.339 82.2152 108.087 84.3672C108.075 84.4661 107.99 84.4852 107.99 84.3832Z" fill="#263238"/>
<path d="M110.006 83.6051C109.873 81.5201 109.632 80.3946 108.692 78.5933C108.686 78.5849 108.684 78.5744 108.686 78.5643C108.688 78.5541 108.693 78.5451 108.7 78.5391C108.708 78.5332 108.717 78.5309 108.726 78.5327C108.735 78.5345 108.743 78.5403 108.748 78.5487C109.864 80.2831 110.164 81.6827 110.059 83.5924C110.054 83.7231 110.014 83.7358 110.006 83.6051Z" fill="#263238"/>
<path d="M100.242 74.8886C100.242 74.8886 100.347 77.4742 100.616 78.5964C100.885 79.7187 103.253 83.4966 104.014 82.9674C104.988 82.2819 104.014 79.8016 103.377 78.6538C103.377 78.6538 105.643 77.0597 105.263 75.1214C104.884 73.183 100.242 74.8886 100.242 74.8886Z" fill="#F7A9A0"/>
<path d="M104.215 82.6811C104.702 81.3357 103.796 79.8946 103.266 78.7309C103.258 78.7144 103.253 78.6958 103.252 78.6768C103.251 78.6577 103.255 78.6388 103.262 78.6216C103.269 78.6043 103.28 78.5893 103.294 78.5778C103.307 78.5663 103.323 78.5587 103.34 78.5556C104.243 77.8223 105.322 76.4897 105.322 75.1666C105.324 75.1602 105.327 75.1547 105.332 75.1507C105.337 75.1468 105.343 75.1447 105.349 75.1447C105.355 75.1447 105.361 75.1468 105.365 75.1507C105.37 75.1547 105.374 75.1602 105.376 75.1666C105.568 76.5821 104.594 77.9881 103.558 78.7214C104.124 79.901 104.974 81.3962 104.237 82.6938L104.215 82.6811Z" fill="#263238"/>
<path d="M107.789 70.4575C107.789 70.4575 99.1411 74.8157 98.9401 75.0134C98.9401 75.0134 93.3671 55.2468 92.9084 51.9025C92.4496 48.5581 93.5285 47.6495 95.4371 49.9896C98.5748 53.8217 107.789 70.4575 107.789 70.4575Z" fill="#F36464"/>
<path d="M94.0098 53.8985C94.0098 53.9654 93.9922 54.0307 93.9592 54.0863C93.9262 54.1419 93.8793 54.1852 93.8245 54.2108C93.7696 54.2363 93.7093 54.243 93.651 54.23C93.5928 54.217 93.5393 54.1848 93.4973 54.1375C93.4554 54.0902 93.4268 54.03 93.4152 53.9645C93.4036 53.8989 93.4096 53.831 93.4323 53.7692C93.455 53.7075 93.4935 53.6547 93.5428 53.6175C93.5922 53.5804 93.6502 53.5606 93.7096 53.5606C93.7892 53.5606 93.8656 53.5962 93.9218 53.6596C93.9781 53.723 94.0098 53.8089 94.0098 53.8985ZM97.3768 53.5606C97.3174 53.5606 97.2594 53.5804 97.21 53.6175C97.1606 53.6547 97.1222 53.7075 97.0994 53.7692C97.0767 53.831 97.0708 53.8989 97.0824 53.9645C97.0939 54.03 97.1225 54.0902 97.1645 54.1375C97.2065 54.1848 97.26 54.217 97.3182 54.23C97.3764 54.243 97.4368 54.2363 97.4916 54.2108C97.5465 54.1852 97.5934 54.1419 97.6263 54.0863C97.6593 54.0307 97.6769 53.9654 97.6769 53.8985C97.6769 53.8089 97.6453 53.723 97.589 53.6596C97.5327 53.5962 97.4564 53.5606 97.3768 53.5606ZM95.5474 50.6179C95.4881 50.6179 95.43 50.6378 95.3807 50.6749C95.3313 50.712 95.2928 50.7648 95.2701 50.8266C95.2474 50.8883 95.2414 50.9562 95.253 51.0218C95.2646 51.0874 95.2932 51.1476 95.3352 51.1948C95.3772 51.2421 95.4306 51.2743 95.4889 51.2873C95.5471 51.3004 95.6074 51.2937 95.6623 51.2681C95.7171 51.2425 95.764 51.1992 95.797 51.1436C95.83 51.0881 95.8476 51.0227 95.8476 50.9559C95.8476 50.9107 95.8396 50.8659 95.824 50.8243C95.8083 50.7827 95.7855 50.745 95.7567 50.7135C95.7279 50.682 95.6938 50.6573 95.6564 50.6409C95.619 50.6245 95.5791 50.6167 95.5389 50.6179H95.5474ZM97.3768 59.4714C97.3168 59.4676 97.2572 59.4841 97.2056 59.5189C97.1541 59.5536 97.113 59.6049 97.0876 59.6662C97.0623 59.7276 97.0539 59.796 97.0634 59.8628C97.073 59.9296 97.1002 59.9915 97.1414 60.0407C97.1827 60.0899 97.236 60.1241 97.2947 60.1387C97.3533 60.1534 97.4145 60.1479 97.4704 60.123C97.5262 60.0981 97.5741 60.0549 97.6079 59.999C97.6417 59.9431 97.6598 59.877 97.6599 59.8094C97.6601 59.723 97.6308 59.6398 97.5781 59.5769C97.5254 59.5141 97.4534 59.4763 97.3768 59.4714ZM101.035 59.4714C100.976 59.4727 100.919 59.4936 100.87 59.5315C100.822 59.5694 100.784 59.6226 100.762 59.6844C100.74 59.7463 100.735 59.814 100.747 59.8791C100.76 59.9443 100.789 60.0039 100.831 60.0505C100.873 60.0971 100.927 60.1287 100.985 60.1412C101.043 60.1537 101.103 60.1467 101.157 60.1209C101.212 60.0952 101.258 60.0519 101.291 59.9964C101.324 59.941 101.341 59.8759 101.341 59.8094C101.341 59.7636 101.333 59.7183 101.317 59.6763C101.301 59.6342 101.278 59.5962 101.248 59.5646C101.219 59.533 101.184 59.5084 101.146 59.4924C101.108 59.4764 101.068 59.4693 101.027 59.4714H101.035ZM95.5474 56.5288C95.4881 56.5288 95.43 56.5486 95.3807 56.5857C95.3313 56.6229 95.2928 56.6756 95.2701 56.7374C95.2474 56.7991 95.2414 56.8671 95.253 56.9326C95.2646 56.9982 95.2932 57.0584 95.3352 57.1057C95.3772 57.1529 95.4306 57.1851 95.4889 57.1982C95.5471 57.2112 95.6074 57.2045 95.6623 57.1789C95.7171 57.1534 95.764 57.11 95.797 57.0545C95.83 56.9989 95.8476 56.9335 95.8476 56.8667C95.8476 56.8215 95.8396 56.7768 95.824 56.7351C95.8083 56.6935 95.7855 56.6558 95.7567 56.6243C95.7279 56.5928 95.6938 56.5681 95.6564 56.5517C95.619 56.5353 95.5791 56.5275 95.5389 56.5288H95.5474ZM99.2061 56.5288C99.1467 56.5288 99.0887 56.5486 99.0393 56.5857C98.99 56.6229 98.9515 56.6756 98.9288 56.7374C98.9061 56.7991 98.9001 56.8671 98.9117 56.9326C98.9233 56.9982 98.9519 57.0584 98.9939 57.1057C99.0358 57.1529 99.0893 57.1851 99.1475 57.1982C99.2058 57.2112 99.2661 57.2045 99.321 57.1789C99.3758 57.1534 99.4227 57.11 99.4557 57.0545C99.4887 56.9989 99.5063 56.9335 99.5063 56.8667C99.5063 56.8215 99.4983 56.7768 99.4826 56.7351C99.467 56.6935 99.4441 56.6558 99.4154 56.6243C99.3866 56.5928 99.3525 56.5681 99.3151 56.5517C99.2777 56.5353 99.2377 56.5275 99.1976 56.5288H99.2061ZM97.3768 65.3823C97.3174 65.3823 97.2594 65.4021 97.21 65.4392C97.1606 65.4764 97.1222 65.5291 97.0994 65.5909C97.0767 65.6526 97.0708 65.7206 97.0824 65.7861C97.0939 65.8517 97.1225 65.9119 97.1645 65.9592C97.2065 66.0064 97.26 66.0386 97.3182 66.0517C97.3764 66.0647 97.4368 66.058 97.4916 66.0324C97.5465 66.0069 97.5934 65.9635 97.6263 65.908C97.6593 65.8524 97.6769 65.7871 97.6769 65.7202C97.6769 65.6306 97.6453 65.5446 97.589 65.4813C97.5327 65.4179 97.4564 65.3823 97.3768 65.3823ZM101.035 65.3823C100.976 65.3823 100.918 65.4021 100.869 65.4392C100.819 65.4764 100.781 65.5291 100.758 65.5909C100.735 65.6526 100.729 65.7206 100.741 65.7861C100.753 65.8517 100.781 65.9119 100.823 65.9592C100.865 66.0064 100.919 66.0386 100.977 66.0517C101.035 66.0647 101.095 66.058 101.15 66.0324C101.205 66.0069 101.252 65.9635 101.285 65.908C101.318 65.8524 101.336 65.7871 101.336 65.7202C101.336 65.675 101.328 65.6303 101.312 65.5886C101.296 65.547 101.273 65.5093 101.245 65.4778C101.216 65.4463 101.182 65.4216 101.144 65.4052C101.107 65.3888 101.067 65.381 101.027 65.3823H101.035ZM104.694 65.3823C104.635 65.3823 104.577 65.4021 104.527 65.4392C104.478 65.4764 104.44 65.5291 104.417 65.5909C104.394 65.6526 104.388 65.7206 104.4 65.7861C104.411 65.8517 104.44 65.9119 104.482 65.9592C104.524 66.0064 104.577 66.0386 104.636 66.0517C104.694 66.0647 104.754 66.058 104.809 66.0324C104.864 66.0069 104.911 65.9635 104.944 65.908C104.977 65.8524 104.994 65.7871 104.994 65.7202C104.994 65.675 104.986 65.6303 104.971 65.5886C104.955 65.547 104.932 65.5093 104.903 65.4778C104.875 65.4463 104.84 65.4216 104.803 65.4052C104.766 65.3888 104.726 65.381 104.686 65.3823H104.694ZM95.5474 62.4396H95.4908C95.5474 62.6532 95.6041 62.87 95.6635 63.0772C95.7218 63.0435 95.7686 62.9892 95.7969 62.9227C95.8253 62.8562 95.8335 62.7811 95.8203 62.7088C95.8071 62.6366 95.7734 62.5712 95.7241 62.5225C95.6748 62.4739 95.6128 62.4448 95.5474 62.4396ZM99.2061 62.4396C99.1467 62.4396 99.0887 62.4594 99.0393 62.4966C98.99 62.5337 98.9515 62.5865 98.9288 62.6482C98.9061 62.71 98.9001 62.7779 98.9117 62.8435C98.9233 62.909 98.9519 62.9692 98.9939 63.0165C99.0358 63.0638 99.0893 63.096 99.1475 63.109C99.2058 63.122 99.2661 63.1153 99.321 63.0898C99.3758 63.0642 99.4227 63.0209 99.4557 62.9653C99.4887 62.9097 99.5063 62.8444 99.5063 62.7775C99.5063 62.7324 99.4983 62.6876 99.4826 62.646C99.467 62.6043 99.4441 62.5666 99.4154 62.5351C99.3866 62.5036 99.3525 62.4789 99.3151 62.4625C99.2777 62.4461 99.2377 62.4383 99.1976 62.4396H99.2061ZM102.865 62.4396C102.805 62.4396 102.747 62.4594 102.698 62.4966C102.649 62.5337 102.61 62.5865 102.587 62.6482C102.565 62.71 102.559 62.7779 102.57 62.8435C102.582 62.909 102.611 62.9692 102.653 63.0165C102.695 63.0638 102.748 63.096 102.806 63.109C102.864 63.122 102.925 63.1153 102.98 63.0898C103.034 63.0642 103.081 63.0209 103.114 62.9653C103.147 62.9097 103.165 62.8444 103.165 62.7775C103.165 62.7324 103.157 62.6876 103.141 62.646C103.126 62.6043 103.103 62.5666 103.074 62.5351C103.045 62.5036 103.011 62.4789 102.974 62.4625C102.936 62.4461 102.896 62.4383 102.856 62.4396H102.865ZM101.035 71.2931C100.956 71.2931 100.879 71.3287 100.823 71.3921C100.767 71.4555 100.735 71.5414 100.735 71.631C100.735 71.7207 100.767 71.8066 100.823 71.87C100.879 71.9334 100.956 71.969 101.035 71.969C101.115 71.969 101.191 71.9334 101.248 71.87C101.304 71.8066 101.336 71.7207 101.336 71.631C101.336 71.5414 101.304 71.4555 101.248 71.3921C101.191 71.3287 101.115 71.2931 101.035 71.2931ZM104.694 71.2931C104.615 71.2931 104.538 71.3287 104.482 71.3921C104.426 71.4555 104.394 71.5414 104.394 71.631C104.394 71.7207 104.426 71.8066 104.482 71.87C104.538 71.9334 104.615 71.969 104.694 71.969C104.774 71.969 104.85 71.9334 104.906 71.87C104.963 71.8066 104.994 71.7207 104.994 71.631C104.994 71.5414 104.963 71.4555 104.906 71.3921C104.85 71.3287 104.774 71.2931 104.694 71.2931ZM99.2061 68.3504C99.1265 68.3504 99.0501 68.386 98.9939 68.4494C98.9376 68.5128 98.9059 68.5988 98.9059 68.6884C98.9059 68.778 98.9376 68.864 98.9939 68.9273C99.0501 68.9907 99.1265 69.0263 99.2061 69.0263C99.2857 69.0263 99.3621 68.9907 99.4184 68.9273C99.4746 68.864 99.5063 68.778 99.5063 68.6884C99.5063 68.5988 99.4746 68.5128 99.4184 68.4494C99.3621 68.386 99.2857 68.3504 99.2061 68.3504ZM102.865 68.3504C102.785 68.3504 102.709 68.386 102.653 68.4494C102.596 68.5128 102.565 68.5988 102.565 68.6884C102.565 68.778 102.596 68.864 102.653 68.9273C102.709 68.9907 102.785 69.0263 102.865 69.0263C102.944 69.0263 103.021 68.9907 103.077 68.9273C103.133 68.864 103.165 68.778 103.165 68.6884C103.165 68.5988 103.133 68.5128 103.077 68.4494C103.021 68.386 102.944 68.3504 102.865 68.3504ZM106.523 68.3504C106.464 68.3511 106.406 68.3714 106.357 68.4089C106.308 68.4465 106.27 68.4994 106.248 68.5613C106.226 68.6231 106.22 68.6909 106.232 68.7562C106.244 68.8216 106.273 68.8815 106.315 68.9285C106.357 68.9754 106.411 69.0073 106.469 69.0201C106.527 69.0328 106.587 69.026 106.642 69.0003C106.696 68.9746 106.743 68.9313 106.776 68.8758C106.809 68.8203 106.826 68.7551 106.826 68.6884C106.826 68.643 106.818 68.5982 106.802 68.5566C106.786 68.5149 106.763 68.4773 106.734 68.4458C106.705 68.4143 106.67 68.3897 106.633 68.3733C106.595 68.3569 106.555 68.3492 106.515 68.3504H106.523ZM99.2061 74.2613C99.1267 74.2621 99.0508 74.298 98.9947 74.3612C98.9385 74.4244 98.9067 74.5099 98.9059 74.5992C98.9034 74.6704 98.9221 74.7404 98.9591 74.7982C98.996 74.856 99.0491 74.8982 99.1098 74.918L99.4893 74.7108C99.5008 74.675 99.5066 74.6373 99.5063 74.5992C99.5063 74.554 99.4983 74.5093 99.4826 74.4676C99.467 74.426 99.4441 74.3883 99.4154 74.3568C99.3866 74.3253 99.3525 74.3006 99.3151 74.2842C99.2777 74.2678 99.2377 74.26 99.1976 74.2613H99.2061Z" fill="white"/>
<path d="M92.9057 51.9096C93.3645 55.2604 98.9403 75.0205 98.9403 75.0205C99.0904 74.8739 103.505 72.6199 106.207 71.2617L94.5 49.0467C93.1917 48.0583 92.5291 49.1582 92.9057 51.9096Z" fill="#C7C7C7"/>
<path d="M105.71 68.5453C105.732 68.5453 105.752 68.5708 105.732 68.5835C104.6 69.3104 99.3863 71.9502 98.6699 72.2053C98.6472 72.2053 98.633 72.1734 98.6529 72.1638C101.06 70.8025 103.45 69.5017 105.71 68.5453Z" fill="#263238"/>
<path d="M92.8846 48.4755C92.8846 48.7943 91.8906 51.1121 90.6191 51.3162C90.2029 51.3831 89.7696 48.839 89.7696 48.839L89.7016 48.6572L88.7332 46.1386L91.143 43.5689L91.4942 43.2214C91.4942 43.2214 91.7207 43.9292 91.9925 44.8155C91.9925 44.857 92.018 44.8952 92.0294 44.9398L92.0775 45.0833L92.1993 45.485C92.2304 45.587 92.2616 45.6891 92.2899 45.8038C92.3182 45.9186 92.3494 46.0174 92.3805 46.1227C92.5963 46.893 92.7648 47.6791 92.8846 48.4755Z" fill="#F7A9A0"/>
<path d="M91.9982 44.8155C91.887 45.6047 91.6244 46.3572 91.2288 47.0207C90.8332 47.6841 90.314 48.2426 89.7072 48.6572L88.7388 46.1386L91.1486 43.5689L91.4998 43.2214C91.4998 43.2214 91.715 43.9292 91.9982 44.8155Z" fill="#263238"/>
<path d="M84.8057 42.6372C84.9699 47.4513 87.5384 47.9327 88.47 47.8434C89.3054 47.7605 92.1514 47.5597 92.4346 42.7424C92.7177 37.9251 90.6732 36.5 88.7532 36.4713C86.8333 36.4426 84.633 37.823 84.8057 42.6372Z" fill="#F7A9A0"/>
<path d="M84.9835 41.5886C85.0798 41.5604 85.1744 41.5252 85.2667 41.4834C85.3705 41.4643 85.4654 41.4058 85.5357 41.3177C85.5535 41.2856 85.5612 41.2478 85.5576 41.2103C85.554 41.1727 85.5393 41.1376 85.5159 41.1106C85.4628 41.0639 85.3996 41.0342 85.3328 41.0247C85.266 41.0152 85.1981 41.0261 85.1364 41.0564C85.0032 41.096 84.8875 41.1889 84.8108 41.3177C84.7959 41.3483 84.789 41.3829 84.7908 41.4177C84.7927 41.4525 84.8033 41.486 84.8213 41.5144C84.8394 41.5427 84.8642 41.5647 84.8929 41.5778C84.9216 41.5909 84.953 41.5947 84.9835 41.5886Z" fill="#263238"/>
<path d="M87.7488 41.4227C87.6468 41.4227 87.5534 41.4004 87.4656 41.3877C87.3642 41.39 87.2649 41.3553 87.1824 41.2889C87.159 41.2618 87.1443 41.2267 87.1408 41.1892C87.1372 41.1516 87.1449 41.1138 87.1626 41.0817C87.2058 41.024 87.2619 40.9802 87.3251 40.955C87.3883 40.9298 87.4564 40.924 87.5222 40.9383C87.6602 40.9453 87.7911 41.0088 87.8904 41.1168C87.914 41.1442 87.9294 41.1793 87.9344 41.2171C87.9393 41.2549 87.9335 41.2935 87.9178 41.3273C87.9021 41.3612 87.8774 41.3887 87.847 41.4058C87.8167 41.4229 87.7823 41.4289 87.7488 41.4227Z" fill="#263238"/>
<path d="M87.2315 42.6755C87.2315 42.6755 87.2569 42.6755 87.2569 42.7042C87.2739 43.0229 87.3391 43.4021 87.6109 43.485V43.5041C87.2853 43.485 87.2003 42.9878 87.2315 42.6755Z" fill="#263238"/>
<path d="M87.4661 42.3093C87.9305 42.2264 88.0466 43.2653 87.6161 43.3545C87.1857 43.4438 87.0781 42.3826 87.4661 42.3093Z" fill="#263238"/>
<path d="M87.6545 42.3409C87.7423 42.3887 87.8329 42.4811 87.9377 42.4779C88.0425 42.4747 88.1274 42.3536 88.1897 42.2389C88.1897 42.2389 88.1897 42.2389 88.2067 42.2389C88.2322 42.4397 88.1869 42.6532 87.9972 42.7105C87.8075 42.7679 87.68 42.6022 87.6149 42.4078C87.5951 42.3791 87.6177 42.3217 87.6545 42.3409Z" fill="#263238"/>
<path d="M85.6626 42.7214C85.6626 42.7214 85.64 42.7406 85.6428 42.7533C85.6909 43.072 85.6966 43.4544 85.4474 43.601C85.4474 43.601 85.4474 43.6233 85.4474 43.6201C85.7702 43.515 85.7532 43.0114 85.6626 42.7214Z" fill="#263238"/>
<path d="M85.3626 42.4015C84.8925 42.4334 84.9803 43.485 85.4136 43.4595C85.8469 43.434 85.7676 42.4015 85.3626 42.4015Z" fill="#263238"/>
<path d="M85.1717 42.5008C85.1009 42.5646 85.0358 42.6762 84.948 42.6921C84.8602 42.708 84.7611 42.6028 84.6875 42.5008H84.6733C84.6733 42.7017 84.7611 42.9057 84.9367 42.928C85.1123 42.9503 85.1972 42.7622 85.2199 42.555C85.2284 42.5295 85.2 42.4753 85.1717 42.5008Z" fill="#263238"/>
<path d="M87.5164 45.1884C87.4597 45.2774 87.4059 45.395 87.304 45.4236C87.1971 45.4417 87.0881 45.4341 86.984 45.4014C86.984 45.4014 86.967 45.4014 86.984 45.4204C87.0342 45.4766 87.0973 45.5161 87.1662 45.5346C87.2352 45.5531 87.3074 45.5499 87.3748 45.5253C87.4297 45.4981 87.4763 45.4536 87.509 45.3972C87.5417 45.3407 87.559 45.2748 87.5588 45.2075C87.5475 45.1788 87.5249 45.1757 87.5164 45.1884Z" fill="#263238"/>
<path d="M86.1835 44.1653C86.1724 44.4063 86.1724 44.6479 86.1835 44.889C86.1835 44.9081 86.2345 44.9145 86.3052 44.9081C86.4837 44.9217 86.6621 44.8798 86.8209 44.787C86.9797 44.6942 87.1128 44.5542 87.2058 44.3821C87.2071 44.3771 87.207 44.3718 87.2055 44.3668C87.2041 44.3619 87.2013 44.3575 87.1976 44.3544C87.1939 44.3513 87.1895 44.3495 87.1848 44.3493C87.1802 44.3491 87.1757 44.3506 87.1718 44.3534C86.9339 44.5854 86.6361 44.7251 86.3222 44.7519C86.3024 44.6913 86.3675 43.907 86.3222 43.907C86.1662 43.944 86.0149 44.0029 85.872 44.0824C85.872 43.0526 86.0107 42.0324 85.9937 41.0058C85.9919 40.9994 85.9883 40.9939 85.9835 40.9899C85.9786 40.986 85.9728 40.9839 85.9668 40.9839C85.9609 40.9839 85.9551 40.986 85.9502 40.9899C85.9454 40.9939 85.9418 40.9994 85.9399 41.0058C85.7644 42.0974 85.6866 43.206 85.7077 44.3151C85.7049 44.4395 86.107 44.2131 86.1835 44.1653Z" fill="#263238"/>
<path d="M86.3353 44.7292C86.4598 44.9136 86.6247 45.0586 86.8139 45.1498C86.9177 45.1956 87.0316 45.2034 87.1396 45.1721C87.3746 45.102 87.3831 44.8534 87.3378 44.6495C87.314 44.539 87.2789 44.4321 87.233 44.3308C86.9796 44.5687 86.6648 44.7084 86.3353 44.7292Z" fill="#263238"/>
<path d="M86.7996 45.1504C86.9033 45.1962 87.0173 45.204 87.1252 45.1727C87.3603 45.1026 87.3687 44.854 87.3234 44.65C87.1995 44.6573 87.081 44.7102 86.9864 44.8006C86.8917 44.891 86.8261 45.0139 86.7996 45.1504Z" fill="#FF9BBC"/>
<path d="M115.944 125.434C116.264 126.139 116.575 126.837 116.873 127.516C117.061 127.941 117.24 128.353 117.408 128.75C118.518 131.32 119.302 133.325 119.175 133.577C118.778 134.355 103.215 143.68 102.575 143.805C101.935 143.929 101.584 141.876 101.932 140.974C102.144 140.422 103.914 137.785 105.254 135.79C106.123 134.514 106.82 133.507 106.82 133.507L105.803 131.476L101.156 122.23L111.583 116.023C111.583 116.023 113.877 120.831 115.944 125.434Z" fill="#F7A9A0"/>
<path d="M102.576 143.804C103.216 143.683 118.783 134.351 119.176 133.573C119.306 133.325 118.519 131.319 117.409 128.747C117.333 128.565 117.251 128.38 117.168 128.192C115.169 129.547 108.302 136.124 104.946 137.437C103.746 137.909 104.864 136.36 104.864 136.36C103.584 138.25 102.126 140.463 101.933 140.96C101.585 141.872 101.936 143.922 102.576 143.804Z" fill="#263238"/>
<path d="M103.568 130.841C103.444 130.771 96.1432 113.195 94.3053 106.653C91.9181 98.1529 89.0807 81.9125 88.435 78.6606C87.1063 74.9153 86.2043 70.9956 85.7505 66.9951H99.7254C99.7254 66.9951 103.39 74.889 101.501 80.4651C101.342 80.9784 104.302 98.5132 105.652 101.701C106.822 104.462 115.368 123.642 115.598 123.776L103.568 130.841Z" fill="#37474F"/>
<path d="M113.405 121.225C112.014 121.863 106.64 124.923 105.3 125.689L104.204 126.326C103.829 126.523 103.468 126.751 103.123 127.009C103.103 127.024 103.123 127.063 103.145 127.056C103.486 126.937 103.818 126.789 104.139 126.613C104.485 126.444 104.827 126.269 105.167 126.09C105.852 125.74 112.708 121.783 113.422 121.263C113.424 121.26 113.425 121.256 113.425 121.251C113.425 121.247 113.424 121.243 113.423 121.239C113.421 121.235 113.418 121.232 113.415 121.23C113.412 121.227 113.409 121.226 113.405 121.225Z" fill="#263238"/>
<path d="M104.517 125.412C103.339 122.434 97.6981 106.921 96.707 103.5C95.7159 100.079 94.8975 96.6547 94.1187 93.1955C93.3258 89.6886 92.5811 86.1497 91.8193 82.6236C91.0491 79.0465 90.293 75.4566 89.7181 71.8349C89.6445 71.3758 89.5737 70.9167 89.5029 70.4576C89.5029 70.4257 89.4491 70.4321 89.4548 70.4576C89.9135 74.1144 90.5422 77.7425 91.2586 81.3452C91.9751 84.9478 92.7481 88.4771 93.5382 92.0287C94.3085 95.5101 95.1268 98.9788 96.0868 102.403C97.0468 105.827 104.064 125.039 104.477 125.434C104.5 125.463 104.531 125.444 104.517 125.412Z" fill="#263238"/>
<path d="M85.7483 66.9955C86.2041 70.9969 87.107 74.9175 88.4357 78.6641C88.9227 81.1222 90.6671 91.0119 92.5191 99.3648L99.7232 66.9923C99.7232 66.9923 85.7483 66.9859 85.7483 66.9955Z" fill="#263238"/>
<path d="M91.9965 134.497C91.9965 135.291 91.9711 136.072 91.9541 136.828C91.9541 137.3 91.9286 137.759 91.9144 138.202C91.8295 141.055 91.6907 143.242 91.4727 143.399C90.8015 143.877 73.168 143.934 72.5506 143.718C71.9333 143.501 72.477 141.486 73.1595 140.874C73.5729 140.501 76.2291 139.088 78.2567 138.039C79.5536 137.37 80.5872 136.844 80.5872 136.844L80.5306 134.513L80.3862 123.89H92.0334C92.0334 123.89 92.0787 129.352 91.9965 134.497Z" fill="#F7A9A0"/>
<path d="M94.0802 81.0708C94.0802 81.0708 92.8852 93.8234 92.3274 100.257C92.1858 101.851 92.0895 103.066 92.0442 103.586C92.0442 103.79 92.0215 107.124 92.0159 111.486C92.0159 115.312 92.8654 133.019 92.8654 133.019H79.6466C79.6466 133.019 80.213 105.482 80.4112 102.374C80.4367 102.014 80.4565 101.641 80.4792 101.261C81.0002 92.4621 81.2862 79.6521 85.1205 66.9951H99.7467C99.7467 66.9951 100.106 74.3279 97.1018 79.7031C97.0961 79.7031 94.9524 80.5193 94.0802 81.0708Z" fill="#37474F"/>
<path d="M91.8778 129.802C90.3769 129.697 84.3594 129.802 82.8557 129.824L81.6239 129.856C81.2092 129.847 80.7946 129.874 80.3835 129.935C80.3581 129.935 80.3609 129.986 80.3835 129.989C80.7359 130.05 81.0918 130.081 81.4483 130.082C81.8259 130.098 82.2034 130.111 82.581 130.12C83.3314 130.139 91.0339 129.964 91.8778 129.85C91.9061 129.843 91.9061 129.802 91.8778 129.802Z" fill="#263238"/>
<path d="M86.9267 68.7905C85.9393 72.5148 85.1302 76.2961 84.5027 80.118C83.8797 83.9151 83.3926 87.7409 83.0217 91.5795C82.645 95.4722 82.3845 99.3777 82.209 103.286C82.0334 107.195 81.9569 111.091 81.9513 114.996C81.9456 118.902 81.9031 128.562 81.9286 129.05C81.9286 129.082 81.9739 129.082 81.9739 129.05C81.9937 125.167 82.2373 120.4 82.2429 116.517C82.2486 112.634 82.3137 108.706 82.4553 104.804C82.5969 100.902 82.8178 97.0567 83.1548 93.199C83.4918 89.3414 83.9477 85.4295 84.5452 81.5782C85.1427 77.7269 85.845 73.9809 86.6634 70.2284C86.7681 69.7534 86.8757 69.272 86.9862 68.8065C86.9865 68.7984 86.9842 68.7904 86.9799 68.7839C86.9755 68.7774 86.9693 68.7729 86.9623 68.771C86.9552 68.7691 86.9479 68.77 86.9414 68.7736C86.9349 68.7771 86.9297 68.7831 86.9267 68.7905Z" fill="#263238"/>
<path d="M98.6782 78.9735C98.2914 79.3812 97.8123 79.6612 97.2935 79.783C96.7441 79.9423 96.1806 80.0379 95.6256 80.1558C94.393 80.4456 93.1423 80.6278 91.8848 80.7008C91.1706 80.75 90.4538 80.6867 89.7552 80.5127C89.7509 80.5146 89.7472 80.5178 89.7445 80.5221C89.7419 80.5264 89.7405 80.5314 89.7405 80.5367C89.7405 80.5419 89.7419 80.5469 89.7445 80.5512C89.7472 80.5555 89.7509 80.5587 89.7552 80.5606C90.3678 80.7792 90.9989 80.9255 91.6384 80.9971C92.2861 81.0519 92.937 81.0316 93.581 80.9366C94.2351 80.8474 94.8865 80.704 95.5321 80.551C96.1156 80.4234 96.6916 80.2552 97.2567 80.0475C97.8192 79.859 98.3242 79.4982 98.715 79.0054C98.7235 78.9831 98.6952 78.9512 98.6782 78.9735Z" fill="#263238"/>
<path d="M72.553 143.708C73.1732 143.935 90.8011 143.877 91.475 143.39C91.6931 143.237 91.8318 141.049 91.9168 138.196C91.9168 137.788 91.9423 137.37 91.9508 136.94C89.7816 137.233 80.448 139.532 76.4495 139.532C75.4782 139.532 77.0159 138.786 76.8318 138.767C75.1582 139.653 73.4847 140.568 73.1505 140.858C72.4794 141.48 71.9385 143.466 72.553 143.708Z" fill="#263238"/>
<path d="M85.2419 62.4014L84.0299 69.7341C84.0299 69.7341 98.4126 69.9605 101.791 69.6927C101.791 69.6927 98.2597 54.2046 94.6265 49.7635C92.8113 47.5318 90.662 47.7072 89.3169 49.2598C88.9742 49.6551 84.8681 55.7604 84.4377 58.0942C84.0667 60.1378 85.2419 62.4014 85.2419 62.4014Z" fill="#F36464"/>
<path d="M86.6917 53.899C86.691 53.9884 86.6591 54.0739 86.603 54.1371C86.5468 54.2003 86.4709 54.2361 86.3915 54.237C86.3204 54.2376 86.2516 54.208 86.199 54.1541C86.3038 53.966 86.4114 53.7811 86.519 53.593C86.5706 53.6202 86.6143 53.6635 86.6449 53.7177C86.6755 53.7719 86.6917 53.8348 86.6917 53.899ZM90.0502 53.5611C89.9909 53.5611 89.9328 53.5809 89.8835 53.618C89.8341 53.6552 89.7956 53.708 89.7729 53.7697C89.7502 53.8315 89.7442 53.8994 89.7558 53.965C89.7674 54.0305 89.796 54.0907 89.838 54.138C89.8799 54.1853 89.9334 54.2174 89.9917 54.2305C90.0499 54.2435 90.1102 54.2368 90.1651 54.2112C90.2199 54.1857 90.2668 54.1424 90.2998 54.0868C90.3328 54.0312 90.3504 53.9659 90.3504 53.899C90.3508 53.8545 90.3433 53.8104 90.3283 53.7692C90.3134 53.728 90.2913 53.6906 90.2633 53.6591C90.2354 53.6277 90.2021 53.6028 90.1655 53.5859C90.1289 53.5691 90.0897 53.5607 90.0502 53.5611ZM93.7089 53.5611C93.6495 53.5611 93.5915 53.5809 93.5421 53.618C93.4928 53.6552 93.4543 53.708 93.4316 53.7697C93.4088 53.8315 93.4029 53.8994 93.4145 53.965C93.4261 54.0305 93.4547 54.0907 93.4966 54.138C93.5386 54.1853 93.5921 54.2174 93.6503 54.2305C93.7086 54.2435 93.7689 54.2368 93.8238 54.2112C93.8786 54.1857 93.9255 54.1424 93.9585 54.0868C93.9915 54.0312 94.0091 53.9659 94.0091 53.899C94.0091 53.8094 93.9774 53.7234 93.9211 53.6601C93.8649 53.5967 93.7885 53.5611 93.7089 53.5611ZM88.3483 50.6503L88 51.1859C88.0301 51.2223 88.067 51.2508 88.108 51.2694C88.1491 51.2879 88.1932 51.296 88.2374 51.293C88.2815 51.2901 88.3245 51.2762 88.3633 51.2524C88.4021 51.2286 88.4358 51.1955 88.4619 51.1553C88.488 51.1151 88.5059 51.069 88.5144 51.0201C88.5228 50.9713 88.5216 50.9209 88.5107 50.8727C88.4999 50.8244 88.4797 50.7795 88.4516 50.7411C88.4235 50.7026 88.3883 50.6716 88.3483 50.6503ZM91.8796 50.6184C91.8202 50.6184 91.7622 50.6382 91.7128 50.6754C91.6634 50.7125 91.625 50.7653 91.6022 50.827C91.5795 50.8888 91.5736 50.9567 91.5851 51.0223C91.5967 51.0878 91.6253 51.1481 91.6673 51.1953C91.7093 51.2426 91.7628 51.2748 91.821 51.2878C91.8792 51.3009 91.9396 51.2942 91.9944 51.2686C92.0493 51.243 92.0961 51.1997 92.1291 51.1441C92.1621 51.0885 92.1797 51.0232 92.1797 50.9564C92.1801 50.9119 92.1726 50.8677 92.1576 50.8265C92.1427 50.7853 92.1206 50.7479 92.0926 50.7165C92.0647 50.685 92.0315 50.6601 91.9949 50.6433C91.9583 50.6264 91.9191 50.618 91.8796 50.6184ZM95.3202 50.7268C95.2936 50.757 95.2726 50.7928 95.2585 50.8323C95.2444 50.8717 95.2375 50.9139 95.2381 50.9564C95.2388 51.0457 95.2707 51.1312 95.3268 51.1944C95.3829 51.2576 95.4589 51.2935 95.5382 51.2943C95.575 51.2948 95.6116 51.2872 95.6458 51.272C95.5382 51.0839 95.4278 50.899 95.3202 50.7268ZM86.3915 59.4719C86.3119 59.4719 86.2356 59.5075 86.1793 59.5709C86.123 59.6343 86.0914 59.7202 86.0914 59.8099C86.0914 59.8995 86.123 59.9855 86.1793 60.0488C86.2356 60.1122 86.3119 60.1478 86.3915 60.1478C86.4712 60.1478 86.5475 60.1122 86.6038 60.0488C86.6601 59.9855 86.6917 59.8995 86.6917 59.8099C86.6917 59.7202 86.6601 59.6343 86.6038 59.5709C86.5475 59.5075 86.4712 59.4719 86.3915 59.4719ZM90.0502 59.4719C89.9909 59.4719 89.9328 59.4917 89.8835 59.5289C89.8341 59.566 89.7956 59.6188 89.7729 59.6805C89.7502 59.7423 89.7442 59.8102 89.7558 59.8758C89.7674 59.9413 89.796 60.0016 89.838 60.0488C89.8799 60.0961 89.9334 60.1283 89.9917 60.1413C90.0499 60.1544 90.1102 60.1477 90.1651 60.1221C90.2199 60.0965 90.2668 60.0532 90.2998 59.9976C90.3328 59.942 90.3504 59.8767 90.3504 59.8099C90.3508 59.7654 90.3433 59.7212 90.3283 59.68C90.3134 59.6388 90.2913 59.6014 90.2633 59.57C90.2354 59.5385 90.2021 59.5136 90.1655 59.4968C90.1289 59.4799 90.0897 59.4715 90.0502 59.4719ZM93.7089 59.4719C93.6495 59.4719 93.5915 59.4917 93.5421 59.5289C93.4928 59.566 93.4543 59.6188 93.4316 59.6805C93.4088 59.7423 93.4029 59.8102 93.4145 59.8758C93.4261 59.9413 93.4547 60.0016 93.4966 60.0488C93.5386 60.0961 93.5921 60.1283 93.6503 60.1413C93.7086 60.1544 93.7689 60.1477 93.8238 60.1221C93.8786 60.0965 93.9255 60.0532 93.9585 59.9976C93.9915 59.942 94.0091 59.8767 94.0091 59.8099C94.0091 59.7202 93.9774 59.6343 93.9211 59.5709C93.8649 59.5075 93.7885 59.4719 93.7089 59.4719ZM97.3676 59.4719C97.3079 59.47 97.249 59.4882 97.1985 59.5242C97.1481 59.5601 97.1083 59.6122 97.0843 59.6738C97.0602 59.7353 97.0531 59.8036 97.0637 59.8697C97.0743 59.9359 97.1022 59.997 97.1438 60.0452C97.1854 60.0935 97.2389 60.1266 97.2973 60.1404C97.3558 60.1543 97.4165 60.1482 97.4719 60.1229C97.5272 60.0976 97.5746 60.0543 97.608 59.9986C97.6414 59.9428 97.6592 59.8771 97.6592 59.8099C97.6594 59.7235 97.6301 59.6403 97.5774 59.5774C97.5247 59.5146 97.4527 59.4768 97.3761 59.4719H97.3676ZM84.8567 56.8003C84.8057 56.9214 84.7576 57.0425 84.7151 57.1573C84.7595 57.127 84.7963 57.0845 84.8221 57.0337C84.8479 56.983 84.8617 56.9257 84.8624 56.8672C84.862 56.8448 84.8601 56.8224 84.8567 56.8003ZM88.2209 56.5293C88.1413 56.5293 88.0649 56.5649 88.0086 56.6282C87.9523 56.6916 87.9207 56.7776 87.9207 56.8672C87.9207 56.9568 87.9523 57.0428 88.0086 57.1062C88.0649 57.1695 88.1413 57.2051 88.2209 57.2051C88.3005 57.2051 88.3768 57.1695 88.4331 57.1062C88.4894 57.0428 88.5211 56.9568 88.5211 56.8672C88.5211 56.7776 88.4894 56.6916 88.4331 56.6282C88.3768 56.5649 88.3005 56.5293 88.2209 56.5293ZM91.8796 56.5293C91.8202 56.5293 91.7622 56.5491 91.7128 56.5862C91.6634 56.6233 91.625 56.6761 91.6022 56.7379C91.5795 56.7996 91.5736 56.8676 91.5851 56.9331C91.5967 56.9987 91.6253 57.0589 91.6673 57.1062C91.7093 57.1534 91.7628 57.1856 91.821 57.1987C91.8792 57.2117 91.9396 57.205 91.9944 57.1794C92.0493 57.1538 92.0961 57.1105 92.1291 57.055C92.1621 56.9994 92.1797 56.934 92.1797 56.8672C92.1801 56.8227 92.1726 56.7786 92.1576 56.7374C92.1427 56.6962 92.1206 56.6588 92.0926 56.6273C92.0647 56.5958 92.0315 56.5709 91.9949 56.5541C91.9583 56.5373 91.9191 56.5288 91.8796 56.5293ZM95.5382 56.5293C95.4789 56.5293 95.4208 56.5491 95.3715 56.5862C95.3221 56.6233 95.2836 56.6761 95.2609 56.7379C95.2382 56.7996 95.2322 56.8676 95.2438 56.9331C95.2554 56.9987 95.284 57.0589 95.326 57.1062C95.368 57.1534 95.4214 57.1856 95.4797 57.1987C95.5379 57.2117 95.5983 57.205 95.6531 57.1794C95.708 57.1538 95.7548 57.1105 95.7878 57.055C95.8208 56.9994 95.8384 56.934 95.8384 56.8672C95.8384 56.8228 95.8306 56.7789 95.8156 56.7379C95.8005 56.6969 95.7784 56.6596 95.7505 56.6282C95.7226 56.5969 95.6895 56.572 95.6531 56.555C95.6167 56.538 95.5777 56.5293 95.5382 56.5293ZM86.3915 65.3828C86.3322 65.3828 86.2741 65.4026 86.2248 65.4397C86.1754 65.4768 86.1369 65.5296 86.1142 65.5914C86.0915 65.6531 86.0856 65.7211 86.0971 65.7866C86.1087 65.8522 86.1373 65.9124 86.1793 65.9597C86.2213 66.0069 86.2748 66.0391 86.333 66.0522C86.3912 66.0652 86.4516 66.0585 86.5064 66.0329C86.5613 66.0073 86.6081 65.964 86.6411 65.9085C86.6741 65.8529 86.6917 65.7875 86.6917 65.7207C86.6921 65.6762 86.6846 65.6321 86.6696 65.5909C86.6547 65.5497 86.6326 65.5123 86.6046 65.4808C86.5767 65.4493 86.5434 65.4244 86.5069 65.4076C86.4703 65.3908 86.4311 65.3823 86.3915 65.3828ZM90.0502 65.3828C89.9909 65.3828 89.9328 65.4026 89.8835 65.4397C89.8341 65.4768 89.7956 65.5296 89.7729 65.5914C89.7502 65.6531 89.7442 65.7211 89.7558 65.7866C89.7674 65.8522 89.796 65.9124 89.838 65.9597C89.8799 66.0069 89.9334 66.0391 89.9917 66.0522C90.0499 66.0652 90.1102 66.0585 90.1651 66.0329C90.2199 66.0073 90.2668 65.964 90.2998 65.9085C90.3328 65.8529 90.3504 65.7875 90.3504 65.7207C90.3508 65.6762 90.3433 65.6321 90.3283 65.5909C90.3134 65.5497 90.2913 65.5123 90.2633 65.4808C90.2354 65.4493 90.2021 65.4244 90.1655 65.4076C90.1289 65.3908 90.0897 65.3823 90.0502 65.3828ZM93.7089 65.3828C93.6495 65.3828 93.5915 65.4026 93.5421 65.4397C93.4928 65.4768 93.4543 65.5296 93.4316 65.5914C93.4088 65.6531 93.4029 65.7211 93.4145 65.7866C93.4261 65.8522 93.4547 65.9124 93.4966 65.9597C93.5386 66.0069 93.5921 66.0391 93.6503 66.0522C93.7086 66.0652 93.7689 66.0585 93.8238 66.0329C93.8786 66.0073 93.9255 65.964 93.9585 65.9085C93.9915 65.8529 94.0091 65.7875 94.0091 65.7207C94.0091 65.6763 94.0013 65.6324 93.9862 65.5914C93.9711 65.5504 93.949 65.5131 93.9211 65.4817C93.8933 65.4504 93.8602 65.4255 93.8238 65.4085C93.7873 65.3915 93.7483 65.3828 93.7089 65.3828ZM97.3676 65.3828C97.3082 65.3828 97.2502 65.4026 97.2008 65.4397C97.1514 65.4768 97.113 65.5296 97.0902 65.5914C97.0675 65.6531 97.0616 65.7211 97.0732 65.7866C97.0847 65.8522 97.1133 65.9124 97.1553 65.9597C97.1973 66.0069 97.2508 66.0391 97.309 66.0522C97.3672 66.0652 97.4276 66.0585 97.4824 66.0329C97.5373 66.0073 97.5842 65.964 97.6171 65.9085C97.6501 65.8529 97.6677 65.7875 97.6677 65.7207C97.6678 65.6327 97.6373 65.5482 97.5828 65.4851C97.5284 65.4219 97.4542 65.3852 97.3761 65.3828H97.3676ZM100.766 65.5677C100.743 65.6147 100.732 65.6673 100.732 65.7207C100.73 65.78 100.744 65.8386 100.77 65.8898C100.797 65.9411 100.835 65.983 100.882 66.0108L100.766 65.5677ZM88.2265 62.4401C88.1672 62.4401 88.1091 62.4599 88.0598 62.497C88.0104 62.5342 87.9719 62.587 87.9492 62.6487C87.9265 62.7105 87.9206 62.7784 87.9321 62.844C87.9437 62.9095 87.9723 62.9697 88.0143 63.017C88.0563 63.0643 88.1098 63.0964 88.168 63.1095C88.2262 63.1225 88.2866 63.1158 88.3414 63.0903C88.3963 63.0647 88.4431 63.0214 88.4761 62.9658C88.5091 62.9102 88.5267 62.8449 88.5267 62.778C88.5271 62.733 88.5194 62.6883 88.5041 62.6467C88.4888 62.6051 88.4662 62.5674 88.4377 62.5358C88.4091 62.5042 88.3752 62.4795 88.3379 62.4631C88.3007 62.4466 88.2609 62.4388 88.2209 62.4401H88.2265ZM91.8852 62.4401C91.8258 62.4401 91.7678 62.4599 91.7185 62.497C91.6691 62.5342 91.6306 62.587 91.6079 62.6487C91.5852 62.7105 91.5792 62.7784 91.5908 62.844C91.6024 62.9095 91.631 62.9697 91.673 63.017C91.7149 63.0643 91.7684 63.0964 91.8267 63.1095C91.8849 63.1225 91.9452 63.1158 92.0001 63.0903C92.0549 63.0647 92.1018 63.0214 92.1348 62.9658C92.1678 62.9102 92.1854 62.8449 92.1854 62.778C92.1858 62.733 92.1781 62.6883 92.1628 62.6467C92.1475 62.6051 92.1249 62.5674 92.0963 62.5358C92.0678 62.5042 92.0339 62.4795 91.9966 62.4631C91.9594 62.4466 91.9195 62.4388 91.8796 62.4401H91.8852ZM95.5439 62.4401C95.4845 62.4401 95.4265 62.4599 95.3771 62.497C95.3278 62.5342 95.2893 62.587 95.2666 62.6487C95.2439 62.7105 95.2379 62.7784 95.2495 62.844C95.2611 62.9095 95.2897 62.9697 95.3316 63.017C95.3736 63.0643 95.4271 63.0964 95.4853 63.1095C95.5436 63.1225 95.6039 63.1158 95.6588 63.0903C95.7136 63.0647 95.7605 63.0214 95.7935 62.9658C95.8265 62.9102 95.8441 62.8449 95.8441 62.778C95.8441 62.7331 95.8361 62.6886 95.8207 62.6472C95.8052 62.6058 95.7826 62.5683 95.7542 62.5368C95.7257 62.5053 95.6919 62.4806 95.6548 62.464C95.6178 62.4474 95.5781 62.4392 95.5382 62.4401H95.5439ZM99.2026 62.4401C99.1432 62.4401 99.0852 62.4599 99.0358 62.497C98.9864 62.5342 98.948 62.587 98.9252 62.6487C98.9025 62.7105 98.8966 62.7784 98.9082 62.844C98.9197 62.9095 98.9483 62.9697 98.9903 63.017C99.0323 63.0643 99.0858 63.0964 99.144 63.1095C99.2022 63.1225 99.2626 63.1158 99.3174 63.0903C99.3723 63.0647 99.4192 63.0214 99.4522 62.9658C99.4851 62.9102 99.5027 62.8449 99.5027 62.778C99.5027 62.7331 99.4948 62.6886 99.4794 62.6472C99.4639 62.6058 99.4413 62.5683 99.4128 62.5368C99.3844 62.5053 99.3506 62.4806 99.3135 62.464C99.2764 62.4474 99.2368 62.4392 99.1969 62.4401H99.2026ZM84.5679 68.3509C84.5085 68.3509 84.4505 68.3708 84.4011 68.4079C84.3517 68.445 84.3133 68.4978 84.2905 68.5595C84.2678 68.6213 84.2619 68.6892 84.2735 68.7548C84.2851 68.8204 84.3136 68.8806 84.3556 68.9278C84.3976 68.9751 84.4511 69.0073 84.5093 69.0203C84.5675 69.0334 84.6279 69.0267 84.6827 69.0011C84.7376 68.9755 84.7845 68.9322 84.8175 68.8766C84.8504 68.8211 84.868 68.7557 84.868 68.6889C84.868 68.6439 84.8601 68.5995 84.8447 68.5581C84.8292 68.5166 84.8066 68.4791 84.7781 68.4476C84.7496 68.4162 84.7159 68.3914 84.6788 68.3748C84.6417 68.3582 84.6021 68.3501 84.5622 68.3509H84.5679ZM88.2265 68.3509C88.1672 68.3509 88.1091 68.3708 88.0598 68.4079C88.0104 68.445 87.9719 68.4978 87.9492 68.5595C87.9265 68.6213 87.9206 68.6892 87.9321 68.7548C87.9437 68.8204 87.9723 68.8806 88.0143 68.9278C88.0563 68.9751 88.1098 69.0073 88.168 69.0203C88.2262 69.0334 88.2866 69.0267 88.3414 69.0011C88.3963 68.9755 88.4431 68.9322 88.4761 68.8766C88.5091 68.8211 88.5267 68.7557 88.5267 68.6889C88.5267 68.6439 88.5188 68.5995 88.5033 68.5581C88.4879 68.5166 88.4653 68.4791 88.4368 68.4476C88.4083 68.4162 88.3746 68.3914 88.3375 68.3748C88.3004 68.3582 88.2608 68.3501 88.2209 68.3509H88.2265ZM91.8852 68.3509C91.8258 68.3509 91.7678 68.3708 91.7185 68.4079C91.6691 68.445 91.6306 68.4978 91.6079 68.5595C91.5852 68.6213 91.5792 68.6892 91.5908 68.7548C91.6024 68.8204 91.631 68.8806 91.673 68.9278C91.7149 68.9751 91.7684 69.0073 91.8267 69.0203C91.8849 69.0334 91.9452 69.0267 92.0001 69.0011C92.0549 68.9755 92.1018 68.9322 92.1348 68.8766C92.1678 68.8211 92.1854 68.7557 92.1854 68.6889C92.1854 68.6439 92.1774 68.5995 92.162 68.5581C92.1466 68.5166 92.124 68.4791 92.0955 68.4476C92.067 68.4162 92.0332 68.3914 91.9962 68.3748C91.9591 68.3582 91.9194 68.3501 91.8796 68.3509H91.8852ZM95.5439 68.3509C95.4643 68.3509 95.3879 68.3865 95.3316 68.4499C95.2753 68.5133 95.2437 68.5992 95.2437 68.6889C95.2437 68.7785 95.2753 68.8645 95.3316 68.9278C95.3879 68.9912 95.4643 69.0268 95.5439 69.0268C95.6235 69.0268 95.6999 68.9912 95.7561 68.9278C95.8124 68.8645 95.8441 68.7785 95.8441 68.6889C95.8441 68.5992 95.8124 68.5133 95.7561 68.4499C95.6999 68.3865 95.6235 68.3509 95.5439 68.3509ZM99.2026 68.3509C99.123 68.3509 99.0466 68.3865 98.9903 68.4499C98.934 68.5133 98.9024 68.5992 98.9024 68.6889C98.9024 68.7785 98.934 68.8645 98.9903 68.9278C99.0466 68.9912 99.123 69.0268 99.2026 69.0268C99.2822 69.0268 99.3585 68.9912 99.4148 68.9278C99.4711 68.8645 99.5027 68.7785 99.5027 68.6889C99.5027 68.5992 99.4711 68.5133 99.4148 68.4499C99.3585 68.3865 99.2822 68.3509 99.2026 68.3509Z" fill="white"/>
<path d="M97.3018 54.6792C97.6473 55.5336 97.9758 56.3912 98.2958 57.2584C98.2448 56.997 98.1882 56.7355 98.123 56.4805C98.123 56.4422 98.1655 56.4295 98.1768 56.4805C98.3018 56.8604 98.3882 57.2551 98.4345 57.6569C99.4543 60.4657 100.325 63.34 101.043 66.2649C101.179 66.8165 101.326 67.3712 101.428 67.9291C101.53 68.4871 101.711 69.0864 101.768 69.6762C101.768 69.683 101.765 69.6895 101.761 69.6943C101.757 69.6991 101.751 69.7017 101.745 69.7017C101.739 69.7017 101.733 69.6991 101.729 69.6943C101.725 69.6895 101.722 69.683 101.722 69.6762C101.555 69.1885 101.439 68.6656 101.314 68.1619C101.19 67.6581 101.062 67.2054 100.932 66.7081C100.669 65.7197 100.405 64.7314 100.131 63.7463C99.5871 61.7983 98.9981 59.8759 98.3779 57.9534C98.0296 56.8535 97.6445 55.7695 97.2678 54.6824C97.2593 54.6728 97.2933 54.6568 97.3018 54.6792Z" fill="#263238"/>
<path d="M90.6548 52.0815C89.7713 54.2845 85.1158 63.1444 82.5813 64.1008C78.6168 65.6025 73.7433 64.646 71.1749 64.3814C69.742 64.2315 71.1579 54.5268 72.6899 55.1007C74.7882 55.885 79.8911 56.6278 80.6472 56.6023C81.4033 56.5768 85.0592 52.4131 87.8598 49.9486C90.4565 47.6659 92.116 48.4343 90.6548 52.0815Z" fill="#F7A9A0"/>
<path d="M59.9993 54.44C59.8945 55.8523 64.281 56.05 64.281 56.05C63.919 56.2576 63.6334 56.6018 63.4739 57.0224C63.2219 57.778 64.1648 58.5527 64.1648 58.5527C63.8304 58.8578 63.5849 59.2686 63.4597 59.7323C63.2842 60.4847 64.1365 61.4156 64.1365 61.4156C63.9667 61.8876 63.9526 62.4124 64.0969 62.8949C64.5273 64.1702 66.3397 64.5655 67.495 64.8302C68.6504 65.0948 72.057 64.776 72.9066 64.5815L74.5037 55.8619C72.5109 54.6672 70.3622 53.8364 68.1378 53.4006C66.9853 53.187 60.1324 52.8427 59.9993 54.44Z" fill="#F7A9A0"/>
<path d="M64.3662 55.9287C65.6292 55.6807 66.8922 55.8651 68.158 55.97C68.1614 55.9686 68.1651 55.9681 68.1687 55.9686C68.1723 55.9691 68.1758 55.9706 68.1788 55.9729C68.1818 55.9753 68.1843 55.9784 68.1859 55.982C68.1876 55.9857 68.1885 55.9897 68.1885 55.9938C68.1885 55.9979 68.1876 56.002 68.1859 56.0056C68.1843 56.0092 68.1818 56.0124 68.1788 56.0147C68.1758 56.017 68.1723 56.0185 68.1687 56.0191C68.1651 56.0196 68.1614 56.0191 68.158 56.0177C66.8978 55.9 65.6349 56.0622 64.3719 55.9954C64.3351 55.9954 64.3322 55.935 64.3662 55.9287Z" fill="#263238"/>
<path d="M64.2213 58.4511C64.5138 58.4245 64.8082 58.4427 65.0964 58.5052C65.4022 58.5467 65.7109 58.5945 66.0167 58.6486C66.6284 58.7602 67.24 58.8813 67.846 59.0279C67.8743 59.0279 67.8715 59.082 67.846 59.0757C67.2344 58.9705 66.6227 58.8717 66.0082 58.7952C65.6995 58.757 65.3937 58.7187 65.085 58.6869C64.7925 58.6755 64.502 58.6285 64.2185 58.5467C64.2099 58.5427 64.2026 58.5359 64.1976 58.5272C64.1926 58.5184 64.19 58.5082 64.1903 58.4977C64.1906 58.4873 64.1938 58.4773 64.1993 58.4689C64.2049 58.4606 64.2126 58.4543 64.2213 58.4511Z" fill="#263238"/>
<path d="M64.1711 61.4223C64.4356 61.4016 64.7012 61.434 64.9556 61.5179L65.8051 61.6804C66.3715 61.7856 66.9208 61.8876 67.4815 61.9704C67.507 61.9704 67.5042 62.0246 67.4815 62.0214C66.9151 61.9386 66.3488 61.8685 65.7824 61.7824L64.9329 61.6486C64.6741 61.6348 64.4198 61.5678 64.1825 61.451L64.1711 61.4223Z" fill="#263238"/>
<path d="M74.703 55.3616L74.0149 65.9717C74.0149 65.9717 82.0289 65.3596 83.2975 64.3266C84.8097 63.096 89.9579 55.0268 91.1557 51.7685C92.3536 48.5102 90.7564 47.4135 88.2531 49.5368C85.7498 51.6601 81.2983 55.8398 80.9499 56.0375C80.6016 56.2351 74.703 55.3616 74.703 55.3616Z" fill="#F36464"/>
<path d="M86.6938 53.899C86.6938 53.9886 86.6622 54.0746 86.6059 54.138C86.5496 54.2014 86.4733 54.237 86.3937 54.237C86.314 54.237 86.2377 54.2014 86.1814 54.138C86.1251 54.0746 86.0935 53.9886 86.0935 53.899C86.0935 53.8094 86.1251 53.7234 86.1814 53.6601C86.2377 53.5967 86.314 53.5611 86.3937 53.5611C86.4733 53.5611 86.5496 53.5967 86.6059 53.6601C86.6622 53.7234 86.6938 53.8094 86.6938 53.899ZM90.0523 53.5611C89.9766 53.5622 89.9041 53.5956 89.8493 53.6544C89.7945 53.7132 89.7615 53.7931 89.7568 53.8782C89.7522 53.9633 89.7763 54.0472 89.8242 54.1131C89.8722 54.1791 89.9405 54.2222 90.0155 54.2338L90.2987 53.695C90.271 53.651 90.2339 53.6157 90.1908 53.5923C90.1477 53.5689 90.1001 53.5581 90.0523 53.5611ZM88.223 50.6184C88.1434 50.6184 88.067 50.654 88.0107 50.7174C87.9544 50.7808 87.9228 50.8667 87.9228 50.9564C87.9228 51.046 87.9544 51.1319 88.0107 51.1953C88.067 51.2587 88.1434 51.2943 88.223 51.2943C88.3026 51.2943 88.3789 51.2587 88.4352 51.1953C88.4915 51.1319 88.5232 51.046 88.5232 50.9564C88.5232 50.8667 88.4915 50.7808 88.4352 50.7174C88.3789 50.654 88.3026 50.6184 88.223 50.6184ZM75.4176 59.4719C75.3583 59.4719 75.3002 59.4917 75.2509 59.5289C75.2015 59.566 75.163 59.6188 75.1403 59.6805C75.1176 59.7423 75.1116 59.8102 75.1232 59.8758C75.1348 59.9413 75.1634 60.0016 75.2054 60.0488C75.2474 60.0961 75.3008 60.1283 75.3591 60.1413C75.4173 60.1543 75.4777 60.1477 75.5325 60.1221C75.5873 60.0965 75.6342 60.0532 75.6672 59.9976C75.7002 59.942 75.7178 59.8767 75.7178 59.8099C75.7178 59.7655 75.71 59.7215 75.695 59.6805C75.6799 59.6395 75.6578 59.6023 75.6299 59.5709C75.602 59.5395 75.5689 59.5146 75.5325 59.4976C75.4961 59.4806 75.4571 59.4719 75.4176 59.4719ZM79.0763 59.4719C78.9967 59.4719 78.9203 59.5075 78.864 59.5709C78.8078 59.6343 78.7761 59.7202 78.7761 59.8099C78.7761 59.8995 78.8078 59.9854 78.864 60.0488C78.9203 60.1122 78.9967 60.1478 79.0763 60.1478C79.1559 60.1478 79.2323 60.1122 79.2886 60.0488C79.3448 59.9854 79.3765 59.8995 79.3765 59.8099C79.3765 59.7202 79.3448 59.6343 79.2886 59.5709C79.2323 59.5075 79.1559 59.4719 79.0763 59.4719ZM82.735 59.4719C82.6554 59.4719 82.579 59.5075 82.5227 59.5709C82.4664 59.6343 82.4348 59.7202 82.4348 59.8099C82.4348 59.8995 82.4664 59.9854 82.5227 60.0488C82.579 60.1122 82.6554 60.1478 82.735 60.1478C82.8146 60.1478 82.8909 60.1122 82.9472 60.0488C83.0035 59.9854 83.0352 59.8995 83.0352 59.8099C83.0352 59.7202 83.0035 59.6343 82.9472 59.5709C82.8909 59.5075 82.8146 59.4719 82.735 59.4719ZM86.3937 59.4719C86.314 59.4719 86.2377 59.5075 86.1814 59.5709C86.1251 59.6343 86.0935 59.7202 86.0935 59.8099C86.0935 59.8995 86.1251 59.9854 86.1814 60.0488C86.2377 60.1122 86.314 60.1478 86.3937 60.1478C86.4733 60.1478 86.5496 60.1122 86.6059 60.0488C86.6622 59.9854 86.6938 59.8995 86.6938 59.8099C86.6938 59.7202 86.6622 59.6343 86.6059 59.5709C86.5496 59.5075 86.4733 59.4719 86.3937 59.4719ZM77.247 56.5292C77.1674 56.5292 77.091 56.5648 77.0347 56.6282C76.9784 56.6916 76.9468 56.7776 76.9468 56.8672C76.9468 56.9568 76.9784 57.0428 77.0347 57.1062C77.091 57.1695 77.1674 57.2051 77.247 57.2051C77.3266 57.2051 77.4029 57.1695 77.4592 57.1062C77.5155 57.0428 77.5471 56.9568 77.5471 56.8672C77.5471 56.7776 77.5155 56.6916 77.4592 56.6282C77.4029 56.5648 77.3266 56.5292 77.247 56.5292ZM80.9056 56.5292C80.826 56.5292 80.7497 56.5648 80.6934 56.6282C80.6371 56.6916 80.6055 56.7776 80.6055 56.8672C80.6055 56.9568 80.6371 57.0428 80.6934 57.1062C80.7497 57.1695 80.826 57.2051 80.9056 57.2051C80.9852 57.2051 81.0616 57.1695 81.1179 57.1062C81.1742 57.0428 81.2058 56.9568 81.2058 56.8672C81.2058 56.7776 81.1742 56.6916 81.1179 56.6282C81.0616 56.5648 80.9852 56.5292 80.9056 56.5292ZM84.5643 56.5292C84.4847 56.5292 84.4084 56.5648 84.3521 56.6282C84.2958 56.6916 84.2641 56.7776 84.2641 56.8672C84.2641 56.9568 84.2958 57.0428 84.3521 57.1062C84.4084 57.1695 84.4847 57.2051 84.5643 57.2051C84.6439 57.2051 84.7203 57.1695 84.7766 57.1062C84.8329 57.0428 84.8645 56.9568 84.8645 56.8672C84.8645 56.7776 84.8329 56.6916 84.7766 56.6282C84.7203 56.5648 84.6439 56.5292 84.5643 56.5292ZM88.223 56.5292C88.1434 56.5292 88.067 56.5648 88.0107 56.6282C87.9544 56.6916 87.9228 56.7776 87.9228 56.8672C87.9228 56.9568 87.9544 57.0428 88.0107 57.1062C88.067 57.1695 88.1434 57.2051 88.223 57.2051C88.3026 57.2051 88.3789 57.1695 88.4352 57.1062C88.4915 57.0428 88.5232 56.9568 88.5232 56.8672C88.5232 56.7776 88.4915 56.6916 88.4352 56.6282C88.3789 56.5648 88.3026 56.5292 88.223 56.5292ZM75.4176 65.3827C75.378 65.3823 75.3386 65.3908 75.3019 65.4075C75.2651 65.4243 75.2317 65.4492 75.2035 65.4806C75.1754 65.512 75.153 65.5494 75.1377 65.5906C75.1225 65.6318 75.1146 65.676 75.1146 65.7207C75.1144 65.7741 75.1261 65.8267 75.1486 65.8737L75.715 65.8227C75.724 65.7896 75.7288 65.7553 75.7291 65.7207C75.7292 65.6752 75.721 65.6302 75.7052 65.5883C75.6895 65.5465 75.6663 65.5087 75.6372 65.4771C75.6082 65.4455 75.5737 65.4209 75.536 65.4047C75.4982 65.3885 75.458 65.381 75.4176 65.3827ZM79.0763 65.3827C79.0189 65.382 78.9626 65.4009 78.9149 65.4369L79.1698 65.4019C79.14 65.3888 79.1083 65.3823 79.0763 65.3827ZM77.247 62.4401C77.1876 62.4401 77.1296 62.4599 77.0802 62.497C77.0308 62.5342 76.9924 62.5869 76.9696 62.6487C76.9469 62.7104 76.941 62.7784 76.9526 62.844C76.9641 62.9095 76.9927 62.9697 77.0347 63.017C77.0767 63.0642 77.1302 63.0964 77.1884 63.1095C77.2466 63.1225 77.307 63.1158 77.3618 63.0902C77.4167 63.0647 77.4636 63.0213 77.4965 62.9658C77.5295 62.9102 77.5471 62.8449 77.5471 62.778C77.5475 62.7335 77.54 62.6894 77.5251 62.6482C77.5101 62.607 77.488 62.5696 77.4601 62.5381C77.4321 62.5066 77.3989 62.4818 77.3623 62.4649C77.3257 62.4481 77.2865 62.4397 77.247 62.4401ZM80.9056 62.4401C80.8463 62.4401 80.7882 62.4599 80.7389 62.497C80.6895 62.5342 80.651 62.5869 80.6283 62.6487C80.6056 62.7104 80.5997 62.7784 80.6112 62.844C80.6228 62.9095 80.6514 62.9697 80.6934 63.017C80.7354 63.0642 80.7889 63.0964 80.8471 63.1095C80.9053 63.1225 80.9657 63.1158 81.0205 63.0902C81.0754 63.0647 81.1222 63.0213 81.1552 62.9658C81.1882 62.9102 81.2058 62.8449 81.2058 62.778C81.2062 62.7335 81.1987 62.6894 81.1837 62.6482C81.1688 62.607 81.1467 62.5696 81.1187 62.5381C81.0908 62.5066 81.0575 62.4818 81.021 62.4649C80.9844 62.4481 80.9452 62.4397 80.9056 62.4401ZM84.5643 62.4401C84.4966 62.4386 84.4305 62.4629 84.3766 62.5091C84.3228 62.5553 84.2844 62.6206 84.2677 62.6945C84.2509 62.7683 84.2569 62.8464 84.2845 62.9159C84.3121 62.9855 84.3598 63.0425 84.4199 63.0777C84.5417 62.9215 84.6691 62.7589 84.8022 62.5772C84.7756 62.534 84.74 62.499 84.6985 62.475C84.657 62.4511 84.6109 62.4391 84.5643 62.4401Z" fill="white"/>
<path d="M85.1177 62.1368C85.2026 61.9966 88.5158 56.8987 89.3002 55.464C89.5494 54.9986 89.8099 54.5076 90.062 54.074C90.079 54.0485 90.1186 54.074 90.1045 54.1059C89.9883 54.3928 89.8921 54.6383 89.7675 54.8902C89.7052 55.0113 89.6457 55.1325 89.5834 55.2504C89.725 55.0847 89.8666 54.9316 90.0252 54.7754C90.0282 54.7716 90.0324 54.7693 90.0369 54.769C90.0414 54.7687 90.0459 54.7704 90.0492 54.7738C90.0526 54.7772 90.0547 54.7819 90.0549 54.787C90.0552 54.7921 90.0537 54.7971 90.0506 54.8009C89.9147 54.989 89.7816 55.1771 89.6315 55.3525C89.5636 55.4332 89.4928 55.5097 89.4192 55.582L89.4022 55.6203C88.1439 57.9233 86.7235 60.1089 85.1545 62.156C85.1318 62.1879 85.1007 62.1687 85.1177 62.1368Z" fill="#263238"/>
<path d="M76.6463 56.3976C76.6463 56.3689 76.686 56.3689 76.686 56.3976C76.72 57.8642 76.3292 64.2851 76.1904 65.1172C76.1904 65.1427 76.1479 65.1395 76.1479 65.1172C76.2244 62.0917 76.3462 59.1044 76.6463 56.3976Z" fill="#263238"/>
<path d="M87.2076 35.924C86.9244 36.1057 84.9422 36.3098 84.608 38.1111C84.3532 39.4788 85.1574 40.2152 86.2929 40.3205C87.5474 40.4352 88.9237 39.5362 88.9237 39.5362C89.2068 40.9294 89.5495 42.7243 90.0167 42.9252C90.3962 43.0941 90.838 42.4884 90.838 42.4884C91.3052 43.5756 91.4638 46.0336 91.3505 46.5629C91.0872 47.8094 90.2178 49.6426 91.6507 50.9657C91.965 51.2558 93.1827 51.734 94.372 51.0677C95.5614 50.4014 95.6265 49.2792 96.0541 48.8201C96.4817 48.361 97.8948 48.1824 98.2261 47.226C98.5574 46.2695 98.3167 45.2493 98.4555 44.7807C98.5942 44.312 99.1606 44.1207 99.2002 43.1611C99.2399 42.2015 98.3819 41.9879 98.0392 41.3247C97.7985 40.8624 98.0392 40.2376 97.4898 39.6095C96.7479 38.7455 95.7058 39.4692 94.9016 38.602C94.2729 37.923 92.5654 35.2545 90.3254 34.9644C89.2158 34.8293 88.1019 35.1722 87.2076 35.924Z" fill="#263238"/>
<path d="M92.3502 35.9299C92.8886 36.4105 93.3985 36.9302 93.8766 37.4858C94.1286 37.744 94.3693 38.015 94.6383 38.2477C94.765 38.365 94.9038 38.4645 95.0518 38.5442C95.0843 38.5655 95.1197 38.5805 95.1565 38.5889C95.1934 38.6008 95.2315 38.6073 95.2698 38.608C95.3547 38.608 95.4425 38.608 95.5303 38.608C95.8938 38.5922 96.2577 38.5985 96.6206 38.6271C96.9921 38.6449 97.3483 38.7995 97.6343 39.0671C97.7685 39.2085 97.8663 39.388 97.9175 39.5867C97.9602 39.7872 97.9678 39.9951 97.9402 40.1989C97.8652 40.5851 97.871 40.9857 97.9572 41.3689C97.8257 40.9989 97.7809 40.5972 97.8269 40.2021C97.8431 40.0143 97.8267 39.8248 97.7788 39.6441C97.7206 39.4763 97.6226 39.3296 97.4956 39.2201C97.2254 38.9991 96.9033 38.8727 96.5696 38.8567C96.2241 38.8248 95.8645 38.8567 95.4992 38.8567C95.4086 38.8567 95.3151 38.8567 95.216 38.8567C95.1171 38.8492 95.0207 38.8188 94.9328 38.7674C94.7705 38.6769 94.6192 38.5633 94.4826 38.4294C94.2159 38.1807 93.9643 37.9123 93.7293 37.626L93.0383 36.7716C92.8251 36.4748 92.5953 36.1937 92.3502 35.9299Z" fill="#263238"/>
<path d="M98.6701 44.3909C98.6381 44.6596 98.6544 44.9328 98.7183 45.1943C98.7579 45.4653 98.8004 45.7363 98.8287 46.0105C98.8632 46.2893 98.8708 46.5715 98.8514 46.8521C98.837 47.1451 98.7593 47.4297 98.6248 47.681C98.2925 48.1275 97.8217 48.4147 97.308 48.4845C97.0645 48.5387 96.8238 48.5769 96.5916 48.6375C96.3523 48.6749 96.1248 48.7778 95.929 48.9372C96.1047 48.7385 96.3233 48.5946 96.5633 48.5195C96.7983 48.4366 97.0362 48.3761 97.2684 48.3027C97.7215 48.1593 98.1915 47.9584 98.4436 47.5471C98.5604 47.3281 98.6302 47.0814 98.6475 46.8266C98.6716 46.5608 98.6773 46.2932 98.6645 46.0264C98.6645 45.7554 98.6333 45.4844 98.6135 45.2102C98.6135 45.0731 98.6135 44.936 98.6135 44.7958C98.5995 44.6575 98.619 44.5176 98.6701 44.3909Z" fill="#263238"/>
<path d="M89.1894 39.1631C88.9553 39.4277 88.6916 39.657 88.405 39.8451C88.1249 40.0339 87.8241 40.1807 87.5102 40.2817C87.354 40.3333 87.1951 40.3737 87.0344 40.4028L86.7909 40.441L86.5445 40.4569C86.3794 40.4665 86.214 40.4665 86.049 40.4569C85.8847 40.4569 85.7176 40.4251 85.5477 40.4187C85.7091 40.4761 85.8734 40.527 86.0376 40.5685C86.2058 40.6052 86.3762 40.6276 86.5474 40.6354C86.8916 40.6535 87.2361 40.6072 87.5668 40.4984C87.8987 40.3896 88.2118 40.2183 88.4928 39.9917C88.772 39.7707 89.0088 39.489 89.1894 39.1631Z" fill="#263238"/>
<path d="M89.0519 38.8945C88.8977 39.6255 88.8679 40.3828 88.9641 41.1262C89.0084 41.504 89.112 41.87 89.2699 42.207C89.3446 42.3789 89.4496 42.5317 89.5787 42.6562C89.7077 42.7807 89.858 42.8741 90.0204 42.9307C89.7434 42.747 89.529 42.4642 89.4115 42.1273C89.2896 41.7955 89.2067 41.4472 89.1651 41.0912C89.0815 40.3629 89.0436 39.6288 89.0519 38.8945Z" fill="#263238"/>
<path d="M90.4616 42.8991C90.4616 42.8991 91.229 41.2827 91.8775 41.5697C92.5259 41.8566 92.0559 44.1202 91.3819 44.5123C91.2977 44.5688 91.2043 44.6053 91.1072 44.6198C91.0101 44.6343 90.9113 44.6264 90.817 44.5966C90.7227 44.5667 90.6348 44.5156 90.5586 44.4463C90.4824 44.3771 90.4195 44.291 90.3738 44.1935L90.4616 42.8991Z" fill="#F7A9A0"/>
<path d="M91.7146 42.2136C91.7146 42.2136 91.7316 42.2296 91.7146 42.2359C91.2417 42.5291 91.0378 43.0804 90.9132 43.6413C90.9365 43.584 90.9701 43.5328 91.012 43.491C91.0539 43.4492 91.103 43.4177 91.1563 43.3985C91.2096 43.3793 91.2659 43.3729 91.3216 43.3795C91.3772 43.3862 91.4311 43.4059 91.4796 43.4374C91.4937 43.4374 91.4796 43.4724 91.4796 43.4692C91.389 43.4506 91.2955 43.4639 91.2119 43.5072C91.1283 43.5505 91.0586 43.6219 91.0123 43.7114C90.9366 43.8622 90.8749 44.0213 90.8282 44.1863C90.8113 44.2372 90.7263 44.2213 90.7376 44.1639V44.148C90.6697 43.4405 91.052 42.3793 91.7146 42.2136Z" fill="#263238"/>
<path d="M62.4268 69.301L63.534 72.3138L62.4268 72.8303L61.3139 69.7951L59.4817 71.3956V62.9023L64.763 68.9088L62.4268 69.301Z" fill="#263238"/>
<path d="M60.0002 60.6626C59.9016 60.2307 59.854 59.786 59.8587 59.3401C59.852 58.8961 59.8996 58.4533 60.0002 58.0239C60.1017 58.4563 60.1493 58.9025 60.1418 59.3496C60.1457 59.7924 60.0981 60.2338 60.0002 60.6626Z" fill="#263238"/>
<path d="M57.9754 61.607C57.6331 61.3817 57.3197 61.1051 57.0437 60.7848C56.7582 60.475 56.5124 60.1222 56.3131 59.7363C56.9915 60.2023 57.5613 60.8436 57.9754 61.607Z" fill="#263238"/>
<path d="M57.1355 63.8861C56.3635 64.0981 55.5572 64.0981 54.7852 63.8861C55.5572 63.6742 56.3635 63.6742 57.1355 63.8861Z" fill="#263238"/>
<path d="M57.9754 66.17C57.5613 66.9335 56.9915 67.5747 56.3131 68.0407C56.5124 67.6548 56.7582 67.302 57.0437 66.9922C57.3197 66.6719 57.6331 66.3953 57.9754 66.17Z" fill="#263238"/>
<path d="M62.8677 63.8861C63.6398 63.6742 64.446 63.6742 65.2181 63.8861C64.446 64.0981 63.6398 64.0981 62.8677 63.8861Z" fill="#263238"/>
<path d="M62.026 61.607C62.2272 61.2217 62.4739 60.869 62.7594 60.5585C63.0349 60.2375 63.3484 59.9608 63.6911 59.7363C63.277 60.5008 62.706 61.1423 62.026 61.607Z" fill="#263238"/>
<path d="M15.355 112.919C17.1532 108.758 20.2993 106.622 23.8504 107.802C27.4014 108.982 27.948 114.548 25.3002 115.954C22.6525 117.36 20.0048 113.257 18.6087 112.412C17.2126 111.567 15.355 112.919 15.355 112.919Z" fill="#7EBAEB"/>
<path d="M13.6166 123.994C13.6166 123.493 13.6421 122.989 13.6563 122.489C13.6903 121.488 13.7186 120.487 13.7526 119.485C13.812 117.652 13.9876 115.854 14.6616 114.168C15.2603 112.634 16.26 111.343 17.5273 110.466C17.9954 110.146 18.5004 109.9 19.0282 109.736C19.5067 109.193 20.1145 108.818 20.7782 108.655C21.5988 108.468 22.4423 108.444 23.2702 108.585C23.3014 108.585 23.3014 108.643 23.2702 108.636C22.4805 108.522 21.6785 108.587 20.9113 108.827C20.5828 108.93 20.2641 109.069 19.9598 109.242C19.7683 109.358 19.5847 109.49 19.4105 109.637C20.1257 109.47 20.8645 109.477 21.5768 109.66C21.8344 109.729 22.0863 109.823 22.3301 109.94C22.523 109.89 22.7213 109.87 22.9191 109.883C23.1781 109.891 23.4354 109.932 23.6865 110.004C24.1995 110.167 24.6902 110.408 25.1449 110.721C25.1485 110.726 25.1507 110.731 25.1514 110.737C25.1521 110.743 25.1511 110.749 25.1486 110.754C25.1461 110.759 25.1423 110.764 25.1375 110.766C25.1328 110.769 25.1274 110.77 25.1222 110.769C24.6776 110.494 24.201 110.29 23.7063 110.163C23.4658 110.102 23.2216 110.062 22.9757 110.042C22.8399 110.034 22.7038 110.034 22.5679 110.042C23.5779 110.569 24.3902 111.48 24.8617 112.615C24.8617 112.647 24.8305 112.672 24.8192 112.64C24.5395 111.982 24.1314 111.403 23.6255 110.946C23.1195 110.49 22.5286 110.168 21.8968 110.004C21.8203 109.982 21.7382 109.969 21.6589 109.953C21.679 110.086 21.6922 110.22 21.6986 110.355C21.7212 110.559 21.7524 110.759 21.7892 110.96C21.861 111.373 21.9555 111.779 22.0724 112.178C22.1911 112.582 22.334 112.976 22.5 113.358C22.6599 113.762 22.8614 114.144 23.1003 114.496C23.1022 114.499 23.1035 114.502 23.1043 114.505C23.1051 114.508 23.1053 114.512 23.1049 114.515C23.1045 114.519 23.1035 114.522 23.102 114.525C23.1005 114.528 23.0985 114.531 23.0961 114.533C23.0936 114.535 23.0909 114.536 23.0879 114.537C23.085 114.538 23.0819 114.538 23.0789 114.538C23.0759 114.537 23.073 114.536 23.0703 114.535C23.0677 114.533 23.0654 114.531 23.0635 114.528C22.8511 114.152 22.6019 113.807 22.4065 113.415C22.2205 113.042 22.0595 112.655 21.9251 112.255C21.7911 111.849 21.686 111.432 21.6108 111.008C21.5711 110.782 21.54 110.559 21.5173 110.329C21.4928 110.194 21.4852 110.055 21.4947 109.918C21.0776 109.846 20.6539 109.836 20.2345 109.889C20.3931 110.881 20.563 111.917 21.0558 112.778C21.0727 112.806 21.0303 112.832 21.0161 112.803C20.7845 112.346 20.5802 111.872 20.4044 111.384C20.243 110.909 20.141 110.412 20.1014 109.905C19.3698 110.016 18.6636 110.282 18.0201 110.689C16.8091 111.484 15.842 112.675 15.2477 114.104C14.6234 115.643 14.2741 117.306 14.2198 118.998C14.1037 121.124 14.0782 123.263 13.8885 125.374C13.8885 125.514 13.6818 125.559 13.6591 125.403C13.6046 124.936 13.5904 124.464 13.6166 123.994Z" fill="#263238"/>
<path d="M17.77 110.131C17.8884 109.97 18.0255 109.827 18.1778 109.707C18.325 109.57 18.4779 109.436 18.6337 109.315C18.946 109.076 19.2915 108.896 19.656 108.783C19.6843 108.783 19.6984 108.828 19.656 108.834C19.2892 108.939 18.9459 109.129 18.6478 109.392C18.4978 109.516 18.3647 109.65 18.2117 109.787C18.0904 109.934 17.9556 110.066 17.8096 110.182C17.7841 110.198 17.7502 110.163 17.77 110.131Z" fill="#263238"/>
<path d="M23.506 111.639C23.8005 112.027 24.0729 112.434 24.3216 112.86C24.5673 113.29 24.7723 113.749 24.9332 114.227C24.9332 114.227 24.9332 114.249 24.9134 114.227C24.5018 113.322 24.0154 112.462 23.4607 111.659C23.455 111.649 23.489 111.614 23.506 111.639Z" fill="#263238"/>
<path d="M19.6369 111.228C19.6759 111.488 19.7444 111.74 19.8408 111.98C19.9399 112.212 20.0545 112.434 20.1834 112.646C20.1834 112.662 20.1834 112.675 20.1636 112.665C19.855 112.263 19.6581 111.768 19.5973 111.241C19.5888 111.209 19.6341 111.193 19.6369 111.228Z" fill="#263238"/>
<path d="M13.8646 113.02C13.8646 113.02 11.316 109.418 6.40568 110.696C1.73606 111.908 -0.42177 121.552 4.29883 122.703C9.01942 123.854 8.18121 114.936 9.90577 113.422C11.1688 112.309 12.9953 112.542 13.8646 113.02Z" fill="#7EBAEB"/>
<path d="M2.60963 115.96C2.92917 115.646 3.2669 115.356 3.62058 115.093C3.95464 114.837 4.31749 114.634 4.69949 114.487C4.89336 114.157 5.1102 113.844 5.34797 113.553C5.77807 113.028 6.27649 112.58 6.82617 112.223C6.77803 112.223 6.72989 112.223 6.67891 112.223C6.41858 112.207 6.15767 112.207 5.89734 112.223C5.37387 112.261 4.86073 112.405 4.38233 112.647C4.35401 112.647 4.33419 112.612 4.36251 112.599C4.84828 112.363 5.35665 112.191 5.87752 112.086C6.13069 112.034 6.38764 112.01 6.64493 112.013C6.7821 112.013 6.91915 112.022 7.05554 112.038H7.13483C7.586 111.784 8.06089 111.587 8.55073 111.452L8.4148 111.41C8.17444 111.351 7.93152 111.307 7.68703 111.276C7.19815 111.215 6.70429 111.223 6.21733 111.302C6.18618 111.302 6.17769 111.254 6.21733 111.251C6.70946 111.182 7.20578 111.16 7.70119 111.184C8.118 111.196 8.53263 111.256 8.93868 111.362C9.23414 111.3 9.53319 111.262 9.83353 111.248C11.5326 111.165 13.4157 111.885 14.4692 113.479C15.5226 115.073 15.7322 117.184 15.9191 119.097C16.2056 121.763 16.2691 124.454 16.1088 127.134C16.1088 127.294 15.8992 127.265 15.8964 127.115C15.8313 124.842 15.7605 122.566 15.5679 120.302C15.4773 119.253 15.3782 118.198 15.2224 117.158C15.1115 116.264 14.8834 115.392 14.5456 114.573C14.1817 113.734 13.6053 113.035 12.889 112.564C12.1688 112.1 11.366 111.823 10.5386 111.751C9.79782 111.681 9.05182 111.76 8.33551 111.984C8.35675 112.146 8.35675 112.31 8.33551 112.472C8.32101 112.678 8.28488 112.881 8.2279 113.078C8.1737 113.263 8.1045 113.442 8.02118 113.613C7.93057 113.804 7.81729 113.973 7.71535 114.155C7.69836 114.184 7.65871 114.155 7.6757 114.127C7.87813 113.801 8.00915 113.426 8.058 113.033C8.08913 112.848 8.109 112.66 8.11746 112.472C8.11746 112.328 8.11746 112.185 8.11746 112.041C7.33849 112.312 6.61142 112.745 5.9738 113.317C5.85203 113.425 5.73876 113.54 5.62549 113.658C5.78733 113.826 5.92744 114.02 6.04176 114.232C6.20992 114.509 6.35676 114.803 6.48069 115.108C6.70766 115.72 6.86099 116.364 6.93661 117.021C6.93661 117.053 6.89413 117.063 6.8913 117.021C6.79708 116.381 6.60548 115.764 6.32494 115.198C6.19616 114.917 6.05045 114.646 5.88884 114.388C5.80672 114.254 5.72177 114.123 5.63115 113.996C5.58301 113.926 5.53204 113.856 5.4839 113.782C4.90644 114.419 4.43463 115.168 4.09066 115.992C4.32014 116.268 4.5111 116.582 4.65702 116.923C4.83269 117.279 4.98598 117.648 5.11577 118.029C5.35484 118.766 5.55158 119.52 5.70478 120.286C5.70478 120.318 5.6623 120.327 5.65664 120.286C5.50838 119.512 5.27434 118.762 4.96002 118.054C4.81276 117.707 4.65985 117.366 4.4956 117.028C4.32544 116.719 4.17132 116.4 4.03402 116.071C3.70516 116.874 3.51305 117.739 3.46766 118.622C3.46592 118.627 3.46267 118.632 3.45836 118.636C3.45405 118.639 3.44888 118.641 3.44359 118.641C3.4383 118.641 3.43314 118.639 3.42883 118.636C3.42451 118.632 3.42126 118.627 3.41952 118.622C3.51016 117.232 3.88838 115.886 4.52392 114.691C4.22375 114.834 3.92075 114.971 3.63191 115.147C3.26324 115.369 2.91996 115.641 2.60963 115.957C2.61529 116.023 2.58698 115.982 2.60963 115.96Z" fill="#263238"/>
<path d="M3.09889 114.809C3.29251 114.6 3.51187 114.424 3.7502 114.286C3.99321 114.162 4.24522 114.062 4.50346 113.987C4.53178 113.987 4.54027 114.031 4.50346 114.038C4.24976 114.114 4.00605 114.228 3.77852 114.376C3.54541 114.51 3.32196 114.664 3.11022 114.838C3.10753 114.837 3.105 114.836 3.10286 114.834C3.10071 114.832 3.09901 114.829 3.0979 114.827C3.09679 114.824 3.0963 114.821 3.09647 114.818C3.09664 114.815 3.09747 114.812 3.09889 114.809Z" fill="#263238"/>
<path d="M11.4479 108.21C11.4479 108.21 10.9779 101.738 6.70469 99.6399C3.1338 97.8768 1.1034 102.404 3.6152 105.168C5.65692 107.403 8.92764 106.392 11.4479 108.21Z" fill="#7EBAEB"/>
<path d="M4.40496 100.892C5.05517 101.189 5.68961 101.527 6.30509 101.906C6.8162 102.24 7.30889 102.608 7.78046 103.009C7.70966 102.847 7.64736 102.674 7.57657 102.515C7.46613 102.263 7.34436 102.021 7.2141 101.782C6.95157 101.287 6.63474 100.832 6.27111 100.427C6.25129 100.404 6.27111 100.366 6.30509 100.392C6.66622 100.793 6.99769 101.227 7.29622 101.689C7.44438 101.925 7.58052 102.17 7.704 102.422C7.8293 102.655 7.92464 102.906 7.98718 103.169L8.03532 103.207C8.78203 103.876 9.46614 104.629 10.077 105.454C10.077 105.391 10.0516 105.327 10.0374 105.27C9.95811 104.951 9.87032 104.632 9.7797 104.313C9.59556 103.649 9.3357 103.015 9.00662 102.426C8.98963 102.397 9.03211 102.371 9.04627 102.4C9.38302 102.989 9.68206 103.603 9.94111 104.24C10.0552 104.551 10.1498 104.87 10.2243 105.196C10.2846 105.405 10.3309 105.618 10.363 105.834C10.5471 106.098 10.7312 106.369 10.9039 106.644C12.7389 109.586 13.6593 113.141 13.8801 116.699C13.9443 117.76 13.9604 118.824 13.9283 119.887C13.9218 120.956 13.8375 122.022 13.6762 123.075C13.6762 123.142 13.5715 123.123 13.5743 123.056C13.597 122.122 13.6819 121.191 13.6989 120.254C13.7159 119.317 13.6847 118.379 13.6168 117.445C13.4886 115.597 13.1858 113.769 12.7134 111.993C12.2148 110.152 11.4792 108.404 10.5301 106.803C10.3489 106.762 10.1705 106.707 9.99492 106.656C9.81935 106.605 9.56732 106.532 9.35493 106.465C8.94406 106.346 8.5447 106.182 8.16275 105.974C8.15749 105.97 8.15379 105.964 8.15246 105.957C8.15114 105.951 8.15229 105.943 8.15567 105.937C8.15905 105.932 8.16438 105.927 8.17049 105.926C8.17659 105.924 8.18298 105.926 8.18823 105.929C8.56449 106.16 8.97216 106.318 9.39458 106.398C9.73156 106.475 10.077 106.522 10.414 106.609C10.1025 106.102 9.77404 105.607 9.42006 105.139C8.60477 105.221 7.78302 105.152 6.98755 104.935C6.5652 104.82 6.14994 104.674 5.7444 104.498C5.31397 104.313 4.89486 104.074 4.48708 103.876C4.45593 103.86 4.48708 103.806 4.50691 103.828C5.27203 104.297 6.10707 104.604 6.97056 104.734C7.73298 104.871 8.50353 104.944 9.27564 104.951C8.97264 104.559 8.66114 104.176 8.32416 103.816C7.19144 102.614 5.869 101.507 4.3908 100.93C4.36248 100.934 4.37664 100.879 4.40496 100.892Z" fill="#263238"/>
<path d="M7.88031 100.912C8.07256 101.186 8.24761 101.474 8.4042 101.776C8.56491 102.092 8.69136 102.429 8.78082 102.779H8.76383C8.62224 102.461 8.50048 102.142 8.35606 101.823C8.21489 101.512 8.04397 101.22 7.84633 100.95C7.82651 100.925 7.86049 100.886 7.88031 100.912Z" fill="#263238"/>
<path d="M14.7693 107.046C14.7948 107.323 15.415 104.696 19.017 102.362C22.2991 100.242 26.2154 94.7268 22.9985 91.2453C20.4131 88.4334 13.563 94.561 14.7693 107.046Z" fill="#7EBAEB"/>
<path d="M12.2781 122.107C12.3279 119.37 12.517 116.639 12.8444 113.926C13.129 111.429 13.6404 108.972 14.3708 106.593C14.654 105.739 14.9371 104.897 15.2798 104.068C15.2622 103.749 15.2669 103.43 15.2939 103.112C15.3138 102.697 15.3449 102.283 15.3789 101.868C15.4129 101.454 15.4497 101.043 15.495 100.631C15.5403 100.22 15.6168 99.8088 15.6309 99.3976C15.6309 99.3908 15.6333 99.3843 15.6376 99.3795C15.6418 99.3748 15.6476 99.3721 15.6536 99.3721C15.6596 99.3721 15.6653 99.3748 15.6696 99.3795C15.6738 99.3843 15.6762 99.3908 15.6762 99.3976C15.6016 99.8427 15.5571 100.293 15.5431 100.746C15.5176 101.145 15.4978 101.543 15.4865 101.942C15.4752 102.34 15.4865 102.745 15.4865 103.144C15.4865 103.287 15.4865 103.443 15.4865 103.596C15.8291 102.787 16.1916 102.002 16.5852 101.218C16.3417 99.5315 16.6589 97.7684 16.9647 96.117C16.9647 96.0851 17.0157 96.101 17.01 96.1329C16.8601 96.9943 16.7805 97.8694 16.7721 98.7472C16.7721 99.439 16.7863 100.134 16.7891 100.826C16.8769 100.66 16.9619 100.507 17.0525 100.329C17.5197 99.4677 18.0209 98.6228 18.5533 97.8035C18.5094 97.4033 18.5209 96.9978 18.5873 96.6016C18.6472 96.1575 18.7343 95.7186 18.8478 95.288C18.9639 94.8576 19.097 94.4336 19.2499 94.0128C19.4029 93.5919 19.6153 93.1807 19.7653 92.7375C19.7653 92.7025 19.8248 92.7375 19.8078 92.7598C19.6155 93.1648 19.4635 93.5925 19.3547 94.0351C19.2389 94.4538 19.1443 94.8796 19.0715 95.3104C18.9951 95.7376 18.9328 96.168 18.879 96.6016C18.8422 96.8885 18.8195 97.185 18.777 97.4719C19.5497 96.3022 20.3948 95.1953 21.3058 94.1594C21.3285 94.1339 21.3596 94.1594 21.3398 94.1977C19.9594 95.9388 18.7269 97.8217 17.6585 99.8216L17.5424 100.048C17.7406 99.9077 17.9671 99.7961 18.1569 99.6813C18.5052 99.4613 18.8563 99.2445 19.2103 99.0277C19.5643 98.8109 19.8928 98.6101 20.2326 98.3901C20.4082 98.2785 20.5809 98.1638 20.7593 98.0713C20.9732 97.9653 21.178 97.8372 21.371 97.6887C21.3993 97.6664 21.4276 97.7142 21.3993 97.7334C21.051 97.947 20.7451 98.2658 20.4082 98.5081C20.0712 98.7504 19.7285 98.9863 19.3774 99.2063C18.7346 99.608 18.0379 99.8981 17.3951 100.316C16.9562 101.18 16.5456 102.066 16.1803 102.971C16.5626 102.694 16.9562 102.43 17.3526 102.181C17.6103 102.018 17.8652 101.862 18.1257 101.706C18.3838 101.572 18.6278 101.406 18.8535 101.212C18.8583 101.209 18.8636 101.208 18.8688 101.209C18.874 101.21 18.8788 101.213 18.8825 101.217C18.8862 101.221 18.8887 101.227 18.8896 101.233C18.8905 101.239 18.8897 101.245 18.8875 101.25C18.4739 101.674 18.0166 102.04 17.5254 102.34C17.061 102.643 16.5937 102.94 16.1095 103.204C15.7244 104.161 15.3732 105.117 15.0646 106.118C13.5326 110.948 12.9747 116.103 12.7113 121.214C12.6321 122.738 12.5924 124.262 12.5754 125.789C12.5584 127.316 12.6292 128.834 12.6264 130.358C12.6264 130.402 12.5613 130.412 12.5556 130.358C12.3913 129.006 12.363 127.632 12.3121 126.271C12.2611 124.909 12.2526 123.503 12.2781 122.107Z" fill="#263238"/>
<path d="M18.8446 100.168C19.5046 99.8406 20.1459 99.467 20.7646 99.0496C21.3931 98.6528 22.0019 98.2177 22.5882 97.7462C22.5882 97.7462 22.6081 97.7462 22.5882 97.7653C22.0342 98.2707 21.4494 98.7318 20.8382 99.1452C20.1975 99.5464 19.5355 99.9029 18.8559 100.213C18.8389 100.229 18.8163 100.181 18.8446 100.168Z" fill="#263238"/>
<path d="M17.8074 94.6888C17.8612 94.4529 17.9263 94.2201 17.9971 93.9874C17.9948 93.9837 17.9935 93.9792 17.9935 93.9747C17.9935 93.9701 17.9948 93.9656 17.9971 93.9619C18.0424 93.8312 18.0905 93.7005 18.1387 93.5698L18.1557 93.5219L18.1811 93.4486C18.1642 93.4486 18.1585 93.5411 18.1443 93.5857C18.1404 93.611 18.1337 93.6356 18.1245 93.659C17.8869 94.5635 17.708 95.4863 17.5893 96.42C17.5906 96.4238 17.591 96.428 17.5905 96.4321C17.5901 96.4361 17.5887 96.44 17.5867 96.4434C17.5846 96.4468 17.5818 96.4495 17.5786 96.4515C17.5753 96.4534 17.5717 96.4544 17.5681 96.4544C17.5644 96.4544 17.5608 96.4534 17.5576 96.4515C17.5543 96.4495 17.5516 96.4468 17.5495 96.4434C17.5474 96.44 17.546 96.4361 17.5456 96.4321C17.5451 96.428 17.5456 96.4238 17.5468 96.42C17.5854 95.835 17.6726 95.2554 17.8074 94.6888Z" fill="#263238"/>
<path d="M8.46008 123.101L8.71778 126.541L9.50785 137.037H17.9636L18.7508 126.541L19.0085 123.101H8.46008Z" fill="#455A64"/>
<path d="M8.46008 123.101L8.71778 126.541H18.7508L19.0085 123.101H8.46008Z" fill="#263238"/>
<path d="M7.63626 125.021H19.8441V121.721H7.63626V125.021Z" fill="#455A64"/>
</svg>
