<svg width="24" height="24" viewBox="0 0 24 24" fill="none" xmlns="http://www.w3.org/2000/svg">
<path d="M8.78402 21.9999C7.09802 21.2479 5.70602 20.0759 4.79102 18.5069M14.825 2.18592C16.502 1.70892 18.233 2.16292 19.442 3.39692" stroke="#7EBAEB" stroke-width="1.5" stroke-linecap="round"/>
<path d="M10.4157 9.52598C10.5159 9.69784 10.6804 9.82283 10.8728 9.87347C11.0652 9.9241 11.2698 9.89623 11.4417 9.79598C11.6136 9.69572 11.7385 9.53131 11.7892 9.33889C11.8398 9.14648 11.8119 8.94184 11.7117 8.76998L10.4157 9.52598ZM7.53769 12.133C7.58733 12.2181 7.65324 12.2926 7.73167 12.3522C7.8101 12.4118 7.8995 12.4554 7.99477 12.4805C8.09004 12.5055 8.18932 12.5116 8.28694 12.4983C8.38455 12.485 8.47859 12.4526 8.56369 12.403C8.64879 12.3533 8.72327 12.2874 8.78289 12.209C8.84252 12.1306 8.88611 12.0412 8.91118 11.9459C8.93625 11.8506 8.94231 11.7513 8.92902 11.6537C8.91572 11.5561 8.88333 11.4621 8.83369 11.377L7.53769 12.133ZM16.0467 10.149L16.4197 10.8C16.5056 10.7508 16.581 10.685 16.6414 10.6066C16.7017 10.5281 16.746 10.4384 16.7716 10.3428C16.7971 10.2471 16.8035 10.1473 16.7903 10.0492C16.7771 9.95105 16.7446 9.85649 16.6947 9.77098L16.0467 10.149ZM13.7837 15.3C13.8333 15.3851 13.8992 15.4596 13.9777 15.5192C14.0561 15.5788 14.1455 15.6224 14.2408 15.6475C14.336 15.6725 14.4353 15.6786 14.5329 15.6653C14.6306 15.652 14.7246 15.6196 14.8097 15.57C14.8948 15.5203 14.9693 15.4544 15.0289 15.376C15.0885 15.2976 15.1321 15.2082 15.1572 15.1129C15.1823 15.0176 15.1883 14.9183 15.175 14.8207C15.1617 14.7231 15.1293 14.6291 15.0797 14.544L13.7837 15.3ZM4.38269 9.01798C5.01569 8.65598 5.63969 8.87798 5.85369 9.24498L7.14969 8.48998C6.43369 7.26198 4.82669 7.03598 3.63769 7.71498L4.38269 9.01798ZM3.63769 7.71498C2.44769 8.39598 1.83469 9.89698 2.55469 11.131L3.85069 10.375C3.64069 10.015 3.75069 9.37898 4.38269 9.01798L3.63769 7.71498ZM7.04969 3.74998L7.89169 5.19398L9.18769 4.43798L8.34469 2.99498L7.04969 3.74998ZM7.89169 5.19398L10.4167 9.52498L11.7127 8.76998L9.18769 4.43798L7.89169 5.19398ZM8.83469 11.377L7.14969 8.48998L5.85369 9.24498L7.53769 12.133L8.83469 11.377ZM7.14969 8.48998L5.04469 4.87998L3.74969 5.63598L5.85369 9.24598L7.14969 8.48998ZM5.57669 3.52298C6.21069 3.16098 6.83469 3.38298 7.04869 3.74998L8.34469 2.99498C7.62869 1.76698 6.02169 1.53998 4.83269 2.21998L5.57669 3.52298ZM4.83269 2.21998C3.64269 2.90098 3.02969 4.40198 3.74969 5.63598L5.04469 4.87998C4.83469 4.51998 4.94569 3.88398 5.57669 3.52298L4.83269 2.21998ZM11.1897 3.30798L13.7157 7.63998L15.0117 6.88398L12.4857 2.55298L11.1897 3.30798ZM13.7157 7.63998L15.3997 10.527L16.6947 9.77098L15.0117 6.88398L13.7157 7.63998ZM9.71869 3.07998C10.3517 2.71898 10.9757 2.94098 11.1897 3.30798L12.4857 2.55298C11.7697 1.32498 10.1627 1.09898 8.97369 1.77898L9.71869 3.07998ZM8.97369 1.77898C7.78369 2.45898 7.17069 3.96098 7.89069 5.19498L9.18669 4.43898C8.97669 4.07898 9.08669 3.44298 9.71869 3.08198L8.97369 1.77898ZM17.0147 5.75398L19.5407 10.086L20.8367 9.32898L18.3097 4.99998L17.0147 5.75398ZM15.5437 5.52698C16.1767 5.16498 16.8007 5.38598 17.0147 5.75398L18.3107 4.99898C17.5947 3.77198 15.9877 3.54598 14.7987 4.22498L15.5437 5.52698ZM14.7987 4.22498C13.6087 4.90498 12.9957 6.40598 13.7157 7.63998L15.0117 6.88498C14.8017 6.52498 14.9117 5.88798 15.5437 5.52698L14.7987 4.22498ZM2.55469 11.131L6.34269 17.628L7.63769 16.872L3.85069 10.375L2.55469 11.131ZM16.5847 18.602C13.2177 20.526 9.24669 19.631 7.63769 16.872L6.34269 17.628C8.45369 21.248 13.4077 22.146 17.3297 19.904L16.5847 18.602ZM19.5407 10.085C21.1457 12.838 19.9507 16.679 16.5847 18.602L17.3297 19.904C21.2537 17.662 22.9507 12.955 20.8367 9.32898L19.5407 10.085ZM15.0797 14.545C14.4047 13.386 14.8767 11.682 16.4197 10.8L15.6747 9.49798C13.5727 10.699 12.5997 13.268 13.7837 15.3L15.0797 14.545Z" fill="#7EBAEB"/>
</svg>
