<svg width="20" height="21" viewBox="0 0 20 21" fill="none" xmlns="http://www.w3.org/2000/svg">
<g clip-path="url(#clip0_7913_11732)">
<path d="M0.426172 9.95734C0.425703 11.6509 0.868203 13.3045 1.70961 14.762L0.345703 19.7418L5.44195 18.4055C6.85151 19.1729 8.43081 19.575 10.0357 19.5751H10.0399C15.338 19.5751 19.6507 15.2639 19.653 9.96492C19.654 7.39719 18.6549 4.98266 16.8398 3.16609C15.0249 1.34969 12.6113 0.348828 10.0395 0.347656C4.74086 0.347656 0.428359 4.65859 0.426172 9.95734Z" fill="url(#paint0_linear_7913_11732)"/>
<path d="M0.0835938 9.95438C0.0830469 11.7088 0.541406 13.4216 1.41281 14.9312L0 20.0896L5.27898 18.7055C6.73352 19.4985 8.37117 19.9166 10.0376 19.9173H10.0419C15.53 19.9173 19.9977 15.451 20 9.96234C20.0009 7.30234 18.9659 4.80102 17.0859 2.91937C15.2057 1.03797 12.7057 0.00109375 10.0419 0C4.55281 0 0.0857813 4.46563 0.0835938 9.95438ZM3.22742 14.6713L3.03031 14.3584C2.20172 13.0409 1.76437 11.5184 1.765 9.955C1.76672 5.39289 5.47953 1.68125 10.045 1.68125C12.2559 1.68219 14.3337 2.54406 15.8966 4.10781C17.4593 5.67172 18.3192 7.75063 18.3187 9.96172C18.3166 14.5238 14.6037 18.2359 10.0419 18.2359H10.0386C8.5532 18.2352 7.09641 17.8363 5.82594 17.0824L5.52359 16.9031L2.39094 17.7245L3.22742 14.6713Z" fill="url(#paint1_linear_7913_11732)"/>
<path d="M7.55352 5.79264C7.36711 5.37835 7.17094 5.36999 6.99367 5.36272C6.84852 5.35647 6.68258 5.35694 6.5168 5.35694C6.35086 5.35694 6.08125 5.41936 5.85336 5.66819C5.62523 5.91725 4.98242 6.51913 4.98242 7.74327C4.98242 8.96749 5.87406 10.1505 5.99836 10.3167C6.12281 10.4826 7.71969 13.0751 10.2487 14.0724C12.3506 14.9012 12.7784 14.7364 13.2345 14.6948C13.6908 14.6534 14.7067 14.0931 14.914 13.5121C15.1214 12.9312 15.1214 12.4332 15.0592 12.3291C14.997 12.2255 14.8311 12.1632 14.5823 12.0388C14.3334 11.9144 13.1101 11.3124 12.882 11.2294C12.6539 11.1464 12.488 11.105 12.3221 11.3541C12.1562 11.6029 11.6797 12.1632 11.5345 12.3291C11.3894 12.4955 11.2441 12.5162 10.9954 12.3917C10.7464 12.2669 9.94508 12.0044 8.99438 11.1569C8.25469 10.4973 7.75531 9.68288 7.61016 9.43374C7.465 9.18499 7.59461 9.05015 7.71938 8.92616C7.83117 8.81468 7.96828 8.63561 8.09281 8.49038C8.21688 8.34507 8.25828 8.24139 8.34125 8.07546C8.4243 7.90936 8.38273 7.76405 8.32063 7.6396C8.25828 7.51515 7.77477 6.2846 7.55352 5.79264Z" fill="white"/>
</g>
<defs>
<linearGradient id="paint0_linear_7913_11732" x1="965.709" y1="1939.76" x2="965.709" y2="0.347656" gradientUnits="userSpaceOnUse">
<stop stop-color="#1FAF38"/>
<stop offset="1" stop-color="#60D669"/>
</linearGradient>
<linearGradient id="paint1_linear_7913_11732" x1="1000" y1="2008.96" x2="1000" y2="0" gradientUnits="userSpaceOnUse">
<stop stop-color="#F9F9F9"/>
<stop offset="1" stop-color="white"/>
</linearGradient>
<clipPath id="clip0_7913_11732">
<rect width="20" height="20.1562" fill="white"/>
</clipPath>
</defs>
</svg>
