<svg width="32" height="32" viewBox="0 0 32 32" fill="none" xmlns="http://www.w3.org/2000/svg">
<path d="M5.33268 27.9998C4.59935 27.9998 3.97179 27.7389 3.45002 27.2172C2.92824 26.6954 2.6669 26.0674 2.66602 25.3332V10.6665C2.66602 9.93317 2.92735 9.30561 3.45002 8.78384C3.97268 8.26206 4.60024 8.00073 5.33268 7.99984H10.666V5.33317C10.666 4.59984 10.9274 3.97228 11.45 3.4505C11.9727 2.92873 12.6002 2.66739 13.3327 2.6665H18.666C19.3993 2.6665 20.0273 2.92784 20.55 3.4505C21.0727 3.97317 21.3336 4.60073 21.3327 5.33317V7.99984H26.666C27.3993 7.99984 28.0273 8.26117 28.55 8.78384C29.0727 9.3065 29.3336 9.93406 29.3327 10.6665V25.3332C29.3327 26.0665 29.0718 26.6945 28.55 27.2172C28.0282 27.7398 27.4002 28.0007 26.666 27.9998H5.33268ZM5.33268 25.3332H26.666V10.6665H5.33268V25.3332ZM13.3327 7.99984H18.666V5.33317H13.3327V7.99984Z" fill="#7EBAEB"/>
</svg>
