<svg width="32" height="32" viewBox="0 0 32 32" fill="none" xmlns="http://www.w3.org/2000/svg">
<g clip-path="url(#clip0_7712_2704)">
<path d="M20 2.6665C20.7072 2.6665 21.3855 2.94746 21.8856 3.44755C22.3857 3.94765 22.6667 4.62593 22.6667 5.33317V11.9998H25.3333C26.0406 11.9998 26.7189 12.2808 27.219 12.7809C27.719 13.281 28 13.9593 28 14.6665V27.8665C28 28.0591 27.9621 28.2498 27.8884 28.4278C27.8146 28.6057 27.7066 28.7674 27.5704 28.9036C27.4342 29.0398 27.2725 29.1478 27.0946 29.2215C26.9167 29.2952 26.7259 29.3332 26.5333 29.3332H5.46667C5.27406 29.3332 5.08334 29.2952 4.9054 29.2215C4.72745 29.1478 4.56577 29.0398 4.42958 28.9036C4.29338 28.7674 4.18535 28.6057 4.11164 28.4278C4.03794 28.2498 4 28.0591 4 27.8665V5.33317C4 4.62593 4.28095 3.94765 4.78105 3.44755C5.28115 2.94746 5.95942 2.6665 6.66667 2.6665H20ZM20 5.33317H6.66667V26.6665H9.33333V22.6665C9.33333 21.6056 9.75476 20.5882 10.5049 19.8381C11.2551 19.0879 12.2725 18.6665 13.3333 18.6665C14.3942 18.6665 15.4116 19.0879 16.1618 19.8381C16.9119 20.5882 17.3333 21.6056 17.3333 22.6665V26.6665H20V5.33317ZM25.3333 14.6665H22.6667V26.6665H25.3333V14.6665ZM13.3333 21.3332C13.0068 21.3332 12.6916 21.4531 12.4475 21.6701C12.2035 21.8871 12.0475 22.1862 12.0093 22.5105L12 22.6665V26.6665H14.6667V22.6665C14.6667 22.3129 14.5262 21.9737 14.2761 21.7237C14.0261 21.4736 13.687 21.3332 13.3333 21.3332ZM13.3333 7.99984C13.687 7.99984 14.0261 8.14031 14.2761 8.39036C14.5262 8.64041 14.6667 8.97955 14.6667 9.33317V10.6665H16C16.3536 10.6665 16.6928 10.807 16.9428 11.057C17.1929 11.3071 17.3333 11.6462 17.3333 11.9998C17.3333 12.3535 17.1929 12.6926 16.9428 12.9426C16.6928 13.1927 16.3536 13.3332 16 13.3332H14.6667V14.6665C14.6667 15.0201 14.5262 15.3593 14.2761 15.6093C14.0261 15.8594 13.687 15.9998 13.3333 15.9998C12.9797 15.9998 12.6406 15.8594 12.3905 15.6093C12.1405 15.3593 12 15.0201 12 14.6665V13.3332H10.6667C10.313 13.3332 9.97391 13.1927 9.72386 12.9426C9.47381 12.6926 9.33333 12.3535 9.33333 11.9998C9.33333 11.6462 9.47381 11.3071 9.72386 11.057C9.97391 10.807 10.313 10.6665 10.6667 10.6665H12V9.33317C12 8.97955 12.1405 8.64041 12.3905 8.39036C12.6406 8.14031 12.9797 7.99984 13.3333 7.99984Z" fill="#7EBAEB"/>
</g>
<defs>
<clipPath id="clip0_7712_2704">
<rect width="32" height="32" fill="white"/>
</clipPath>
</defs>
</svg>
