<svg width="52" height="52" viewBox="0 0 52 52" fill="none" xmlns="http://www.w3.org/2000/svg">
<circle cx="26" cy="26" r="26" fill="#7EBAEB"/>
<path d="M23.8804 33.5883L31.4749 26.8489C31.6095 26.7361 31.7307 26.5669 31.8384 26.3413C31.9461 26.0969 32 25.815 32 25.4954C32 25.0818 31.9394 24.781 31.8182 24.593C31.697 24.4051 31.5758 24.2641 31.4547 24.1701L23.8804 17.4307C23.6919 17.2615 23.5169 17.1393 23.3553 17.0641C23.1937 16.9701 23.0254 16.9795 22.8503 17.0923C22.6753 17.1863 22.4868 17.4495 22.2848 17.8818C22.0963 18.2954 22.002 18.6338 22.002 18.897C21.9886 19.1602 22.0424 19.3857 22.1636 19.5737C22.2848 19.7617 22.4329 19.9403 22.608 20.1095L28.7683 25.5236L22.608 30.9377C22.4194 31.0881 22.2713 31.2572 22.1636 31.4452C22.0424 31.6144 21.9886 31.84 22.002 32.122C22.002 32.3852 22.0963 32.7236 22.2848 33.1371C22.4733 33.5507 22.6551 33.8045 22.8301 33.8985C23.0052 34.0113 23.1802 34.0301 23.3553 33.9549C23.5169 33.8797 23.6919 33.7575 23.8804 33.5883Z" fill="white"/>
</svg>
