<svg width="32" height="32" viewBox="0 0 32 32" fill="none" xmlns="http://www.w3.org/2000/svg">
<g clip-path="url(#clip0_7712_2659)">
<path d="M32.0004 12.5598C32.001 12.1254 31.8867 11.6985 31.6689 11.3227C31.4511 10.9468 31.1376 10.6353 30.7604 10.4198L17.2804 2.41983C16.8919 2.19317 16.4501 2.07373 16.0004 2.07373C15.5506 2.07373 15.1089 2.19317 14.7204 2.41983L1.22036 10.4198C0.847302 10.6412 0.538263 10.9558 0.323614 11.3328C0.108965 11.7097 -0.00390625 12.136 -0.00390625 12.5698C-0.00390625 13.0036 0.108965 13.4299 0.323614 13.8069C0.538263 14.1839 0.847302 14.4985 1.22036 14.7198L5.06036 16.9598V22.5798C5.06267 23.0191 5.17795 23.4503 5.39511 23.8321C5.61228 24.2139 5.92402 24.5334 6.30036 24.7598L14.8004 29.6598C15.1799 29.87 15.6066 29.9802 16.0404 29.9802C16.4742 29.9802 16.9008 29.87 17.2804 29.6598L25.7804 24.7598C26.1567 24.5334 26.4684 24.2139 26.6856 23.8321C26.9028 23.4503 27.018 23.0191 27.0204 22.5798V16.8998L29.5004 15.4398V20.8798H32.0004V12.5598ZM24.5404 22.5598L16.0004 27.4798L7.56036 22.5798V18.4398L14.7204 22.6998C15.1102 22.9226 15.5514 23.0397 16.0004 23.0397C16.4493 23.0397 16.8905 22.9226 17.2804 22.6998L24.5204 18.3798L24.5404 22.5598ZM16.0004 20.5398L2.50036 12.5398L16.0004 4.51983L29.5004 12.5198L16.0004 20.5398Z" fill="#7EBAEB"/>
</g>
<defs>
<clipPath id="clip0_7712_2659">
<rect width="32" height="32" fill="white"/>
</clipPath>
</defs>
</svg>
