<svg width="20" height="20" viewBox="0 0 20 20" fill="none" xmlns="http://www.w3.org/2000/svg">
<path d="M10.4121 12.5579C10.2449 12.7213 10.2449 12.9888 10.4084 13.1522L15.7124 18.497C15.9315 18.7199 16.2918 18.7199 16.5146 18.5008L17.3504 17.6688C17.5695 17.4496 17.5732 17.0893 17.3504 16.8665L12.0464 11.529C11.8829 11.3656 11.6155 11.3656 11.4521 11.529L11.4001 11.581L10.6869 10.8642C10.5495 11.0313 10.4009 11.1948 10.2449 11.3508C10.0852 11.5068 9.92179 11.6553 9.75093 11.7928L10.4641 12.5096L10.4121 12.5579ZM1.70579 2.74847C3.97522 0.49761 7.63379 0.516181 9.88093 2.7819C12.1318 5.04761 12.1169 8.70618 9.85122 10.957C7.5855 13.2042 3.92322 13.193 1.67607 10.9236C-0.57107 8.66161 -0.556213 4.99561 1.70579 2.74847ZM2.2035 10.3999C3.15436 11.3619 4.42464 11.8893 5.77664 11.8893C7.1175 11.8893 8.37664 11.373 9.3275 10.4296C11.2998 8.47218 11.3109 5.27418 9.3535 3.3019C8.40265 2.34361 7.13236 1.81618 5.77664 1.81618C4.4395 1.81618 3.18036 2.33247 2.2295 3.2759C1.27493 4.22304 0.747465 5.4859 0.740072 6.83418C0.736359 8.17875 1.25632 9.44532 2.2035 10.3999Z" fill="#7EBAEB"/>
<path d="M2.62322 3.67329C3.46637 2.83386 4.58437 2.37329 5.77665 2.37329C6.9838 2.37329 8.11294 2.84129 8.9598 3.69558C9.79919 4.54243 10.2598 5.67158 10.2561 6.86758C10.2524 8.06729 9.78437 9.19272 8.9338 10.0321C8.09065 10.8716 6.96894 11.3321 5.77665 11.3321C4.57322 11.3321 3.44408 10.8604 2.60094 10.0099C1.75779 9.15929 1.29351 8.03015 1.29722 6.83415C1.30462 5.63815 1.77265 4.51272 2.62322 3.67329ZM9.20122 6.91958L9.73608 6.93072C9.7658 5.54529 9.08237 4.26758 7.90865 3.51729L7.61894 3.96672C8.63665 4.61672 9.22722 5.71986 9.20122 6.91958ZM5.84722 3.42815C6.27437 3.43558 6.69037 3.52472 7.08408 3.68815L7.28837 3.19415C6.83522 3.00476 6.35237 2.90443 5.85465 2.89329H5.7878L5.78037 3.42815H5.84722Z" fill="#7EBAEB"/>
</svg>
