<svg width="52" height="52" viewBox="0 0 52 52" fill="none" xmlns="http://www.w3.org/2000/svg">
<circle cx="26" cy="26" r="26" fill="#7EBAEB"/>
<path d="M26.1196 33.5883L18.5251 26.8489C18.3905 26.7361 18.2693 26.5669 18.1616 26.3413C18.0539 26.0969 18 25.815 18 25.4954C18 25.0818 18.0606 24.781 18.1818 24.593C18.303 24.4051 18.4242 24.2641 18.5453 24.1701L26.1196 17.4307C26.3081 17.2615 26.4831 17.1393 26.6447 17.0641C26.8063 16.9701 26.9746 16.9795 27.1497 17.0923C27.3247 17.1863 27.5132 17.4495 27.7152 17.8818C27.9037 18.2954 27.998 18.6338 27.998 18.897C28.0114 19.1602 27.9576 19.3857 27.8364 19.5737C27.7152 19.7617 27.5671 19.9403 27.392 20.1095L21.2317 25.5236L27.392 30.9377C27.5806 31.0881 27.7287 31.2572 27.8364 31.4452C27.9576 31.6144 28.0114 31.84 27.998 32.122C27.998 32.3852 27.9037 32.7236 27.7152 33.1371C27.5267 33.5507 27.3449 33.8045 27.1699 33.8985C26.9948 34.0113 26.8198 34.0301 26.6447 33.9549C26.4831 33.8797 26.3081 33.7575 26.1196 33.5883Z" fill="white"/>
</svg>
