<svg width="202" height="25" viewBox="0 0 202 25" fill="none" xmlns="http://www.w3.org/2000/svg">
<path d="M6.5641 6.38188C6.4693 6.63772 6.41124 6.88137 6.377 7.06183C6.35997 7.15162 6.34903 7.22467 6.34244 7.27439C6.33991 7.29347 6.33803 7.30907 6.33668 7.32081L5.92775 7.31709L5.58809 6.86513C5.62848 6.66826 5.6921 6.41707 5.79067 6.15106C5.86618 5.94729 5.96698 5.72186 6.10176 5.50162L6.84827 5.80256C6.7341 5.97884 6.64013 6.17667 6.5641 6.38188Z" fill="#F36464"/>
<path fill-rule="evenodd" clip-rule="evenodd" d="M18.5171 5.09196C18.6804 5.09132 18.8389 5.07256 18.9903 5.0378C19.296 4.96757 19.5725 4.83204 19.8003 4.64882C20.1978 4.32904 20.447 3.86398 20.4445 3.34719C20.4399 2.38774 19.5695 1.61332 18.5004 1.61748C17.5548 1.62116 16.7705 2.23263 16.6051 3.03768C16.5835 3.14287 16.5724 3.25137 16.573 3.36225C16.5738 3.53482 16.6027 3.70141 16.6556 3.85855C16.793 4.26599 17.0925 4.60997 17.4866 4.83029C17.5959 4.89145 17.7126 4.94308 17.8351 4.9839C18.0474 5.05464 18.2773 5.09289 18.5171 5.09196ZM18.5207 5.82343C18.9753 5.82166 19.4037 5.72102 19.7806 5.5443C20.0328 5.42608 20.262 5.2738 20.4607 5.09431C20.9573 4.6455 21.2629 4.0265 21.2596 3.34402C21.253 1.98059 20.0161 0.8801 18.4968 0.88601C17.206 0.891031 16.1267 1.69316 15.8353 2.77054C15.7838 2.96118 15.7569 3.16044 15.7579 3.36542C15.7582 3.41875 15.7603 3.47168 15.7643 3.52416C15.8136 4.17694 16.1455 4.75965 16.6506 5.17514C16.8644 5.35096 17.1092 5.49683 17.3767 5.60539C17.7255 5.7469 18.1129 5.82501 18.5207 5.82343Z" fill="#89CAFF"/>
<path d="M15.4982 6.34713C15.5955 6.60222 15.6559 6.84541 15.6919 7.02559C15.7098 7.11525 15.7214 7.18822 15.7285 7.23788C15.7312 7.25694 15.7333 7.27252 15.7347 7.28425L16.1436 7.27735L16.4789 6.82277C16.4366 6.62622 16.3705 6.37553 16.2694 6.1103C16.1919 5.90712 16.089 5.68249 15.9521 5.4633L15.2085 5.77004C15.3243 5.94543 15.4202 6.14252 15.4982 6.34713Z" fill="#89CAFF"/>
<path d="M3.05955 5.09977C2.75314 5.03192 2.47535 4.89855 2.2458 4.7171C2.15021 4.77866 2.05269 4.84298 1.95469 4.9096C1.83379 4.99179 1.71116 5.07813 1.58976 5.16771C1.79012 5.34566 2.02076 5.49614 2.27409 5.6124C2.33132 5.57194 2.389 5.532 2.44684 5.49269C2.65797 5.34916 2.8677 5.21631 3.05955 5.09977Z" fill="#F36464"/>
<path d="M0.884162 7.81122C0.879661 7.80379 0.876454 7.7984 0.874527 7.79514L0.872595 7.79186C0.872595 7.79186 0.872578 7.79183 0.510637 7.95993C0.148695 8.12802 0.148828 8.12825 0.148828 8.12825L0.149407 8.12925L0.150608 8.13131L0.154478 8.1379C0.157714 8.14337 0.162263 8.151 0.168138 8.1607C0.179888 8.18009 0.196945 8.20774 0.219413 8.24297C0.264346 8.31341 0.330956 8.41416 0.420078 8.5396C0.529369 8.69342 0.672651 8.88456 0.851484 9.10258C0.863114 8.60849 0.877803 8.17913 0.895692 7.83006L0.884162 7.81122Z" fill="#F36464"/>
<path fill-rule="evenodd" clip-rule="evenodd" d="M3.53317 5.15024C3.36987 5.15088 3.21121 5.13335 3.05955 5.09977C2.8677 5.21631 2.65797 5.34916 2.44684 5.49269C2.389 5.532 2.33132 5.57194 2.27409 5.6124C2.65275 5.78618 3.08209 5.88348 3.53671 5.88171C3.94446 5.88013 4.33112 5.799 4.67849 5.65479C4.94499 5.54415 5.18838 5.39638 5.40044 5.2189C5.90156 4.7995 6.22777 4.21423 6.27079 3.56109C6.27425 3.50858 6.27588 3.45564 6.27562 3.4023C6.27463 3.19732 6.24583 2.99828 6.19244 2.80805C5.89072 1.73298 4.80369 0.939275 3.51285 0.944296C1.9936 0.950206 0.767348 2.06028 0.773936 3.42371C0.777234 4.10619 1.08881 4.72278 1.58976 5.16771C1.71116 5.07813 1.83379 4.99179 1.95469 4.9096C2.05269 4.84298 2.15021 4.77866 2.2458 4.7171C1.84518 4.40043 1.5915 3.93732 1.589 3.42054C1.58436 2.46108 2.44728 1.67992 3.51638 1.67577C4.46193 1.67209 5.25208 2.27743 5.42529 3.08117C5.44792 3.18619 5.46002 3.2946 5.46055 3.40548C5.46139 3.57805 5.43415 3.74485 5.3827 3.9024C5.24931 4.31089 4.95311 4.65719 4.56118 4.88057C4.4524 4.94258 4.33623 4.99511 4.21413 5.03688C4.0025 5.10927 3.77302 5.14931 3.53317 5.15024ZM6.28213 9.63374L5.48585 9.08455L5.52045 7.29991L5.52147 7.28832L5.52158 7.28714L5.52175 7.28524L5.52232 7.27931C5.5228 7.27442 5.52349 7.26767 5.52442 7.25917C5.52627 7.24218 5.52907 7.21815 5.53308 7.18796C5.54108 7.12763 5.55389 7.04236 5.57349 6.93905C5.57798 6.91538 5.58284 6.89072 5.58809 6.86513L5.92775 7.31709L6.33668 7.32081L6.33635 7.32373L6.33562 7.33037L6.33501 7.33605L6.28213 9.63374Z" fill="#F36464"/>
<path fill-rule="evenodd" clip-rule="evenodd" d="M10.5468 4.87463C10.6887 4.64627 10.8465 4.42326 11.0208 4.21019C11.1971 4.4219 11.357 4.64367 11.5012 4.87091C11.323 5.1139 11.1651 5.37096 11.0276 5.63509C10.8876 5.37204 10.7273 5.11622 10.5468 4.87463ZM11.5122 6.94567C11.6313 6.64937 11.8049 6.26479 12.0323 5.88534C12.1227 6.09811 12.2006 6.30987 12.2664 6.51714C12.3803 6.87615 12.3008 7.21928 12.1777 7.49021C12.0035 7.87342 11.6404 8.08086 11.2553 8.13673C10.8817 8.19091 10.4764 8.13984 9.97942 7.70815L9.97822 7.7071L9.97633 7.7011C9.97455 7.6955 9.97174 7.68676 9.96791 7.67512C9.96026 7.65182 9.94853 7.61694 9.93282 7.57232C9.91232 7.51412 9.88509 7.43956 9.85129 7.35274C9.83321 7.30631 9.81326 7.25637 9.79145 7.20355L9.78486 7.18762C9.73541 6.9845 9.72609 6.75925 9.79746 6.52675C9.86125 6.31897 9.93708 6.10661 10.0254 5.89315C10.2565 6.27081 10.4338 6.65403 10.5557 6.94939C10.5613 6.96278 10.5667 6.97599 10.572 6.98903C10.6167 7.09895 10.6538 7.19644 10.683 7.27656C10.6929 7.30371 10.7019 7.32887 10.71 7.35184L10.713 7.36057C10.8222 7.40281 10.9346 7.42251 11.0363 7.42135C11.067 7.421 11.0968 7.41874 11.1252 7.41462C11.244 7.39739 11.3317 7.35097 11.3881 7.27381C11.4015 7.25557 11.4131 7.23561 11.423 7.21391C11.4588 7.13512 11.4836 7.05878 11.4964 6.98543L11.5122 6.94567Z" fill="#F36464"/>
<path d="M3.51638 1.67577C2.44728 1.67992 1.58436 2.46108 1.589 3.42054C1.5915 3.93732 1.84518 4.40043 2.2458 4.7171C2.47535 4.89855 2.75314 5.03192 3.05955 5.09977C3.21121 5.13335 3.36987 5.15088 3.53317 5.15024C3.77302 5.14931 4.0025 5.10927 4.21413 5.03688C4.33623 4.99511 4.4524 4.94258 4.56118 4.88057C4.95311 4.65719 5.24931 4.31089 5.3827 3.9024C5.43415 3.74485 5.46139 3.57805 5.46055 3.40548C5.46002 3.2946 5.44792 3.18619 5.42529 3.08117C5.25208 2.27743 4.46193 1.67209 3.51638 1.67577Z" fill="#F36464"/>
<path d="M3.3368 23.3487L3.35332 23.3251L3.35738 23.3192L3.29143 23.279C3.30563 23.3087 3.32124 23.3414 3.33071 23.3487L3.3368 23.3487Z" fill="#F36464"/>
<path d="M3.26053 23.2272C3.25471 23.2352 3.25023 23.2412 3.24734 23.2451L3.24425 23.2493L3.2437 23.25C3.2437 23.25 3.24371 23.25 3.25754 23.2584L3.29143 23.279C3.2771 23.2491 3.26422 23.2221 3.26053 23.2272Z" fill="#F36464"/>
<path d="M2.56433 7.18312C2.42804 7.02237 2.17235 6.99121 1.99322 7.11352C1.8141 7.23583 1.77938 7.4653 1.91567 7.62605L1.9174 7.62809L1.9212 7.63252L1.93492 7.6484C1.94677 7.66205 1.96402 7.68175 1.98655 7.70703C2.03159 7.7576 2.09772 7.83053 2.18391 7.92214C2.35624 8.1053 2.609 8.3634 2.93383 8.66679C3.54048 9.2334 4.40199 9.96122 5.46376 10.6541L5.47907 9.74853C4.67617 9.18579 4.01271 8.61872 3.52156 8.15999C3.21025 7.86924 2.96917 7.62294 2.80668 7.45023C2.72546 7.36391 2.66395 7.29604 2.62319 7.25029C2.60281 7.22741 2.58763 7.21007 2.57778 7.19872L2.567 7.18626L2.56465 7.1835L2.56433 7.18312Z" fill="#F36464"/>
<path d="M5.68848 10.7983C5.8854 10.9225 6.07969 11.0394 6.27056 11.1494L6.28525 10.2798C6.24269 10.2535 6.19998 10.2269 6.15713 10.1998C5.92143 10.0512 5.6952 9.90001 5.47907 9.74853L5.46376 10.6541C5.5377 10.7024 5.61261 10.7504 5.68848 10.7983Z" fill="#F36464"/>
<path d="M5.08616 11.6377C3.61035 10.8101 2.55298 9.84296 1.86509 9.08309C1.52141 8.70343 1.27088 8.37653 1.10733 8.14634C1.02559 8.03128 0.965663 7.94052 0.926777 7.87956C0.91423 7.85989 0.903877 7.84333 0.895692 7.83006C0.877803 8.17913 0.863114 8.60849 0.851484 9.10258C0.964223 9.24002 1.09109 9.38814 1.23248 9.54432C1.96329 10.3516 3.0857 11.3784 4.65425 12.258C4.92219 12.4083 5.18068 12.5491 5.42951 12.681L5.44379 11.8357C5.32662 11.7716 5.2074 11.7057 5.08616 11.6377Z" fill="#F36464"/>
<path d="M6.25172 12.2639C5.99434 12.1319 5.72495 11.9894 5.44379 11.8357L5.42951 12.681C5.71136 12.8305 5.98084 12.9685 6.23766 13.096L6.25172 12.2639Z" fill="#F36464"/>
<path d="M10.9491 13.314C10.9486 13.2069 10.8978 13.115 10.7792 13.0236C10.6991 12.9619 10.5951 12.9071 10.4764 12.8606C10.4726 12.8679 10.4688 12.8752 10.4652 12.8826C10.4019 13.0106 10.3645 13.1551 10.3653 13.3163C10.3662 13.5114 10.4033 13.6867 10.4731 13.8409C10.5235 13.832 10.5732 13.8197 10.6201 13.8034C10.7213 13.7682 10.7982 13.7188 10.8506 13.6542C10.9009 13.5921 10.95 13.4901 10.9491 13.314Z" fill="#89CAFF"/>
<path fill-rule="evenodd" clip-rule="evenodd" d="M13.3552 2.57313C13.8494 2.41266 14.437 2.4496 14.9904 2.5561C15.0878 2.57484 15.1859 2.59608 15.2841 2.61945C15.2841 2.61945 15.1497 2.90541 15.1148 3.33603C15.0152 3.31171 14.9166 3.29 14.8195 3.27132C14.3175 3.1747 13.9115 3.17038 13.6326 3.26096C12.7408 3.55055 12.0309 4.14855 11.5012 4.87091C11.323 5.1139 11.1651 5.37096 11.0276 5.63509C10.8429 5.98997 10.6948 6.35761 10.5833 6.72102C10.5576 6.80474 10.5546 6.89447 10.572 6.98903C10.5854 7.06228 10.611 7.13842 10.6476 7.21692C10.6577 7.23855 10.6695 7.25842 10.683 7.27656C10.7402 7.35327 10.8283 7.39901 10.9473 7.41532C10.9757 7.41921 11.0055 7.42124 11.0363 7.42135C11.138 7.42172 11.2502 7.40115 11.3589 7.35805L11.3619 7.34931C11.3698 7.32627 11.3785 7.30104 11.3881 7.27381C11.4166 7.19347 11.4527 7.09569 11.4964 6.98543L11.5122 6.94567C11.6313 6.64937 11.8049 6.26479 12.0323 5.88534C12.0567 5.84466 12.0817 5.80403 12.1074 5.76358C12.3681 5.3518 12.7127 4.92591 13.1505 4.65174C13.6088 4.36467 14.1759 4.24357 14.8007 4.47672C15.1398 4.60327 15.4114 4.80485 15.629 5.03847C15.6884 5.10236 15.7439 5.16864 15.7956 5.23644C15.8521 5.31063 15.9042 5.38663 15.9521 5.4633L15.2085 5.77004C15.0226 5.48868 14.7853 5.26317 14.4877 5.15213C14.1633 5.03105 13.8881 5.08173 13.6169 5.25157C13.3252 5.4343 13.0532 5.75047 12.816 6.12501C12.6446 6.39553 12.5018 6.67989 12.3893 6.93301C12.3485 7.02479 12.3117 7.11246 12.2789 7.19387C12.2576 7.24686 12.2382 7.29695 12.2206 7.34352C12.1876 7.43061 12.1611 7.50537 12.1411 7.56373C12.1259 7.60847 12.1145 7.64345 12.107 7.6668C12.1033 7.67847 12.1006 7.68723 12.0989 7.69284L12.097 7.69886L12.0959 7.69991C11.603 8.13546 11.1983 8.18968 10.8242 8.1384C10.4386 8.08554 10.0735 7.88093 9.8956 7.49909C9.85108 7.40354 9.81195 7.2989 9.78486 7.18762C9.73541 6.9845 9.72609 6.75925 9.79746 6.52675C9.86125 6.31897 9.93708 6.10661 10.0254 5.89315C10.1667 5.55173 10.3398 5.20749 10.5468 4.87463C10.6887 4.64627 10.8465 4.42326 11.0208 4.21019C11.6061 3.49442 12.377 2.8908 13.3552 2.57313Z" fill="#89CAFF"/>
<path d="M14.8195 3.27132C14.3175 3.1747 13.9115 3.17038 13.6326 3.26096C12.7408 3.55055 12.0309 4.14855 11.5012 4.87091C11.7113 5.20216 11.8878 5.54504 12.0323 5.88534C12.0567 5.84466 12.0817 5.80403 12.1074 5.76358C12.3681 5.3518 12.7127 4.92591 13.1505 4.65174C13.6088 4.36467 14.1759 4.24357 14.8007 4.47672C15.1398 4.60327 15.4114 4.80485 15.629 5.03847C15.154 4.42072 15.0776 3.79589 15.1148 3.33603C15.0152 3.31171 14.9166 3.29 14.8195 3.27132Z" fill="#89CAFF"/>
<path d="M11.5012 4.87091C11.323 5.1139 11.1651 5.37096 11.0276 5.63509C11.2158 5.98852 11.3674 6.35499 11.4825 6.71752C11.509 6.80104 11.5128 6.89074 11.4964 6.98543L11.5122 6.94567C11.6313 6.64937 11.8049 6.26479 12.0323 5.88534C11.8878 5.54504 11.7113 5.20216 11.5012 4.87091Z" fill="#89CAFF"/>
<path d="M11.0363 7.42135C11.067 7.421 11.0968 7.41874 11.1252 7.41462C11.244 7.39739 11.3317 7.35097 11.3881 7.27381C11.4166 7.19347 11.4527 7.09569 11.4964 6.98543C11.5128 6.89074 11.509 6.80104 11.4825 6.71752C11.3674 6.35499 11.2158 5.98852 11.0276 5.63509C10.8429 5.98997 10.6948 6.35761 10.5833 6.72102C10.5576 6.80474 10.5546 6.89447 10.572 6.98903C10.6167 7.09895 10.6538 7.19644 10.683 7.27656C10.7402 7.35327 10.8283 7.39901 10.9473 7.41532C10.9757 7.41921 11.0055 7.42124 11.0363 7.42135Z" fill="#89CAFF"/>
<path d="M11.7642 13.3108C11.7651 13.5059 11.7298 13.6815 11.6614 13.8362C11.7221 13.8464 11.7838 13.8516 11.8429 13.8527C11.8959 13.8536 11.943 13.8512 11.9803 13.8473C11.9989 13.8454 12.0139 13.8432 12.0251 13.8412C12.0354 13.8394 12.0412 13.838 12.0412 13.838L12.0563 13.8338L12.0587 13.8331C12.3135 13.7621 13.6396 13.3927 15.8674 12.2265C16.1235 12.0925 16.3915 11.9479 16.6712 11.792C16.7878 11.7271 16.9063 11.6601 17.0269 11.5912C18.4947 10.7522 19.5427 9.77687 20.2232 9.01167C20.5632 8.62936 20.8105 8.30053 20.9718 8.06907C21.0525 7.95338 21.1115 7.86215 21.1498 7.80089C21.1622 7.78112 21.1724 7.76448 21.1804 7.75116C21.1562 7.35434 21.1289 7.06141 21.0985 6.89526C21.0687 6.73256 20.9181 6.50084 20.6253 6.21878C20.5262 6.12324 20.4165 6.02733 20.2998 5.93232C19.5231 6.3614 18.1511 6.82379 16.6776 5.93921C16.3055 5.71589 16.0173 5.47814 15.7956 5.23644C15.8521 5.31063 15.9042 5.38663 15.9521 5.4633C16.089 5.68249 16.1919 5.90712 16.2694 6.1103C16.3705 6.37553 16.4366 6.62622 16.4789 6.82277C16.4844 6.84831 16.4895 6.87294 16.4942 6.89657C16.5148 6.99972 16.5284 7.08489 16.537 7.14516C16.5413 7.17532 16.5443 7.19932 16.5464 7.2163C16.5474 7.22479 16.5481 7.23153 16.5486 7.23642L16.5493 7.24235L16.5496 7.24542L16.5507 7.25701L16.5917 8.80129C16.8956 8.57514 17.2331 8.31466 17.5023 8.08257C17.9453 7.70057 18.54 7.10524 18.8774 6.76107L19.4691 7.15986C19.4787 7.14878 19.4865 7.13977 19.4923 7.13293L19.503 7.12038L19.5053 7.1176L19.5056 7.11722C19.6403 6.95542 19.8957 6.92227 20.076 7.04318C20.2563 7.16409 20.2932 7.39328 20.1585 7.55509L20.1568 7.55714L20.153 7.5616L20.1395 7.57759C20.1278 7.59133 20.1107 7.61116 20.0884 7.63662C20.0439 7.68753 19.9784 7.76098 19.8931 7.85325C19.7226 8.03774 19.4723 8.29781 19.1505 8.60371C18.5493 9.17502 17.6949 9.90951 16.6398 10.6106C16.5663 10.6595 16.4919 10.7081 16.4165 10.7566C16.2208 10.8823 16.0276 11.0007 15.8378 11.1121C13.9218 12.2372 12.3483 12.6546 11.9401 12.7629C11.9095 12.771 11.8854 12.7774 11.8682 12.7822C11.7912 12.8038 11.7175 12.8285 11.6487 12.8561C11.72 12.9889 11.7634 13.1404 11.7642 13.3108Z" fill="#89CAFF"/>
<path d="M18.9233 13.2464C19.1483 13.2455 19.3316 13.4086 19.3326 13.6106L19.3693 21.2042L19.3344 21.2753L19.3149 21.3149L19.2615 21.4238C19.2161 21.5161 19.1528 21.6448 19.0812 21.7902C18.9505 22.0554 18.7917 22.3769 18.6629 22.6348C18.6589 22.6429 18.6582 22.6519 18.6613 22.6603C18.6824 22.7185 18.7216 22.7952 18.7721 22.8797C18.821 22.9616 18.8738 23.0396 18.9151 23.0979C18.9209 23.1062 18.9265 23.1141 18.9318 23.1214L20.7546 23.1143C21.0716 23.1131 21.32 22.8896 21.3215 22.6134C21.3304 21.0197 21.3448 17.4666 21.3212 14.1175C21.3105 12.6002 21.2921 11.1262 21.2618 9.8957C20.7039 10.5016 19.9422 11.2812 19.2885 11.7818C18.5556 12.3431 17.4563 12.9384 16.7117 13.3166L16.9274 21.4341L16.3225 22.3583C16.0985 22.7005 16.3747 23.1313 16.8169 23.1296L17.9963 23.125C17.955 23.0492 17.9154 22.9673 17.8862 22.8865C17.8647 22.8274 17.8447 22.7579 17.8372 22.6849C17.83 22.6157 17.8307 22.5126 17.8834 22.4073C18.0165 22.1413 18.1926 21.7848 18.3357 21.4944C18.4072 21.3493 18.4704 21.2208 18.5157 21.1286L18.5534 21.0518L18.5175 13.6137C18.5165 13.4117 18.6982 13.2473 18.9233 13.2464Z" fill="#89CAFF"/>
<path d="M20.4445 3.34719C20.4399 2.38774 19.5695 1.61332 18.5004 1.61748C17.5548 1.62116 16.7705 2.23263 16.6051 3.03768C16.5835 3.14287 16.5724 3.25137 16.573 3.36225C16.5738 3.53482 16.6027 3.70141 16.6556 3.85855C16.793 4.26599 17.0925 4.60997 17.4866 4.83029C17.5959 4.89145 17.7126 4.94308 17.8351 4.9839C18.0474 5.05464 18.2773 5.09289 18.5171 5.09196C18.6804 5.09132 18.8389 5.07256 18.9903 5.0378C19.296 4.96757 19.5725 4.83204 19.8003 4.64882C20.1978 4.32904 20.447 3.86398 20.4445 3.34719Z" fill="#89CAFF"/>
<path d="M11.3475 13.0214C11.2298 13.1137 11.1799 13.206 11.1804 13.3131C11.1812 13.4892 11.2312 13.5908 11.2822 13.6525C11.3352 13.7167 11.4126 13.7656 11.5141 13.7999C11.5611 13.8158 11.6109 13.8278 11.6614 13.8362C11.7298 13.6815 11.7651 13.5059 11.7642 13.3108C11.7634 13.1404 11.72 12.9889 11.6487 12.8561C11.5304 12.9034 11.427 12.9591 11.3475 13.0214Z" fill="#89CAFF"/>
<path d="M21.1918 7.73222C21.1962 7.72476 21.1994 7.71935 21.2013 7.71607L21.2032 7.71277L21.5667 7.87802C21.9025 8.03066 21.9282 8.0426 21.9301 8.04352L22.0049 7.89505C21.9771 7.38739 21.9436 6.99928 21.9028 6.77656C21.8321 6.39104 21.5387 6.02559 21.2218 5.72026C21.1389 5.6404 21.0509 5.56136 20.9594 5.48361C20.9594 5.48361 20.7144 5.70322 20.2998 5.93232C20.4165 6.02733 20.5262 6.12324 20.6253 6.21878C20.9181 6.50084 21.0687 6.73256 21.0985 6.89526C21.1289 7.06141 21.1562 7.35434 21.1804 7.75116L21.1918 7.73222Z" fill="#89CAFF"/>
<path fill-rule="evenodd" clip-rule="evenodd" d="M10.2355 14.5902C10.2355 14.5902 9.85483 14.1961 9.70091 13.7317C9.70779 13.7338 9.71459 13.736 9.72131 13.738C9.14714 13.5601 7.966 13.1434 6.25172 12.2639L6.23766 13.096C8.31702 14.1282 9.56661 14.4669 9.84106 14.5413L9.85709 14.5456C9.91689 14.5619 10.1261 14.5805 10.2195 14.5888C10.2253 14.5893 10.2307 14.5898 10.2355 14.5902Z" fill="#F36464"/>
<path fill-rule="evenodd" clip-rule="evenodd" d="M2.56433 7.18312C2.42804 7.02237 2.17235 6.99121 1.99322 7.11352C1.8141 7.23583 1.77938 7.4653 1.91567 7.62605L1.9174 7.62809L1.9212 7.63252L1.93492 7.6484C1.94677 7.66205 1.96402 7.68175 1.98655 7.70703C2.03159 7.7576 2.09772 7.83053 2.18391 7.92214C2.35624 8.1053 2.609 8.3634 2.93383 8.66679C3.54048 9.2334 4.40199 9.96122 5.46376 10.6541C5.5377 10.7024 5.61261 10.7504 5.68848 10.7983C5.8854 10.9225 6.07969 11.0394 6.27056 11.1494C7.85759 12.0637 9.20767 12.4998 9.86315 12.6839C9.74559 12.8702 9.6525 13.0874 9.63895 13.3191C9.63087 13.4573 9.65641 13.5974 9.70091 13.7317C9.11943 13.5503 7.94595 13.1331 6.25172 12.2639C5.99434 12.1319 5.72495 11.9894 5.44379 11.8357C5.32662 11.7716 5.2074 11.7057 5.08616 11.6377C3.61035 10.8101 2.55298 9.84296 1.86509 9.08309C1.52141 8.70343 1.27088 8.37653 1.10733 8.14634C1.02559 8.03128 0.965663 7.94052 0.926777 7.87956C0.91423 7.85989 0.903877 7.84333 0.895692 7.83006L0.884162 7.81122C0.879661 7.80379 0.876454 7.7984 0.874527 7.79514L0.872595 7.79186C0.872595 7.79186 0.872578 7.79183 0.510637 7.95993C0.148695 8.12802 0.148828 8.12825 0.148828 8.12825L0.073492 7.96163C0.0962982 7.46295 0.125796 7.0814 0.163978 6.86113C0.230895 6.47507 0.780753 5.82888 1.09465 5.5211C1.09465 5.5211 3.06796 7.07905 5.18169 5.98393C7.29542 4.8888 6.83279 2.59851 6.83279 2.59851C7.38516 2.48771 8.17485 2.43473 8.67056 2.59136C9.57609 2.87748 10.0579 3.1146 10.6309 3.7538C10.6309 3.7538 10.0419 4.45633 9.77113 4.92205C9.50035 5.38777 9.24412 6.13891 9.24412 6.13891C9.00331 5.76622 8.72823 5.45219 8.43473 5.27172C8.16196 5.10401 7.88631 5.05547 7.56303 5.17907C7.26656 5.29242 7.03142 5.51976 6.84827 5.80256L6.10176 5.50162C5.96698 5.72186 5.86618 5.94729 5.79067 6.15106C5.6921 6.41707 5.62848 6.66826 5.58809 6.86513C5.58284 6.89072 5.57798 6.91538 5.57349 6.93905C5.55389 7.04236 5.54108 7.12763 5.53308 7.18796C5.52907 7.21815 5.52627 7.24218 5.52442 7.25917C5.52349 7.26767 5.5228 7.27442 5.52232 7.27931L5.52175 7.28524L5.52158 7.28714L5.52147 7.28832L5.52045 7.29991L5.48585 9.08455C5.48585 9.08455 4.65425 8.41357 4.14695 7.94578C3.78161 7.6089 3.28945 7.10537 3.04261 6.84993L2.56433 7.18312Z" fill="#F36464"/>
<path fill-rule="evenodd" clip-rule="evenodd" d="M9.86315 12.6839C10.0949 12.3168 10.4216 12.07 10.4216 12.07C9.99739 11.9612 8.30392 11.5269 6.28525 10.2798L6.27056 11.1494C7.85759 12.0637 9.20767 12.4998 9.86315 12.6839Z" fill="#F36464"/>
<path fill-rule="evenodd" clip-rule="evenodd" d="M18.9903 5.0378C19.296 4.96757 19.5725 4.83204 19.8003 4.64882C19.8965 4.70963 19.9946 4.77319 20.0932 4.83905C20.2149 4.92029 20.3384 5.00568 20.4607 5.09431C20.262 5.2738 20.0328 5.42608 19.7806 5.5443C19.723 5.50429 19.665 5.4648 19.6068 5.42594C19.3942 5.28406 19.1832 5.15284 18.9903 5.0378ZM21.2618 9.8957C21.7279 9.38954 22.0518 9.00456 22.0518 9.00456C22.0571 9.16508 22.0621 9.33124 22.0669 9.50233C22.1032 10.8091 22.1245 12.4364 22.1362 14.1129C22.1598 17.4662 22.1455 21.0225 22.1366 22.617C22.1328 23.3028 21.5131 23.8428 20.7582 23.8458L19.4694 23.8508L18.9815 23.1888L18.981 23.188L18.9778 23.1839L18.9695 23.1728L18.9645 23.1661C18.9568 23.1558 18.947 23.1425 18.9355 23.1265L18.9318 23.1214L20.7546 23.1143C21.0716 23.1131 21.32 22.8896 21.3215 22.6134C21.3304 21.0197 21.3448 17.4666 21.3212 14.1175C21.3105 12.6002 21.2921 11.1262 21.2618 9.8957ZM18.467 23.8547L18.3104 23.6039L18.3089 23.6019L18.3039 23.5953C18.3017 23.5924 18.2991 23.589 18.2961 23.585C18.2932 23.5811 18.2899 23.5768 18.2863 23.5719C18.2716 23.5521 18.2511 23.5241 18.227 23.49C18.1791 23.4224 18.1152 23.3282 18.0538 23.2254C18.0349 23.1938 18.0154 23.1601 17.9963 23.125L16.8169 23.1296C16.3747 23.1313 16.0985 22.7005 16.3225 22.3583L16.9274 21.4341L16.7117 13.3166C16.2373 13.5577 15.9069 13.7106 15.9069 13.7106L16.107 21.2432L15.6197 21.9878C15.0758 22.8188 15.7465 23.8653 16.8205 23.8611L18.467 23.8547ZM21.6629 8.45697C21.5551 8.61164 21.4136 8.80388 21.2369 9.02328C21.1255 9.16159 21.0001 9.31069 20.8602 9.46797C20.1372 10.2809 19.0248 11.3164 17.4648 12.2082C17.1983 12.3605 16.9412 12.5033 16.6937 12.6372C16.4133 12.7888 16.1451 12.929 15.8896 13.0585C13.8202 14.1068 12.574 14.4552 12.3003 14.5317L12.2843 14.5362C12.1636 14.57 11.9973 14.5871 11.8264 14.584C11.6499 14.5808 11.4369 14.5556 11.2265 14.4844C11.1746 14.4668 11.1221 14.4461 11.0701 14.422C10.9097 14.3477 10.7533 14.2405 10.6274 14.0881C10.5653 14.013 10.5137 13.9305 10.4731 13.8409C10.5235 13.832 10.5732 13.8197 10.6201 13.8034C10.7213 13.7682 10.7982 13.7188 10.8506 13.6542C10.9009 13.5921 10.95 13.4901 10.9491 13.314C10.9486 13.2069 10.8978 13.115 10.7792 13.0236C10.6991 12.9619 10.5951 12.9071 10.4764 12.8606C10.5577 12.7058 10.6769 12.5759 10.8113 12.4705C10.889 12.4096 10.9729 12.3558 11.0599 12.3082C11.2441 12.2076 11.4423 12.1353 11.6252 12.084C11.6421 12.0793 11.6658 12.073 11.6959 12.065C12.119 11.9529 13.8082 11.5055 15.8147 10.2427C15.857 10.2161 15.8995 10.1891 15.9421 10.1618C16.1763 10.0113 16.4011 9.85836 16.6158 9.70521C17.4132 9.13624 18.0711 8.56403 18.5578 8.1015C18.8663 7.80833 19.105 7.56017 19.2658 7.38621C19.3462 7.29925 19.4071 7.23091 19.4474 7.18484L19.4691 7.15986C19.4787 7.14878 19.4865 7.13977 19.4923 7.13293L19.503 7.12038L19.5053 7.1176L19.5056 7.11722C19.6403 6.95542 19.8957 6.92227 20.076 7.04318C20.2563 7.16409 20.2932 7.39328 20.1585 7.55509L20.1568 7.55714L20.153 7.5616L20.1395 7.57759C20.1278 7.59133 20.1107 7.61116 20.0884 7.63662C20.0439 7.68753 19.9784 7.76098 19.8931 7.85325C19.7226 8.03774 19.4723 8.29781 19.1505 8.60371C18.5493 9.17502 17.6949 9.90951 16.6398 10.6106C16.5663 10.6595 16.4919 10.7081 16.4165 10.7566C16.2208 10.8823 16.0276 11.0007 15.8378 11.1121C13.9218 12.2372 12.3483 12.6546 11.9401 12.7629C11.9095 12.771 11.8854 12.7774 11.8682 12.7822C11.7912 12.8038 11.7175 12.8285 11.6487 12.8561C11.5304 12.9034 11.427 12.9591 11.3475 13.0214C11.2298 13.1137 11.1799 13.206 11.1804 13.3131C11.1812 13.4892 11.2312 13.5908 11.2822 13.6525C11.3352 13.7167 11.4126 13.7656 11.5141 13.7999C11.5611 13.8158 11.6109 13.8278 11.6614 13.8362C11.7221 13.8464 11.7838 13.8516 11.8429 13.8527C11.8959 13.8536 11.943 13.8512 11.9803 13.8473C11.9989 13.8454 12.0139 13.8432 12.0251 13.8412C12.0354 13.8394 12.0412 13.838 12.0412 13.838L12.0563 13.8338L12.0587 13.8331C12.3135 13.7621 13.6396 13.3927 15.8674 12.2265C16.1235 12.0925 16.3915 11.9479 16.6712 11.792C16.7878 11.7271 16.9063 11.6601 17.0269 11.5912C18.4947 10.7522 19.5427 9.77687 20.2232 9.01167C20.5632 8.62936 20.8105 8.30053 20.9718 8.06907C21.0525 7.95338 21.1115 7.86215 21.1498 7.80089C21.1622 7.78112 21.1724 7.76448 21.1804 7.75116L21.1918 7.73222C21.1962 7.72476 21.1994 7.71935 21.2013 7.71607L21.2032 7.71277L21.5667 7.87802C21.9303 8.04329 21.9301 8.04352 21.9301 8.04352L21.9296 8.04453L21.9284 8.0466L21.9268 8.04936L21.9246 8.05322C21.9214 8.05872 21.9169 8.06638 21.9111 8.07612C21.8996 8.0956 21.8828 8.12339 21.8607 8.15878C21.8164 8.22957 21.7508 8.33084 21.6629 8.45697ZM16.5507 7.25701L16.5917 8.80129C16.1575 9.12447 15.7917 9.37755 15.7917 9.37755L15.7365 7.29948L15.7359 7.2938L15.7351 7.28717L15.7347 7.28425L16.1436 7.27735L16.4789 6.82277C16.4844 6.84831 16.4895 6.87294 16.4942 6.89657C16.5148 6.99972 16.5284 7.08489 16.537 7.14516C16.5413 7.17532 16.5443 7.19932 16.5464 7.2163C16.5474 7.22479 16.5481 7.23153 16.5486 7.23642L16.5493 7.24235L16.5496 7.24542L16.5507 7.25701ZM17.3767 5.60539C17.1092 5.49683 16.8644 5.35096 16.6506 5.17514L17.4866 4.83029C17.5959 4.89145 17.7126 4.94308 17.8351 4.9839L17.3767 5.60539Z" fill="#89CAFF"/>
<path d="M2.84415 13.8413C2.84318 13.6393 3.02485 13.4749 3.24992 13.474C3.47499 13.4731 3.65824 13.6362 3.65922 13.8382L3.69516 21.2762L3.73365 21.3527C3.77983 21.4446 3.84423 21.5725 3.91714 21.7171C4.06305 22.0064 4.24265 22.3615 4.37833 22.6265C4.43205 22.7314 4.43366 22.8345 4.42717 22.9037C4.42032 22.9767 4.401 23.0464 4.38016 23.1056C4.35166 23.1867 4.31284 23.2689 4.27228 23.345L4.27163 23.3461L4.27114 23.3469L3.92531 23.9113L5.41116 23.9055C6.48509 23.9013 7.14571 22.8497 6.59379 22.0229L6.0993 21.2822L6.17428 13.7485C6.17428 13.7485 4.37996 12.9472 2.91303 11.9089C1.4461 10.8706 0.023892 9.1058 0.023892 9.1058C0.0188593 9.26478 0.0210707 9.29232 0.0237439 9.32561C0.0264565 9.35939 0.0296446 9.39909 0.0262222 9.58806C0.00255147 10.895 -0.00302301 12.5225 0.0013801 14.199C0.0101883 17.5523 0.0589401 21.1084 0.0832105 22.7028C0.0936477 23.3885 0.718556 23.9237 1.47348 23.9208L2.97104 23.915L3.33071 23.3487C3.32124 23.3414 3.30563 23.3087 3.29143 23.279L3.25754 23.2584C3.24371 23.25 3.2437 23.25 3.2437 23.25L3.24425 23.2493L3.24734 23.2451C3.25023 23.2412 3.25471 23.2352 3.26053 23.2272C3.26422 23.2221 3.2771 23.2491 3.29143 23.279L3.35738 23.3192C3.39742 23.2613 3.44763 23.1854 3.49423 23.1057C3.54388 23.0209 3.58236 22.9438 3.60289 22.8855C3.60584 22.8771 3.60505 22.868 3.60096 22.86C3.46976 22.6031 3.30784 22.2829 3.17458 22.0187C3.10154 21.8738 3.03701 21.7457 2.99075 21.6537L2.93625 21.5453L2.91644 21.5058L2.88085 21.4349L2.84415 13.8413Z" fill="#F36464"/>
<path d="M192.465 9.10628L191.874 8.60934C189.777 6.85122 188.392 5.68791 188.392 4.26863C188.392 3.10532 189.378 2.198 190.632 2.198C191.341 2.198 192.021 2.50294 192.465 2.98108C192.908 2.50294 193.589 2.198 194.298 2.198C195.552 2.198 196.537 3.10532 196.537 4.26863C196.537 5.68791 195.153 6.85122 193.055 8.60934L192.465 9.10628Z" fill="#F36464"/>
<path d="M41.7075 3.66139V6.50007H36.8865V21.1959H33.2578V6.50007H28.4368V3.66139H41.7075Z" fill="#89CAFF"/>
<path d="M57.7037 13.9359C57.7037 14.4383 57.6692 14.8905 57.6 15.2924H47.1026C47.189 16.2973 47.5519 17.0844 48.1913 17.6538C48.8306 18.2232 49.6168 18.5079 50.5499 18.5079C51.8978 18.5079 52.8568 17.9469 53.427 16.8248H57.3408C56.9261 18.1646 56.1313 19.2699 54.9563 20.1408C53.7812 20.9949 52.3384 21.422 50.6277 21.422C49.2453 21.422 48.0012 21.1289 46.8953 20.5427C45.8067 19.9398 44.9513 19.0941 44.3293 18.0055C43.7245 16.9169 43.4221 15.6609 43.4221 14.2373C43.4221 12.7971 43.7245 11.5326 44.3293 10.4441C44.9341 9.35549 45.7808 8.51812 46.8694 7.93197C47.958 7.34581 49.2108 7.05273 50.6277 7.05273C51.9928 7.05273 53.211 7.33744 54.2823 7.90684C55.371 8.47625 56.209 9.2885 56.7965 10.3436C57.4013 11.3819 57.7037 12.5794 57.7037 13.9359ZM53.9454 12.9311C53.9281 12.0267 53.5912 11.3066 52.9345 10.7706C52.2779 10.218 51.4744 9.94165 50.524 9.94165C49.6255 9.94165 48.8652 10.2096 48.2431 10.7455C47.6383 11.2647 47.2668 11.9932 47.1286 12.9311H53.9454Z" fill="#89CAFF"/>
<path d="M78.185 7.07785C79.9475 7.07785 81.3644 7.60539 82.4358 8.66048C83.5244 9.69881 84.0687 11.1558 84.0687 13.0315V21.1959H80.44V13.5088C80.44 12.4203 80.1549 11.5913 79.5846 11.0219C79.0144 10.4357 78.2368 10.1426 77.2519 10.1426C76.2669 10.1426 75.4807 10.4357 74.8932 11.0219C74.323 11.5913 74.0379 12.4203 74.0379 13.5088V21.1959H70.4091V13.5088C70.4091 12.4203 70.124 11.5913 69.5538 11.0219C68.9836 10.4357 68.206 10.1426 67.221 10.1426C66.2188 10.1426 65.4239 10.4357 64.8364 11.0219C64.2662 11.5913 63.9811 12.4203 63.9811 13.5088V21.1959H60.3524V7.27882H63.9811V8.96193C64.4476 8.37577 65.0438 7.91522 65.7695 7.58027C66.5126 7.24532 67.3247 7.07785 68.206 7.07785C69.3291 7.07785 70.3314 7.31231 71.2126 7.78124C72.0939 8.23342 72.7764 8.88656 73.2603 9.74068C73.7268 8.93681 74.4007 8.29203 75.282 7.80636C76.1805 7.32069 77.1482 7.07785 78.185 7.07785Z" fill="#89CAFF"/>
<path d="M100.861 13.9359C100.861 14.4383 100.826 14.8905 100.757 15.2924H90.2596C90.346 16.2973 90.7089 17.0844 91.3482 17.6538C91.9876 18.2232 92.7738 18.5079 93.7069 18.5079C95.0547 18.5079 96.0137 17.9469 96.584 16.8248H100.498C100.083 18.1646 99.2882 19.2699 98.1132 20.1408C96.9382 20.9949 95.4954 21.422 93.7847 21.422C92.4023 21.422 91.1582 21.1289 90.0523 20.5427C88.9636 19.9398 88.1083 19.0941 87.4862 18.0055C86.8814 16.9169 86.579 15.6609 86.579 14.2373C86.579 12.7971 86.8814 11.5326 87.4862 10.4441C88.091 9.35549 88.9377 8.51812 90.0263 7.93197C91.115 7.34581 92.3677 7.05273 93.7847 7.05273C95.1498 7.05273 96.368 7.33744 97.4393 7.90684C98.5279 8.47625 99.366 9.2885 99.9535 10.3436C100.558 11.3819 100.861 12.5794 100.861 13.9359ZM97.1024 12.9311C97.0851 12.0267 96.7481 11.3066 96.0915 10.7706C95.4349 10.218 94.6314 9.94165 93.681 9.94165C92.7824 9.94165 92.0221 10.2096 91.4001 10.7455C90.7953 11.2647 90.4238 11.9932 90.2855 12.9311H97.1024Z" fill="#89CAFF"/>
<path d="M111.467 7.07785C113.177 7.07785 114.56 7.60539 115.614 8.66048C116.668 9.69881 117.195 11.1558 117.195 13.0315V21.1959H113.566V13.5088C113.566 12.4035 113.281 11.5578 112.711 10.9716C112.141 10.3687 111.363 10.0673 110.378 10.0673C109.376 10.0673 108.581 10.3687 107.993 10.9716C107.423 11.5578 107.138 12.4035 107.138 13.5088V21.1959H103.509V7.27882H107.138V9.01217C107.622 8.40927 108.235 7.94034 108.978 7.60539C109.739 7.2537 110.568 7.07785 111.467 7.07785Z" fill="#89CAFF"/>
<path d="M125.94 12.4035C125.94 10.6785 126.338 9.13778 127.133 7.78124C127.945 6.40796 129.042 5.3445 130.424 4.59087C131.824 3.82049 133.388 3.4353 135.116 3.4353C137.138 3.4353 138.909 3.93772 140.429 4.94256C141.95 5.94741 143.013 7.33744 143.618 9.11265H139.444C139.03 8.27529 138.442 7.64726 137.682 7.22858C136.939 6.80989 136.075 6.60055 135.09 6.60055C134.036 6.60055 133.094 6.84339 132.265 7.32906C131.453 7.79799 130.813 8.46788 130.347 9.33874C129.897 10.2096 129.673 11.2312 129.673 12.4035C129.673 13.5591 129.897 14.5807 130.347 15.4683C130.813 16.3391 131.453 17.0174 132.265 17.5031C133.094 17.972 134.036 18.2065 135.09 18.2065C136.075 18.2065 136.939 17.9971 137.682 17.5784C138.442 17.143 139.03 16.5066 139.444 15.6692H143.618C143.013 17.4612 141.95 18.8596 140.429 19.8645C138.926 20.8525 137.155 21.3466 135.116 21.3466C133.388 21.3466 131.824 20.9698 130.424 20.2161C129.042 19.4458 127.945 18.3823 127.133 17.0258C126.338 15.6692 125.94 14.1285 125.94 12.4035Z" fill="#F36464"/>
<path d="M145.784 14.1871C145.784 12.7803 146.069 11.5326 146.639 10.4441C147.227 9.35549 148.013 8.51812 148.998 7.93197C150 7.34581 151.115 7.05273 152.341 7.05273C153.413 7.05273 154.346 7.26207 155.141 7.68076C155.953 8.09944 156.601 8.62698 157.085 9.26338V7.27882H160.739V21.1959H157.085V19.1611C156.618 19.8142 155.97 20.3585 155.141 20.7939C154.329 21.2126 153.387 21.422 152.316 21.422C151.106 21.422 150 21.1205 148.998 20.5176C148.013 19.9147 147.227 19.069 146.639 17.9804C146.069 16.8751 145.784 15.6106 145.784 14.1871ZM157.085 14.2373C157.085 13.3832 156.912 12.6547 156.566 12.0518C156.221 11.4322 155.754 10.9632 155.167 10.645C154.579 10.3101 153.948 10.1426 153.275 10.1426C152.601 10.1426 151.979 10.3017 151.408 10.6199C150.838 10.9381 150.372 11.407 150.009 12.0267C149.663 12.6296 149.49 13.3497 149.49 14.1871C149.49 15.0245 149.663 15.7614 150.009 16.3978C150.372 17.0174 150.838 17.4947 151.408 17.8297C151.996 18.1646 152.618 18.3321 153.275 18.3321C153.948 18.3321 154.579 18.173 155.167 17.8548C155.754 17.5198 156.221 17.0509 156.566 16.448C156.912 15.8283 157.085 15.0915 157.085 14.2373Z" fill="#F36464"/>
<path d="M167.912 9.43923C168.379 8.70234 168.984 8.12456 169.727 7.70588C170.487 7.28719 171.351 7.07785 172.318 7.07785V10.7706H171.359C170.219 10.7706 169.355 11.0302 168.768 11.5494C168.197 12.0686 167.912 12.9729 167.912 14.2625V21.1959H164.283V7.27882H167.912V9.43923Z" fill="#F36464"/>
<path d="M188.111 13.9359C188.111 14.4383 188.077 14.8905 188.007 15.2924H177.51C177.596 16.2973 177.959 17.0844 178.599 17.6538C179.238 18.2232 180.024 18.5079 180.957 18.5079C182.305 18.5079 183.264 17.9469 183.834 16.8248H187.748C187.334 18.1646 186.539 19.2699 185.364 20.1408C184.189 20.9949 182.746 21.422 181.035 21.422C179.653 21.422 178.409 21.1289 177.303 20.5427C176.214 19.9398 175.359 19.0941 174.737 18.0055C174.132 16.9169 173.83 15.6609 173.83 14.2373C173.83 12.7971 174.132 11.5326 174.737 10.4441C175.341 9.35549 176.188 8.51812 177.277 7.93197C178.365 7.34581 179.618 7.05273 181.035 7.05273C182.4 7.05273 183.618 7.33744 184.69 7.90684C185.778 8.47625 186.616 9.2885 187.204 10.3436C187.809 11.3819 188.111 12.5794 188.111 13.9359ZM184.353 12.9311C184.336 12.0267 183.999 11.3066 183.342 10.7706C182.685 10.218 181.882 9.94165 180.931 9.94165C180.033 9.94165 179.273 10.2096 178.651 10.7455C178.046 11.2647 177.674 11.9932 177.536 12.9311H184.353Z" fill="#F36464"/>
</svg>
