<svg width="20" height="21" viewBox="0 0 20 21" fill="none" xmlns="http://www.w3.org/2000/svg">
<path d="M0.0835938 9.95438C0.0830469 11.7088 0.541406 13.4216 1.41281 14.9312L0 20.0896L5.27898 18.7055C6.73352 19.4985 8.37117 19.9166 10.0376 19.9173H10.0419C15.53 19.9173 19.9977 15.451 20 9.96234C20.0009 7.30234 18.9659 4.80102 17.0859 2.91937C15.2057 1.03797 12.7057 0.00109375 10.0419 0C4.55281 0 0.0857813 4.46563 0.0835938 9.95438ZM3.22742 14.6713L3.03031 14.3584C2.20172 13.0409 1.76437 11.5184 1.765 9.955C1.76672 5.39289 5.47953 1.68125 10.045 1.68125C12.2559 1.68219 14.3337 2.54406 15.8966 4.10781C17.4593 5.67172 18.3192 7.75063 18.3187 9.96172C18.3166 14.5238 14.6037 18.2359 10.0419 18.2359H10.0386C8.5532 18.2352 7.09641 17.8363 5.82594 17.0824L5.52359 16.9031L2.39094 17.7245L3.22742 14.6713Z" fill="url(#paint0_linear_7913_11734)"/>
<defs>
<linearGradient id="paint0_linear_7913_11734" x1="1000" y1="2008.96" x2="1000" y2="0" gradientUnits="userSpaceOnUse">
<stop stop-color="#F9F9F9"/>
<stop offset="1" stop-color="white"/>
</linearGradient>
</defs>
</svg>
